M48
; DRILL file KiCad 10.0.0 date 2026-04-19T17:34:53
; FORMAT={-:-/ absolute / metric / decimal}
; #@! TF.CreationDate,2026-04-19T17:34:53+08:00
; #@! TF.GenerationSoftware,Kicad,Pcbnew,10.0.0
; #@! TF.FileFunction,Plated,1,4,PTH
FMAT,2
METRIC
; #@! TA.AperFunction,Plated,PTH,ViaDrill
T1C0.300
; #@! TA.AperFunction,Plated,PTH,ComponentDrill
T2C0.300
%
G90
G05
T1
X0.675Y-11.335
X0.675Y-27.335
X0.675Y-43.335
X0.675Y-59.335
X0.736Y-9.507
X0.736Y-25.507
X0.736Y-41.507
X0.736Y-57.507
X0.739Y-7.532
X0.739Y-23.532
X0.739Y-39.532
X0.739Y-55.532
X0.743Y-10.764
X0.743Y-26.764
X0.743Y-42.764
X0.743Y-58.764
X0.75Y-1.0
X0.75Y-17.0
X0.75Y-33.0
X0.75Y-49.0
X0.843Y-8.657
X0.843Y-24.657
X0.843Y-40.657
X0.843Y-56.657
X0.931Y-6.99
X0.931Y-22.99
X0.931Y-38.99
X0.931Y-54.99
X0.986Y-5.257
X0.986Y-21.257
X0.986Y-37.257
X0.986Y-53.257
X1.0Y-10.25
X1.0Y-26.25
X1.0Y-42.25
X1.0Y-58.25
X1.25Y-8.25
X1.25Y-9.25
X1.25Y-11.25
X1.25Y-24.25
X1.25Y-25.25
X1.25Y-27.25
X1.25Y-40.25
X1.25Y-41.25
X1.25Y-43.25
X1.25Y-56.25
X1.25Y-57.25
X1.25Y-59.25
X1.5Y-1.0
X1.5Y-5.0
X1.5Y-5.575
X1.5Y-6.5
X1.5Y-7.075
X1.5Y-15.25
X1.5Y-17.0
X1.5Y-21.0
X1.5Y-21.575
X1.5Y-22.5
X1.5Y-23.075
X1.5Y-31.25
X1.5Y-33.0
X1.5Y-37.0
X1.5Y-37.575
X1.5Y-38.5
X1.5Y-39.075
X1.5Y-47.25
X1.5Y-49.0
X1.5Y-53.0
X1.5Y-53.575
X1.5Y-54.5
X1.5Y-55.075
X1.5Y-63.25
X2.213Y-2.822
X2.213Y-18.822
X2.213Y-34.822
X2.213Y-50.822
X2.475Y-2.311
X2.475Y-18.311
X2.475Y-34.311
X2.475Y-50.311
X2.5Y-14.75
X2.5Y-30.75
X2.5Y-46.75
X2.5Y-62.75
X2.593Y-13.843
X2.593Y-29.843
X2.593Y-45.843
X2.593Y-61.843
X2.693Y-1.779
X2.693Y-17.779
X2.693Y-33.779
X2.693Y-49.779
X2.75Y-12.5
X2.75Y-13.075
X2.75Y-28.5
X2.75Y-29.075
X2.75Y-44.5
X2.75Y-45.075
X2.75Y-60.5
X2.75Y-61.075
X3.0Y-14.25
X3.0Y-30.25
X3.0Y-46.25
X3.0Y-62.25
X3.207Y-1.521
X3.207Y-17.521
X3.207Y-33.521
X3.207Y-49.521
X3.5Y-15.25
X3.5Y-31.25
X3.5Y-47.25
X3.5Y-63.25
X3.721Y-1.264
X3.721Y-17.264
X3.721Y-33.264
X3.721Y-49.264
X3.986Y-14.743
X3.986Y-30.743
X3.986Y-46.743
X3.986Y-62.743
X4.236Y-1.007
X4.236Y-17.007
X4.236Y-33.007
X4.236Y-49.007
X4.5Y-15.0
X4.5Y-31.0
X4.5Y-47.0
X4.5Y-63.0
X4.75Y-0.75
X4.75Y-16.75
X4.75Y-32.75
X4.75Y-48.75
X6.5Y-1.25
X6.5Y-2.25
X6.5Y-11.75
X6.5Y-14.25
X6.5Y-15.0
X6.5Y-17.25
X6.5Y-18.25
X6.5Y-27.75
X6.5Y-30.25
X6.5Y-31.0
X6.5Y-33.25
X6.5Y-34.25
X6.5Y-43.75
X6.5Y-46.25
X6.5Y-47.0
X6.5Y-49.25
X6.5Y-50.25
X6.5Y-59.75
X6.5Y-62.25
X6.5Y-63.0
X7.5Y-1.25
X7.5Y-15.0
X7.5Y-17.25
X7.5Y-31.0
X7.5Y-33.25
X7.5Y-47.0
X7.5Y-49.25
X7.5Y-63.0
X9.25Y-0.75
X9.25Y-16.75
X9.25Y-32.75
X9.25Y-48.75
X9.5Y-15.25
X9.5Y-31.25
X9.5Y-47.25
X9.5Y-63.25
X9.764Y-1.007
X9.764Y-17.007
X9.764Y-33.007
X9.764Y-49.007
X9.907Y-14.843
X9.907Y-30.843
X9.907Y-46.843
X9.907Y-62.843
X10.0Y-11.5
X10.0Y-27.5
X10.0Y-43.5
X10.0Y-59.5
X10.279Y-1.264
X10.279Y-17.264
X10.279Y-33.264
X10.279Y-49.264
X10.43Y-15.082
X10.43Y-31.082
X10.43Y-47.082
X10.43Y-63.082
X10.517Y-1.788
X10.517Y-17.788
X10.517Y-33.788
X10.517Y-49.788
X10.75Y-12.5
X10.75Y-28.5
X10.75Y-44.5
X10.75Y-60.5
X10.942Y-2.175
X10.942Y-18.175
X10.942Y-34.175
X10.942Y-50.175
X11.0Y-13.5
X11.0Y-15.0
X11.0Y-29.5
X11.0Y-31.0
X11.0Y-45.5
X11.0Y-47.0
X11.0Y-61.5
X11.0Y-63.0
X11.257Y-14.486
X11.257Y-30.486
X11.257Y-46.486
X11.257Y-62.486
X11.5Y-2.886
X11.5Y-18.886
X11.5Y-34.886
X11.5Y-50.886
X11.5Y-1.0
X11.5Y-17.0
X11.5Y-33.0
X11.5Y-49.0
X11.501Y-2.311
X11.501Y-18.311
X11.501Y-34.311
X11.501Y-50.311
X11.514Y-13.757
X11.514Y-29.757
X11.514Y-45.757
X11.514Y-61.757
X11.75Y-3.75
X11.75Y-19.75
X11.75Y-35.75
X11.75Y-51.75
X12.25Y-10.407
X12.25Y-26.407
X12.25Y-42.407
X12.25Y-58.407
X12.5Y-8.5
X12.5Y-24.5
X12.5Y-40.5
X12.5Y-56.5
X12.75Y-4.75
X12.75Y-6.25
X12.75Y-15.0
X12.75Y-20.75
X12.75Y-22.25
X12.75Y-31.0
X12.75Y-36.75
X12.75Y-38.25
X12.75Y-47.0
X12.75Y-52.75
X12.75Y-54.25
X12.75Y-63.0
X12.976Y-10.456
X12.976Y-26.456
X12.976Y-42.456
X12.976Y-58.456
X13.0Y-9.75
X13.0Y-25.75
X13.0Y-41.75
X13.0Y-57.75
X13.25Y-0.75
X13.25Y-7.0
X13.25Y-7.575
X13.25Y-8.25
X13.25Y-10.961
X13.25Y-16.75
X13.25Y-23.0
X13.25Y-23.575
X13.25Y-24.25
X13.25Y-26.961
X13.25Y-32.75
X13.25Y-39.0
X13.25Y-39.575
X13.25Y-40.25
X13.25Y-42.961
X13.25Y-48.75
X13.25Y-55.0
X13.25Y-55.575
X13.25Y-56.25
X13.25Y-58.961
X13.257Y-9.236
X13.257Y-25.236
X13.257Y-41.236
X13.257Y-57.236
X13.325Y-5.5
X13.325Y-6.25
X13.325Y-21.5
X13.325Y-22.25
X13.325Y-37.5
X13.325Y-38.25
X13.325Y-53.5
X13.325Y-54.25
X14.675Y-11.335
X14.675Y-27.335
X14.675Y-43.335
X14.675Y-59.335
X14.736Y-9.507
X14.736Y-25.507
X14.736Y-41.507
X14.736Y-57.507
X14.739Y-7.532
X14.739Y-23.532
X14.739Y-39.532
X14.739Y-55.532
X14.743Y-10.764
X14.743Y-26.764
X14.743Y-42.764
X14.743Y-58.764
X14.75Y-1.0
X14.75Y-17.0
X14.75Y-33.0
X14.75Y-49.0
X14.843Y-8.657
X14.843Y-24.657
X14.843Y-40.657
X14.843Y-56.657
X14.931Y-6.99
X14.931Y-22.99
X14.931Y-38.99
X14.931Y-54.99
X14.986Y-5.257
X14.986Y-21.257
X14.986Y-37.257
X14.986Y-53.257
X15.0Y-10.25
X15.0Y-26.25
X15.0Y-42.25
X15.0Y-58.25
X15.25Y-8.25
X15.25Y-9.25
X15.25Y-11.25
X15.25Y-24.25
X15.25Y-25.25
X15.25Y-27.25
X15.25Y-40.25
X15.25Y-41.25
X15.25Y-43.25
X15.25Y-56.25
X15.25Y-57.25
X15.25Y-59.25
X15.5Y-1.0
X15.5Y-5.0
X15.5Y-5.575
X15.5Y-6.5
X15.5Y-7.075
X15.5Y-15.25
X15.5Y-17.0
X15.5Y-21.0
X15.5Y-21.575
X15.5Y-22.5
X15.5Y-23.075
X15.5Y-31.25
X15.5Y-33.0
X15.5Y-37.0
X15.5Y-37.575
X15.5Y-38.5
X15.5Y-39.075
X15.5Y-47.25
X15.5Y-49.0
X15.5Y-53.0
X15.5Y-53.575
X15.5Y-54.5
X15.5Y-55.075
X15.5Y-63.25
X16.213Y-2.822
X16.213Y-18.822
X16.213Y-34.822
X16.213Y-50.822
X16.475Y-2.311
X16.475Y-18.311
X16.475Y-34.311
X16.475Y-50.311
X16.5Y-14.75
X16.5Y-30.75
X16.5Y-46.75
X16.5Y-62.75
X16.593Y-13.843
X16.593Y-29.843
X16.593Y-45.843
X16.593Y-61.843
X16.693Y-1.779
X16.693Y-17.779
X16.693Y-33.779
X16.693Y-49.779
X16.75Y-12.5
X16.75Y-13.075
X16.75Y-28.5
X16.75Y-29.075
X16.75Y-44.5
X16.75Y-45.075
X16.75Y-60.5
X16.75Y-61.075
X17.0Y-14.25
X17.0Y-30.25
X17.0Y-46.25
X17.0Y-62.25
X17.207Y-1.521
X17.207Y-17.521
X17.207Y-33.521
X17.207Y-49.521
X17.5Y-15.25
X17.5Y-31.25
X17.5Y-47.25
X17.5Y-63.25
X17.721Y-1.264
X17.721Y-17.264
X17.721Y-33.264
X17.721Y-49.264
X17.986Y-14.743
X17.986Y-30.743
X17.986Y-46.743
X17.986Y-62.743
X18.236Y-1.007
X18.236Y-17.007
X18.236Y-33.007
X18.236Y-49.007
X18.5Y-15.0
X18.5Y-31.0
X18.5Y-47.0
X18.5Y-63.0
X18.75Y-0.75
X18.75Y-16.75
X18.75Y-32.75
X18.75Y-48.75
X20.5Y-1.25
X20.5Y-2.25
X20.5Y-11.75
X20.5Y-14.25
X20.5Y-15.0
X20.5Y-17.25
X20.5Y-18.25
X20.5Y-27.75
X20.5Y-30.25
X20.5Y-31.0
X20.5Y-33.25
X20.5Y-34.25
X20.5Y-43.75
X20.5Y-46.25
X20.5Y-47.0
X20.5Y-49.25
X20.5Y-50.25
X20.5Y-59.75
X20.5Y-62.25
X20.5Y-63.0
X21.5Y-1.25
X21.5Y-15.0
X21.5Y-17.25
X21.5Y-31.0
X21.5Y-33.25
X21.5Y-47.0
X21.5Y-49.25
X21.5Y-63.0
X23.25Y-0.75
X23.25Y-16.75
X23.25Y-32.75
X23.25Y-48.75
X23.5Y-15.25
X23.5Y-31.25
X23.5Y-47.25
X23.5Y-63.25
X23.764Y-1.007
X23.764Y-17.007
X23.764Y-33.007
X23.764Y-49.007
X23.907Y-14.843
X23.907Y-30.843
X23.907Y-46.843
X23.907Y-62.843
X24.0Y-11.5
X24.0Y-27.5
X24.0Y-43.5
X24.0Y-59.5
X24.279Y-1.264
X24.279Y-17.264
X24.279Y-33.264
X24.279Y-49.264
X24.43Y-15.082
X24.43Y-31.082
X24.43Y-47.082
X24.43Y-63.082
X24.517Y-1.788
X24.517Y-17.788
X24.517Y-33.788
X24.517Y-49.788
X24.75Y-12.5
X24.75Y-28.5
X24.75Y-44.5
X24.75Y-60.5
X24.942Y-2.175
X24.942Y-18.175
X24.942Y-34.175
X24.942Y-50.175
X25.0Y-13.5
X25.0Y-15.0
X25.0Y-29.5
X25.0Y-31.0
X25.0Y-45.5
X25.0Y-47.0
X25.0Y-61.5
X25.0Y-63.0
X25.257Y-14.486
X25.257Y-30.486
X25.257Y-46.486
X25.257Y-62.486
X25.5Y-2.886
X25.5Y-18.886
X25.5Y-34.886
X25.5Y-50.886
X25.5Y-1.0
X25.5Y-17.0
X25.5Y-33.0
X25.5Y-49.0
X25.501Y-2.311
X25.501Y-18.311
X25.501Y-34.311
X25.501Y-50.311
X25.514Y-13.757
X25.514Y-29.757
X25.514Y-45.757
X25.514Y-61.757
X25.75Y-3.75
X25.75Y-19.75
X25.75Y-35.75
X25.75Y-51.75
X26.25Y-10.407
X26.25Y-26.407
X26.25Y-42.407
X26.25Y-58.407
X26.5Y-8.5
X26.5Y-24.5
X26.5Y-40.5
X26.5Y-56.5
X26.75Y-4.75
X26.75Y-6.25
X26.75Y-15.0
X26.75Y-20.75
X26.75Y-22.25
X26.75Y-31.0
X26.75Y-36.75
X26.75Y-38.25
X26.75Y-47.0
X26.75Y-52.75
X26.75Y-54.25
X26.75Y-63.0
X26.976Y-10.456
X26.976Y-26.456
X26.976Y-42.456
X26.976Y-58.456
X27.0Y-9.75
X27.0Y-25.75
X27.0Y-41.75
X27.0Y-57.75
X27.25Y-0.75
X27.25Y-7.0
X27.25Y-7.575
X27.25Y-8.25
X27.25Y-10.961
X27.25Y-16.75
X27.25Y-23.0
X27.25Y-23.575
X27.25Y-24.25
X27.25Y-26.961
X27.25Y-32.75
X27.25Y-39.0
X27.25Y-39.575
X27.25Y-40.25
X27.25Y-42.961
X27.25Y-48.75
X27.25Y-55.0
X27.25Y-55.575
X27.25Y-56.25
X27.25Y-58.961
X27.257Y-9.236
X27.257Y-25.236
X27.257Y-41.236
X27.257Y-57.236
X27.325Y-5.5
X27.325Y-6.25
X27.325Y-21.5
X27.325Y-22.25
X27.325Y-37.5
X27.325Y-38.25
X27.325Y-53.5
X27.325Y-54.25
X28.675Y-11.335
X28.675Y-27.335
X28.675Y-43.335
X28.675Y-59.335
X28.736Y-9.507
X28.736Y-25.507
X28.736Y-41.507
X28.736Y-57.507
X28.739Y-7.532
X28.739Y-23.532
X28.739Y-39.532
X28.739Y-55.532
X28.743Y-10.764
X28.743Y-26.764
X28.743Y-42.764
X28.743Y-58.764
X28.75Y-1.0
X28.75Y-17.0
X28.75Y-33.0
X28.75Y-49.0
X28.843Y-8.657
X28.843Y-24.657
X28.843Y-40.657
X28.843Y-56.657
X28.931Y-6.99
X28.931Y-22.99
X28.931Y-38.99
X28.931Y-54.99
X28.986Y-5.257
X28.986Y-21.257
X28.986Y-37.257
X28.986Y-53.257
X29.0Y-10.25
X29.0Y-26.25
X29.0Y-42.25
X29.0Y-58.25
X29.25Y-8.25
X29.25Y-9.25
X29.25Y-11.25
X29.25Y-24.25
X29.25Y-25.25
X29.25Y-27.25
X29.25Y-40.25
X29.25Y-41.25
X29.25Y-43.25
X29.25Y-56.25
X29.25Y-57.25
X29.25Y-59.25
X29.5Y-1.0
X29.5Y-5.0
X29.5Y-5.575
X29.5Y-6.5
X29.5Y-7.075
X29.5Y-15.25
X29.5Y-17.0
X29.5Y-21.0
X29.5Y-21.575
X29.5Y-22.5
X29.5Y-23.075
X29.5Y-31.25
X29.5Y-33.0
X29.5Y-37.0
X29.5Y-37.575
X29.5Y-38.5
X29.5Y-39.075
X29.5Y-47.25
X29.5Y-49.0
X29.5Y-53.0
X29.5Y-53.575
X29.5Y-54.5
X29.5Y-55.075
X29.5Y-63.25
X30.213Y-2.822
X30.213Y-18.822
X30.213Y-34.822
X30.213Y-50.822
X30.475Y-2.311
X30.475Y-18.311
X30.475Y-34.311
X30.475Y-50.311
X30.5Y-14.75
X30.5Y-30.75
X30.5Y-46.75
X30.5Y-62.75
X30.593Y-13.843
X30.593Y-29.843
X30.593Y-45.843
X30.593Y-61.843
X30.693Y-1.779
X30.693Y-17.779
X30.693Y-33.779
X30.693Y-49.779
X30.75Y-12.5
X30.75Y-13.075
X30.75Y-28.5
X30.75Y-29.075
X30.75Y-44.5
X30.75Y-45.075
X30.75Y-60.5
X30.75Y-61.075
X31.0Y-14.25
X31.0Y-30.25
X31.0Y-46.25
X31.0Y-62.25
X31.207Y-1.521
X31.207Y-17.521
X31.207Y-33.521
X31.207Y-49.521
X31.5Y-15.25
X31.5Y-31.25
X31.5Y-47.25
X31.5Y-63.25
X31.721Y-1.264
X31.721Y-17.264
X31.721Y-33.264
X31.721Y-49.264
X31.986Y-14.743
X31.986Y-30.743
X31.986Y-46.743
X31.986Y-62.743
X32.236Y-1.007
X32.236Y-17.007
X32.236Y-33.007
X32.236Y-49.007
X32.5Y-15.0
X32.5Y-31.0
X32.5Y-47.0
X32.5Y-63.0
X32.75Y-0.75
X32.75Y-16.75
X32.75Y-32.75
X32.75Y-48.75
X34.5Y-1.25
X34.5Y-2.25
X34.5Y-11.75
X34.5Y-14.25
X34.5Y-15.0
X34.5Y-17.25
X34.5Y-18.25
X34.5Y-27.75
X34.5Y-30.25
X34.5Y-31.0
X34.5Y-33.25
X34.5Y-34.25
X34.5Y-43.75
X34.5Y-46.25
X34.5Y-47.0
X34.5Y-49.25
X34.5Y-50.25
X34.5Y-59.75
X34.5Y-62.25
X34.5Y-63.0
X35.5Y-1.25
X35.5Y-15.0
X35.5Y-17.25
X35.5Y-31.0
X35.5Y-33.25
X35.5Y-47.0
X35.5Y-49.25
X35.5Y-63.0
X37.25Y-0.75
X37.25Y-16.75
X37.25Y-32.75
X37.25Y-48.75
X37.5Y-15.25
X37.5Y-31.25
X37.5Y-47.25
X37.5Y-63.25
X37.764Y-1.007
X37.764Y-17.007
X37.764Y-33.007
X37.764Y-49.007
X37.907Y-14.843
X37.907Y-30.843
X37.907Y-46.843
X37.907Y-62.843
X38.0Y-11.5
X38.0Y-27.5
X38.0Y-43.5
X38.0Y-59.5
X38.279Y-1.264
X38.279Y-17.264
X38.279Y-33.264
X38.279Y-49.264
X38.43Y-15.082
X38.43Y-31.082
X38.43Y-47.082
X38.43Y-63.082
X38.517Y-1.788
X38.517Y-17.788
X38.517Y-33.788
X38.517Y-49.788
X38.75Y-12.5
X38.75Y-28.5
X38.75Y-44.5
X38.75Y-60.5
X38.942Y-2.175
X38.942Y-18.175
X38.942Y-34.175
X38.942Y-50.175
X39.0Y-13.5
X39.0Y-15.0
X39.0Y-29.5
X39.0Y-31.0
X39.0Y-45.5
X39.0Y-47.0
X39.0Y-61.5
X39.0Y-63.0
X39.257Y-14.486
X39.257Y-30.486
X39.257Y-46.486
X39.257Y-62.486
X39.5Y-2.886
X39.5Y-18.886
X39.5Y-34.886
X39.5Y-50.886
X39.5Y-1.0
X39.5Y-17.0
X39.5Y-33.0
X39.5Y-49.0
X39.501Y-2.311
X39.501Y-18.311
X39.501Y-34.311
X39.501Y-50.311
X39.514Y-13.757
X39.514Y-29.757
X39.514Y-45.757
X39.514Y-61.757
X39.75Y-3.75
X39.75Y-19.75
X39.75Y-35.75
X39.75Y-51.75
X40.25Y-10.407
X40.25Y-26.407
X40.25Y-42.407
X40.25Y-58.407
X40.5Y-8.5
X40.5Y-24.5
X40.5Y-40.5
X40.5Y-56.5
X40.75Y-4.75
X40.75Y-6.25
X40.75Y-15.0
X40.75Y-20.75
X40.75Y-22.25
X40.75Y-31.0
X40.75Y-36.75
X40.75Y-38.25
X40.75Y-47.0
X40.75Y-52.75
X40.75Y-54.25
X40.75Y-63.0
X40.976Y-10.456
X40.976Y-26.456
X40.976Y-42.456
X40.976Y-58.456
X41.0Y-9.75
X41.0Y-25.75
X41.0Y-41.75
X41.0Y-57.75
X41.25Y-0.75
X41.25Y-7.0
X41.25Y-7.575
X41.25Y-8.25
X41.25Y-10.961
X41.25Y-16.75
X41.25Y-23.0
X41.25Y-23.575
X41.25Y-24.25
X41.25Y-26.961
X41.25Y-32.75
X41.25Y-39.0
X41.25Y-39.575
X41.25Y-40.25
X41.25Y-42.961
X41.25Y-48.75
X41.25Y-55.0
X41.25Y-55.575
X41.25Y-56.25
X41.25Y-58.961
X41.257Y-9.236
X41.257Y-25.236
X41.257Y-41.236
X41.257Y-57.236
X41.325Y-5.5
X41.325Y-6.25
X41.325Y-21.5
X41.325Y-22.25
X41.325Y-37.5
X41.325Y-38.25
X41.325Y-53.5
X41.325Y-54.25
X42.675Y-11.335
X42.675Y-27.335
X42.675Y-43.335
X42.675Y-59.335
X42.736Y-9.507
X42.736Y-25.507
X42.736Y-41.507
X42.736Y-57.507
X42.739Y-7.532
X42.739Y-23.532
X42.739Y-39.532
X42.739Y-55.532
X42.743Y-10.764
X42.743Y-26.764
X42.743Y-42.764
X42.743Y-58.764
X42.75Y-1.0
X42.75Y-17.0
X42.75Y-33.0
X42.75Y-49.0
X42.843Y-8.657
X42.843Y-24.657
X42.843Y-40.657
X42.843Y-56.657
X42.931Y-6.99
X42.931Y-22.99
X42.931Y-38.99
X42.931Y-54.99
X42.986Y-5.257
X42.986Y-21.257
X42.986Y-37.257
X42.986Y-53.257
X43.0Y-10.25
X43.0Y-26.25
X43.0Y-42.25
X43.0Y-58.25
X43.25Y-8.25
X43.25Y-9.25
X43.25Y-11.25
X43.25Y-24.25
X43.25Y-25.25
X43.25Y-27.25
X43.25Y-40.25
X43.25Y-41.25
X43.25Y-43.25
X43.25Y-56.25
X43.25Y-57.25
X43.25Y-59.25
X43.5Y-1.0
X43.5Y-5.0
X43.5Y-5.575
X43.5Y-6.5
X43.5Y-7.075
X43.5Y-15.25
X43.5Y-17.0
X43.5Y-21.0
X43.5Y-21.575
X43.5Y-22.5
X43.5Y-23.075
X43.5Y-31.25
X43.5Y-33.0
X43.5Y-37.0
X43.5Y-37.575
X43.5Y-38.5
X43.5Y-39.075
X43.5Y-47.25
X43.5Y-49.0
X43.5Y-53.0
X43.5Y-53.575
X43.5Y-54.5
X43.5Y-55.075
X43.5Y-63.25
X44.213Y-2.822
X44.213Y-18.822
X44.213Y-34.822
X44.213Y-50.822
X44.475Y-2.311
X44.475Y-18.311
X44.475Y-34.311
X44.475Y-50.311
X44.5Y-14.75
X44.5Y-30.75
X44.5Y-46.75
X44.5Y-62.75
X44.593Y-13.843
X44.593Y-29.843
X44.593Y-45.843
X44.593Y-61.843
X44.693Y-1.779
X44.693Y-17.779
X44.693Y-33.779
X44.693Y-49.779
X44.75Y-12.5
X44.75Y-13.075
X44.75Y-28.5
X44.75Y-29.075
X44.75Y-44.5
X44.75Y-45.075
X44.75Y-60.5
X44.75Y-61.075
X45.0Y-14.25
X45.0Y-30.25
X45.0Y-46.25
X45.0Y-62.25
X45.207Y-1.521
X45.207Y-17.521
X45.207Y-33.521
X45.207Y-49.521
X45.5Y-15.25
X45.5Y-31.25
X45.5Y-47.25
X45.5Y-63.25
X45.721Y-1.264
X45.721Y-17.264
X45.721Y-33.264
X45.721Y-49.264
X45.986Y-14.743
X45.986Y-30.743
X45.986Y-46.743
X45.986Y-62.743
X46.236Y-1.007
X46.236Y-17.007
X46.236Y-33.007
X46.236Y-49.007
X46.5Y-15.0
X46.5Y-31.0
X46.5Y-47.0
X46.5Y-63.0
X46.75Y-0.75
X46.75Y-16.75
X46.75Y-32.75
X46.75Y-48.75
X48.5Y-1.25
X48.5Y-2.25
X48.5Y-11.75
X48.5Y-14.25
X48.5Y-15.0
X48.5Y-17.25
X48.5Y-18.25
X48.5Y-27.75
X48.5Y-30.25
X48.5Y-31.0
X48.5Y-33.25
X48.5Y-34.25
X48.5Y-43.75
X48.5Y-46.25
X48.5Y-47.0
X48.5Y-49.25
X48.5Y-50.25
X48.5Y-59.75
X48.5Y-62.25
X48.5Y-63.0
X49.5Y-1.25
X49.5Y-15.0
X49.5Y-17.25
X49.5Y-31.0
X49.5Y-33.25
X49.5Y-47.0
X49.5Y-49.25
X49.5Y-63.0
X51.25Y-0.75
X51.25Y-16.75
X51.25Y-32.75
X51.25Y-48.75
X51.5Y-15.25
X51.5Y-31.25
X51.5Y-47.25
X51.5Y-63.25
X51.764Y-1.007
X51.764Y-17.007
X51.764Y-33.007
X51.764Y-49.007
X51.907Y-14.843
X51.907Y-30.843
X51.907Y-46.843
X51.907Y-62.843
X52.0Y-11.5
X52.0Y-27.5
X52.0Y-43.5
X52.0Y-59.5
X52.279Y-1.264
X52.279Y-17.264
X52.279Y-33.264
X52.279Y-49.264
X52.43Y-15.082
X52.43Y-31.082
X52.43Y-47.082
X52.43Y-63.082
X52.517Y-1.788
X52.517Y-17.788
X52.517Y-33.788
X52.517Y-49.788
X52.75Y-12.5
X52.75Y-28.5
X52.75Y-44.5
X52.75Y-60.5
X52.942Y-2.175
X52.942Y-18.175
X52.942Y-34.175
X52.942Y-50.175
X53.0Y-13.5
X53.0Y-15.0
X53.0Y-29.5
X53.0Y-31.0
X53.0Y-45.5
X53.0Y-47.0
X53.0Y-61.5
X53.0Y-63.0
X53.257Y-14.486
X53.257Y-30.486
X53.257Y-46.486
X53.257Y-62.486
X53.5Y-2.886
X53.5Y-18.886
X53.5Y-34.886
X53.5Y-50.886
X53.5Y-1.0
X53.5Y-17.0
X53.5Y-33.0
X53.5Y-49.0
X53.501Y-2.311
X53.501Y-18.311
X53.501Y-34.311
X53.501Y-50.311
X53.514Y-13.757
X53.514Y-29.757
X53.514Y-45.757
X53.514Y-61.757
X53.75Y-3.75
X53.75Y-19.75
X53.75Y-35.75
X53.75Y-51.75
X54.25Y-10.407
X54.25Y-26.407
X54.25Y-42.407
X54.25Y-58.407
X54.5Y-8.5
X54.5Y-24.5
X54.5Y-40.5
X54.5Y-56.5
X54.75Y-4.75
X54.75Y-6.25
X54.75Y-15.0
X54.75Y-20.75
X54.75Y-22.25
X54.75Y-31.0
X54.75Y-36.75
X54.75Y-38.25
X54.75Y-47.0
X54.75Y-52.75
X54.75Y-54.25
X54.75Y-63.0
X54.976Y-10.456
X54.976Y-26.456
X54.976Y-42.456
X54.976Y-58.456
X55.0Y-9.75
X55.0Y-25.75
X55.0Y-41.75
X55.0Y-57.75
X55.25Y-0.75
X55.25Y-7.0
X55.25Y-7.575
X55.25Y-8.25
X55.25Y-10.961
X55.25Y-16.75
X55.25Y-23.0
X55.25Y-23.575
X55.25Y-24.25
X55.25Y-26.961
X55.25Y-32.75
X55.25Y-39.0
X55.25Y-39.575
X55.25Y-40.25
X55.25Y-42.961
X55.25Y-48.75
X55.25Y-55.0
X55.25Y-55.575
X55.25Y-56.25
X55.25Y-58.961
X55.257Y-9.236
X55.257Y-25.236
X55.257Y-41.236
X55.257Y-57.236
X55.325Y-5.5
X55.325Y-6.25
X55.325Y-21.5
X55.325Y-22.25
X55.325Y-37.5
X55.325Y-38.25
X55.325Y-53.5
X55.325Y-54.25
X56.675Y-11.335
X56.675Y-27.335
X56.675Y-43.335
X56.675Y-59.335
X56.736Y-9.507
X56.736Y-25.507
X56.736Y-41.507
X56.736Y-57.507
X56.739Y-7.532
X56.739Y-23.532
X56.739Y-39.532
X56.739Y-55.532
X56.743Y-10.764
X56.743Y-26.764
X56.743Y-42.764
X56.743Y-58.764
X56.75Y-1.0
X56.75Y-17.0
X56.75Y-33.0
X56.75Y-49.0
X56.843Y-8.657
X56.843Y-24.657
X56.843Y-40.657
X56.843Y-56.657
X56.931Y-6.99
X56.931Y-22.99
X56.931Y-38.99
X56.931Y-54.99
X56.986Y-5.257
X56.986Y-21.257
X56.986Y-37.257
X56.986Y-53.257
X57.0Y-10.25
X57.0Y-26.25
X57.0Y-42.25
X57.0Y-58.25
X57.25Y-8.25
X57.25Y-9.25
X57.25Y-11.25
X57.25Y-24.25
X57.25Y-25.25
X57.25Y-27.25
X57.25Y-40.25
X57.25Y-41.25
X57.25Y-43.25
X57.25Y-56.25
X57.25Y-57.25
X57.25Y-59.25
X57.5Y-1.0
X57.5Y-5.0
X57.5Y-5.575
X57.5Y-6.5
X57.5Y-7.075
X57.5Y-15.25
X57.5Y-17.0
X57.5Y-21.0
X57.5Y-21.575
X57.5Y-22.5
X57.5Y-23.075
X57.5Y-31.25
X57.5Y-33.0
X57.5Y-37.0
X57.5Y-37.575
X57.5Y-38.5
X57.5Y-39.075
X57.5Y-47.25
X57.5Y-49.0
X57.5Y-53.0
X57.5Y-53.575
X57.5Y-54.5
X57.5Y-55.075
X57.5Y-63.25
X58.213Y-2.822
X58.213Y-18.822
X58.213Y-34.822
X58.213Y-50.822
X58.475Y-2.311
X58.475Y-18.311
X58.475Y-34.311
X58.475Y-50.311
X58.5Y-14.75
X58.5Y-30.75
X58.5Y-46.75
X58.5Y-62.75
X58.593Y-13.843
X58.593Y-29.843
X58.593Y-45.843
X58.593Y-61.843
X58.693Y-1.779
X58.693Y-17.779
X58.693Y-33.779
X58.693Y-49.779
X58.75Y-12.5
X58.75Y-13.075
X58.75Y-28.5
X58.75Y-29.075
X58.75Y-44.5
X58.75Y-45.075
X58.75Y-60.5
X58.75Y-61.075
X59.0Y-14.25
X59.0Y-30.25
X59.0Y-46.25
X59.0Y-62.25
X59.207Y-1.521
X59.207Y-17.521
X59.207Y-33.521
X59.207Y-49.521
X59.5Y-15.25
X59.5Y-31.25
X59.5Y-47.25
X59.5Y-63.25
X59.721Y-1.264
X59.721Y-17.264
X59.721Y-33.264
X59.721Y-49.264
X59.986Y-14.743
X59.986Y-30.743
X59.986Y-46.743
X59.986Y-62.743
X60.236Y-1.007
X60.236Y-17.007
X60.236Y-33.007
X60.236Y-49.007
X60.5Y-15.0
X60.5Y-31.0
X60.5Y-47.0
X60.5Y-63.0
X60.75Y-0.75
X60.75Y-16.75
X60.75Y-32.75
X60.75Y-48.75
X62.5Y-1.25
X62.5Y-2.25
X62.5Y-11.75
X62.5Y-14.25
X62.5Y-15.0
X62.5Y-17.25
X62.5Y-18.25
X62.5Y-27.75
X62.5Y-30.25
X62.5Y-31.0
X62.5Y-33.25
X62.5Y-34.25
X62.5Y-43.75
X62.5Y-46.25
X62.5Y-47.0
X62.5Y-49.25
X62.5Y-50.25
X62.5Y-59.75
X62.5Y-62.25
X62.5Y-63.0
X63.5Y-1.25
X63.5Y-15.0
X63.5Y-17.25
X63.5Y-31.0
X63.5Y-33.25
X63.5Y-47.0
X63.5Y-49.25
X63.5Y-63.0
X65.25Y-0.75
X65.25Y-16.75
X65.25Y-32.75
X65.25Y-48.75
X65.5Y-15.25
X65.5Y-31.25
X65.5Y-47.25
X65.5Y-63.25
X65.764Y-1.007
X65.764Y-17.007
X65.764Y-33.007
X65.764Y-49.007
X65.907Y-14.843
X65.907Y-30.843
X65.907Y-46.843
X65.907Y-62.843
X66.0Y-11.5
X66.0Y-27.5
X66.0Y-43.5
X66.0Y-59.5
X66.279Y-1.264
X66.279Y-17.264
X66.279Y-33.264
X66.279Y-49.264
X66.43Y-15.082
X66.43Y-31.082
X66.43Y-47.082
X66.43Y-63.082
X66.517Y-1.788
X66.517Y-17.788
X66.517Y-33.788
X66.517Y-49.788
X66.75Y-12.5
X66.75Y-28.5
X66.75Y-44.5
X66.75Y-60.5
X66.942Y-2.175
X66.942Y-18.175
X66.942Y-34.175
X66.942Y-50.175
X67.0Y-13.5
X67.0Y-15.0
X67.0Y-29.5
X67.0Y-31.0
X67.0Y-45.5
X67.0Y-47.0
X67.0Y-61.5
X67.0Y-63.0
X67.257Y-14.486
X67.257Y-30.486
X67.257Y-46.486
X67.257Y-62.486
X67.5Y-2.886
X67.5Y-18.886
X67.5Y-34.886
X67.5Y-50.886
X67.5Y-1.0
X67.5Y-17.0
X67.5Y-33.0
X67.5Y-49.0
X67.501Y-2.311
X67.501Y-18.311
X67.501Y-34.311
X67.501Y-50.311
X67.514Y-13.757
X67.514Y-29.757
X67.514Y-45.757
X67.514Y-61.757
X67.75Y-3.75
X67.75Y-19.75
X67.75Y-35.75
X67.75Y-51.75
X68.25Y-10.407
X68.25Y-26.407
X68.25Y-42.407
X68.25Y-58.407
X68.5Y-8.5
X68.5Y-24.5
X68.5Y-40.5
X68.5Y-56.5
X68.75Y-4.75
X68.75Y-6.25
X68.75Y-15.0
X68.75Y-20.75
X68.75Y-22.25
X68.75Y-31.0
X68.75Y-36.75
X68.75Y-38.25
X68.75Y-47.0
X68.75Y-52.75
X68.75Y-54.25
X68.75Y-63.0
X68.976Y-10.456
X68.976Y-26.456
X68.976Y-42.456
X68.976Y-58.456
X69.0Y-9.75
X69.0Y-25.75
X69.0Y-41.75
X69.0Y-57.75
X69.25Y-0.75
X69.25Y-7.0
X69.25Y-7.575
X69.25Y-8.25
X69.25Y-10.961
X69.25Y-16.75
X69.25Y-23.0
X69.25Y-23.575
X69.25Y-24.25
X69.25Y-26.961
X69.25Y-32.75
X69.25Y-39.0
X69.25Y-39.575
X69.25Y-40.25
X69.25Y-42.961
X69.25Y-48.75
X69.25Y-55.0
X69.25Y-55.575
X69.25Y-56.25
X69.25Y-58.961
X69.257Y-9.236
X69.257Y-25.236
X69.257Y-41.236
X69.257Y-57.236
X69.325Y-5.5
X69.325Y-6.25
X69.325Y-21.5
X69.325Y-22.25
X69.325Y-37.5
X69.325Y-38.25
X69.325Y-53.5
X69.325Y-54.25
T2
X4.5Y-4.95
X4.5Y-8.05
X4.5Y-11.15
X4.5Y-20.95
X4.5Y-24.05
X4.5Y-27.15
X4.5Y-36.95
X4.5Y-40.05
X4.5Y-43.15
X4.5Y-52.95
X4.5Y-56.05
X4.5Y-59.15
X9.5Y-4.95
X9.5Y-8.05
X9.5Y-11.15
X9.5Y-20.95
X9.5Y-24.05
X9.5Y-27.15
X9.5Y-36.95
X9.5Y-40.05
X9.5Y-43.15
X9.5Y-52.95
X9.5Y-56.05
X9.5Y-59.15
X18.5Y-4.95
X18.5Y-8.05
X18.5Y-11.15
X18.5Y-20.95
X18.5Y-24.05
X18.5Y-27.15
X18.5Y-36.95
X18.5Y-40.05
X18.5Y-43.15
X18.5Y-52.95
X18.5Y-56.05
X18.5Y-59.15
X23.5Y-4.95
X23.5Y-8.05
X23.5Y-11.15
X23.5Y-20.95
X23.5Y-24.05
X23.5Y-27.15
X23.5Y-36.95
X23.5Y-40.05
X23.5Y-43.15
X23.5Y-52.95
X23.5Y-56.05
X23.5Y-59.15
X32.5Y-4.95
X32.5Y-8.05
X32.5Y-11.15
X32.5Y-20.95
X32.5Y-24.05
X32.5Y-27.15
X32.5Y-36.95
X32.5Y-40.05
X32.5Y-43.15
X32.5Y-52.95
X32.5Y-56.05
X32.5Y-59.15
X37.5Y-4.95
X37.5Y-8.05
X37.5Y-11.15
X37.5Y-20.95
X37.5Y-24.05
X37.5Y-27.15
X37.5Y-36.95
X37.5Y-40.05
X37.5Y-43.15
X37.5Y-52.95
X37.5Y-56.05
X37.5Y-59.15
X46.5Y-4.95
X46.5Y-8.05
X46.5Y-11.15
X46.5Y-20.95
X46.5Y-24.05
X46.5Y-27.15
X46.5Y-36.95
X46.5Y-40.05
X46.5Y-43.15
X46.5Y-52.95
X46.5Y-56.05
X46.5Y-59.15
X51.5Y-4.95
X51.5Y-8.05
X51.5Y-11.15
X51.5Y-20.95
X51.5Y-24.05
X51.5Y-27.15
X51.5Y-36.95
X51.5Y-40.05
X51.5Y-43.15
X51.5Y-52.95
X51.5Y-56.05
X51.5Y-59.15
X60.5Y-4.95
X60.5Y-8.05
X60.5Y-11.15
X60.5Y-20.95
X60.5Y-24.05
X60.5Y-27.15
X60.5Y-36.95
X60.5Y-40.05
X60.5Y-43.15
X60.5Y-52.95
X60.5Y-56.05
X60.5Y-59.15
X65.5Y-4.95
X65.5Y-8.05
X65.5Y-11.15
X65.5Y-20.95
X65.5Y-24.05
X65.5Y-27.15
X65.5Y-36.95
X65.5Y-40.05
X65.5Y-43.15
X65.5Y-52.95
X65.5Y-56.05
X65.5Y-59.15
M30
