%TF.GenerationSoftware,KiCad,Pcbnew,10.0.0*%
%TF.CreationDate,2026-04-19T17:34:53+08:00*%
%TF.ProjectId,panel-74pad-70pin-mezzanine,70616e65-6c2d-4373-9470-61642d373070,rev?*%
%TF.SameCoordinates,Original*%
%TF.FileFunction,Drillmap*%
%TF.FilePolarity,Positive*%
%FSLAX45Y45*%
G04 Gerber Fmt 4.5, Leading zero omitted, Abs format (unit mm)*
G04 Created by KiCad (PCBNEW 10.0.0) date 2026-04-19 17:34:53*
%MOMM*%
%LPD*%
G01*
G04 APERTURE LIST*
%ADD10C,0.050000*%
%ADD11C,0.200000*%
%ADD12C,0.100000*%
G04 APERTURE END LIST*
D10*
X-350000Y600000D02*
X7350000Y600000D01*
X7350000Y-7100000D01*
X-350000Y-7100000D01*
X-350000Y600000D01*
D11*
D12*
X52500Y-1118528D02*
X82500Y-1148528D01*
X82500Y-1118528D02*
X52500Y-1148528D01*
X52500Y-2718528D02*
X82500Y-2748528D01*
X82500Y-2718528D02*
X52500Y-2748528D01*
X52500Y-4318528D02*
X82500Y-4348528D01*
X82500Y-4318528D02*
X52500Y-4348528D01*
X52500Y-5918528D02*
X82500Y-5948528D01*
X82500Y-5918528D02*
X52500Y-5948528D01*
X58570Y-935715D02*
X88570Y-965715D01*
X88570Y-935715D02*
X58570Y-965715D01*
X58570Y-2535715D02*
X88570Y-2565715D01*
X88570Y-2535715D02*
X58570Y-2565715D01*
X58570Y-4135715D02*
X88570Y-4165715D01*
X88570Y-4135715D02*
X58570Y-4165715D01*
X58570Y-5735715D02*
X88570Y-5765715D01*
X88570Y-5735715D02*
X58570Y-5765715D01*
X58880Y-738151D02*
X88880Y-768151D01*
X88880Y-738151D02*
X58880Y-768151D01*
X58880Y-2338151D02*
X88880Y-2368151D01*
X88880Y-2338151D02*
X58880Y-2368151D01*
X58880Y-3938151D02*
X88880Y-3968151D01*
X88880Y-3938151D02*
X58880Y-3968151D01*
X58880Y-5538151D02*
X88880Y-5568151D01*
X88880Y-5538151D02*
X58880Y-5568151D01*
X59285Y-1061430D02*
X89285Y-1091430D01*
X89285Y-1061430D02*
X59285Y-1091430D01*
X59285Y-2661430D02*
X89285Y-2691430D01*
X89285Y-2661430D02*
X59285Y-2691430D01*
X59285Y-4261430D02*
X89285Y-4291430D01*
X89285Y-4261430D02*
X59285Y-4291430D01*
X59285Y-5861430D02*
X89285Y-5891430D01*
X89285Y-5861430D02*
X59285Y-5891430D01*
X60000Y-85000D02*
X90000Y-115000D01*
X90000Y-85000D02*
X60000Y-115000D01*
X60000Y-1685000D02*
X90000Y-1715000D01*
X90000Y-1685000D02*
X60000Y-1715000D01*
X60000Y-3285000D02*
X90000Y-3315000D01*
X90000Y-3285000D02*
X60000Y-3315000D01*
X60000Y-4885000D02*
X90000Y-4915000D01*
X90000Y-4885000D02*
X60000Y-4915000D01*
X69341Y-850659D02*
X99341Y-880659D01*
X99341Y-850659D02*
X69341Y-880659D01*
X69341Y-2450659D02*
X99341Y-2480659D01*
X99341Y-2450659D02*
X69341Y-2480659D01*
X69341Y-4050659D02*
X99341Y-4080659D01*
X99341Y-4050659D02*
X69341Y-4080659D01*
X69341Y-5650659D02*
X99341Y-5680659D01*
X99341Y-5650659D02*
X69341Y-5680659D01*
X78136Y-683970D02*
X108136Y-713970D01*
X108136Y-683970D02*
X78136Y-713970D01*
X78136Y-2283970D02*
X108136Y-2313970D01*
X108136Y-2283970D02*
X78136Y-2313970D01*
X78136Y-3883970D02*
X108136Y-3913970D01*
X108136Y-3883970D02*
X78136Y-3913970D01*
X78136Y-5483970D02*
X108136Y-5513970D01*
X108136Y-5483970D02*
X78136Y-5513970D01*
X83570Y-510715D02*
X113570Y-540715D01*
X113570Y-510715D02*
X83570Y-540715D01*
X83570Y-2110715D02*
X113570Y-2140715D01*
X113570Y-2110715D02*
X83570Y-2140715D01*
X83570Y-3710715D02*
X113570Y-3740715D01*
X113570Y-3710715D02*
X83570Y-3740715D01*
X83570Y-5310715D02*
X113570Y-5340715D01*
X113570Y-5310715D02*
X83570Y-5340715D01*
X85000Y-1010000D02*
X115000Y-1040000D01*
X115000Y-1010000D02*
X85000Y-1040000D01*
X85000Y-2610000D02*
X115000Y-2640000D01*
X115000Y-2610000D02*
X85000Y-2640000D01*
X85000Y-4210000D02*
X115000Y-4240000D01*
X115000Y-4210000D02*
X85000Y-4240000D01*
X85000Y-5810000D02*
X115000Y-5840000D01*
X115000Y-5810000D02*
X85000Y-5840000D01*
X110000Y-810000D02*
X140000Y-840000D01*
X140000Y-810000D02*
X110000Y-840000D01*
X110000Y-910000D02*
X140000Y-940000D01*
X140000Y-910000D02*
X110000Y-940000D01*
X110000Y-1110000D02*
X140000Y-1140000D01*
X140000Y-1110000D02*
X110000Y-1140000D01*
X110000Y-2410000D02*
X140000Y-2440000D01*
X140000Y-2410000D02*
X110000Y-2440000D01*
X110000Y-2510000D02*
X140000Y-2540000D01*
X140000Y-2510000D02*
X110000Y-2540000D01*
X110000Y-2710000D02*
X140000Y-2740000D01*
X140000Y-2710000D02*
X110000Y-2740000D01*
X110000Y-4010000D02*
X140000Y-4040000D01*
X140000Y-4010000D02*
X110000Y-4040000D01*
X110000Y-4110000D02*
X140000Y-4140000D01*
X140000Y-4110000D02*
X110000Y-4140000D01*
X110000Y-4310000D02*
X140000Y-4340000D01*
X140000Y-4310000D02*
X110000Y-4340000D01*
X110000Y-5610000D02*
X140000Y-5640000D01*
X140000Y-5610000D02*
X110000Y-5640000D01*
X110000Y-5710000D02*
X140000Y-5740000D01*
X140000Y-5710000D02*
X110000Y-5740000D01*
X110000Y-5910000D02*
X140000Y-5940000D01*
X140000Y-5910000D02*
X110000Y-5940000D01*
X135000Y-85000D02*
X165000Y-115000D01*
X165000Y-85000D02*
X135000Y-115000D01*
X135000Y-485000D02*
X165000Y-515000D01*
X165000Y-485000D02*
X135000Y-515000D01*
X135000Y-542500D02*
X165000Y-572500D01*
X165000Y-542500D02*
X135000Y-572500D01*
X135000Y-635000D02*
X165000Y-665000D01*
X165000Y-635000D02*
X135000Y-665000D01*
X135000Y-692500D02*
X165000Y-722500D01*
X165000Y-692500D02*
X135000Y-722500D01*
X135000Y-1510000D02*
X165000Y-1540000D01*
X165000Y-1510000D02*
X135000Y-1540000D01*
X135000Y-1685000D02*
X165000Y-1715000D01*
X165000Y-1685000D02*
X135000Y-1715000D01*
X135000Y-2085000D02*
X165000Y-2115000D01*
X165000Y-2085000D02*
X135000Y-2115000D01*
X135000Y-2142500D02*
X165000Y-2172500D01*
X165000Y-2142500D02*
X135000Y-2172500D01*
X135000Y-2235000D02*
X165000Y-2265000D01*
X165000Y-2235000D02*
X135000Y-2265000D01*
X135000Y-2292500D02*
X165000Y-2322500D01*
X165000Y-2292500D02*
X135000Y-2322500D01*
X135000Y-3110000D02*
X165000Y-3140000D01*
X165000Y-3110000D02*
X135000Y-3140000D01*
X135000Y-3285000D02*
X165000Y-3315000D01*
X165000Y-3285000D02*
X135000Y-3315000D01*
X135000Y-3685000D02*
X165000Y-3715000D01*
X165000Y-3685000D02*
X135000Y-3715000D01*
X135000Y-3742500D02*
X165000Y-3772500D01*
X165000Y-3742500D02*
X135000Y-3772500D01*
X135000Y-3835000D02*
X165000Y-3865000D01*
X165000Y-3835000D02*
X135000Y-3865000D01*
X135000Y-3892500D02*
X165000Y-3922500D01*
X165000Y-3892500D02*
X135000Y-3922500D01*
X135000Y-4710000D02*
X165000Y-4740000D01*
X165000Y-4710000D02*
X135000Y-4740000D01*
X135000Y-4885000D02*
X165000Y-4915000D01*
X165000Y-4885000D02*
X135000Y-4915000D01*
X135000Y-5285000D02*
X165000Y-5315000D01*
X165000Y-5285000D02*
X135000Y-5315000D01*
X135000Y-5342500D02*
X165000Y-5372500D01*
X165000Y-5342500D02*
X135000Y-5372500D01*
X135000Y-5435000D02*
X165000Y-5465000D01*
X165000Y-5435000D02*
X135000Y-5465000D01*
X135000Y-5492500D02*
X165000Y-5522500D01*
X165000Y-5492500D02*
X135000Y-5522500D01*
X135000Y-6310000D02*
X165000Y-6340000D01*
X165000Y-6310000D02*
X135000Y-6340000D01*
X206284Y-267250D02*
X236284Y-297250D01*
X236284Y-267250D02*
X206284Y-297250D01*
X206284Y-1867250D02*
X236284Y-1897250D01*
X236284Y-1867250D02*
X206284Y-1897250D01*
X206284Y-3467250D02*
X236284Y-3497250D01*
X236284Y-3467250D02*
X206284Y-3497250D01*
X206284Y-5067250D02*
X236284Y-5097250D01*
X236284Y-5067250D02*
X206284Y-5097250D01*
X232513Y-216080D02*
X262513Y-246080D01*
X262513Y-216080D02*
X232513Y-246080D01*
X232513Y-1816080D02*
X262513Y-1846080D01*
X262513Y-1816080D02*
X232513Y-1846080D01*
X232513Y-3416080D02*
X262513Y-3446080D01*
X262513Y-3416080D02*
X232513Y-3446080D01*
X232513Y-5016080D02*
X262513Y-5046080D01*
X262513Y-5016080D02*
X232513Y-5046080D01*
X235000Y-1460000D02*
X265000Y-1490000D01*
X265000Y-1460000D02*
X235000Y-1490000D01*
X235000Y-3060000D02*
X265000Y-3090000D01*
X265000Y-3060000D02*
X235000Y-3090000D01*
X235000Y-4660000D02*
X265000Y-4690000D01*
X265000Y-4660000D02*
X235000Y-4690000D01*
X235000Y-6260000D02*
X265000Y-6290000D01*
X265000Y-6260000D02*
X235000Y-6290000D01*
X244341Y-1369341D02*
X274341Y-1399341D01*
X274341Y-1369341D02*
X244341Y-1399341D01*
X244341Y-2969341D02*
X274341Y-2999341D01*
X274341Y-2969341D02*
X244341Y-2999341D01*
X244341Y-4569341D02*
X274341Y-4599341D01*
X274341Y-4569341D02*
X244341Y-4599341D01*
X244341Y-6169341D02*
X274341Y-6199341D01*
X274341Y-6169341D02*
X244341Y-6199341D01*
X254281Y-162860D02*
X284281Y-192860D01*
X284281Y-162860D02*
X254281Y-192860D01*
X254281Y-1762860D02*
X284281Y-1792860D01*
X284281Y-1762860D02*
X254281Y-1792860D01*
X254281Y-3362860D02*
X284281Y-3392860D01*
X284281Y-3362860D02*
X254281Y-3392860D01*
X254281Y-4962860D02*
X284281Y-4992860D01*
X284281Y-4962860D02*
X254281Y-4992860D01*
X260000Y-1235000D02*
X290000Y-1265000D01*
X290000Y-1235000D02*
X260000Y-1265000D01*
X260000Y-1292500D02*
X290000Y-1322500D01*
X290000Y-1292500D02*
X260000Y-1322500D01*
X260000Y-2835000D02*
X290000Y-2865000D01*
X290000Y-2835000D02*
X260000Y-2865000D01*
X260000Y-2892500D02*
X290000Y-2922500D01*
X290000Y-2892500D02*
X260000Y-2922500D01*
X260000Y-4435000D02*
X290000Y-4465000D01*
X290000Y-4435000D02*
X260000Y-4465000D01*
X260000Y-4492500D02*
X290000Y-4522500D01*
X290000Y-4492500D02*
X260000Y-4522500D01*
X260000Y-6035000D02*
X290000Y-6065000D01*
X290000Y-6035000D02*
X260000Y-6065000D01*
X260000Y-6092500D02*
X290000Y-6122500D01*
X290000Y-6092500D02*
X260000Y-6122500D01*
X285000Y-1410000D02*
X315000Y-1440000D01*
X315000Y-1410000D02*
X285000Y-1440000D01*
X285000Y-3010000D02*
X315000Y-3040000D01*
X315000Y-3010000D02*
X285000Y-3040000D01*
X285000Y-4610000D02*
X315000Y-4640000D01*
X315000Y-4610000D02*
X285000Y-4640000D01*
X285000Y-6210000D02*
X315000Y-6240000D01*
X315000Y-6210000D02*
X285000Y-6240000D01*
X305711Y-137145D02*
X335711Y-167145D01*
X335711Y-137145D02*
X305711Y-167145D01*
X305711Y-1737145D02*
X335711Y-1767145D01*
X335711Y-1737145D02*
X305711Y-1767145D01*
X305711Y-3337145D02*
X335711Y-3367145D01*
X335711Y-3337145D02*
X305711Y-3367145D01*
X305711Y-4937145D02*
X335711Y-4967145D01*
X335711Y-4937145D02*
X305711Y-4967145D01*
X335000Y-1510000D02*
X365000Y-1540000D01*
X365000Y-1510000D02*
X335000Y-1540000D01*
X335000Y-3110000D02*
X365000Y-3140000D01*
X365000Y-3110000D02*
X335000Y-3140000D01*
X335000Y-4710000D02*
X365000Y-4740000D01*
X365000Y-4710000D02*
X335000Y-4740000D01*
X335000Y-6310000D02*
X365000Y-6340000D01*
X365000Y-6310000D02*
X335000Y-6340000D01*
X357140Y-111430D02*
X387140Y-141430D01*
X387140Y-111430D02*
X357140Y-141430D01*
X357140Y-1711430D02*
X387140Y-1741430D01*
X387140Y-1711430D02*
X357140Y-1741430D01*
X357140Y-3311430D02*
X387140Y-3341430D01*
X387140Y-3311430D02*
X357140Y-3341430D01*
X357140Y-4911430D02*
X387140Y-4941430D01*
X387140Y-4911430D02*
X357140Y-4941430D01*
X383570Y-1459285D02*
X413570Y-1489285D01*
X413570Y-1459285D02*
X383570Y-1489285D01*
X383570Y-3059285D02*
X413570Y-3089285D01*
X413570Y-3059285D02*
X383570Y-3089285D01*
X383570Y-4659285D02*
X413570Y-4689285D01*
X413570Y-4659285D02*
X383570Y-4689285D01*
X383570Y-6259285D02*
X413570Y-6289285D01*
X413570Y-6259285D02*
X383570Y-6289285D01*
X408570Y-85715D02*
X438570Y-115715D01*
X438570Y-85715D02*
X408570Y-115715D01*
X408570Y-1685715D02*
X438570Y-1715715D01*
X438570Y-1685715D02*
X408570Y-1715715D01*
X408570Y-3285715D02*
X438570Y-3315715D01*
X438570Y-3285715D02*
X408570Y-3315715D01*
X408570Y-4885715D02*
X438570Y-4915715D01*
X438570Y-4885715D02*
X408570Y-4915715D01*
X435000Y-1485000D02*
X465000Y-1515000D01*
X465000Y-1485000D02*
X435000Y-1515000D01*
X435000Y-3085000D02*
X465000Y-3115000D01*
X465000Y-3085000D02*
X435000Y-3115000D01*
X435000Y-4685000D02*
X465000Y-4715000D01*
X465000Y-4685000D02*
X435000Y-4715000D01*
X435000Y-6285000D02*
X465000Y-6315000D01*
X465000Y-6285000D02*
X435000Y-6315000D01*
X460000Y-60000D02*
X490000Y-90000D01*
X490000Y-60000D02*
X460000Y-90000D01*
X460000Y-1660000D02*
X490000Y-1690000D01*
X490000Y-1660000D02*
X460000Y-1690000D01*
X460000Y-3260000D02*
X490000Y-3290000D01*
X490000Y-3260000D02*
X460000Y-3290000D01*
X460000Y-4860000D02*
X490000Y-4890000D01*
X490000Y-4860000D02*
X460000Y-4890000D01*
X635000Y-110000D02*
X665000Y-140000D01*
X665000Y-110000D02*
X635000Y-140000D01*
X635000Y-210000D02*
X665000Y-240000D01*
X665000Y-210000D02*
X635000Y-240000D01*
X635000Y-1160000D02*
X665000Y-1190000D01*
X665000Y-1160000D02*
X635000Y-1190000D01*
X635000Y-1410000D02*
X665000Y-1440000D01*
X665000Y-1410000D02*
X635000Y-1440000D01*
X635000Y-1485000D02*
X665000Y-1515000D01*
X665000Y-1485000D02*
X635000Y-1515000D01*
X635000Y-1710000D02*
X665000Y-1740000D01*
X665000Y-1710000D02*
X635000Y-1740000D01*
X635000Y-1810000D02*
X665000Y-1840000D01*
X665000Y-1810000D02*
X635000Y-1840000D01*
X635000Y-2760000D02*
X665000Y-2790000D01*
X665000Y-2760000D02*
X635000Y-2790000D01*
X635000Y-3010000D02*
X665000Y-3040000D01*
X665000Y-3010000D02*
X635000Y-3040000D01*
X635000Y-3085000D02*
X665000Y-3115000D01*
X665000Y-3085000D02*
X635000Y-3115000D01*
X635000Y-3310000D02*
X665000Y-3340000D01*
X665000Y-3310000D02*
X635000Y-3340000D01*
X635000Y-3410000D02*
X665000Y-3440000D01*
X665000Y-3410000D02*
X635000Y-3440000D01*
X635000Y-4360000D02*
X665000Y-4390000D01*
X665000Y-4360000D02*
X635000Y-4390000D01*
X635000Y-4610000D02*
X665000Y-4640000D01*
X665000Y-4610000D02*
X635000Y-4640000D01*
X635000Y-4685000D02*
X665000Y-4715000D01*
X665000Y-4685000D02*
X635000Y-4715000D01*
X635000Y-4910000D02*
X665000Y-4940000D01*
X665000Y-4910000D02*
X635000Y-4940000D01*
X635000Y-5010000D02*
X665000Y-5040000D01*
X665000Y-5010000D02*
X635000Y-5040000D01*
X635000Y-5960000D02*
X665000Y-5990000D01*
X665000Y-5960000D02*
X635000Y-5990000D01*
X635000Y-6210000D02*
X665000Y-6240000D01*
X665000Y-6210000D02*
X635000Y-6240000D01*
X635000Y-6285000D02*
X665000Y-6315000D01*
X665000Y-6285000D02*
X635000Y-6315000D01*
X735000Y-110000D02*
X765000Y-140000D01*
X765000Y-110000D02*
X735000Y-140000D01*
X735000Y-1485000D02*
X765000Y-1515000D01*
X765000Y-1485000D02*
X735000Y-1515000D01*
X735000Y-1710000D02*
X765000Y-1740000D01*
X765000Y-1710000D02*
X735000Y-1740000D01*
X735000Y-3085000D02*
X765000Y-3115000D01*
X765000Y-3085000D02*
X735000Y-3115000D01*
X735000Y-3310000D02*
X765000Y-3340000D01*
X765000Y-3310000D02*
X735000Y-3340000D01*
X735000Y-4685000D02*
X765000Y-4715000D01*
X765000Y-4685000D02*
X735000Y-4715000D01*
X735000Y-4910000D02*
X765000Y-4940000D01*
X765000Y-4910000D02*
X735000Y-4940000D01*
X735000Y-6285000D02*
X765000Y-6315000D01*
X765000Y-6285000D02*
X735000Y-6315000D01*
X910000Y-60000D02*
X940000Y-90000D01*
X940000Y-60000D02*
X910000Y-90000D01*
X910000Y-1660000D02*
X940000Y-1690000D01*
X940000Y-1660000D02*
X910000Y-1690000D01*
X910000Y-3260000D02*
X940000Y-3290000D01*
X940000Y-3260000D02*
X910000Y-3290000D01*
X910000Y-4860000D02*
X940000Y-4890000D01*
X940000Y-4860000D02*
X910000Y-4890000D01*
X935000Y-1510000D02*
X965000Y-1540000D01*
X965000Y-1510000D02*
X935000Y-1540000D01*
X935000Y-3110000D02*
X965000Y-3140000D01*
X965000Y-3110000D02*
X935000Y-3140000D01*
X935000Y-4710000D02*
X965000Y-4740000D01*
X965000Y-4710000D02*
X935000Y-4740000D01*
X935000Y-6310000D02*
X965000Y-6340000D01*
X965000Y-6310000D02*
X935000Y-6340000D01*
X961430Y-85715D02*
X991430Y-115715D01*
X991430Y-85715D02*
X961430Y-115715D01*
X961430Y-1685715D02*
X991430Y-1715715D01*
X991430Y-1685715D02*
X961430Y-1715715D01*
X961430Y-3285715D02*
X991430Y-3315715D01*
X991430Y-3285715D02*
X961430Y-3315715D01*
X961430Y-4885715D02*
X991430Y-4915715D01*
X991430Y-4885715D02*
X961430Y-4915715D01*
X975659Y-1469341D02*
X1005659Y-1499341D01*
X1005659Y-1469341D02*
X975659Y-1499341D01*
X975659Y-3069341D02*
X1005659Y-3099341D01*
X1005659Y-3069341D02*
X975659Y-3099341D01*
X975659Y-4669341D02*
X1005659Y-4699341D01*
X1005659Y-4669341D02*
X975659Y-4699341D01*
X975659Y-6269341D02*
X1005659Y-6299341D01*
X1005659Y-6269341D02*
X975659Y-6299341D01*
X985000Y-1135000D02*
X1015000Y-1165000D01*
X1015000Y-1135000D02*
X985000Y-1165000D01*
X985000Y-2735000D02*
X1015000Y-2765000D01*
X1015000Y-2735000D02*
X985000Y-2765000D01*
X985000Y-4335000D02*
X1015000Y-4365000D01*
X1015000Y-4335000D02*
X985000Y-4365000D01*
X985000Y-5935000D02*
X1015000Y-5965000D01*
X1015000Y-5935000D02*
X985000Y-5965000D01*
X1012860Y-111430D02*
X1042860Y-141430D01*
X1042860Y-111430D02*
X1012860Y-141430D01*
X1012860Y-1711430D02*
X1042860Y-1741430D01*
X1042860Y-1711430D02*
X1012860Y-1741430D01*
X1012860Y-3311430D02*
X1042860Y-3341430D01*
X1042860Y-3311430D02*
X1012860Y-3341430D01*
X1012860Y-4911430D02*
X1042860Y-4941430D01*
X1042860Y-4911430D02*
X1012860Y-4941430D01*
X1027977Y-1493197D02*
X1057977Y-1523197D01*
X1057977Y-1493197D02*
X1027977Y-1523197D01*
X1027977Y-3093197D02*
X1057977Y-3123197D01*
X1057977Y-3093197D02*
X1027977Y-3123197D01*
X1027977Y-4693197D02*
X1057977Y-4723197D01*
X1057977Y-4693197D02*
X1027977Y-4723197D01*
X1027977Y-6293197D02*
X1057977Y-6323197D01*
X1057977Y-6293197D02*
X1027977Y-6323197D01*
X1036710Y-163751D02*
X1066710Y-193750D01*
X1066710Y-163751D02*
X1036710Y-193750D01*
X1036710Y-1763750D02*
X1066710Y-1793750D01*
X1066710Y-1763750D02*
X1036710Y-1793750D01*
X1036710Y-3363750D02*
X1066710Y-3393750D01*
X1066710Y-3363750D02*
X1036710Y-3393750D01*
X1036710Y-4963751D02*
X1066710Y-4993751D01*
X1066710Y-4963751D02*
X1036710Y-4993751D01*
X1060000Y-1235000D02*
X1090000Y-1265000D01*
X1090000Y-1235000D02*
X1060000Y-1265000D01*
X1060000Y-2835000D02*
X1090000Y-2865000D01*
X1090000Y-2835000D02*
X1060000Y-2865000D01*
X1060000Y-4435000D02*
X1090000Y-4465000D01*
X1090000Y-4435000D02*
X1060000Y-4465000D01*
X1060000Y-6035000D02*
X1090000Y-6065000D01*
X1090000Y-6035000D02*
X1060000Y-6065000D01*
X1079187Y-202506D02*
X1109187Y-232506D01*
X1109187Y-202506D02*
X1079187Y-232506D01*
X1079187Y-1802506D02*
X1109187Y-1832506D01*
X1109187Y-1802506D02*
X1079187Y-1832506D01*
X1079187Y-3402506D02*
X1109187Y-3432506D01*
X1109187Y-3402506D02*
X1079187Y-3432506D01*
X1079187Y-5002506D02*
X1109187Y-5032506D01*
X1109187Y-5002506D02*
X1079187Y-5032506D01*
X1085000Y-1335000D02*
X1115000Y-1365000D01*
X1115000Y-1335000D02*
X1085000Y-1365000D01*
X1085000Y-1485000D02*
X1115000Y-1515000D01*
X1115000Y-1485000D02*
X1085000Y-1515000D01*
X1085000Y-2935000D02*
X1115000Y-2965000D01*
X1115000Y-2935000D02*
X1085000Y-2965000D01*
X1085000Y-3085000D02*
X1115000Y-3115000D01*
X1115000Y-3085000D02*
X1085000Y-3115000D01*
X1085000Y-4535000D02*
X1115000Y-4565000D01*
X1115000Y-4535000D02*
X1085000Y-4565000D01*
X1085000Y-4685000D02*
X1115000Y-4715000D01*
X1115000Y-4685000D02*
X1085000Y-4715000D01*
X1085000Y-6135000D02*
X1115000Y-6165000D01*
X1115000Y-6135000D02*
X1085000Y-6165000D01*
X1085000Y-6285000D02*
X1115000Y-6315000D01*
X1115000Y-6285000D02*
X1085000Y-6315000D01*
X1110715Y-1433570D02*
X1140715Y-1463570D01*
X1140715Y-1433570D02*
X1110715Y-1463570D01*
X1110715Y-3033570D02*
X1140715Y-3063570D01*
X1140715Y-3033570D02*
X1110715Y-3063570D01*
X1110715Y-4633570D02*
X1140715Y-4663570D01*
X1140715Y-4633570D02*
X1110715Y-4663570D01*
X1110715Y-6233570D02*
X1140715Y-6263570D01*
X1140715Y-6233570D02*
X1110715Y-6263570D01*
X1134982Y-273595D02*
X1164982Y-303595D01*
X1164982Y-273595D02*
X1134982Y-303595D01*
X1134982Y-1873595D02*
X1164982Y-1903595D01*
X1164982Y-1873595D02*
X1134982Y-1903595D01*
X1134982Y-3473595D02*
X1164982Y-3503595D01*
X1164982Y-3473595D02*
X1134982Y-3503595D01*
X1134982Y-5073595D02*
X1164982Y-5103595D01*
X1164982Y-5073595D02*
X1134982Y-5103595D01*
X1135000Y-85000D02*
X1165000Y-115000D01*
X1165000Y-85000D02*
X1135000Y-115000D01*
X1135000Y-1685000D02*
X1165000Y-1715000D01*
X1165000Y-1685000D02*
X1135000Y-1715000D01*
X1135000Y-3285000D02*
X1165000Y-3315000D01*
X1165000Y-3285000D02*
X1135000Y-3315000D01*
X1135000Y-4885000D02*
X1165000Y-4915000D01*
X1165000Y-4885000D02*
X1135000Y-4915000D01*
X1135058Y-216095D02*
X1165058Y-246095D01*
X1165058Y-216095D02*
X1135058Y-246095D01*
X1135058Y-1816095D02*
X1165058Y-1846095D01*
X1165058Y-1816095D02*
X1135058Y-1846095D01*
X1135058Y-3416095D02*
X1165058Y-3446095D01*
X1165058Y-3416095D02*
X1135058Y-3446095D01*
X1135058Y-5016095D02*
X1165058Y-5046095D01*
X1165058Y-5016095D02*
X1135058Y-5046095D01*
X1136430Y-1360715D02*
X1166430Y-1390715D01*
X1166430Y-1360715D02*
X1136430Y-1390715D01*
X1136430Y-2960715D02*
X1166430Y-2990715D01*
X1166430Y-2960715D02*
X1136430Y-2990715D01*
X1136430Y-4560715D02*
X1166430Y-4590715D01*
X1166430Y-4560715D02*
X1136430Y-4590715D01*
X1136430Y-6160715D02*
X1166430Y-6190715D01*
X1166430Y-6160715D02*
X1136430Y-6190715D01*
X1160000Y-360000D02*
X1190000Y-390000D01*
X1190000Y-360000D02*
X1160000Y-390000D01*
X1160000Y-1960000D02*
X1190000Y-1990000D01*
X1190000Y-1960000D02*
X1160000Y-1990000D01*
X1160000Y-3560000D02*
X1190000Y-3590000D01*
X1190000Y-3560000D02*
X1160000Y-3590000D01*
X1160000Y-5160000D02*
X1190000Y-5190000D01*
X1190000Y-5160000D02*
X1160000Y-5190000D01*
X1210000Y-1025659D02*
X1240000Y-1055659D01*
X1240000Y-1025659D02*
X1210000Y-1055659D01*
X1210000Y-2625659D02*
X1240000Y-2655659D01*
X1240000Y-2625659D02*
X1210000Y-2655659D01*
X1210000Y-4225659D02*
X1240000Y-4255659D01*
X1240000Y-4225659D02*
X1210000Y-4255659D01*
X1210000Y-5825659D02*
X1240000Y-5855659D01*
X1240000Y-5825659D02*
X1210000Y-5855659D01*
X1235000Y-835000D02*
X1265000Y-865000D01*
X1265000Y-835000D02*
X1235000Y-865000D01*
X1235000Y-2435000D02*
X1265000Y-2465000D01*
X1265000Y-2435000D02*
X1235000Y-2465000D01*
X1235000Y-4035000D02*
X1265000Y-4065000D01*
X1265000Y-4035000D02*
X1235000Y-4065000D01*
X1235000Y-5635000D02*
X1265000Y-5665000D01*
X1265000Y-5635000D02*
X1235000Y-5665000D01*
X1260000Y-460000D02*
X1290000Y-490000D01*
X1290000Y-460000D02*
X1260000Y-490000D01*
X1260000Y-610000D02*
X1290000Y-640000D01*
X1290000Y-610000D02*
X1260000Y-640000D01*
X1260000Y-1485000D02*
X1290000Y-1515000D01*
X1290000Y-1485000D02*
X1260000Y-1515000D01*
X1260000Y-2060000D02*
X1290000Y-2090000D01*
X1290000Y-2060000D02*
X1260000Y-2090000D01*
X1260000Y-2210000D02*
X1290000Y-2240000D01*
X1290000Y-2210000D02*
X1260000Y-2240000D01*
X1260000Y-3085000D02*
X1290000Y-3115000D01*
X1290000Y-3085000D02*
X1260000Y-3115000D01*
X1260000Y-3660000D02*
X1290000Y-3690000D01*
X1290000Y-3660000D02*
X1260000Y-3690000D01*
X1260000Y-3810000D02*
X1290000Y-3840000D01*
X1290000Y-3810000D02*
X1260000Y-3840000D01*
X1260000Y-4685000D02*
X1290000Y-4715000D01*
X1290000Y-4685000D02*
X1260000Y-4715000D01*
X1260000Y-5260000D02*
X1290000Y-5290000D01*
X1290000Y-5260000D02*
X1260000Y-5290000D01*
X1260000Y-5410000D02*
X1290000Y-5440000D01*
X1290000Y-5410000D02*
X1260000Y-5440000D01*
X1260000Y-6285000D02*
X1290000Y-6315000D01*
X1290000Y-6285000D02*
X1260000Y-6315000D01*
X1282609Y-1030586D02*
X1312609Y-1060586D01*
X1312609Y-1030586D02*
X1282609Y-1060586D01*
X1282609Y-2630586D02*
X1312609Y-2660586D01*
X1312609Y-2630586D02*
X1282609Y-2660586D01*
X1282609Y-4230586D02*
X1312609Y-4260586D01*
X1312609Y-4230586D02*
X1282609Y-4260586D01*
X1282609Y-5830586D02*
X1312609Y-5860586D01*
X1312609Y-5830586D02*
X1282609Y-5860586D01*
X1285000Y-960000D02*
X1315000Y-990000D01*
X1315000Y-960000D02*
X1285000Y-990000D01*
X1285000Y-2560000D02*
X1315000Y-2590000D01*
X1315000Y-2560000D02*
X1285000Y-2590000D01*
X1285000Y-4160000D02*
X1315000Y-4190000D01*
X1315000Y-4160000D02*
X1285000Y-4190000D01*
X1285000Y-5760000D02*
X1315000Y-5790000D01*
X1315000Y-5760000D02*
X1285000Y-5790000D01*
X1310000Y-60000D02*
X1340000Y-90000D01*
X1340000Y-60000D02*
X1310000Y-90000D01*
X1310000Y-685000D02*
X1340000Y-715000D01*
X1340000Y-685000D02*
X1310000Y-715000D01*
X1310000Y-742500D02*
X1340000Y-772500D01*
X1340000Y-742500D02*
X1310000Y-772500D01*
X1310000Y-810000D02*
X1340000Y-840000D01*
X1340000Y-810000D02*
X1310000Y-840000D01*
X1310000Y-1081143D02*
X1340000Y-1111143D01*
X1340000Y-1081143D02*
X1310000Y-1111143D01*
X1310000Y-1660000D02*
X1340000Y-1690000D01*
X1340000Y-1660000D02*
X1310000Y-1690000D01*
X1310000Y-2285000D02*
X1340000Y-2315000D01*
X1340000Y-2285000D02*
X1310000Y-2315000D01*
X1310000Y-2342500D02*
X1340000Y-2372500D01*
X1340000Y-2342500D02*
X1310000Y-2372500D01*
X1310000Y-2410000D02*
X1340000Y-2440000D01*
X1340000Y-2410000D02*
X1310000Y-2440000D01*
X1310000Y-2681143D02*
X1340000Y-2711143D01*
X1340000Y-2681143D02*
X1310000Y-2711143D01*
X1310000Y-3260000D02*
X1340000Y-3290000D01*
X1340000Y-3260000D02*
X1310000Y-3290000D01*
X1310000Y-3885000D02*
X1340000Y-3915000D01*
X1340000Y-3885000D02*
X1310000Y-3915000D01*
X1310000Y-3942500D02*
X1340000Y-3972500D01*
X1340000Y-3942500D02*
X1310000Y-3972500D01*
X1310000Y-4010000D02*
X1340000Y-4040000D01*
X1340000Y-4010000D02*
X1310000Y-4040000D01*
X1310000Y-4281143D02*
X1340000Y-4311143D01*
X1340000Y-4281143D02*
X1310000Y-4311143D01*
X1310000Y-4860000D02*
X1340000Y-4890000D01*
X1340000Y-4860000D02*
X1310000Y-4890000D01*
X1310000Y-5485000D02*
X1340000Y-5515000D01*
X1340000Y-5485000D02*
X1310000Y-5515000D01*
X1310000Y-5542500D02*
X1340000Y-5572500D01*
X1340000Y-5542500D02*
X1310000Y-5572500D01*
X1310000Y-5610000D02*
X1340000Y-5640000D01*
X1340000Y-5610000D02*
X1310000Y-5640000D01*
X1310000Y-5881143D02*
X1340000Y-5911143D01*
X1340000Y-5881143D02*
X1310000Y-5911143D01*
X1310715Y-908570D02*
X1340715Y-938570D01*
X1340715Y-908570D02*
X1310715Y-938570D01*
X1310715Y-2508570D02*
X1340715Y-2538570D01*
X1340715Y-2508570D02*
X1310715Y-2538570D01*
X1310715Y-4108570D02*
X1340715Y-4138570D01*
X1340715Y-4108570D02*
X1310715Y-4138570D01*
X1310715Y-5708570D02*
X1340715Y-5738570D01*
X1340715Y-5708570D02*
X1310715Y-5738570D01*
X1317500Y-535000D02*
X1347500Y-565000D01*
X1347500Y-535000D02*
X1317500Y-565000D01*
X1317500Y-610000D02*
X1347500Y-640000D01*
X1347500Y-610000D02*
X1317500Y-640000D01*
X1317500Y-2135000D02*
X1347500Y-2165000D01*
X1347500Y-2135000D02*
X1317500Y-2165000D01*
X1317500Y-2210000D02*
X1347500Y-2240000D01*
X1347500Y-2210000D02*
X1317500Y-2240000D01*
X1317500Y-3735000D02*
X1347500Y-3765000D01*
X1347500Y-3735000D02*
X1317500Y-3765000D01*
X1317500Y-3810000D02*
X1347500Y-3840000D01*
X1347500Y-3810000D02*
X1317500Y-3840000D01*
X1317500Y-5335000D02*
X1347500Y-5365000D01*
X1347500Y-5335000D02*
X1317500Y-5365000D01*
X1317500Y-5410000D02*
X1347500Y-5440000D01*
X1347500Y-5410000D02*
X1317500Y-5440000D01*
X1452500Y-1118528D02*
X1482500Y-1148528D01*
X1482500Y-1118528D02*
X1452500Y-1148528D01*
X1452500Y-2718528D02*
X1482500Y-2748528D01*
X1482500Y-2718528D02*
X1452500Y-2748528D01*
X1452500Y-4318528D02*
X1482500Y-4348528D01*
X1482500Y-4318528D02*
X1452500Y-4348528D01*
X1452500Y-5918528D02*
X1482500Y-5948528D01*
X1482500Y-5918528D02*
X1452500Y-5948528D01*
X1458570Y-935715D02*
X1488570Y-965715D01*
X1488570Y-935715D02*
X1458570Y-965715D01*
X1458570Y-2535715D02*
X1488570Y-2565715D01*
X1488570Y-2535715D02*
X1458570Y-2565715D01*
X1458570Y-4135715D02*
X1488570Y-4165715D01*
X1488570Y-4135715D02*
X1458570Y-4165715D01*
X1458570Y-5735715D02*
X1488570Y-5765715D01*
X1488570Y-5735715D02*
X1458570Y-5765715D01*
X1458880Y-738151D02*
X1488880Y-768151D01*
X1488880Y-738151D02*
X1458880Y-768151D01*
X1458880Y-2338151D02*
X1488880Y-2368151D01*
X1488880Y-2338151D02*
X1458880Y-2368151D01*
X1458880Y-3938151D02*
X1488880Y-3968151D01*
X1488880Y-3938151D02*
X1458880Y-3968151D01*
X1458880Y-5538151D02*
X1488880Y-5568151D01*
X1488880Y-5538151D02*
X1458880Y-5568151D01*
X1459285Y-1061430D02*
X1489285Y-1091430D01*
X1489285Y-1061430D02*
X1459285Y-1091430D01*
X1459285Y-2661430D02*
X1489285Y-2691430D01*
X1489285Y-2661430D02*
X1459285Y-2691430D01*
X1459285Y-4261430D02*
X1489285Y-4291430D01*
X1489285Y-4261430D02*
X1459285Y-4291430D01*
X1459285Y-5861430D02*
X1489285Y-5891430D01*
X1489285Y-5861430D02*
X1459285Y-5891430D01*
X1460000Y-85000D02*
X1490000Y-115000D01*
X1490000Y-85000D02*
X1460000Y-115000D01*
X1460000Y-1685000D02*
X1490000Y-1715000D01*
X1490000Y-1685000D02*
X1460000Y-1715000D01*
X1460000Y-3285000D02*
X1490000Y-3315000D01*
X1490000Y-3285000D02*
X1460000Y-3315000D01*
X1460000Y-4885000D02*
X1490000Y-4915000D01*
X1490000Y-4885000D02*
X1460000Y-4915000D01*
X1469341Y-850659D02*
X1499341Y-880659D01*
X1499341Y-850659D02*
X1469341Y-880659D01*
X1469341Y-2450659D02*
X1499341Y-2480659D01*
X1499341Y-2450659D02*
X1469341Y-2480659D01*
X1469341Y-4050659D02*
X1499341Y-4080659D01*
X1499341Y-4050659D02*
X1469341Y-4080659D01*
X1469341Y-5650659D02*
X1499341Y-5680659D01*
X1499341Y-5650659D02*
X1469341Y-5680659D01*
X1478136Y-683970D02*
X1508136Y-713970D01*
X1508136Y-683970D02*
X1478136Y-713970D01*
X1478136Y-2283970D02*
X1508136Y-2313970D01*
X1508136Y-2283970D02*
X1478136Y-2313970D01*
X1478136Y-3883970D02*
X1508136Y-3913970D01*
X1508136Y-3883970D02*
X1478136Y-3913970D01*
X1478136Y-5483970D02*
X1508136Y-5513970D01*
X1508136Y-5483970D02*
X1478136Y-5513970D01*
X1483570Y-510715D02*
X1513570Y-540715D01*
X1513570Y-510715D02*
X1483570Y-540715D01*
X1483570Y-2110715D02*
X1513570Y-2140715D01*
X1513570Y-2110715D02*
X1483570Y-2140715D01*
X1483570Y-3710715D02*
X1513570Y-3740715D01*
X1513570Y-3710715D02*
X1483570Y-3740715D01*
X1483570Y-5310715D02*
X1513570Y-5340715D01*
X1513570Y-5310715D02*
X1483570Y-5340715D01*
X1485000Y-1010000D02*
X1515000Y-1040000D01*
X1515000Y-1010000D02*
X1485000Y-1040000D01*
X1485000Y-2610000D02*
X1515000Y-2640000D01*
X1515000Y-2610000D02*
X1485000Y-2640000D01*
X1485000Y-4210000D02*
X1515000Y-4240000D01*
X1515000Y-4210000D02*
X1485000Y-4240000D01*
X1485000Y-5810000D02*
X1515000Y-5840000D01*
X1515000Y-5810000D02*
X1485000Y-5840000D01*
X1510000Y-810000D02*
X1540000Y-840000D01*
X1540000Y-810000D02*
X1510000Y-840000D01*
X1510000Y-910000D02*
X1540000Y-940000D01*
X1540000Y-910000D02*
X1510000Y-940000D01*
X1510000Y-1110000D02*
X1540000Y-1140000D01*
X1540000Y-1110000D02*
X1510000Y-1140000D01*
X1510000Y-2410000D02*
X1540000Y-2440000D01*
X1540000Y-2410000D02*
X1510000Y-2440000D01*
X1510000Y-2510000D02*
X1540000Y-2540000D01*
X1540000Y-2510000D02*
X1510000Y-2540000D01*
X1510000Y-2710000D02*
X1540000Y-2740000D01*
X1540000Y-2710000D02*
X1510000Y-2740000D01*
X1510000Y-4010000D02*
X1540000Y-4040000D01*
X1540000Y-4010000D02*
X1510000Y-4040000D01*
X1510000Y-4110000D02*
X1540000Y-4140000D01*
X1540000Y-4110000D02*
X1510000Y-4140000D01*
X1510000Y-4310000D02*
X1540000Y-4340000D01*
X1540000Y-4310000D02*
X1510000Y-4340000D01*
X1510000Y-5610000D02*
X1540000Y-5640000D01*
X1540000Y-5610000D02*
X1510000Y-5640000D01*
X1510000Y-5710000D02*
X1540000Y-5740000D01*
X1540000Y-5710000D02*
X1510000Y-5740000D01*
X1510000Y-5910000D02*
X1540000Y-5940000D01*
X1540000Y-5910000D02*
X1510000Y-5940000D01*
X1535000Y-85000D02*
X1565000Y-115000D01*
X1565000Y-85000D02*
X1535000Y-115000D01*
X1535000Y-485000D02*
X1565000Y-515000D01*
X1565000Y-485000D02*
X1535000Y-515000D01*
X1535000Y-542500D02*
X1565000Y-572500D01*
X1565000Y-542500D02*
X1535000Y-572500D01*
X1535000Y-635000D02*
X1565000Y-665000D01*
X1565000Y-635000D02*
X1535000Y-665000D01*
X1535000Y-692500D02*
X1565000Y-722500D01*
X1565000Y-692500D02*
X1535000Y-722500D01*
X1535000Y-1510000D02*
X1565000Y-1540000D01*
X1565000Y-1510000D02*
X1535000Y-1540000D01*
X1535000Y-1685000D02*
X1565000Y-1715000D01*
X1565000Y-1685000D02*
X1535000Y-1715000D01*
X1535000Y-2085000D02*
X1565000Y-2115000D01*
X1565000Y-2085000D02*
X1535000Y-2115000D01*
X1535000Y-2142500D02*
X1565000Y-2172500D01*
X1565000Y-2142500D02*
X1535000Y-2172500D01*
X1535000Y-2235000D02*
X1565000Y-2265000D01*
X1565000Y-2235000D02*
X1535000Y-2265000D01*
X1535000Y-2292500D02*
X1565000Y-2322500D01*
X1565000Y-2292500D02*
X1535000Y-2322500D01*
X1535000Y-3110000D02*
X1565000Y-3140000D01*
X1565000Y-3110000D02*
X1535000Y-3140000D01*
X1535000Y-3285000D02*
X1565000Y-3315000D01*
X1565000Y-3285000D02*
X1535000Y-3315000D01*
X1535000Y-3685000D02*
X1565000Y-3715000D01*
X1565000Y-3685000D02*
X1535000Y-3715000D01*
X1535000Y-3742500D02*
X1565000Y-3772500D01*
X1565000Y-3742500D02*
X1535000Y-3772500D01*
X1535000Y-3835000D02*
X1565000Y-3865000D01*
X1565000Y-3835000D02*
X1535000Y-3865000D01*
X1535000Y-3892500D02*
X1565000Y-3922500D01*
X1565000Y-3892500D02*
X1535000Y-3922500D01*
X1535000Y-4710000D02*
X1565000Y-4740000D01*
X1565000Y-4710000D02*
X1535000Y-4740000D01*
X1535000Y-4885000D02*
X1565000Y-4915000D01*
X1565000Y-4885000D02*
X1535000Y-4915000D01*
X1535000Y-5285000D02*
X1565000Y-5315000D01*
X1565000Y-5285000D02*
X1535000Y-5315000D01*
X1535000Y-5342500D02*
X1565000Y-5372500D01*
X1565000Y-5342500D02*
X1535000Y-5372500D01*
X1535000Y-5435000D02*
X1565000Y-5465000D01*
X1565000Y-5435000D02*
X1535000Y-5465000D01*
X1535000Y-5492500D02*
X1565000Y-5522500D01*
X1565000Y-5492500D02*
X1535000Y-5522500D01*
X1535000Y-6310000D02*
X1565000Y-6340000D01*
X1565000Y-6310000D02*
X1535000Y-6340000D01*
X1606284Y-267250D02*
X1636284Y-297250D01*
X1636284Y-267250D02*
X1606284Y-297250D01*
X1606284Y-1867250D02*
X1636284Y-1897250D01*
X1636284Y-1867250D02*
X1606284Y-1897250D01*
X1606284Y-3467250D02*
X1636284Y-3497250D01*
X1636284Y-3467250D02*
X1606284Y-3497250D01*
X1606284Y-5067250D02*
X1636284Y-5097250D01*
X1636284Y-5067250D02*
X1606284Y-5097250D01*
X1632513Y-216080D02*
X1662513Y-246080D01*
X1662513Y-216080D02*
X1632513Y-246080D01*
X1632513Y-1816080D02*
X1662513Y-1846080D01*
X1662513Y-1816080D02*
X1632513Y-1846080D01*
X1632513Y-3416080D02*
X1662513Y-3446080D01*
X1662513Y-3416080D02*
X1632513Y-3446080D01*
X1632513Y-5016080D02*
X1662513Y-5046080D01*
X1662513Y-5016080D02*
X1632513Y-5046080D01*
X1635000Y-1460000D02*
X1665000Y-1490000D01*
X1665000Y-1460000D02*
X1635000Y-1490000D01*
X1635000Y-3060000D02*
X1665000Y-3090000D01*
X1665000Y-3060000D02*
X1635000Y-3090000D01*
X1635000Y-4660000D02*
X1665000Y-4690000D01*
X1665000Y-4660000D02*
X1635000Y-4690000D01*
X1635000Y-6260000D02*
X1665000Y-6290000D01*
X1665000Y-6260000D02*
X1635000Y-6290000D01*
X1644341Y-1369341D02*
X1674341Y-1399341D01*
X1674341Y-1369341D02*
X1644341Y-1399341D01*
X1644341Y-2969341D02*
X1674341Y-2999341D01*
X1674341Y-2969341D02*
X1644341Y-2999341D01*
X1644341Y-4569341D02*
X1674341Y-4599341D01*
X1674341Y-4569341D02*
X1644341Y-4599341D01*
X1644341Y-6169341D02*
X1674341Y-6199341D01*
X1674341Y-6169341D02*
X1644341Y-6199341D01*
X1654281Y-162860D02*
X1684281Y-192860D01*
X1684281Y-162860D02*
X1654281Y-192860D01*
X1654281Y-1762860D02*
X1684281Y-1792860D01*
X1684281Y-1762860D02*
X1654281Y-1792860D01*
X1654281Y-3362860D02*
X1684281Y-3392860D01*
X1684281Y-3362860D02*
X1654281Y-3392860D01*
X1654281Y-4962860D02*
X1684281Y-4992860D01*
X1684281Y-4962860D02*
X1654281Y-4992860D01*
X1660000Y-1235000D02*
X1690000Y-1265000D01*
X1690000Y-1235000D02*
X1660000Y-1265000D01*
X1660000Y-1292500D02*
X1690000Y-1322500D01*
X1690000Y-1292500D02*
X1660000Y-1322500D01*
X1660000Y-2835000D02*
X1690000Y-2865000D01*
X1690000Y-2835000D02*
X1660000Y-2865000D01*
X1660000Y-2892500D02*
X1690000Y-2922500D01*
X1690000Y-2892500D02*
X1660000Y-2922500D01*
X1660000Y-4435000D02*
X1690000Y-4465000D01*
X1690000Y-4435000D02*
X1660000Y-4465000D01*
X1660000Y-4492500D02*
X1690000Y-4522500D01*
X1690000Y-4492500D02*
X1660000Y-4522500D01*
X1660000Y-6035000D02*
X1690000Y-6065000D01*
X1690000Y-6035000D02*
X1660000Y-6065000D01*
X1660000Y-6092500D02*
X1690000Y-6122500D01*
X1690000Y-6092500D02*
X1660000Y-6122500D01*
X1685000Y-1410000D02*
X1715000Y-1440000D01*
X1715000Y-1410000D02*
X1685000Y-1440000D01*
X1685000Y-3010000D02*
X1715000Y-3040000D01*
X1715000Y-3010000D02*
X1685000Y-3040000D01*
X1685000Y-4610000D02*
X1715000Y-4640000D01*
X1715000Y-4610000D02*
X1685000Y-4640000D01*
X1685000Y-6210000D02*
X1715000Y-6240000D01*
X1715000Y-6210000D02*
X1685000Y-6240000D01*
X1705711Y-137145D02*
X1735711Y-167145D01*
X1735711Y-137145D02*
X1705711Y-167145D01*
X1705711Y-1737145D02*
X1735711Y-1767145D01*
X1735711Y-1737145D02*
X1705711Y-1767145D01*
X1705711Y-3337145D02*
X1735711Y-3367145D01*
X1735711Y-3337145D02*
X1705711Y-3367145D01*
X1705711Y-4937145D02*
X1735711Y-4967145D01*
X1735711Y-4937145D02*
X1705711Y-4967145D01*
X1735000Y-1510000D02*
X1765000Y-1540000D01*
X1765000Y-1510000D02*
X1735000Y-1540000D01*
X1735000Y-3110000D02*
X1765000Y-3140000D01*
X1765000Y-3110000D02*
X1735000Y-3140000D01*
X1735000Y-4710000D02*
X1765000Y-4740000D01*
X1765000Y-4710000D02*
X1735000Y-4740000D01*
X1735000Y-6310000D02*
X1765000Y-6340000D01*
X1765000Y-6310000D02*
X1735000Y-6340000D01*
X1757140Y-111430D02*
X1787140Y-141430D01*
X1787140Y-111430D02*
X1757140Y-141430D01*
X1757140Y-1711430D02*
X1787140Y-1741430D01*
X1787140Y-1711430D02*
X1757140Y-1741430D01*
X1757140Y-3311430D02*
X1787140Y-3341430D01*
X1787140Y-3311430D02*
X1757140Y-3341430D01*
X1757140Y-4911430D02*
X1787140Y-4941430D01*
X1787140Y-4911430D02*
X1757140Y-4941430D01*
X1783570Y-1459285D02*
X1813570Y-1489285D01*
X1813570Y-1459285D02*
X1783570Y-1489285D01*
X1783570Y-3059285D02*
X1813570Y-3089285D01*
X1813570Y-3059285D02*
X1783570Y-3089285D01*
X1783570Y-4659285D02*
X1813570Y-4689285D01*
X1813570Y-4659285D02*
X1783570Y-4689285D01*
X1783570Y-6259285D02*
X1813570Y-6289285D01*
X1813570Y-6259285D02*
X1783570Y-6289285D01*
X1808570Y-85715D02*
X1838570Y-115715D01*
X1838570Y-85715D02*
X1808570Y-115715D01*
X1808570Y-1685715D02*
X1838570Y-1715715D01*
X1838570Y-1685715D02*
X1808570Y-1715715D01*
X1808570Y-3285715D02*
X1838570Y-3315715D01*
X1838570Y-3285715D02*
X1808570Y-3315715D01*
X1808570Y-4885715D02*
X1838570Y-4915715D01*
X1838570Y-4885715D02*
X1808570Y-4915715D01*
X1835000Y-1485000D02*
X1865000Y-1515000D01*
X1865000Y-1485000D02*
X1835000Y-1515000D01*
X1835000Y-3085000D02*
X1865000Y-3115000D01*
X1865000Y-3085000D02*
X1835000Y-3115000D01*
X1835000Y-4685000D02*
X1865000Y-4715000D01*
X1865000Y-4685000D02*
X1835000Y-4715000D01*
X1835000Y-6285000D02*
X1865000Y-6315000D01*
X1865000Y-6285000D02*
X1835000Y-6315000D01*
X1860000Y-60000D02*
X1890000Y-90000D01*
X1890000Y-60000D02*
X1860000Y-90000D01*
X1860000Y-1660000D02*
X1890000Y-1690000D01*
X1890000Y-1660000D02*
X1860000Y-1690000D01*
X1860000Y-3260000D02*
X1890000Y-3290000D01*
X1890000Y-3260000D02*
X1860000Y-3290000D01*
X1860000Y-4860000D02*
X1890000Y-4890000D01*
X1890000Y-4860000D02*
X1860000Y-4890000D01*
X2035000Y-110000D02*
X2065000Y-140000D01*
X2065000Y-110000D02*
X2035000Y-140000D01*
X2035000Y-210000D02*
X2065000Y-240000D01*
X2065000Y-210000D02*
X2035000Y-240000D01*
X2035000Y-1160000D02*
X2065000Y-1190000D01*
X2065000Y-1160000D02*
X2035000Y-1190000D01*
X2035000Y-1410000D02*
X2065000Y-1440000D01*
X2065000Y-1410000D02*
X2035000Y-1440000D01*
X2035000Y-1485000D02*
X2065000Y-1515000D01*
X2065000Y-1485000D02*
X2035000Y-1515000D01*
X2035000Y-1710000D02*
X2065000Y-1740000D01*
X2065000Y-1710000D02*
X2035000Y-1740000D01*
X2035000Y-1810000D02*
X2065000Y-1840000D01*
X2065000Y-1810000D02*
X2035000Y-1840000D01*
X2035000Y-2760000D02*
X2065000Y-2790000D01*
X2065000Y-2760000D02*
X2035000Y-2790000D01*
X2035000Y-3010000D02*
X2065000Y-3040000D01*
X2065000Y-3010000D02*
X2035000Y-3040000D01*
X2035000Y-3085000D02*
X2065000Y-3115000D01*
X2065000Y-3085000D02*
X2035000Y-3115000D01*
X2035000Y-3310000D02*
X2065000Y-3340000D01*
X2065000Y-3310000D02*
X2035000Y-3340000D01*
X2035000Y-3410000D02*
X2065000Y-3440000D01*
X2065000Y-3410000D02*
X2035000Y-3440000D01*
X2035000Y-4360000D02*
X2065000Y-4390000D01*
X2065000Y-4360000D02*
X2035000Y-4390000D01*
X2035000Y-4610000D02*
X2065000Y-4640000D01*
X2065000Y-4610000D02*
X2035000Y-4640000D01*
X2035000Y-4685000D02*
X2065000Y-4715000D01*
X2065000Y-4685000D02*
X2035000Y-4715000D01*
X2035000Y-4910000D02*
X2065000Y-4940000D01*
X2065000Y-4910000D02*
X2035000Y-4940000D01*
X2035000Y-5010000D02*
X2065000Y-5040000D01*
X2065000Y-5010000D02*
X2035000Y-5040000D01*
X2035000Y-5960000D02*
X2065000Y-5990000D01*
X2065000Y-5960000D02*
X2035000Y-5990000D01*
X2035000Y-6210000D02*
X2065000Y-6240000D01*
X2065000Y-6210000D02*
X2035000Y-6240000D01*
X2035000Y-6285000D02*
X2065000Y-6315000D01*
X2065000Y-6285000D02*
X2035000Y-6315000D01*
X2135000Y-110000D02*
X2165000Y-140000D01*
X2165000Y-110000D02*
X2135000Y-140000D01*
X2135000Y-1485000D02*
X2165000Y-1515000D01*
X2165000Y-1485000D02*
X2135000Y-1515000D01*
X2135000Y-1710000D02*
X2165000Y-1740000D01*
X2165000Y-1710000D02*
X2135000Y-1740000D01*
X2135000Y-3085000D02*
X2165000Y-3115000D01*
X2165000Y-3085000D02*
X2135000Y-3115000D01*
X2135000Y-3310000D02*
X2165000Y-3340000D01*
X2165000Y-3310000D02*
X2135000Y-3340000D01*
X2135000Y-4685000D02*
X2165000Y-4715000D01*
X2165000Y-4685000D02*
X2135000Y-4715000D01*
X2135000Y-4910000D02*
X2165000Y-4940000D01*
X2165000Y-4910000D02*
X2135000Y-4940000D01*
X2135000Y-6285000D02*
X2165000Y-6315000D01*
X2165000Y-6285000D02*
X2135000Y-6315000D01*
X2310000Y-60000D02*
X2340000Y-90000D01*
X2340000Y-60000D02*
X2310000Y-90000D01*
X2310000Y-1660000D02*
X2340000Y-1690000D01*
X2340000Y-1660000D02*
X2310000Y-1690000D01*
X2310000Y-3260000D02*
X2340000Y-3290000D01*
X2340000Y-3260000D02*
X2310000Y-3290000D01*
X2310000Y-4860000D02*
X2340000Y-4890000D01*
X2340000Y-4860000D02*
X2310000Y-4890000D01*
X2335000Y-1510000D02*
X2365000Y-1540000D01*
X2365000Y-1510000D02*
X2335000Y-1540000D01*
X2335000Y-3110000D02*
X2365000Y-3140000D01*
X2365000Y-3110000D02*
X2335000Y-3140000D01*
X2335000Y-4710000D02*
X2365000Y-4740000D01*
X2365000Y-4710000D02*
X2335000Y-4740000D01*
X2335000Y-6310000D02*
X2365000Y-6340000D01*
X2365000Y-6310000D02*
X2335000Y-6340000D01*
X2361430Y-85715D02*
X2391430Y-115715D01*
X2391430Y-85715D02*
X2361430Y-115715D01*
X2361430Y-1685715D02*
X2391430Y-1715715D01*
X2391430Y-1685715D02*
X2361430Y-1715715D01*
X2361430Y-3285715D02*
X2391430Y-3315715D01*
X2391430Y-3285715D02*
X2361430Y-3315715D01*
X2361430Y-4885715D02*
X2391430Y-4915715D01*
X2391430Y-4885715D02*
X2361430Y-4915715D01*
X2375659Y-1469341D02*
X2405659Y-1499341D01*
X2405659Y-1469341D02*
X2375659Y-1499341D01*
X2375659Y-3069341D02*
X2405659Y-3099341D01*
X2405659Y-3069341D02*
X2375659Y-3099341D01*
X2375659Y-4669341D02*
X2405659Y-4699341D01*
X2405659Y-4669341D02*
X2375659Y-4699341D01*
X2375659Y-6269341D02*
X2405659Y-6299341D01*
X2405659Y-6269341D02*
X2375659Y-6299341D01*
X2385000Y-1135000D02*
X2415000Y-1165000D01*
X2415000Y-1135000D02*
X2385000Y-1165000D01*
X2385000Y-2735000D02*
X2415000Y-2765000D01*
X2415000Y-2735000D02*
X2385000Y-2765000D01*
X2385000Y-4335000D02*
X2415000Y-4365000D01*
X2415000Y-4335000D02*
X2385000Y-4365000D01*
X2385000Y-5935000D02*
X2415000Y-5965000D01*
X2415000Y-5935000D02*
X2385000Y-5965000D01*
X2412860Y-111430D02*
X2442860Y-141430D01*
X2442860Y-111430D02*
X2412860Y-141430D01*
X2412860Y-1711430D02*
X2442860Y-1741430D01*
X2442860Y-1711430D02*
X2412860Y-1741430D01*
X2412860Y-3311430D02*
X2442860Y-3341430D01*
X2442860Y-3311430D02*
X2412860Y-3341430D01*
X2412860Y-4911430D02*
X2442860Y-4941430D01*
X2442860Y-4911430D02*
X2412860Y-4941430D01*
X2427977Y-1493197D02*
X2457977Y-1523197D01*
X2457977Y-1493197D02*
X2427977Y-1523197D01*
X2427977Y-3093197D02*
X2457977Y-3123197D01*
X2457977Y-3093197D02*
X2427977Y-3123197D01*
X2427977Y-4693197D02*
X2457977Y-4723197D01*
X2457977Y-4693197D02*
X2427977Y-4723197D01*
X2427977Y-6293197D02*
X2457977Y-6323197D01*
X2457977Y-6293197D02*
X2427977Y-6323197D01*
X2436710Y-163751D02*
X2466710Y-193750D01*
X2466710Y-163751D02*
X2436710Y-193750D01*
X2436710Y-1763750D02*
X2466710Y-1793750D01*
X2466710Y-1763750D02*
X2436710Y-1793750D01*
X2436710Y-3363750D02*
X2466710Y-3393750D01*
X2466710Y-3363750D02*
X2436710Y-3393750D01*
X2436710Y-4963751D02*
X2466710Y-4993751D01*
X2466710Y-4963751D02*
X2436710Y-4993751D01*
X2460000Y-1235000D02*
X2490000Y-1265000D01*
X2490000Y-1235000D02*
X2460000Y-1265000D01*
X2460000Y-2835000D02*
X2490000Y-2865000D01*
X2490000Y-2835000D02*
X2460000Y-2865000D01*
X2460000Y-4435000D02*
X2490000Y-4465000D01*
X2490000Y-4435000D02*
X2460000Y-4465000D01*
X2460000Y-6035000D02*
X2490000Y-6065000D01*
X2490000Y-6035000D02*
X2460000Y-6065000D01*
X2479187Y-202506D02*
X2509187Y-232506D01*
X2509187Y-202506D02*
X2479187Y-232506D01*
X2479187Y-1802506D02*
X2509187Y-1832506D01*
X2509187Y-1802506D02*
X2479187Y-1832506D01*
X2479187Y-3402506D02*
X2509187Y-3432506D01*
X2509187Y-3402506D02*
X2479187Y-3432506D01*
X2479187Y-5002506D02*
X2509187Y-5032506D01*
X2509187Y-5002506D02*
X2479187Y-5032506D01*
X2485000Y-1335000D02*
X2515000Y-1365000D01*
X2515000Y-1335000D02*
X2485000Y-1365000D01*
X2485000Y-1485000D02*
X2515000Y-1515000D01*
X2515000Y-1485000D02*
X2485000Y-1515000D01*
X2485000Y-2935000D02*
X2515000Y-2965000D01*
X2515000Y-2935000D02*
X2485000Y-2965000D01*
X2485000Y-3085000D02*
X2515000Y-3115000D01*
X2515000Y-3085000D02*
X2485000Y-3115000D01*
X2485000Y-4535000D02*
X2515000Y-4565000D01*
X2515000Y-4535000D02*
X2485000Y-4565000D01*
X2485000Y-4685000D02*
X2515000Y-4715000D01*
X2515000Y-4685000D02*
X2485000Y-4715000D01*
X2485000Y-6135000D02*
X2515000Y-6165000D01*
X2515000Y-6135000D02*
X2485000Y-6165000D01*
X2485000Y-6285000D02*
X2515000Y-6315000D01*
X2515000Y-6285000D02*
X2485000Y-6315000D01*
X2510715Y-1433570D02*
X2540715Y-1463570D01*
X2540715Y-1433570D02*
X2510715Y-1463570D01*
X2510715Y-3033570D02*
X2540715Y-3063570D01*
X2540715Y-3033570D02*
X2510715Y-3063570D01*
X2510715Y-4633570D02*
X2540715Y-4663570D01*
X2540715Y-4633570D02*
X2510715Y-4663570D01*
X2510715Y-6233570D02*
X2540715Y-6263570D01*
X2540715Y-6233570D02*
X2510715Y-6263570D01*
X2534982Y-273595D02*
X2564982Y-303595D01*
X2564982Y-273595D02*
X2534982Y-303595D01*
X2534982Y-1873595D02*
X2564982Y-1903595D01*
X2564982Y-1873595D02*
X2534982Y-1903595D01*
X2534982Y-3473595D02*
X2564982Y-3503595D01*
X2564982Y-3473595D02*
X2534982Y-3503595D01*
X2534982Y-5073595D02*
X2564982Y-5103595D01*
X2564982Y-5073595D02*
X2534982Y-5103595D01*
X2535000Y-85000D02*
X2565000Y-115000D01*
X2565000Y-85000D02*
X2535000Y-115000D01*
X2535000Y-1685000D02*
X2565000Y-1715000D01*
X2565000Y-1685000D02*
X2535000Y-1715000D01*
X2535000Y-3285000D02*
X2565000Y-3315000D01*
X2565000Y-3285000D02*
X2535000Y-3315000D01*
X2535000Y-4885000D02*
X2565000Y-4915000D01*
X2565000Y-4885000D02*
X2535000Y-4915000D01*
X2535058Y-216095D02*
X2565058Y-246095D01*
X2565058Y-216095D02*
X2535058Y-246095D01*
X2535058Y-1816095D02*
X2565058Y-1846095D01*
X2565058Y-1816095D02*
X2535058Y-1846095D01*
X2535058Y-3416095D02*
X2565058Y-3446095D01*
X2565058Y-3416095D02*
X2535058Y-3446095D01*
X2535058Y-5016095D02*
X2565058Y-5046095D01*
X2565058Y-5016095D02*
X2535058Y-5046095D01*
X2536430Y-1360715D02*
X2566430Y-1390715D01*
X2566430Y-1360715D02*
X2536430Y-1390715D01*
X2536430Y-2960715D02*
X2566430Y-2990715D01*
X2566430Y-2960715D02*
X2536430Y-2990715D01*
X2536430Y-4560715D02*
X2566430Y-4590715D01*
X2566430Y-4560715D02*
X2536430Y-4590715D01*
X2536430Y-6160715D02*
X2566430Y-6190715D01*
X2566430Y-6160715D02*
X2536430Y-6190715D01*
X2560000Y-360000D02*
X2590000Y-390000D01*
X2590000Y-360000D02*
X2560000Y-390000D01*
X2560000Y-1960000D02*
X2590000Y-1990000D01*
X2590000Y-1960000D02*
X2560000Y-1990000D01*
X2560000Y-3560000D02*
X2590000Y-3590000D01*
X2590000Y-3560000D02*
X2560000Y-3590000D01*
X2560000Y-5160000D02*
X2590000Y-5190000D01*
X2590000Y-5160000D02*
X2560000Y-5190000D01*
X2610000Y-1025659D02*
X2640000Y-1055659D01*
X2640000Y-1025659D02*
X2610000Y-1055659D01*
X2610000Y-2625659D02*
X2640000Y-2655659D01*
X2640000Y-2625659D02*
X2610000Y-2655659D01*
X2610000Y-4225659D02*
X2640000Y-4255659D01*
X2640000Y-4225659D02*
X2610000Y-4255659D01*
X2610000Y-5825659D02*
X2640000Y-5855659D01*
X2640000Y-5825659D02*
X2610000Y-5855659D01*
X2635000Y-835000D02*
X2665000Y-865000D01*
X2665000Y-835000D02*
X2635000Y-865000D01*
X2635000Y-2435000D02*
X2665000Y-2465000D01*
X2665000Y-2435000D02*
X2635000Y-2465000D01*
X2635000Y-4035000D02*
X2665000Y-4065000D01*
X2665000Y-4035000D02*
X2635000Y-4065000D01*
X2635000Y-5635000D02*
X2665000Y-5665000D01*
X2665000Y-5635000D02*
X2635000Y-5665000D01*
X2660000Y-460000D02*
X2690000Y-490000D01*
X2690000Y-460000D02*
X2660000Y-490000D01*
X2660000Y-610000D02*
X2690000Y-640000D01*
X2690000Y-610000D02*
X2660000Y-640000D01*
X2660000Y-1485000D02*
X2690000Y-1515000D01*
X2690000Y-1485000D02*
X2660000Y-1515000D01*
X2660000Y-2060000D02*
X2690000Y-2090000D01*
X2690000Y-2060000D02*
X2660000Y-2090000D01*
X2660000Y-2210000D02*
X2690000Y-2240000D01*
X2690000Y-2210000D02*
X2660000Y-2240000D01*
X2660000Y-3085000D02*
X2690000Y-3115000D01*
X2690000Y-3085000D02*
X2660000Y-3115000D01*
X2660000Y-3660000D02*
X2690000Y-3690000D01*
X2690000Y-3660000D02*
X2660000Y-3690000D01*
X2660000Y-3810000D02*
X2690000Y-3840000D01*
X2690000Y-3810000D02*
X2660000Y-3840000D01*
X2660000Y-4685000D02*
X2690000Y-4715000D01*
X2690000Y-4685000D02*
X2660000Y-4715000D01*
X2660000Y-5260000D02*
X2690000Y-5290000D01*
X2690000Y-5260000D02*
X2660000Y-5290000D01*
X2660000Y-5410000D02*
X2690000Y-5440000D01*
X2690000Y-5410000D02*
X2660000Y-5440000D01*
X2660000Y-6285000D02*
X2690000Y-6315000D01*
X2690000Y-6285000D02*
X2660000Y-6315000D01*
X2682609Y-1030586D02*
X2712609Y-1060586D01*
X2712609Y-1030586D02*
X2682609Y-1060586D01*
X2682609Y-2630586D02*
X2712609Y-2660586D01*
X2712609Y-2630586D02*
X2682609Y-2660586D01*
X2682609Y-4230586D02*
X2712609Y-4260586D01*
X2712609Y-4230586D02*
X2682609Y-4260586D01*
X2682609Y-5830586D02*
X2712609Y-5860586D01*
X2712609Y-5830586D02*
X2682609Y-5860586D01*
X2685000Y-960000D02*
X2715000Y-990000D01*
X2715000Y-960000D02*
X2685000Y-990000D01*
X2685000Y-2560000D02*
X2715000Y-2590000D01*
X2715000Y-2560000D02*
X2685000Y-2590000D01*
X2685000Y-4160000D02*
X2715000Y-4190000D01*
X2715000Y-4160000D02*
X2685000Y-4190000D01*
X2685000Y-5760000D02*
X2715000Y-5790000D01*
X2715000Y-5760000D02*
X2685000Y-5790000D01*
X2710000Y-60000D02*
X2740000Y-90000D01*
X2740000Y-60000D02*
X2710000Y-90000D01*
X2710000Y-685000D02*
X2740000Y-715000D01*
X2740000Y-685000D02*
X2710000Y-715000D01*
X2710000Y-742500D02*
X2740000Y-772500D01*
X2740000Y-742500D02*
X2710000Y-772500D01*
X2710000Y-810000D02*
X2740000Y-840000D01*
X2740000Y-810000D02*
X2710000Y-840000D01*
X2710000Y-1081143D02*
X2740000Y-1111143D01*
X2740000Y-1081143D02*
X2710000Y-1111143D01*
X2710000Y-1660000D02*
X2740000Y-1690000D01*
X2740000Y-1660000D02*
X2710000Y-1690000D01*
X2710000Y-2285000D02*
X2740000Y-2315000D01*
X2740000Y-2285000D02*
X2710000Y-2315000D01*
X2710000Y-2342500D02*
X2740000Y-2372500D01*
X2740000Y-2342500D02*
X2710000Y-2372500D01*
X2710000Y-2410000D02*
X2740000Y-2440000D01*
X2740000Y-2410000D02*
X2710000Y-2440000D01*
X2710000Y-2681143D02*
X2740000Y-2711143D01*
X2740000Y-2681143D02*
X2710000Y-2711143D01*
X2710000Y-3260000D02*
X2740000Y-3290000D01*
X2740000Y-3260000D02*
X2710000Y-3290000D01*
X2710000Y-3885000D02*
X2740000Y-3915000D01*
X2740000Y-3885000D02*
X2710000Y-3915000D01*
X2710000Y-3942500D02*
X2740000Y-3972500D01*
X2740000Y-3942500D02*
X2710000Y-3972500D01*
X2710000Y-4010000D02*
X2740000Y-4040000D01*
X2740000Y-4010000D02*
X2710000Y-4040000D01*
X2710000Y-4281143D02*
X2740000Y-4311143D01*
X2740000Y-4281143D02*
X2710000Y-4311143D01*
X2710000Y-4860000D02*
X2740000Y-4890000D01*
X2740000Y-4860000D02*
X2710000Y-4890000D01*
X2710000Y-5485000D02*
X2740000Y-5515000D01*
X2740000Y-5485000D02*
X2710000Y-5515000D01*
X2710000Y-5542500D02*
X2740000Y-5572500D01*
X2740000Y-5542500D02*
X2710000Y-5572500D01*
X2710000Y-5610000D02*
X2740000Y-5640000D01*
X2740000Y-5610000D02*
X2710000Y-5640000D01*
X2710000Y-5881143D02*
X2740000Y-5911143D01*
X2740000Y-5881143D02*
X2710000Y-5911143D01*
X2710715Y-908570D02*
X2740715Y-938570D01*
X2740715Y-908570D02*
X2710715Y-938570D01*
X2710715Y-2508570D02*
X2740715Y-2538570D01*
X2740715Y-2508570D02*
X2710715Y-2538570D01*
X2710715Y-4108570D02*
X2740715Y-4138570D01*
X2740715Y-4108570D02*
X2710715Y-4138570D01*
X2710715Y-5708570D02*
X2740715Y-5738570D01*
X2740715Y-5708570D02*
X2710715Y-5738570D01*
X2717500Y-535000D02*
X2747500Y-565000D01*
X2747500Y-535000D02*
X2717500Y-565000D01*
X2717500Y-610000D02*
X2747500Y-640000D01*
X2747500Y-610000D02*
X2717500Y-640000D01*
X2717500Y-2135000D02*
X2747500Y-2165000D01*
X2747500Y-2135000D02*
X2717500Y-2165000D01*
X2717500Y-2210000D02*
X2747500Y-2240000D01*
X2747500Y-2210000D02*
X2717500Y-2240000D01*
X2717500Y-3735000D02*
X2747500Y-3765000D01*
X2747500Y-3735000D02*
X2717500Y-3765000D01*
X2717500Y-3810000D02*
X2747500Y-3840000D01*
X2747500Y-3810000D02*
X2717500Y-3840000D01*
X2717500Y-5335000D02*
X2747500Y-5365000D01*
X2747500Y-5335000D02*
X2717500Y-5365000D01*
X2717500Y-5410000D02*
X2747500Y-5440000D01*
X2747500Y-5410000D02*
X2717500Y-5440000D01*
X2852500Y-1118528D02*
X2882500Y-1148528D01*
X2882500Y-1118528D02*
X2852500Y-1148528D01*
X2852500Y-2718528D02*
X2882500Y-2748528D01*
X2882500Y-2718528D02*
X2852500Y-2748528D01*
X2852500Y-4318528D02*
X2882500Y-4348528D01*
X2882500Y-4318528D02*
X2852500Y-4348528D01*
X2852500Y-5918528D02*
X2882500Y-5948528D01*
X2882500Y-5918528D02*
X2852500Y-5948528D01*
X2858570Y-935715D02*
X2888570Y-965715D01*
X2888570Y-935715D02*
X2858570Y-965715D01*
X2858570Y-2535715D02*
X2888570Y-2565715D01*
X2888570Y-2535715D02*
X2858570Y-2565715D01*
X2858570Y-4135715D02*
X2888570Y-4165715D01*
X2888570Y-4135715D02*
X2858570Y-4165715D01*
X2858570Y-5735715D02*
X2888570Y-5765715D01*
X2888570Y-5735715D02*
X2858570Y-5765715D01*
X2858880Y-738151D02*
X2888880Y-768151D01*
X2888880Y-738151D02*
X2858880Y-768151D01*
X2858880Y-2338151D02*
X2888880Y-2368151D01*
X2888880Y-2338151D02*
X2858880Y-2368151D01*
X2858880Y-3938151D02*
X2888880Y-3968151D01*
X2888880Y-3938151D02*
X2858880Y-3968151D01*
X2858880Y-5538151D02*
X2888880Y-5568151D01*
X2888880Y-5538151D02*
X2858880Y-5568151D01*
X2859285Y-1061430D02*
X2889285Y-1091430D01*
X2889285Y-1061430D02*
X2859285Y-1091430D01*
X2859285Y-2661430D02*
X2889285Y-2691430D01*
X2889285Y-2661430D02*
X2859285Y-2691430D01*
X2859285Y-4261430D02*
X2889285Y-4291430D01*
X2889285Y-4261430D02*
X2859285Y-4291430D01*
X2859285Y-5861430D02*
X2889285Y-5891430D01*
X2889285Y-5861430D02*
X2859285Y-5891430D01*
X2860000Y-85000D02*
X2890000Y-115000D01*
X2890000Y-85000D02*
X2860000Y-115000D01*
X2860000Y-1685000D02*
X2890000Y-1715000D01*
X2890000Y-1685000D02*
X2860000Y-1715000D01*
X2860000Y-3285000D02*
X2890000Y-3315000D01*
X2890000Y-3285000D02*
X2860000Y-3315000D01*
X2860000Y-4885000D02*
X2890000Y-4915000D01*
X2890000Y-4885000D02*
X2860000Y-4915000D01*
X2869341Y-850659D02*
X2899341Y-880659D01*
X2899341Y-850659D02*
X2869341Y-880659D01*
X2869341Y-2450659D02*
X2899341Y-2480659D01*
X2899341Y-2450659D02*
X2869341Y-2480659D01*
X2869341Y-4050659D02*
X2899341Y-4080659D01*
X2899341Y-4050659D02*
X2869341Y-4080659D01*
X2869341Y-5650659D02*
X2899341Y-5680659D01*
X2899341Y-5650659D02*
X2869341Y-5680659D01*
X2878136Y-683970D02*
X2908136Y-713970D01*
X2908136Y-683970D02*
X2878136Y-713970D01*
X2878136Y-2283970D02*
X2908136Y-2313970D01*
X2908136Y-2283970D02*
X2878136Y-2313970D01*
X2878136Y-3883970D02*
X2908136Y-3913970D01*
X2908136Y-3883970D02*
X2878136Y-3913970D01*
X2878136Y-5483970D02*
X2908136Y-5513970D01*
X2908136Y-5483970D02*
X2878136Y-5513970D01*
X2883570Y-510715D02*
X2913570Y-540715D01*
X2913570Y-510715D02*
X2883570Y-540715D01*
X2883570Y-2110715D02*
X2913570Y-2140715D01*
X2913570Y-2110715D02*
X2883570Y-2140715D01*
X2883570Y-3710715D02*
X2913570Y-3740715D01*
X2913570Y-3710715D02*
X2883570Y-3740715D01*
X2883570Y-5310715D02*
X2913570Y-5340715D01*
X2913570Y-5310715D02*
X2883570Y-5340715D01*
X2885000Y-1010000D02*
X2915000Y-1040000D01*
X2915000Y-1010000D02*
X2885000Y-1040000D01*
X2885000Y-2610000D02*
X2915000Y-2640000D01*
X2915000Y-2610000D02*
X2885000Y-2640000D01*
X2885000Y-4210000D02*
X2915000Y-4240000D01*
X2915000Y-4210000D02*
X2885000Y-4240000D01*
X2885000Y-5810000D02*
X2915000Y-5840000D01*
X2915000Y-5810000D02*
X2885000Y-5840000D01*
X2910000Y-810000D02*
X2940000Y-840000D01*
X2940000Y-810000D02*
X2910000Y-840000D01*
X2910000Y-910000D02*
X2940000Y-940000D01*
X2940000Y-910000D02*
X2910000Y-940000D01*
X2910000Y-1110000D02*
X2940000Y-1140000D01*
X2940000Y-1110000D02*
X2910000Y-1140000D01*
X2910000Y-2410000D02*
X2940000Y-2440000D01*
X2940000Y-2410000D02*
X2910000Y-2440000D01*
X2910000Y-2510000D02*
X2940000Y-2540000D01*
X2940000Y-2510000D02*
X2910000Y-2540000D01*
X2910000Y-2710000D02*
X2940000Y-2740000D01*
X2940000Y-2710000D02*
X2910000Y-2740000D01*
X2910000Y-4010000D02*
X2940000Y-4040000D01*
X2940000Y-4010000D02*
X2910000Y-4040000D01*
X2910000Y-4110000D02*
X2940000Y-4140000D01*
X2940000Y-4110000D02*
X2910000Y-4140000D01*
X2910000Y-4310000D02*
X2940000Y-4340000D01*
X2940000Y-4310000D02*
X2910000Y-4340000D01*
X2910000Y-5610000D02*
X2940000Y-5640000D01*
X2940000Y-5610000D02*
X2910000Y-5640000D01*
X2910000Y-5710000D02*
X2940000Y-5740000D01*
X2940000Y-5710000D02*
X2910000Y-5740000D01*
X2910000Y-5910000D02*
X2940000Y-5940000D01*
X2940000Y-5910000D02*
X2910000Y-5940000D01*
X2935000Y-85000D02*
X2965000Y-115000D01*
X2965000Y-85000D02*
X2935000Y-115000D01*
X2935000Y-485000D02*
X2965000Y-515000D01*
X2965000Y-485000D02*
X2935000Y-515000D01*
X2935000Y-542500D02*
X2965000Y-572500D01*
X2965000Y-542500D02*
X2935000Y-572500D01*
X2935000Y-635000D02*
X2965000Y-665000D01*
X2965000Y-635000D02*
X2935000Y-665000D01*
X2935000Y-692500D02*
X2965000Y-722500D01*
X2965000Y-692500D02*
X2935000Y-722500D01*
X2935000Y-1510000D02*
X2965000Y-1540000D01*
X2965000Y-1510000D02*
X2935000Y-1540000D01*
X2935000Y-1685000D02*
X2965000Y-1715000D01*
X2965000Y-1685000D02*
X2935000Y-1715000D01*
X2935000Y-2085000D02*
X2965000Y-2115000D01*
X2965000Y-2085000D02*
X2935000Y-2115000D01*
X2935000Y-2142500D02*
X2965000Y-2172500D01*
X2965000Y-2142500D02*
X2935000Y-2172500D01*
X2935000Y-2235000D02*
X2965000Y-2265000D01*
X2965000Y-2235000D02*
X2935000Y-2265000D01*
X2935000Y-2292500D02*
X2965000Y-2322500D01*
X2965000Y-2292500D02*
X2935000Y-2322500D01*
X2935000Y-3110000D02*
X2965000Y-3140000D01*
X2965000Y-3110000D02*
X2935000Y-3140000D01*
X2935000Y-3285000D02*
X2965000Y-3315000D01*
X2965000Y-3285000D02*
X2935000Y-3315000D01*
X2935000Y-3685000D02*
X2965000Y-3715000D01*
X2965000Y-3685000D02*
X2935000Y-3715000D01*
X2935000Y-3742500D02*
X2965000Y-3772500D01*
X2965000Y-3742500D02*
X2935000Y-3772500D01*
X2935000Y-3835000D02*
X2965000Y-3865000D01*
X2965000Y-3835000D02*
X2935000Y-3865000D01*
X2935000Y-3892500D02*
X2965000Y-3922500D01*
X2965000Y-3892500D02*
X2935000Y-3922500D01*
X2935000Y-4710000D02*
X2965000Y-4740000D01*
X2965000Y-4710000D02*
X2935000Y-4740000D01*
X2935000Y-4885000D02*
X2965000Y-4915000D01*
X2965000Y-4885000D02*
X2935000Y-4915000D01*
X2935000Y-5285000D02*
X2965000Y-5315000D01*
X2965000Y-5285000D02*
X2935000Y-5315000D01*
X2935000Y-5342500D02*
X2965000Y-5372500D01*
X2965000Y-5342500D02*
X2935000Y-5372500D01*
X2935000Y-5435000D02*
X2965000Y-5465000D01*
X2965000Y-5435000D02*
X2935000Y-5465000D01*
X2935000Y-5492500D02*
X2965000Y-5522500D01*
X2965000Y-5492500D02*
X2935000Y-5522500D01*
X2935000Y-6310000D02*
X2965000Y-6340000D01*
X2965000Y-6310000D02*
X2935000Y-6340000D01*
X3006284Y-267250D02*
X3036284Y-297250D01*
X3036284Y-267250D02*
X3006284Y-297250D01*
X3006284Y-1867250D02*
X3036284Y-1897250D01*
X3036284Y-1867250D02*
X3006284Y-1897250D01*
X3006284Y-3467250D02*
X3036284Y-3497250D01*
X3036284Y-3467250D02*
X3006284Y-3497250D01*
X3006284Y-5067250D02*
X3036284Y-5097250D01*
X3036284Y-5067250D02*
X3006284Y-5097250D01*
X3032513Y-216080D02*
X3062513Y-246080D01*
X3062513Y-216080D02*
X3032513Y-246080D01*
X3032513Y-1816080D02*
X3062513Y-1846080D01*
X3062513Y-1816080D02*
X3032513Y-1846080D01*
X3032513Y-3416080D02*
X3062513Y-3446080D01*
X3062513Y-3416080D02*
X3032513Y-3446080D01*
X3032513Y-5016080D02*
X3062513Y-5046080D01*
X3062513Y-5016080D02*
X3032513Y-5046080D01*
X3035000Y-1460000D02*
X3065000Y-1490000D01*
X3065000Y-1460000D02*
X3035000Y-1490000D01*
X3035000Y-3060000D02*
X3065000Y-3090000D01*
X3065000Y-3060000D02*
X3035000Y-3090000D01*
X3035000Y-4660000D02*
X3065000Y-4690000D01*
X3065000Y-4660000D02*
X3035000Y-4690000D01*
X3035000Y-6260000D02*
X3065000Y-6290000D01*
X3065000Y-6260000D02*
X3035000Y-6290000D01*
X3044341Y-1369341D02*
X3074341Y-1399341D01*
X3074341Y-1369341D02*
X3044341Y-1399341D01*
X3044341Y-2969341D02*
X3074341Y-2999341D01*
X3074341Y-2969341D02*
X3044341Y-2999341D01*
X3044341Y-4569341D02*
X3074341Y-4599341D01*
X3074341Y-4569341D02*
X3044341Y-4599341D01*
X3044341Y-6169341D02*
X3074341Y-6199341D01*
X3074341Y-6169341D02*
X3044341Y-6199341D01*
X3054281Y-162860D02*
X3084281Y-192860D01*
X3084281Y-162860D02*
X3054281Y-192860D01*
X3054281Y-1762860D02*
X3084281Y-1792860D01*
X3084281Y-1762860D02*
X3054281Y-1792860D01*
X3054281Y-3362860D02*
X3084281Y-3392860D01*
X3084281Y-3362860D02*
X3054281Y-3392860D01*
X3054281Y-4962860D02*
X3084281Y-4992860D01*
X3084281Y-4962860D02*
X3054281Y-4992860D01*
X3060000Y-1235000D02*
X3090000Y-1265000D01*
X3090000Y-1235000D02*
X3060000Y-1265000D01*
X3060000Y-1292500D02*
X3090000Y-1322500D01*
X3090000Y-1292500D02*
X3060000Y-1322500D01*
X3060000Y-2835000D02*
X3090000Y-2865000D01*
X3090000Y-2835000D02*
X3060000Y-2865000D01*
X3060000Y-2892500D02*
X3090000Y-2922500D01*
X3090000Y-2892500D02*
X3060000Y-2922500D01*
X3060000Y-4435000D02*
X3090000Y-4465000D01*
X3090000Y-4435000D02*
X3060000Y-4465000D01*
X3060000Y-4492500D02*
X3090000Y-4522500D01*
X3090000Y-4492500D02*
X3060000Y-4522500D01*
X3060000Y-6035000D02*
X3090000Y-6065000D01*
X3090000Y-6035000D02*
X3060000Y-6065000D01*
X3060000Y-6092500D02*
X3090000Y-6122500D01*
X3090000Y-6092500D02*
X3060000Y-6122500D01*
X3085000Y-1410000D02*
X3115000Y-1440000D01*
X3115000Y-1410000D02*
X3085000Y-1440000D01*
X3085000Y-3010000D02*
X3115000Y-3040000D01*
X3115000Y-3010000D02*
X3085000Y-3040000D01*
X3085000Y-4610000D02*
X3115000Y-4640000D01*
X3115000Y-4610000D02*
X3085000Y-4640000D01*
X3085000Y-6210000D02*
X3115000Y-6240000D01*
X3115000Y-6210000D02*
X3085000Y-6240000D01*
X3105711Y-137145D02*
X3135711Y-167145D01*
X3135711Y-137145D02*
X3105711Y-167145D01*
X3105711Y-1737145D02*
X3135711Y-1767145D01*
X3135711Y-1737145D02*
X3105711Y-1767145D01*
X3105711Y-3337145D02*
X3135711Y-3367145D01*
X3135711Y-3337145D02*
X3105711Y-3367145D01*
X3105711Y-4937145D02*
X3135711Y-4967145D01*
X3135711Y-4937145D02*
X3105711Y-4967145D01*
X3135000Y-1510000D02*
X3165000Y-1540000D01*
X3165000Y-1510000D02*
X3135000Y-1540000D01*
X3135000Y-3110000D02*
X3165000Y-3140000D01*
X3165000Y-3110000D02*
X3135000Y-3140000D01*
X3135000Y-4710000D02*
X3165000Y-4740000D01*
X3165000Y-4710000D02*
X3135000Y-4740000D01*
X3135000Y-6310000D02*
X3165000Y-6340000D01*
X3165000Y-6310000D02*
X3135000Y-6340000D01*
X3157140Y-111430D02*
X3187140Y-141430D01*
X3187140Y-111430D02*
X3157140Y-141430D01*
X3157140Y-1711430D02*
X3187140Y-1741430D01*
X3187140Y-1711430D02*
X3157140Y-1741430D01*
X3157140Y-3311430D02*
X3187140Y-3341430D01*
X3187140Y-3311430D02*
X3157140Y-3341430D01*
X3157140Y-4911430D02*
X3187140Y-4941430D01*
X3187140Y-4911430D02*
X3157140Y-4941430D01*
X3183570Y-1459285D02*
X3213570Y-1489285D01*
X3213570Y-1459285D02*
X3183570Y-1489285D01*
X3183570Y-3059285D02*
X3213570Y-3089285D01*
X3213570Y-3059285D02*
X3183570Y-3089285D01*
X3183570Y-4659285D02*
X3213570Y-4689285D01*
X3213570Y-4659285D02*
X3183570Y-4689285D01*
X3183570Y-6259285D02*
X3213570Y-6289285D01*
X3213570Y-6259285D02*
X3183570Y-6289285D01*
X3208570Y-85715D02*
X3238570Y-115715D01*
X3238570Y-85715D02*
X3208570Y-115715D01*
X3208570Y-1685715D02*
X3238570Y-1715715D01*
X3238570Y-1685715D02*
X3208570Y-1715715D01*
X3208570Y-3285715D02*
X3238570Y-3315715D01*
X3238570Y-3285715D02*
X3208570Y-3315715D01*
X3208570Y-4885715D02*
X3238570Y-4915715D01*
X3238570Y-4885715D02*
X3208570Y-4915715D01*
X3235000Y-1485000D02*
X3265000Y-1515000D01*
X3265000Y-1485000D02*
X3235000Y-1515000D01*
X3235000Y-3085000D02*
X3265000Y-3115000D01*
X3265000Y-3085000D02*
X3235000Y-3115000D01*
X3235000Y-4685000D02*
X3265000Y-4715000D01*
X3265000Y-4685000D02*
X3235000Y-4715000D01*
X3235000Y-6285000D02*
X3265000Y-6315000D01*
X3265000Y-6285000D02*
X3235000Y-6315000D01*
X3260000Y-60000D02*
X3290000Y-90000D01*
X3290000Y-60000D02*
X3260000Y-90000D01*
X3260000Y-1660000D02*
X3290000Y-1690000D01*
X3290000Y-1660000D02*
X3260000Y-1690000D01*
X3260000Y-3260000D02*
X3290000Y-3290000D01*
X3290000Y-3260000D02*
X3260000Y-3290000D01*
X3260000Y-4860000D02*
X3290000Y-4890000D01*
X3290000Y-4860000D02*
X3260000Y-4890000D01*
X3435000Y-110000D02*
X3465000Y-140000D01*
X3465000Y-110000D02*
X3435000Y-140000D01*
X3435000Y-210000D02*
X3465000Y-240000D01*
X3465000Y-210000D02*
X3435000Y-240000D01*
X3435000Y-1160000D02*
X3465000Y-1190000D01*
X3465000Y-1160000D02*
X3435000Y-1190000D01*
X3435000Y-1410000D02*
X3465000Y-1440000D01*
X3465000Y-1410000D02*
X3435000Y-1440000D01*
X3435000Y-1485000D02*
X3465000Y-1515000D01*
X3465000Y-1485000D02*
X3435000Y-1515000D01*
X3435000Y-1710000D02*
X3465000Y-1740000D01*
X3465000Y-1710000D02*
X3435000Y-1740000D01*
X3435000Y-1810000D02*
X3465000Y-1840000D01*
X3465000Y-1810000D02*
X3435000Y-1840000D01*
X3435000Y-2760000D02*
X3465000Y-2790000D01*
X3465000Y-2760000D02*
X3435000Y-2790000D01*
X3435000Y-3010000D02*
X3465000Y-3040000D01*
X3465000Y-3010000D02*
X3435000Y-3040000D01*
X3435000Y-3085000D02*
X3465000Y-3115000D01*
X3465000Y-3085000D02*
X3435000Y-3115000D01*
X3435000Y-3310000D02*
X3465000Y-3340000D01*
X3465000Y-3310000D02*
X3435000Y-3340000D01*
X3435000Y-3410000D02*
X3465000Y-3440000D01*
X3465000Y-3410000D02*
X3435000Y-3440000D01*
X3435000Y-4360000D02*
X3465000Y-4390000D01*
X3465000Y-4360000D02*
X3435000Y-4390000D01*
X3435000Y-4610000D02*
X3465000Y-4640000D01*
X3465000Y-4610000D02*
X3435000Y-4640000D01*
X3435000Y-4685000D02*
X3465000Y-4715000D01*
X3465000Y-4685000D02*
X3435000Y-4715000D01*
X3435000Y-4910000D02*
X3465000Y-4940000D01*
X3465000Y-4910000D02*
X3435000Y-4940000D01*
X3435000Y-5010000D02*
X3465000Y-5040000D01*
X3465000Y-5010000D02*
X3435000Y-5040000D01*
X3435000Y-5960000D02*
X3465000Y-5990000D01*
X3465000Y-5960000D02*
X3435000Y-5990000D01*
X3435000Y-6210000D02*
X3465000Y-6240000D01*
X3465000Y-6210000D02*
X3435000Y-6240000D01*
X3435000Y-6285000D02*
X3465000Y-6315000D01*
X3465000Y-6285000D02*
X3435000Y-6315000D01*
X3535000Y-110000D02*
X3565000Y-140000D01*
X3565000Y-110000D02*
X3535000Y-140000D01*
X3535000Y-1485000D02*
X3565000Y-1515000D01*
X3565000Y-1485000D02*
X3535000Y-1515000D01*
X3535000Y-1710000D02*
X3565000Y-1740000D01*
X3565000Y-1710000D02*
X3535000Y-1740000D01*
X3535000Y-3085000D02*
X3565000Y-3115000D01*
X3565000Y-3085000D02*
X3535000Y-3115000D01*
X3535000Y-3310000D02*
X3565000Y-3340000D01*
X3565000Y-3310000D02*
X3535000Y-3340000D01*
X3535000Y-4685000D02*
X3565000Y-4715000D01*
X3565000Y-4685000D02*
X3535000Y-4715000D01*
X3535000Y-4910000D02*
X3565000Y-4940000D01*
X3565000Y-4910000D02*
X3535000Y-4940000D01*
X3535000Y-6285000D02*
X3565000Y-6315000D01*
X3565000Y-6285000D02*
X3535000Y-6315000D01*
X3710000Y-60000D02*
X3740000Y-90000D01*
X3740000Y-60000D02*
X3710000Y-90000D01*
X3710000Y-1660000D02*
X3740000Y-1690000D01*
X3740000Y-1660000D02*
X3710000Y-1690000D01*
X3710000Y-3260000D02*
X3740000Y-3290000D01*
X3740000Y-3260000D02*
X3710000Y-3290000D01*
X3710000Y-4860000D02*
X3740000Y-4890000D01*
X3740000Y-4860000D02*
X3710000Y-4890000D01*
X3735000Y-1510000D02*
X3765000Y-1540000D01*
X3765000Y-1510000D02*
X3735000Y-1540000D01*
X3735000Y-3110000D02*
X3765000Y-3140000D01*
X3765000Y-3110000D02*
X3735000Y-3140000D01*
X3735000Y-4710000D02*
X3765000Y-4740000D01*
X3765000Y-4710000D02*
X3735000Y-4740000D01*
X3735000Y-6310000D02*
X3765000Y-6340000D01*
X3765000Y-6310000D02*
X3735000Y-6340000D01*
X3761430Y-85715D02*
X3791430Y-115715D01*
X3791430Y-85715D02*
X3761430Y-115715D01*
X3761430Y-1685715D02*
X3791430Y-1715715D01*
X3791430Y-1685715D02*
X3761430Y-1715715D01*
X3761430Y-3285715D02*
X3791430Y-3315715D01*
X3791430Y-3285715D02*
X3761430Y-3315715D01*
X3761430Y-4885715D02*
X3791430Y-4915715D01*
X3791430Y-4885715D02*
X3761430Y-4915715D01*
X3775659Y-1469341D02*
X3805659Y-1499341D01*
X3805659Y-1469341D02*
X3775659Y-1499341D01*
X3775659Y-3069341D02*
X3805659Y-3099341D01*
X3805659Y-3069341D02*
X3775659Y-3099341D01*
X3775659Y-4669341D02*
X3805659Y-4699341D01*
X3805659Y-4669341D02*
X3775659Y-4699341D01*
X3775659Y-6269341D02*
X3805659Y-6299341D01*
X3805659Y-6269341D02*
X3775659Y-6299341D01*
X3785000Y-1135000D02*
X3815000Y-1165000D01*
X3815000Y-1135000D02*
X3785000Y-1165000D01*
X3785000Y-2735000D02*
X3815000Y-2765000D01*
X3815000Y-2735000D02*
X3785000Y-2765000D01*
X3785000Y-4335000D02*
X3815000Y-4365000D01*
X3815000Y-4335000D02*
X3785000Y-4365000D01*
X3785000Y-5935000D02*
X3815000Y-5965000D01*
X3815000Y-5935000D02*
X3785000Y-5965000D01*
X3812860Y-111430D02*
X3842860Y-141430D01*
X3842860Y-111430D02*
X3812860Y-141430D01*
X3812860Y-1711430D02*
X3842860Y-1741430D01*
X3842860Y-1711430D02*
X3812860Y-1741430D01*
X3812860Y-3311430D02*
X3842860Y-3341430D01*
X3842860Y-3311430D02*
X3812860Y-3341430D01*
X3812860Y-4911430D02*
X3842860Y-4941430D01*
X3842860Y-4911430D02*
X3812860Y-4941430D01*
X3827977Y-1493197D02*
X3857977Y-1523197D01*
X3857977Y-1493197D02*
X3827977Y-1523197D01*
X3827977Y-3093197D02*
X3857977Y-3123197D01*
X3857977Y-3093197D02*
X3827977Y-3123197D01*
X3827977Y-4693197D02*
X3857977Y-4723197D01*
X3857977Y-4693197D02*
X3827977Y-4723197D01*
X3827977Y-6293197D02*
X3857977Y-6323197D01*
X3857977Y-6293197D02*
X3827977Y-6323197D01*
X3836710Y-163751D02*
X3866710Y-193750D01*
X3866710Y-163751D02*
X3836710Y-193750D01*
X3836710Y-1763750D02*
X3866710Y-1793750D01*
X3866710Y-1763750D02*
X3836710Y-1793750D01*
X3836710Y-3363750D02*
X3866710Y-3393750D01*
X3866710Y-3363750D02*
X3836710Y-3393750D01*
X3836710Y-4963751D02*
X3866710Y-4993751D01*
X3866710Y-4963751D02*
X3836710Y-4993751D01*
X3860000Y-1235000D02*
X3890000Y-1265000D01*
X3890000Y-1235000D02*
X3860000Y-1265000D01*
X3860000Y-2835000D02*
X3890000Y-2865000D01*
X3890000Y-2835000D02*
X3860000Y-2865000D01*
X3860000Y-4435000D02*
X3890000Y-4465000D01*
X3890000Y-4435000D02*
X3860000Y-4465000D01*
X3860000Y-6035000D02*
X3890000Y-6065000D01*
X3890000Y-6035000D02*
X3860000Y-6065000D01*
X3879187Y-202506D02*
X3909187Y-232506D01*
X3909187Y-202506D02*
X3879187Y-232506D01*
X3879187Y-1802506D02*
X3909187Y-1832506D01*
X3909187Y-1802506D02*
X3879187Y-1832506D01*
X3879187Y-3402506D02*
X3909187Y-3432506D01*
X3909187Y-3402506D02*
X3879187Y-3432506D01*
X3879187Y-5002506D02*
X3909187Y-5032506D01*
X3909187Y-5002506D02*
X3879187Y-5032506D01*
X3885000Y-1335000D02*
X3915000Y-1365000D01*
X3915000Y-1335000D02*
X3885000Y-1365000D01*
X3885000Y-1485000D02*
X3915000Y-1515000D01*
X3915000Y-1485000D02*
X3885000Y-1515000D01*
X3885000Y-2935000D02*
X3915000Y-2965000D01*
X3915000Y-2935000D02*
X3885000Y-2965000D01*
X3885000Y-3085000D02*
X3915000Y-3115000D01*
X3915000Y-3085000D02*
X3885000Y-3115000D01*
X3885000Y-4535000D02*
X3915000Y-4565000D01*
X3915000Y-4535000D02*
X3885000Y-4565000D01*
X3885000Y-4685000D02*
X3915000Y-4715000D01*
X3915000Y-4685000D02*
X3885000Y-4715000D01*
X3885000Y-6135000D02*
X3915000Y-6165000D01*
X3915000Y-6135000D02*
X3885000Y-6165000D01*
X3885000Y-6285000D02*
X3915000Y-6315000D01*
X3915000Y-6285000D02*
X3885000Y-6315000D01*
X3910715Y-1433570D02*
X3940715Y-1463570D01*
X3940715Y-1433570D02*
X3910715Y-1463570D01*
X3910715Y-3033570D02*
X3940715Y-3063570D01*
X3940715Y-3033570D02*
X3910715Y-3063570D01*
X3910715Y-4633570D02*
X3940715Y-4663570D01*
X3940715Y-4633570D02*
X3910715Y-4663570D01*
X3910715Y-6233570D02*
X3940715Y-6263570D01*
X3940715Y-6233570D02*
X3910715Y-6263570D01*
X3934982Y-273595D02*
X3964982Y-303595D01*
X3964982Y-273595D02*
X3934982Y-303595D01*
X3934982Y-1873595D02*
X3964982Y-1903595D01*
X3964982Y-1873595D02*
X3934982Y-1903595D01*
X3934982Y-3473595D02*
X3964982Y-3503595D01*
X3964982Y-3473595D02*
X3934982Y-3503595D01*
X3934982Y-5073595D02*
X3964982Y-5103595D01*
X3964982Y-5073595D02*
X3934982Y-5103595D01*
X3935000Y-85000D02*
X3965000Y-115000D01*
X3965000Y-85000D02*
X3935000Y-115000D01*
X3935000Y-1685000D02*
X3965000Y-1715000D01*
X3965000Y-1685000D02*
X3935000Y-1715000D01*
X3935000Y-3285000D02*
X3965000Y-3315000D01*
X3965000Y-3285000D02*
X3935000Y-3315000D01*
X3935000Y-4885000D02*
X3965000Y-4915000D01*
X3965000Y-4885000D02*
X3935000Y-4915000D01*
X3935058Y-216095D02*
X3965058Y-246095D01*
X3965058Y-216095D02*
X3935058Y-246095D01*
X3935058Y-1816095D02*
X3965058Y-1846095D01*
X3965058Y-1816095D02*
X3935058Y-1846095D01*
X3935058Y-3416095D02*
X3965058Y-3446095D01*
X3965058Y-3416095D02*
X3935058Y-3446095D01*
X3935058Y-5016095D02*
X3965058Y-5046095D01*
X3965058Y-5016095D02*
X3935058Y-5046095D01*
X3936430Y-1360715D02*
X3966430Y-1390715D01*
X3966430Y-1360715D02*
X3936430Y-1390715D01*
X3936430Y-2960715D02*
X3966430Y-2990715D01*
X3966430Y-2960715D02*
X3936430Y-2990715D01*
X3936430Y-4560715D02*
X3966430Y-4590715D01*
X3966430Y-4560715D02*
X3936430Y-4590715D01*
X3936430Y-6160715D02*
X3966430Y-6190715D01*
X3966430Y-6160715D02*
X3936430Y-6190715D01*
X3960000Y-360000D02*
X3990000Y-390000D01*
X3990000Y-360000D02*
X3960000Y-390000D01*
X3960000Y-1960000D02*
X3990000Y-1990000D01*
X3990000Y-1960000D02*
X3960000Y-1990000D01*
X3960000Y-3560000D02*
X3990000Y-3590000D01*
X3990000Y-3560000D02*
X3960000Y-3590000D01*
X3960000Y-5160000D02*
X3990000Y-5190000D01*
X3990000Y-5160000D02*
X3960000Y-5190000D01*
X4010000Y-1025659D02*
X4040000Y-1055659D01*
X4040000Y-1025659D02*
X4010000Y-1055659D01*
X4010000Y-2625659D02*
X4040000Y-2655659D01*
X4040000Y-2625659D02*
X4010000Y-2655659D01*
X4010000Y-4225659D02*
X4040000Y-4255659D01*
X4040000Y-4225659D02*
X4010000Y-4255659D01*
X4010000Y-5825659D02*
X4040000Y-5855659D01*
X4040000Y-5825659D02*
X4010000Y-5855659D01*
X4035000Y-835000D02*
X4065000Y-865000D01*
X4065000Y-835000D02*
X4035000Y-865000D01*
X4035000Y-2435000D02*
X4065000Y-2465000D01*
X4065000Y-2435000D02*
X4035000Y-2465000D01*
X4035000Y-4035000D02*
X4065000Y-4065000D01*
X4065000Y-4035000D02*
X4035000Y-4065000D01*
X4035000Y-5635000D02*
X4065000Y-5665000D01*
X4065000Y-5635000D02*
X4035000Y-5665000D01*
X4060000Y-460000D02*
X4090000Y-490000D01*
X4090000Y-460000D02*
X4060000Y-490000D01*
X4060000Y-610000D02*
X4090000Y-640000D01*
X4090000Y-610000D02*
X4060000Y-640000D01*
X4060000Y-1485000D02*
X4090000Y-1515000D01*
X4090000Y-1485000D02*
X4060000Y-1515000D01*
X4060000Y-2060000D02*
X4090000Y-2090000D01*
X4090000Y-2060000D02*
X4060000Y-2090000D01*
X4060000Y-2210000D02*
X4090000Y-2240000D01*
X4090000Y-2210000D02*
X4060000Y-2240000D01*
X4060000Y-3085000D02*
X4090000Y-3115000D01*
X4090000Y-3085000D02*
X4060000Y-3115000D01*
X4060000Y-3660000D02*
X4090000Y-3690000D01*
X4090000Y-3660000D02*
X4060000Y-3690000D01*
X4060000Y-3810000D02*
X4090000Y-3840000D01*
X4090000Y-3810000D02*
X4060000Y-3840000D01*
X4060000Y-4685000D02*
X4090000Y-4715000D01*
X4090000Y-4685000D02*
X4060000Y-4715000D01*
X4060000Y-5260000D02*
X4090000Y-5290000D01*
X4090000Y-5260000D02*
X4060000Y-5290000D01*
X4060000Y-5410000D02*
X4090000Y-5440000D01*
X4090000Y-5410000D02*
X4060000Y-5440000D01*
X4060000Y-6285000D02*
X4090000Y-6315000D01*
X4090000Y-6285000D02*
X4060000Y-6315000D01*
X4082609Y-1030586D02*
X4112609Y-1060586D01*
X4112609Y-1030586D02*
X4082609Y-1060586D01*
X4082609Y-2630586D02*
X4112609Y-2660586D01*
X4112609Y-2630586D02*
X4082609Y-2660586D01*
X4082609Y-4230586D02*
X4112609Y-4260586D01*
X4112609Y-4230586D02*
X4082609Y-4260586D01*
X4082609Y-5830586D02*
X4112609Y-5860586D01*
X4112609Y-5830586D02*
X4082609Y-5860586D01*
X4085000Y-960000D02*
X4115000Y-990000D01*
X4115000Y-960000D02*
X4085000Y-990000D01*
X4085000Y-2560000D02*
X4115000Y-2590000D01*
X4115000Y-2560000D02*
X4085000Y-2590000D01*
X4085000Y-4160000D02*
X4115000Y-4190000D01*
X4115000Y-4160000D02*
X4085000Y-4190000D01*
X4085000Y-5760000D02*
X4115000Y-5790000D01*
X4115000Y-5760000D02*
X4085000Y-5790000D01*
X4110000Y-60000D02*
X4140000Y-90000D01*
X4140000Y-60000D02*
X4110000Y-90000D01*
X4110000Y-685000D02*
X4140000Y-715000D01*
X4140000Y-685000D02*
X4110000Y-715000D01*
X4110000Y-742500D02*
X4140000Y-772500D01*
X4140000Y-742500D02*
X4110000Y-772500D01*
X4110000Y-810000D02*
X4140000Y-840000D01*
X4140000Y-810000D02*
X4110000Y-840000D01*
X4110000Y-1081143D02*
X4140000Y-1111143D01*
X4140000Y-1081143D02*
X4110000Y-1111143D01*
X4110000Y-1660000D02*
X4140000Y-1690000D01*
X4140000Y-1660000D02*
X4110000Y-1690000D01*
X4110000Y-2285000D02*
X4140000Y-2315000D01*
X4140000Y-2285000D02*
X4110000Y-2315000D01*
X4110000Y-2342500D02*
X4140000Y-2372500D01*
X4140000Y-2342500D02*
X4110000Y-2372500D01*
X4110000Y-2410000D02*
X4140000Y-2440000D01*
X4140000Y-2410000D02*
X4110000Y-2440000D01*
X4110000Y-2681143D02*
X4140000Y-2711143D01*
X4140000Y-2681143D02*
X4110000Y-2711143D01*
X4110000Y-3260000D02*
X4140000Y-3290000D01*
X4140000Y-3260000D02*
X4110000Y-3290000D01*
X4110000Y-3885000D02*
X4140000Y-3915000D01*
X4140000Y-3885000D02*
X4110000Y-3915000D01*
X4110000Y-3942500D02*
X4140000Y-3972500D01*
X4140000Y-3942500D02*
X4110000Y-3972500D01*
X4110000Y-4010000D02*
X4140000Y-4040000D01*
X4140000Y-4010000D02*
X4110000Y-4040000D01*
X4110000Y-4281143D02*
X4140000Y-4311143D01*
X4140000Y-4281143D02*
X4110000Y-4311143D01*
X4110000Y-4860000D02*
X4140000Y-4890000D01*
X4140000Y-4860000D02*
X4110000Y-4890000D01*
X4110000Y-5485000D02*
X4140000Y-5515000D01*
X4140000Y-5485000D02*
X4110000Y-5515000D01*
X4110000Y-5542500D02*
X4140000Y-5572500D01*
X4140000Y-5542500D02*
X4110000Y-5572500D01*
X4110000Y-5610000D02*
X4140000Y-5640000D01*
X4140000Y-5610000D02*
X4110000Y-5640000D01*
X4110000Y-5881143D02*
X4140000Y-5911143D01*
X4140000Y-5881143D02*
X4110000Y-5911143D01*
X4110715Y-908570D02*
X4140715Y-938570D01*
X4140715Y-908570D02*
X4110715Y-938570D01*
X4110715Y-2508570D02*
X4140715Y-2538570D01*
X4140715Y-2508570D02*
X4110715Y-2538570D01*
X4110715Y-4108570D02*
X4140715Y-4138570D01*
X4140715Y-4108570D02*
X4110715Y-4138570D01*
X4110715Y-5708570D02*
X4140715Y-5738570D01*
X4140715Y-5708570D02*
X4110715Y-5738570D01*
X4117500Y-535000D02*
X4147500Y-565000D01*
X4147500Y-535000D02*
X4117500Y-565000D01*
X4117500Y-610000D02*
X4147500Y-640000D01*
X4147500Y-610000D02*
X4117500Y-640000D01*
X4117500Y-2135000D02*
X4147500Y-2165000D01*
X4147500Y-2135000D02*
X4117500Y-2165000D01*
X4117500Y-2210000D02*
X4147500Y-2240000D01*
X4147500Y-2210000D02*
X4117500Y-2240000D01*
X4117500Y-3735000D02*
X4147500Y-3765000D01*
X4147500Y-3735000D02*
X4117500Y-3765000D01*
X4117500Y-3810000D02*
X4147500Y-3840000D01*
X4147500Y-3810000D02*
X4117500Y-3840000D01*
X4117500Y-5335000D02*
X4147500Y-5365000D01*
X4147500Y-5335000D02*
X4117500Y-5365000D01*
X4117500Y-5410000D02*
X4147500Y-5440000D01*
X4147500Y-5410000D02*
X4117500Y-5440000D01*
X4252500Y-1118528D02*
X4282500Y-1148528D01*
X4282500Y-1118528D02*
X4252500Y-1148528D01*
X4252500Y-2718528D02*
X4282500Y-2748528D01*
X4282500Y-2718528D02*
X4252500Y-2748528D01*
X4252500Y-4318528D02*
X4282500Y-4348528D01*
X4282500Y-4318528D02*
X4252500Y-4348528D01*
X4252500Y-5918528D02*
X4282500Y-5948528D01*
X4282500Y-5918528D02*
X4252500Y-5948528D01*
X4258570Y-935715D02*
X4288570Y-965715D01*
X4288570Y-935715D02*
X4258570Y-965715D01*
X4258570Y-2535715D02*
X4288570Y-2565715D01*
X4288570Y-2535715D02*
X4258570Y-2565715D01*
X4258570Y-4135715D02*
X4288570Y-4165715D01*
X4288570Y-4135715D02*
X4258570Y-4165715D01*
X4258570Y-5735715D02*
X4288570Y-5765715D01*
X4288570Y-5735715D02*
X4258570Y-5765715D01*
X4258880Y-738151D02*
X4288880Y-768151D01*
X4288880Y-738151D02*
X4258880Y-768151D01*
X4258880Y-2338151D02*
X4288880Y-2368151D01*
X4288880Y-2338151D02*
X4258880Y-2368151D01*
X4258880Y-3938151D02*
X4288880Y-3968151D01*
X4288880Y-3938151D02*
X4258880Y-3968151D01*
X4258880Y-5538151D02*
X4288880Y-5568151D01*
X4288880Y-5538151D02*
X4258880Y-5568151D01*
X4259285Y-1061430D02*
X4289285Y-1091430D01*
X4289285Y-1061430D02*
X4259285Y-1091430D01*
X4259285Y-2661430D02*
X4289285Y-2691430D01*
X4289285Y-2661430D02*
X4259285Y-2691430D01*
X4259285Y-4261430D02*
X4289285Y-4291430D01*
X4289285Y-4261430D02*
X4259285Y-4291430D01*
X4259285Y-5861430D02*
X4289285Y-5891430D01*
X4289285Y-5861430D02*
X4259285Y-5891430D01*
X4260000Y-85000D02*
X4290000Y-115000D01*
X4290000Y-85000D02*
X4260000Y-115000D01*
X4260000Y-1685000D02*
X4290000Y-1715000D01*
X4290000Y-1685000D02*
X4260000Y-1715000D01*
X4260000Y-3285000D02*
X4290000Y-3315000D01*
X4290000Y-3285000D02*
X4260000Y-3315000D01*
X4260000Y-4885000D02*
X4290000Y-4915000D01*
X4290000Y-4885000D02*
X4260000Y-4915000D01*
X4269341Y-850659D02*
X4299341Y-880659D01*
X4299341Y-850659D02*
X4269341Y-880659D01*
X4269341Y-2450659D02*
X4299341Y-2480659D01*
X4299341Y-2450659D02*
X4269341Y-2480659D01*
X4269341Y-4050659D02*
X4299341Y-4080659D01*
X4299341Y-4050659D02*
X4269341Y-4080659D01*
X4269341Y-5650659D02*
X4299341Y-5680659D01*
X4299341Y-5650659D02*
X4269341Y-5680659D01*
X4278136Y-683970D02*
X4308136Y-713970D01*
X4308136Y-683970D02*
X4278136Y-713970D01*
X4278136Y-2283970D02*
X4308136Y-2313970D01*
X4308136Y-2283970D02*
X4278136Y-2313970D01*
X4278136Y-3883970D02*
X4308136Y-3913970D01*
X4308136Y-3883970D02*
X4278136Y-3913970D01*
X4278136Y-5483970D02*
X4308136Y-5513970D01*
X4308136Y-5483970D02*
X4278136Y-5513970D01*
X4283570Y-510715D02*
X4313570Y-540715D01*
X4313570Y-510715D02*
X4283570Y-540715D01*
X4283570Y-2110715D02*
X4313570Y-2140715D01*
X4313570Y-2110715D02*
X4283570Y-2140715D01*
X4283570Y-3710715D02*
X4313570Y-3740715D01*
X4313570Y-3710715D02*
X4283570Y-3740715D01*
X4283570Y-5310715D02*
X4313570Y-5340715D01*
X4313570Y-5310715D02*
X4283570Y-5340715D01*
X4285000Y-1010000D02*
X4315000Y-1040000D01*
X4315000Y-1010000D02*
X4285000Y-1040000D01*
X4285000Y-2610000D02*
X4315000Y-2640000D01*
X4315000Y-2610000D02*
X4285000Y-2640000D01*
X4285000Y-4210000D02*
X4315000Y-4240000D01*
X4315000Y-4210000D02*
X4285000Y-4240000D01*
X4285000Y-5810000D02*
X4315000Y-5840000D01*
X4315000Y-5810000D02*
X4285000Y-5840000D01*
X4310000Y-810000D02*
X4340000Y-840000D01*
X4340000Y-810000D02*
X4310000Y-840000D01*
X4310000Y-910000D02*
X4340000Y-940000D01*
X4340000Y-910000D02*
X4310000Y-940000D01*
X4310000Y-1110000D02*
X4340000Y-1140000D01*
X4340000Y-1110000D02*
X4310000Y-1140000D01*
X4310000Y-2410000D02*
X4340000Y-2440000D01*
X4340000Y-2410000D02*
X4310000Y-2440000D01*
X4310000Y-2510000D02*
X4340000Y-2540000D01*
X4340000Y-2510000D02*
X4310000Y-2540000D01*
X4310000Y-2710000D02*
X4340000Y-2740000D01*
X4340000Y-2710000D02*
X4310000Y-2740000D01*
X4310000Y-4010000D02*
X4340000Y-4040000D01*
X4340000Y-4010000D02*
X4310000Y-4040000D01*
X4310000Y-4110000D02*
X4340000Y-4140000D01*
X4340000Y-4110000D02*
X4310000Y-4140000D01*
X4310000Y-4310000D02*
X4340000Y-4340000D01*
X4340000Y-4310000D02*
X4310000Y-4340000D01*
X4310000Y-5610000D02*
X4340000Y-5640000D01*
X4340000Y-5610000D02*
X4310000Y-5640000D01*
X4310000Y-5710000D02*
X4340000Y-5740000D01*
X4340000Y-5710000D02*
X4310000Y-5740000D01*
X4310000Y-5910000D02*
X4340000Y-5940000D01*
X4340000Y-5910000D02*
X4310000Y-5940000D01*
X4335000Y-85000D02*
X4365000Y-115000D01*
X4365000Y-85000D02*
X4335000Y-115000D01*
X4335000Y-485000D02*
X4365000Y-515000D01*
X4365000Y-485000D02*
X4335000Y-515000D01*
X4335000Y-542500D02*
X4365000Y-572500D01*
X4365000Y-542500D02*
X4335000Y-572500D01*
X4335000Y-635000D02*
X4365000Y-665000D01*
X4365000Y-635000D02*
X4335000Y-665000D01*
X4335000Y-692500D02*
X4365000Y-722500D01*
X4365000Y-692500D02*
X4335000Y-722500D01*
X4335000Y-1510000D02*
X4365000Y-1540000D01*
X4365000Y-1510000D02*
X4335000Y-1540000D01*
X4335000Y-1685000D02*
X4365000Y-1715000D01*
X4365000Y-1685000D02*
X4335000Y-1715000D01*
X4335000Y-2085000D02*
X4365000Y-2115000D01*
X4365000Y-2085000D02*
X4335000Y-2115000D01*
X4335000Y-2142500D02*
X4365000Y-2172500D01*
X4365000Y-2142500D02*
X4335000Y-2172500D01*
X4335000Y-2235000D02*
X4365000Y-2265000D01*
X4365000Y-2235000D02*
X4335000Y-2265000D01*
X4335000Y-2292500D02*
X4365000Y-2322500D01*
X4365000Y-2292500D02*
X4335000Y-2322500D01*
X4335000Y-3110000D02*
X4365000Y-3140000D01*
X4365000Y-3110000D02*
X4335000Y-3140000D01*
X4335000Y-3285000D02*
X4365000Y-3315000D01*
X4365000Y-3285000D02*
X4335000Y-3315000D01*
X4335000Y-3685000D02*
X4365000Y-3715000D01*
X4365000Y-3685000D02*
X4335000Y-3715000D01*
X4335000Y-3742500D02*
X4365000Y-3772500D01*
X4365000Y-3742500D02*
X4335000Y-3772500D01*
X4335000Y-3835000D02*
X4365000Y-3865000D01*
X4365000Y-3835000D02*
X4335000Y-3865000D01*
X4335000Y-3892500D02*
X4365000Y-3922500D01*
X4365000Y-3892500D02*
X4335000Y-3922500D01*
X4335000Y-4710000D02*
X4365000Y-4740000D01*
X4365000Y-4710000D02*
X4335000Y-4740000D01*
X4335000Y-4885000D02*
X4365000Y-4915000D01*
X4365000Y-4885000D02*
X4335000Y-4915000D01*
X4335000Y-5285000D02*
X4365000Y-5315000D01*
X4365000Y-5285000D02*
X4335000Y-5315000D01*
X4335000Y-5342500D02*
X4365000Y-5372500D01*
X4365000Y-5342500D02*
X4335000Y-5372500D01*
X4335000Y-5435000D02*
X4365000Y-5465000D01*
X4365000Y-5435000D02*
X4335000Y-5465000D01*
X4335000Y-5492500D02*
X4365000Y-5522500D01*
X4365000Y-5492500D02*
X4335000Y-5522500D01*
X4335000Y-6310000D02*
X4365000Y-6340000D01*
X4365000Y-6310000D02*
X4335000Y-6340000D01*
X4406284Y-267250D02*
X4436284Y-297250D01*
X4436284Y-267250D02*
X4406284Y-297250D01*
X4406284Y-1867250D02*
X4436284Y-1897250D01*
X4436284Y-1867250D02*
X4406284Y-1897250D01*
X4406284Y-3467250D02*
X4436284Y-3497250D01*
X4436284Y-3467250D02*
X4406284Y-3497250D01*
X4406284Y-5067250D02*
X4436284Y-5097250D01*
X4436284Y-5067250D02*
X4406284Y-5097250D01*
X4432513Y-216080D02*
X4462513Y-246080D01*
X4462513Y-216080D02*
X4432513Y-246080D01*
X4432513Y-1816080D02*
X4462513Y-1846080D01*
X4462513Y-1816080D02*
X4432513Y-1846080D01*
X4432513Y-3416080D02*
X4462513Y-3446080D01*
X4462513Y-3416080D02*
X4432513Y-3446080D01*
X4432513Y-5016080D02*
X4462513Y-5046080D01*
X4462513Y-5016080D02*
X4432513Y-5046080D01*
X4435000Y-1460000D02*
X4465000Y-1490000D01*
X4465000Y-1460000D02*
X4435000Y-1490000D01*
X4435000Y-3060000D02*
X4465000Y-3090000D01*
X4465000Y-3060000D02*
X4435000Y-3090000D01*
X4435000Y-4660000D02*
X4465000Y-4690000D01*
X4465000Y-4660000D02*
X4435000Y-4690000D01*
X4435000Y-6260000D02*
X4465000Y-6290000D01*
X4465000Y-6260000D02*
X4435000Y-6290000D01*
X4444341Y-1369341D02*
X4474341Y-1399341D01*
X4474341Y-1369341D02*
X4444341Y-1399341D01*
X4444341Y-2969341D02*
X4474341Y-2999341D01*
X4474341Y-2969341D02*
X4444341Y-2999341D01*
X4444341Y-4569341D02*
X4474341Y-4599341D01*
X4474341Y-4569341D02*
X4444341Y-4599341D01*
X4444341Y-6169341D02*
X4474341Y-6199341D01*
X4474341Y-6169341D02*
X4444341Y-6199341D01*
X4454281Y-162860D02*
X4484281Y-192860D01*
X4484281Y-162860D02*
X4454281Y-192860D01*
X4454281Y-1762860D02*
X4484281Y-1792860D01*
X4484281Y-1762860D02*
X4454281Y-1792860D01*
X4454281Y-3362860D02*
X4484281Y-3392860D01*
X4484281Y-3362860D02*
X4454281Y-3392860D01*
X4454281Y-4962860D02*
X4484281Y-4992860D01*
X4484281Y-4962860D02*
X4454281Y-4992860D01*
X4460000Y-1235000D02*
X4490000Y-1265000D01*
X4490000Y-1235000D02*
X4460000Y-1265000D01*
X4460000Y-1292500D02*
X4490000Y-1322500D01*
X4490000Y-1292500D02*
X4460000Y-1322500D01*
X4460000Y-2835000D02*
X4490000Y-2865000D01*
X4490000Y-2835000D02*
X4460000Y-2865000D01*
X4460000Y-2892500D02*
X4490000Y-2922500D01*
X4490000Y-2892500D02*
X4460000Y-2922500D01*
X4460000Y-4435000D02*
X4490000Y-4465000D01*
X4490000Y-4435000D02*
X4460000Y-4465000D01*
X4460000Y-4492500D02*
X4490000Y-4522500D01*
X4490000Y-4492500D02*
X4460000Y-4522500D01*
X4460000Y-6035000D02*
X4490000Y-6065000D01*
X4490000Y-6035000D02*
X4460000Y-6065000D01*
X4460000Y-6092500D02*
X4490000Y-6122500D01*
X4490000Y-6092500D02*
X4460000Y-6122500D01*
X4485000Y-1410000D02*
X4515000Y-1440000D01*
X4515000Y-1410000D02*
X4485000Y-1440000D01*
X4485000Y-3010000D02*
X4515000Y-3040000D01*
X4515000Y-3010000D02*
X4485000Y-3040000D01*
X4485000Y-4610000D02*
X4515000Y-4640000D01*
X4515000Y-4610000D02*
X4485000Y-4640000D01*
X4485000Y-6210000D02*
X4515000Y-6240000D01*
X4515000Y-6210000D02*
X4485000Y-6240000D01*
X4505711Y-137145D02*
X4535711Y-167145D01*
X4535711Y-137145D02*
X4505711Y-167145D01*
X4505711Y-1737145D02*
X4535711Y-1767145D01*
X4535711Y-1737145D02*
X4505711Y-1767145D01*
X4505711Y-3337145D02*
X4535711Y-3367145D01*
X4535711Y-3337145D02*
X4505711Y-3367145D01*
X4505711Y-4937145D02*
X4535711Y-4967145D01*
X4535711Y-4937145D02*
X4505711Y-4967145D01*
X4535000Y-1510000D02*
X4565000Y-1540000D01*
X4565000Y-1510000D02*
X4535000Y-1540000D01*
X4535000Y-3110000D02*
X4565000Y-3140000D01*
X4565000Y-3110000D02*
X4535000Y-3140000D01*
X4535000Y-4710000D02*
X4565000Y-4740000D01*
X4565000Y-4710000D02*
X4535000Y-4740000D01*
X4535000Y-6310000D02*
X4565000Y-6340000D01*
X4565000Y-6310000D02*
X4535000Y-6340000D01*
X4557140Y-111430D02*
X4587140Y-141430D01*
X4587140Y-111430D02*
X4557140Y-141430D01*
X4557140Y-1711430D02*
X4587140Y-1741430D01*
X4587140Y-1711430D02*
X4557140Y-1741430D01*
X4557140Y-3311430D02*
X4587140Y-3341430D01*
X4587140Y-3311430D02*
X4557140Y-3341430D01*
X4557140Y-4911430D02*
X4587140Y-4941430D01*
X4587140Y-4911430D02*
X4557140Y-4941430D01*
X4583570Y-1459285D02*
X4613570Y-1489285D01*
X4613570Y-1459285D02*
X4583570Y-1489285D01*
X4583570Y-3059285D02*
X4613570Y-3089285D01*
X4613570Y-3059285D02*
X4583570Y-3089285D01*
X4583570Y-4659285D02*
X4613570Y-4689285D01*
X4613570Y-4659285D02*
X4583570Y-4689285D01*
X4583570Y-6259285D02*
X4613570Y-6289285D01*
X4613570Y-6259285D02*
X4583570Y-6289285D01*
X4608570Y-85715D02*
X4638570Y-115715D01*
X4638570Y-85715D02*
X4608570Y-115715D01*
X4608570Y-1685715D02*
X4638570Y-1715715D01*
X4638570Y-1685715D02*
X4608570Y-1715715D01*
X4608570Y-3285715D02*
X4638570Y-3315715D01*
X4638570Y-3285715D02*
X4608570Y-3315715D01*
X4608570Y-4885715D02*
X4638570Y-4915715D01*
X4638570Y-4885715D02*
X4608570Y-4915715D01*
X4635000Y-1485000D02*
X4665000Y-1515000D01*
X4665000Y-1485000D02*
X4635000Y-1515000D01*
X4635000Y-3085000D02*
X4665000Y-3115000D01*
X4665000Y-3085000D02*
X4635000Y-3115000D01*
X4635000Y-4685000D02*
X4665000Y-4715000D01*
X4665000Y-4685000D02*
X4635000Y-4715000D01*
X4635000Y-6285000D02*
X4665000Y-6315000D01*
X4665000Y-6285000D02*
X4635000Y-6315000D01*
X4660000Y-60000D02*
X4690000Y-90000D01*
X4690000Y-60000D02*
X4660000Y-90000D01*
X4660000Y-1660000D02*
X4690000Y-1690000D01*
X4690000Y-1660000D02*
X4660000Y-1690000D01*
X4660000Y-3260000D02*
X4690000Y-3290000D01*
X4690000Y-3260000D02*
X4660000Y-3290000D01*
X4660000Y-4860000D02*
X4690000Y-4890000D01*
X4690000Y-4860000D02*
X4660000Y-4890000D01*
X4835000Y-110000D02*
X4865000Y-140000D01*
X4865000Y-110000D02*
X4835000Y-140000D01*
X4835000Y-210000D02*
X4865000Y-240000D01*
X4865000Y-210000D02*
X4835000Y-240000D01*
X4835000Y-1160000D02*
X4865000Y-1190000D01*
X4865000Y-1160000D02*
X4835000Y-1190000D01*
X4835000Y-1410000D02*
X4865000Y-1440000D01*
X4865000Y-1410000D02*
X4835000Y-1440000D01*
X4835000Y-1485000D02*
X4865000Y-1515000D01*
X4865000Y-1485000D02*
X4835000Y-1515000D01*
X4835000Y-1710000D02*
X4865000Y-1740000D01*
X4865000Y-1710000D02*
X4835000Y-1740000D01*
X4835000Y-1810000D02*
X4865000Y-1840000D01*
X4865000Y-1810000D02*
X4835000Y-1840000D01*
X4835000Y-2760000D02*
X4865000Y-2790000D01*
X4865000Y-2760000D02*
X4835000Y-2790000D01*
X4835000Y-3010000D02*
X4865000Y-3040000D01*
X4865000Y-3010000D02*
X4835000Y-3040000D01*
X4835000Y-3085000D02*
X4865000Y-3115000D01*
X4865000Y-3085000D02*
X4835000Y-3115000D01*
X4835000Y-3310000D02*
X4865000Y-3340000D01*
X4865000Y-3310000D02*
X4835000Y-3340000D01*
X4835000Y-3410000D02*
X4865000Y-3440000D01*
X4865000Y-3410000D02*
X4835000Y-3440000D01*
X4835000Y-4360000D02*
X4865000Y-4390000D01*
X4865000Y-4360000D02*
X4835000Y-4390000D01*
X4835000Y-4610000D02*
X4865000Y-4640000D01*
X4865000Y-4610000D02*
X4835000Y-4640000D01*
X4835000Y-4685000D02*
X4865000Y-4715000D01*
X4865000Y-4685000D02*
X4835000Y-4715000D01*
X4835000Y-4910000D02*
X4865000Y-4940000D01*
X4865000Y-4910000D02*
X4835000Y-4940000D01*
X4835000Y-5010000D02*
X4865000Y-5040000D01*
X4865000Y-5010000D02*
X4835000Y-5040000D01*
X4835000Y-5960000D02*
X4865000Y-5990000D01*
X4865000Y-5960000D02*
X4835000Y-5990000D01*
X4835000Y-6210000D02*
X4865000Y-6240000D01*
X4865000Y-6210000D02*
X4835000Y-6240000D01*
X4835000Y-6285000D02*
X4865000Y-6315000D01*
X4865000Y-6285000D02*
X4835000Y-6315000D01*
X4935000Y-110000D02*
X4965000Y-140000D01*
X4965000Y-110000D02*
X4935000Y-140000D01*
X4935000Y-1485000D02*
X4965000Y-1515000D01*
X4965000Y-1485000D02*
X4935000Y-1515000D01*
X4935000Y-1710000D02*
X4965000Y-1740000D01*
X4965000Y-1710000D02*
X4935000Y-1740000D01*
X4935000Y-3085000D02*
X4965000Y-3115000D01*
X4965000Y-3085000D02*
X4935000Y-3115000D01*
X4935000Y-3310000D02*
X4965000Y-3340000D01*
X4965000Y-3310000D02*
X4935000Y-3340000D01*
X4935000Y-4685000D02*
X4965000Y-4715000D01*
X4965000Y-4685000D02*
X4935000Y-4715000D01*
X4935000Y-4910000D02*
X4965000Y-4940000D01*
X4965000Y-4910000D02*
X4935000Y-4940000D01*
X4935000Y-6285000D02*
X4965000Y-6315000D01*
X4965000Y-6285000D02*
X4935000Y-6315000D01*
X5110000Y-60000D02*
X5140000Y-90000D01*
X5140000Y-60000D02*
X5110000Y-90000D01*
X5110000Y-1660000D02*
X5140000Y-1690000D01*
X5140000Y-1660000D02*
X5110000Y-1690000D01*
X5110000Y-3260000D02*
X5140000Y-3290000D01*
X5140000Y-3260000D02*
X5110000Y-3290000D01*
X5110000Y-4860000D02*
X5140000Y-4890000D01*
X5140000Y-4860000D02*
X5110000Y-4890000D01*
X5135000Y-1510000D02*
X5165000Y-1540000D01*
X5165000Y-1510000D02*
X5135000Y-1540000D01*
X5135000Y-3110000D02*
X5165000Y-3140000D01*
X5165000Y-3110000D02*
X5135000Y-3140000D01*
X5135000Y-4710000D02*
X5165000Y-4740000D01*
X5165000Y-4710000D02*
X5135000Y-4740000D01*
X5135000Y-6310000D02*
X5165000Y-6340000D01*
X5165000Y-6310000D02*
X5135000Y-6340000D01*
X5161430Y-85715D02*
X5191430Y-115715D01*
X5191430Y-85715D02*
X5161430Y-115715D01*
X5161430Y-1685715D02*
X5191430Y-1715715D01*
X5191430Y-1685715D02*
X5161430Y-1715715D01*
X5161430Y-3285715D02*
X5191430Y-3315715D01*
X5191430Y-3285715D02*
X5161430Y-3315715D01*
X5161430Y-4885715D02*
X5191430Y-4915715D01*
X5191430Y-4885715D02*
X5161430Y-4915715D01*
X5175659Y-1469341D02*
X5205659Y-1499341D01*
X5205659Y-1469341D02*
X5175659Y-1499341D01*
X5175659Y-3069341D02*
X5205659Y-3099341D01*
X5205659Y-3069341D02*
X5175659Y-3099341D01*
X5175659Y-4669341D02*
X5205659Y-4699341D01*
X5205659Y-4669341D02*
X5175659Y-4699341D01*
X5175659Y-6269341D02*
X5205659Y-6299341D01*
X5205659Y-6269341D02*
X5175659Y-6299341D01*
X5185000Y-1135000D02*
X5215000Y-1165000D01*
X5215000Y-1135000D02*
X5185000Y-1165000D01*
X5185000Y-2735000D02*
X5215000Y-2765000D01*
X5215000Y-2735000D02*
X5185000Y-2765000D01*
X5185000Y-4335000D02*
X5215000Y-4365000D01*
X5215000Y-4335000D02*
X5185000Y-4365000D01*
X5185000Y-5935000D02*
X5215000Y-5965000D01*
X5215000Y-5935000D02*
X5185000Y-5965000D01*
X5212860Y-111430D02*
X5242860Y-141430D01*
X5242860Y-111430D02*
X5212860Y-141430D01*
X5212860Y-1711430D02*
X5242860Y-1741430D01*
X5242860Y-1711430D02*
X5212860Y-1741430D01*
X5212860Y-3311430D02*
X5242860Y-3341430D01*
X5242860Y-3311430D02*
X5212860Y-3341430D01*
X5212860Y-4911430D02*
X5242860Y-4941430D01*
X5242860Y-4911430D02*
X5212860Y-4941430D01*
X5227977Y-1493197D02*
X5257977Y-1523197D01*
X5257977Y-1493197D02*
X5227977Y-1523197D01*
X5227977Y-3093197D02*
X5257977Y-3123197D01*
X5257977Y-3093197D02*
X5227977Y-3123197D01*
X5227977Y-4693197D02*
X5257977Y-4723197D01*
X5257977Y-4693197D02*
X5227977Y-4723197D01*
X5227977Y-6293197D02*
X5257977Y-6323197D01*
X5257977Y-6293197D02*
X5227977Y-6323197D01*
X5236710Y-163751D02*
X5266710Y-193750D01*
X5266710Y-163751D02*
X5236710Y-193750D01*
X5236710Y-1763750D02*
X5266710Y-1793750D01*
X5266710Y-1763750D02*
X5236710Y-1793750D01*
X5236710Y-3363750D02*
X5266710Y-3393750D01*
X5266710Y-3363750D02*
X5236710Y-3393750D01*
X5236710Y-4963751D02*
X5266710Y-4993751D01*
X5266710Y-4963751D02*
X5236710Y-4993751D01*
X5260000Y-1235000D02*
X5290000Y-1265000D01*
X5290000Y-1235000D02*
X5260000Y-1265000D01*
X5260000Y-2835000D02*
X5290000Y-2865000D01*
X5290000Y-2835000D02*
X5260000Y-2865000D01*
X5260000Y-4435000D02*
X5290000Y-4465000D01*
X5290000Y-4435000D02*
X5260000Y-4465000D01*
X5260000Y-6035000D02*
X5290000Y-6065000D01*
X5290000Y-6035000D02*
X5260000Y-6065000D01*
X5279187Y-202506D02*
X5309187Y-232506D01*
X5309187Y-202506D02*
X5279187Y-232506D01*
X5279187Y-1802506D02*
X5309187Y-1832506D01*
X5309187Y-1802506D02*
X5279187Y-1832506D01*
X5279187Y-3402506D02*
X5309187Y-3432506D01*
X5309187Y-3402506D02*
X5279187Y-3432506D01*
X5279187Y-5002506D02*
X5309187Y-5032506D01*
X5309187Y-5002506D02*
X5279187Y-5032506D01*
X5285000Y-1335000D02*
X5315000Y-1365000D01*
X5315000Y-1335000D02*
X5285000Y-1365000D01*
X5285000Y-1485000D02*
X5315000Y-1515000D01*
X5315000Y-1485000D02*
X5285000Y-1515000D01*
X5285000Y-2935000D02*
X5315000Y-2965000D01*
X5315000Y-2935000D02*
X5285000Y-2965000D01*
X5285000Y-3085000D02*
X5315000Y-3115000D01*
X5315000Y-3085000D02*
X5285000Y-3115000D01*
X5285000Y-4535000D02*
X5315000Y-4565000D01*
X5315000Y-4535000D02*
X5285000Y-4565000D01*
X5285000Y-4685000D02*
X5315000Y-4715000D01*
X5315000Y-4685000D02*
X5285000Y-4715000D01*
X5285000Y-6135000D02*
X5315000Y-6165000D01*
X5315000Y-6135000D02*
X5285000Y-6165000D01*
X5285000Y-6285000D02*
X5315000Y-6315000D01*
X5315000Y-6285000D02*
X5285000Y-6315000D01*
X5310715Y-1433570D02*
X5340715Y-1463570D01*
X5340715Y-1433570D02*
X5310715Y-1463570D01*
X5310715Y-3033570D02*
X5340715Y-3063570D01*
X5340715Y-3033570D02*
X5310715Y-3063570D01*
X5310715Y-4633570D02*
X5340715Y-4663570D01*
X5340715Y-4633570D02*
X5310715Y-4663570D01*
X5310715Y-6233570D02*
X5340715Y-6263570D01*
X5340715Y-6233570D02*
X5310715Y-6263570D01*
X5334982Y-273595D02*
X5364982Y-303595D01*
X5364982Y-273595D02*
X5334982Y-303595D01*
X5334982Y-1873595D02*
X5364982Y-1903595D01*
X5364982Y-1873595D02*
X5334982Y-1903595D01*
X5334982Y-3473595D02*
X5364982Y-3503595D01*
X5364982Y-3473595D02*
X5334982Y-3503595D01*
X5334982Y-5073595D02*
X5364982Y-5103595D01*
X5364982Y-5073595D02*
X5334982Y-5103595D01*
X5335000Y-85000D02*
X5365000Y-115000D01*
X5365000Y-85000D02*
X5335000Y-115000D01*
X5335000Y-1685000D02*
X5365000Y-1715000D01*
X5365000Y-1685000D02*
X5335000Y-1715000D01*
X5335000Y-3285000D02*
X5365000Y-3315000D01*
X5365000Y-3285000D02*
X5335000Y-3315000D01*
X5335000Y-4885000D02*
X5365000Y-4915000D01*
X5365000Y-4885000D02*
X5335000Y-4915000D01*
X5335058Y-216095D02*
X5365058Y-246095D01*
X5365058Y-216095D02*
X5335058Y-246095D01*
X5335058Y-1816095D02*
X5365058Y-1846095D01*
X5365058Y-1816095D02*
X5335058Y-1846095D01*
X5335058Y-3416095D02*
X5365058Y-3446095D01*
X5365058Y-3416095D02*
X5335058Y-3446095D01*
X5335058Y-5016095D02*
X5365058Y-5046095D01*
X5365058Y-5016095D02*
X5335058Y-5046095D01*
X5336430Y-1360715D02*
X5366430Y-1390715D01*
X5366430Y-1360715D02*
X5336430Y-1390715D01*
X5336430Y-2960715D02*
X5366430Y-2990715D01*
X5366430Y-2960715D02*
X5336430Y-2990715D01*
X5336430Y-4560715D02*
X5366430Y-4590715D01*
X5366430Y-4560715D02*
X5336430Y-4590715D01*
X5336430Y-6160715D02*
X5366430Y-6190715D01*
X5366430Y-6160715D02*
X5336430Y-6190715D01*
X5360000Y-360000D02*
X5390000Y-390000D01*
X5390000Y-360000D02*
X5360000Y-390000D01*
X5360000Y-1960000D02*
X5390000Y-1990000D01*
X5390000Y-1960000D02*
X5360000Y-1990000D01*
X5360000Y-3560000D02*
X5390000Y-3590000D01*
X5390000Y-3560000D02*
X5360000Y-3590000D01*
X5360000Y-5160000D02*
X5390000Y-5190000D01*
X5390000Y-5160000D02*
X5360000Y-5190000D01*
X5410000Y-1025659D02*
X5440000Y-1055659D01*
X5440000Y-1025659D02*
X5410000Y-1055659D01*
X5410000Y-2625659D02*
X5440000Y-2655659D01*
X5440000Y-2625659D02*
X5410000Y-2655659D01*
X5410000Y-4225659D02*
X5440000Y-4255659D01*
X5440000Y-4225659D02*
X5410000Y-4255659D01*
X5410000Y-5825659D02*
X5440000Y-5855659D01*
X5440000Y-5825659D02*
X5410000Y-5855659D01*
X5435000Y-835000D02*
X5465000Y-865000D01*
X5465000Y-835000D02*
X5435000Y-865000D01*
X5435000Y-2435000D02*
X5465000Y-2465000D01*
X5465000Y-2435000D02*
X5435000Y-2465000D01*
X5435000Y-4035000D02*
X5465000Y-4065000D01*
X5465000Y-4035000D02*
X5435000Y-4065000D01*
X5435000Y-5635000D02*
X5465000Y-5665000D01*
X5465000Y-5635000D02*
X5435000Y-5665000D01*
X5460000Y-460000D02*
X5490000Y-490000D01*
X5490000Y-460000D02*
X5460000Y-490000D01*
X5460000Y-610000D02*
X5490000Y-640000D01*
X5490000Y-610000D02*
X5460000Y-640000D01*
X5460000Y-1485000D02*
X5490000Y-1515000D01*
X5490000Y-1485000D02*
X5460000Y-1515000D01*
X5460000Y-2060000D02*
X5490000Y-2090000D01*
X5490000Y-2060000D02*
X5460000Y-2090000D01*
X5460000Y-2210000D02*
X5490000Y-2240000D01*
X5490000Y-2210000D02*
X5460000Y-2240000D01*
X5460000Y-3085000D02*
X5490000Y-3115000D01*
X5490000Y-3085000D02*
X5460000Y-3115000D01*
X5460000Y-3660000D02*
X5490000Y-3690000D01*
X5490000Y-3660000D02*
X5460000Y-3690000D01*
X5460000Y-3810000D02*
X5490000Y-3840000D01*
X5490000Y-3810000D02*
X5460000Y-3840000D01*
X5460000Y-4685000D02*
X5490000Y-4715000D01*
X5490000Y-4685000D02*
X5460000Y-4715000D01*
X5460000Y-5260000D02*
X5490000Y-5290000D01*
X5490000Y-5260000D02*
X5460000Y-5290000D01*
X5460000Y-5410000D02*
X5490000Y-5440000D01*
X5490000Y-5410000D02*
X5460000Y-5440000D01*
X5460000Y-6285000D02*
X5490000Y-6315000D01*
X5490000Y-6285000D02*
X5460000Y-6315000D01*
X5482609Y-1030586D02*
X5512609Y-1060586D01*
X5512609Y-1030586D02*
X5482609Y-1060586D01*
X5482609Y-2630586D02*
X5512609Y-2660586D01*
X5512609Y-2630586D02*
X5482609Y-2660586D01*
X5482609Y-4230586D02*
X5512609Y-4260586D01*
X5512609Y-4230586D02*
X5482609Y-4260586D01*
X5482609Y-5830586D02*
X5512609Y-5860586D01*
X5512609Y-5830586D02*
X5482609Y-5860586D01*
X5485000Y-960000D02*
X5515000Y-990000D01*
X5515000Y-960000D02*
X5485000Y-990000D01*
X5485000Y-2560000D02*
X5515000Y-2590000D01*
X5515000Y-2560000D02*
X5485000Y-2590000D01*
X5485000Y-4160000D02*
X5515000Y-4190000D01*
X5515000Y-4160000D02*
X5485000Y-4190000D01*
X5485000Y-5760000D02*
X5515000Y-5790000D01*
X5515000Y-5760000D02*
X5485000Y-5790000D01*
X5510000Y-60000D02*
X5540000Y-90000D01*
X5540000Y-60000D02*
X5510000Y-90000D01*
X5510000Y-685000D02*
X5540000Y-715000D01*
X5540000Y-685000D02*
X5510000Y-715000D01*
X5510000Y-742500D02*
X5540000Y-772500D01*
X5540000Y-742500D02*
X5510000Y-772500D01*
X5510000Y-810000D02*
X5540000Y-840000D01*
X5540000Y-810000D02*
X5510000Y-840000D01*
X5510000Y-1081143D02*
X5540000Y-1111143D01*
X5540000Y-1081143D02*
X5510000Y-1111143D01*
X5510000Y-1660000D02*
X5540000Y-1690000D01*
X5540000Y-1660000D02*
X5510000Y-1690000D01*
X5510000Y-2285000D02*
X5540000Y-2315000D01*
X5540000Y-2285000D02*
X5510000Y-2315000D01*
X5510000Y-2342500D02*
X5540000Y-2372500D01*
X5540000Y-2342500D02*
X5510000Y-2372500D01*
X5510000Y-2410000D02*
X5540000Y-2440000D01*
X5540000Y-2410000D02*
X5510000Y-2440000D01*
X5510000Y-2681143D02*
X5540000Y-2711143D01*
X5540000Y-2681143D02*
X5510000Y-2711143D01*
X5510000Y-3260000D02*
X5540000Y-3290000D01*
X5540000Y-3260000D02*
X5510000Y-3290000D01*
X5510000Y-3885000D02*
X5540000Y-3915000D01*
X5540000Y-3885000D02*
X5510000Y-3915000D01*
X5510000Y-3942500D02*
X5540000Y-3972500D01*
X5540000Y-3942500D02*
X5510000Y-3972500D01*
X5510000Y-4010000D02*
X5540000Y-4040000D01*
X5540000Y-4010000D02*
X5510000Y-4040000D01*
X5510000Y-4281143D02*
X5540000Y-4311143D01*
X5540000Y-4281143D02*
X5510000Y-4311143D01*
X5510000Y-4860000D02*
X5540000Y-4890000D01*
X5540000Y-4860000D02*
X5510000Y-4890000D01*
X5510000Y-5485000D02*
X5540000Y-5515000D01*
X5540000Y-5485000D02*
X5510000Y-5515000D01*
X5510000Y-5542500D02*
X5540000Y-5572500D01*
X5540000Y-5542500D02*
X5510000Y-5572500D01*
X5510000Y-5610000D02*
X5540000Y-5640000D01*
X5540000Y-5610000D02*
X5510000Y-5640000D01*
X5510000Y-5881143D02*
X5540000Y-5911143D01*
X5540000Y-5881143D02*
X5510000Y-5911143D01*
X5510715Y-908570D02*
X5540715Y-938570D01*
X5540715Y-908570D02*
X5510715Y-938570D01*
X5510715Y-2508570D02*
X5540715Y-2538570D01*
X5540715Y-2508570D02*
X5510715Y-2538570D01*
X5510715Y-4108570D02*
X5540715Y-4138570D01*
X5540715Y-4108570D02*
X5510715Y-4138570D01*
X5510715Y-5708570D02*
X5540715Y-5738570D01*
X5540715Y-5708570D02*
X5510715Y-5738570D01*
X5517500Y-535000D02*
X5547500Y-565000D01*
X5547500Y-535000D02*
X5517500Y-565000D01*
X5517500Y-610000D02*
X5547500Y-640000D01*
X5547500Y-610000D02*
X5517500Y-640000D01*
X5517500Y-2135000D02*
X5547500Y-2165000D01*
X5547500Y-2135000D02*
X5517500Y-2165000D01*
X5517500Y-2210000D02*
X5547500Y-2240000D01*
X5547500Y-2210000D02*
X5517500Y-2240000D01*
X5517500Y-3735000D02*
X5547500Y-3765000D01*
X5547500Y-3735000D02*
X5517500Y-3765000D01*
X5517500Y-3810000D02*
X5547500Y-3840000D01*
X5547500Y-3810000D02*
X5517500Y-3840000D01*
X5517500Y-5335000D02*
X5547500Y-5365000D01*
X5547500Y-5335000D02*
X5517500Y-5365000D01*
X5517500Y-5410000D02*
X5547500Y-5440000D01*
X5547500Y-5410000D02*
X5517500Y-5440000D01*
X5652500Y-1118528D02*
X5682500Y-1148528D01*
X5682500Y-1118528D02*
X5652500Y-1148528D01*
X5652500Y-2718528D02*
X5682500Y-2748528D01*
X5682500Y-2718528D02*
X5652500Y-2748528D01*
X5652500Y-4318528D02*
X5682500Y-4348528D01*
X5682500Y-4318528D02*
X5652500Y-4348528D01*
X5652500Y-5918528D02*
X5682500Y-5948528D01*
X5682500Y-5918528D02*
X5652500Y-5948528D01*
X5658570Y-935715D02*
X5688570Y-965715D01*
X5688570Y-935715D02*
X5658570Y-965715D01*
X5658570Y-2535715D02*
X5688570Y-2565715D01*
X5688570Y-2535715D02*
X5658570Y-2565715D01*
X5658570Y-4135715D02*
X5688570Y-4165715D01*
X5688570Y-4135715D02*
X5658570Y-4165715D01*
X5658570Y-5735715D02*
X5688570Y-5765715D01*
X5688570Y-5735715D02*
X5658570Y-5765715D01*
X5658880Y-738151D02*
X5688880Y-768151D01*
X5688880Y-738151D02*
X5658880Y-768151D01*
X5658880Y-2338151D02*
X5688880Y-2368151D01*
X5688880Y-2338151D02*
X5658880Y-2368151D01*
X5658880Y-3938151D02*
X5688880Y-3968151D01*
X5688880Y-3938151D02*
X5658880Y-3968151D01*
X5658880Y-5538151D02*
X5688880Y-5568151D01*
X5688880Y-5538151D02*
X5658880Y-5568151D01*
X5659285Y-1061430D02*
X5689285Y-1091430D01*
X5689285Y-1061430D02*
X5659285Y-1091430D01*
X5659285Y-2661430D02*
X5689285Y-2691430D01*
X5689285Y-2661430D02*
X5659285Y-2691430D01*
X5659285Y-4261430D02*
X5689285Y-4291430D01*
X5689285Y-4261430D02*
X5659285Y-4291430D01*
X5659285Y-5861430D02*
X5689285Y-5891430D01*
X5689285Y-5861430D02*
X5659285Y-5891430D01*
X5660000Y-85000D02*
X5690000Y-115000D01*
X5690000Y-85000D02*
X5660000Y-115000D01*
X5660000Y-1685000D02*
X5690000Y-1715000D01*
X5690000Y-1685000D02*
X5660000Y-1715000D01*
X5660000Y-3285000D02*
X5690000Y-3315000D01*
X5690000Y-3285000D02*
X5660000Y-3315000D01*
X5660000Y-4885000D02*
X5690000Y-4915000D01*
X5690000Y-4885000D02*
X5660000Y-4915000D01*
X5669341Y-850659D02*
X5699341Y-880659D01*
X5699341Y-850659D02*
X5669341Y-880659D01*
X5669341Y-2450659D02*
X5699341Y-2480659D01*
X5699341Y-2450659D02*
X5669341Y-2480659D01*
X5669341Y-4050659D02*
X5699341Y-4080659D01*
X5699341Y-4050659D02*
X5669341Y-4080659D01*
X5669341Y-5650659D02*
X5699341Y-5680659D01*
X5699341Y-5650659D02*
X5669341Y-5680659D01*
X5678136Y-683970D02*
X5708136Y-713970D01*
X5708136Y-683970D02*
X5678136Y-713970D01*
X5678136Y-2283970D02*
X5708136Y-2313970D01*
X5708136Y-2283970D02*
X5678136Y-2313970D01*
X5678136Y-3883970D02*
X5708136Y-3913970D01*
X5708136Y-3883970D02*
X5678136Y-3913970D01*
X5678136Y-5483970D02*
X5708136Y-5513970D01*
X5708136Y-5483970D02*
X5678136Y-5513970D01*
X5683570Y-510715D02*
X5713570Y-540715D01*
X5713570Y-510715D02*
X5683570Y-540715D01*
X5683570Y-2110715D02*
X5713570Y-2140715D01*
X5713570Y-2110715D02*
X5683570Y-2140715D01*
X5683570Y-3710715D02*
X5713570Y-3740715D01*
X5713570Y-3710715D02*
X5683570Y-3740715D01*
X5683570Y-5310715D02*
X5713570Y-5340715D01*
X5713570Y-5310715D02*
X5683570Y-5340715D01*
X5685000Y-1010000D02*
X5715000Y-1040000D01*
X5715000Y-1010000D02*
X5685000Y-1040000D01*
X5685000Y-2610000D02*
X5715000Y-2640000D01*
X5715000Y-2610000D02*
X5685000Y-2640000D01*
X5685000Y-4210000D02*
X5715000Y-4240000D01*
X5715000Y-4210000D02*
X5685000Y-4240000D01*
X5685000Y-5810000D02*
X5715000Y-5840000D01*
X5715000Y-5810000D02*
X5685000Y-5840000D01*
X5710000Y-810000D02*
X5740000Y-840000D01*
X5740000Y-810000D02*
X5710000Y-840000D01*
X5710000Y-910000D02*
X5740000Y-940000D01*
X5740000Y-910000D02*
X5710000Y-940000D01*
X5710000Y-1110000D02*
X5740000Y-1140000D01*
X5740000Y-1110000D02*
X5710000Y-1140000D01*
X5710000Y-2410000D02*
X5740000Y-2440000D01*
X5740000Y-2410000D02*
X5710000Y-2440000D01*
X5710000Y-2510000D02*
X5740000Y-2540000D01*
X5740000Y-2510000D02*
X5710000Y-2540000D01*
X5710000Y-2710000D02*
X5740000Y-2740000D01*
X5740000Y-2710000D02*
X5710000Y-2740000D01*
X5710000Y-4010000D02*
X5740000Y-4040000D01*
X5740000Y-4010000D02*
X5710000Y-4040000D01*
X5710000Y-4110000D02*
X5740000Y-4140000D01*
X5740000Y-4110000D02*
X5710000Y-4140000D01*
X5710000Y-4310000D02*
X5740000Y-4340000D01*
X5740000Y-4310000D02*
X5710000Y-4340000D01*
X5710000Y-5610000D02*
X5740000Y-5640000D01*
X5740000Y-5610000D02*
X5710000Y-5640000D01*
X5710000Y-5710000D02*
X5740000Y-5740000D01*
X5740000Y-5710000D02*
X5710000Y-5740000D01*
X5710000Y-5910000D02*
X5740000Y-5940000D01*
X5740000Y-5910000D02*
X5710000Y-5940000D01*
X5735000Y-85000D02*
X5765000Y-115000D01*
X5765000Y-85000D02*
X5735000Y-115000D01*
X5735000Y-485000D02*
X5765000Y-515000D01*
X5765000Y-485000D02*
X5735000Y-515000D01*
X5735000Y-542500D02*
X5765000Y-572500D01*
X5765000Y-542500D02*
X5735000Y-572500D01*
X5735000Y-635000D02*
X5765000Y-665000D01*
X5765000Y-635000D02*
X5735000Y-665000D01*
X5735000Y-692500D02*
X5765000Y-722500D01*
X5765000Y-692500D02*
X5735000Y-722500D01*
X5735000Y-1510000D02*
X5765000Y-1540000D01*
X5765000Y-1510000D02*
X5735000Y-1540000D01*
X5735000Y-1685000D02*
X5765000Y-1715000D01*
X5765000Y-1685000D02*
X5735000Y-1715000D01*
X5735000Y-2085000D02*
X5765000Y-2115000D01*
X5765000Y-2085000D02*
X5735000Y-2115000D01*
X5735000Y-2142500D02*
X5765000Y-2172500D01*
X5765000Y-2142500D02*
X5735000Y-2172500D01*
X5735000Y-2235000D02*
X5765000Y-2265000D01*
X5765000Y-2235000D02*
X5735000Y-2265000D01*
X5735000Y-2292500D02*
X5765000Y-2322500D01*
X5765000Y-2292500D02*
X5735000Y-2322500D01*
X5735000Y-3110000D02*
X5765000Y-3140000D01*
X5765000Y-3110000D02*
X5735000Y-3140000D01*
X5735000Y-3285000D02*
X5765000Y-3315000D01*
X5765000Y-3285000D02*
X5735000Y-3315000D01*
X5735000Y-3685000D02*
X5765000Y-3715000D01*
X5765000Y-3685000D02*
X5735000Y-3715000D01*
X5735000Y-3742500D02*
X5765000Y-3772500D01*
X5765000Y-3742500D02*
X5735000Y-3772500D01*
X5735000Y-3835000D02*
X5765000Y-3865000D01*
X5765000Y-3835000D02*
X5735000Y-3865000D01*
X5735000Y-3892500D02*
X5765000Y-3922500D01*
X5765000Y-3892500D02*
X5735000Y-3922500D01*
X5735000Y-4710000D02*
X5765000Y-4740000D01*
X5765000Y-4710000D02*
X5735000Y-4740000D01*
X5735000Y-4885000D02*
X5765000Y-4915000D01*
X5765000Y-4885000D02*
X5735000Y-4915000D01*
X5735000Y-5285000D02*
X5765000Y-5315000D01*
X5765000Y-5285000D02*
X5735000Y-5315000D01*
X5735000Y-5342500D02*
X5765000Y-5372500D01*
X5765000Y-5342500D02*
X5735000Y-5372500D01*
X5735000Y-5435000D02*
X5765000Y-5465000D01*
X5765000Y-5435000D02*
X5735000Y-5465000D01*
X5735000Y-5492500D02*
X5765000Y-5522500D01*
X5765000Y-5492500D02*
X5735000Y-5522500D01*
X5735000Y-6310000D02*
X5765000Y-6340000D01*
X5765000Y-6310000D02*
X5735000Y-6340000D01*
X5806284Y-267250D02*
X5836284Y-297250D01*
X5836284Y-267250D02*
X5806284Y-297250D01*
X5806284Y-1867250D02*
X5836284Y-1897250D01*
X5836284Y-1867250D02*
X5806284Y-1897250D01*
X5806284Y-3467250D02*
X5836284Y-3497250D01*
X5836284Y-3467250D02*
X5806284Y-3497250D01*
X5806284Y-5067250D02*
X5836284Y-5097250D01*
X5836284Y-5067250D02*
X5806284Y-5097250D01*
X5832513Y-216080D02*
X5862513Y-246080D01*
X5862513Y-216080D02*
X5832513Y-246080D01*
X5832513Y-1816080D02*
X5862513Y-1846080D01*
X5862513Y-1816080D02*
X5832513Y-1846080D01*
X5832513Y-3416080D02*
X5862513Y-3446080D01*
X5862513Y-3416080D02*
X5832513Y-3446080D01*
X5832513Y-5016080D02*
X5862513Y-5046080D01*
X5862513Y-5016080D02*
X5832513Y-5046080D01*
X5835000Y-1460000D02*
X5865000Y-1490000D01*
X5865000Y-1460000D02*
X5835000Y-1490000D01*
X5835000Y-3060000D02*
X5865000Y-3090000D01*
X5865000Y-3060000D02*
X5835000Y-3090000D01*
X5835000Y-4660000D02*
X5865000Y-4690000D01*
X5865000Y-4660000D02*
X5835000Y-4690000D01*
X5835000Y-6260000D02*
X5865000Y-6290000D01*
X5865000Y-6260000D02*
X5835000Y-6290000D01*
X5844341Y-1369341D02*
X5874341Y-1399341D01*
X5874341Y-1369341D02*
X5844341Y-1399341D01*
X5844341Y-2969341D02*
X5874341Y-2999341D01*
X5874341Y-2969341D02*
X5844341Y-2999341D01*
X5844341Y-4569341D02*
X5874341Y-4599341D01*
X5874341Y-4569341D02*
X5844341Y-4599341D01*
X5844341Y-6169341D02*
X5874341Y-6199341D01*
X5874341Y-6169341D02*
X5844341Y-6199341D01*
X5854281Y-162860D02*
X5884281Y-192860D01*
X5884281Y-162860D02*
X5854281Y-192860D01*
X5854281Y-1762860D02*
X5884281Y-1792860D01*
X5884281Y-1762860D02*
X5854281Y-1792860D01*
X5854281Y-3362860D02*
X5884281Y-3392860D01*
X5884281Y-3362860D02*
X5854281Y-3392860D01*
X5854281Y-4962860D02*
X5884281Y-4992860D01*
X5884281Y-4962860D02*
X5854281Y-4992860D01*
X5860000Y-1235000D02*
X5890000Y-1265000D01*
X5890000Y-1235000D02*
X5860000Y-1265000D01*
X5860000Y-1292500D02*
X5890000Y-1322500D01*
X5890000Y-1292500D02*
X5860000Y-1322500D01*
X5860000Y-2835000D02*
X5890000Y-2865000D01*
X5890000Y-2835000D02*
X5860000Y-2865000D01*
X5860000Y-2892500D02*
X5890000Y-2922500D01*
X5890000Y-2892500D02*
X5860000Y-2922500D01*
X5860000Y-4435000D02*
X5890000Y-4465000D01*
X5890000Y-4435000D02*
X5860000Y-4465000D01*
X5860000Y-4492500D02*
X5890000Y-4522500D01*
X5890000Y-4492500D02*
X5860000Y-4522500D01*
X5860000Y-6035000D02*
X5890000Y-6065000D01*
X5890000Y-6035000D02*
X5860000Y-6065000D01*
X5860000Y-6092500D02*
X5890000Y-6122500D01*
X5890000Y-6092500D02*
X5860000Y-6122500D01*
X5885000Y-1410000D02*
X5915000Y-1440000D01*
X5915000Y-1410000D02*
X5885000Y-1440000D01*
X5885000Y-3010000D02*
X5915000Y-3040000D01*
X5915000Y-3010000D02*
X5885000Y-3040000D01*
X5885000Y-4610000D02*
X5915000Y-4640000D01*
X5915000Y-4610000D02*
X5885000Y-4640000D01*
X5885000Y-6210000D02*
X5915000Y-6240000D01*
X5915000Y-6210000D02*
X5885000Y-6240000D01*
X5905711Y-137145D02*
X5935711Y-167145D01*
X5935711Y-137145D02*
X5905711Y-167145D01*
X5905711Y-1737145D02*
X5935711Y-1767145D01*
X5935711Y-1737145D02*
X5905711Y-1767145D01*
X5905711Y-3337145D02*
X5935711Y-3367145D01*
X5935711Y-3337145D02*
X5905711Y-3367145D01*
X5905711Y-4937145D02*
X5935711Y-4967145D01*
X5935711Y-4937145D02*
X5905711Y-4967145D01*
X5935000Y-1510000D02*
X5965000Y-1540000D01*
X5965000Y-1510000D02*
X5935000Y-1540000D01*
X5935000Y-3110000D02*
X5965000Y-3140000D01*
X5965000Y-3110000D02*
X5935000Y-3140000D01*
X5935000Y-4710000D02*
X5965000Y-4740000D01*
X5965000Y-4710000D02*
X5935000Y-4740000D01*
X5935000Y-6310000D02*
X5965000Y-6340000D01*
X5965000Y-6310000D02*
X5935000Y-6340000D01*
X5957140Y-111430D02*
X5987140Y-141430D01*
X5987140Y-111430D02*
X5957140Y-141430D01*
X5957140Y-1711430D02*
X5987140Y-1741430D01*
X5987140Y-1711430D02*
X5957140Y-1741430D01*
X5957140Y-3311430D02*
X5987140Y-3341430D01*
X5987140Y-3311430D02*
X5957140Y-3341430D01*
X5957140Y-4911430D02*
X5987140Y-4941430D01*
X5987140Y-4911430D02*
X5957140Y-4941430D01*
X5983570Y-1459285D02*
X6013570Y-1489285D01*
X6013570Y-1459285D02*
X5983570Y-1489285D01*
X5983570Y-3059285D02*
X6013570Y-3089285D01*
X6013570Y-3059285D02*
X5983570Y-3089285D01*
X5983570Y-4659285D02*
X6013570Y-4689285D01*
X6013570Y-4659285D02*
X5983570Y-4689285D01*
X5983570Y-6259285D02*
X6013570Y-6289285D01*
X6013570Y-6259285D02*
X5983570Y-6289285D01*
X6008570Y-85715D02*
X6038570Y-115715D01*
X6038570Y-85715D02*
X6008570Y-115715D01*
X6008570Y-1685715D02*
X6038570Y-1715715D01*
X6038570Y-1685715D02*
X6008570Y-1715715D01*
X6008570Y-3285715D02*
X6038570Y-3315715D01*
X6038570Y-3285715D02*
X6008570Y-3315715D01*
X6008570Y-4885715D02*
X6038570Y-4915715D01*
X6038570Y-4885715D02*
X6008570Y-4915715D01*
X6035000Y-1485000D02*
X6065000Y-1515000D01*
X6065000Y-1485000D02*
X6035000Y-1515000D01*
X6035000Y-3085000D02*
X6065000Y-3115000D01*
X6065000Y-3085000D02*
X6035000Y-3115000D01*
X6035000Y-4685000D02*
X6065000Y-4715000D01*
X6065000Y-4685000D02*
X6035000Y-4715000D01*
X6035000Y-6285000D02*
X6065000Y-6315000D01*
X6065000Y-6285000D02*
X6035000Y-6315000D01*
X6060000Y-60000D02*
X6090000Y-90000D01*
X6090000Y-60000D02*
X6060000Y-90000D01*
X6060000Y-1660000D02*
X6090000Y-1690000D01*
X6090000Y-1660000D02*
X6060000Y-1690000D01*
X6060000Y-3260000D02*
X6090000Y-3290000D01*
X6090000Y-3260000D02*
X6060000Y-3290000D01*
X6060000Y-4860000D02*
X6090000Y-4890000D01*
X6090000Y-4860000D02*
X6060000Y-4890000D01*
X6235000Y-110000D02*
X6265000Y-140000D01*
X6265000Y-110000D02*
X6235000Y-140000D01*
X6235000Y-210000D02*
X6265000Y-240000D01*
X6265000Y-210000D02*
X6235000Y-240000D01*
X6235000Y-1160000D02*
X6265000Y-1190000D01*
X6265000Y-1160000D02*
X6235000Y-1190000D01*
X6235000Y-1410000D02*
X6265000Y-1440000D01*
X6265000Y-1410000D02*
X6235000Y-1440000D01*
X6235000Y-1485000D02*
X6265000Y-1515000D01*
X6265000Y-1485000D02*
X6235000Y-1515000D01*
X6235000Y-1710000D02*
X6265000Y-1740000D01*
X6265000Y-1710000D02*
X6235000Y-1740000D01*
X6235000Y-1810000D02*
X6265000Y-1840000D01*
X6265000Y-1810000D02*
X6235000Y-1840000D01*
X6235000Y-2760000D02*
X6265000Y-2790000D01*
X6265000Y-2760000D02*
X6235000Y-2790000D01*
X6235000Y-3010000D02*
X6265000Y-3040000D01*
X6265000Y-3010000D02*
X6235000Y-3040000D01*
X6235000Y-3085000D02*
X6265000Y-3115000D01*
X6265000Y-3085000D02*
X6235000Y-3115000D01*
X6235000Y-3310000D02*
X6265000Y-3340000D01*
X6265000Y-3310000D02*
X6235000Y-3340000D01*
X6235000Y-3410000D02*
X6265000Y-3440000D01*
X6265000Y-3410000D02*
X6235000Y-3440000D01*
X6235000Y-4360000D02*
X6265000Y-4390000D01*
X6265000Y-4360000D02*
X6235000Y-4390000D01*
X6235000Y-4610000D02*
X6265000Y-4640000D01*
X6265000Y-4610000D02*
X6235000Y-4640000D01*
X6235000Y-4685000D02*
X6265000Y-4715000D01*
X6265000Y-4685000D02*
X6235000Y-4715000D01*
X6235000Y-4910000D02*
X6265000Y-4940000D01*
X6265000Y-4910000D02*
X6235000Y-4940000D01*
X6235000Y-5010000D02*
X6265000Y-5040000D01*
X6265000Y-5010000D02*
X6235000Y-5040000D01*
X6235000Y-5960000D02*
X6265000Y-5990000D01*
X6265000Y-5960000D02*
X6235000Y-5990000D01*
X6235000Y-6210000D02*
X6265000Y-6240000D01*
X6265000Y-6210000D02*
X6235000Y-6240000D01*
X6235000Y-6285000D02*
X6265000Y-6315000D01*
X6265000Y-6285000D02*
X6235000Y-6315000D01*
X6335000Y-110000D02*
X6365000Y-140000D01*
X6365000Y-110000D02*
X6335000Y-140000D01*
X6335000Y-1485000D02*
X6365000Y-1515000D01*
X6365000Y-1485000D02*
X6335000Y-1515000D01*
X6335000Y-1710000D02*
X6365000Y-1740000D01*
X6365000Y-1710000D02*
X6335000Y-1740000D01*
X6335000Y-3085000D02*
X6365000Y-3115000D01*
X6365000Y-3085000D02*
X6335000Y-3115000D01*
X6335000Y-3310000D02*
X6365000Y-3340000D01*
X6365000Y-3310000D02*
X6335000Y-3340000D01*
X6335000Y-4685000D02*
X6365000Y-4715000D01*
X6365000Y-4685000D02*
X6335000Y-4715000D01*
X6335000Y-4910000D02*
X6365000Y-4940000D01*
X6365000Y-4910000D02*
X6335000Y-4940000D01*
X6335000Y-6285000D02*
X6365000Y-6315000D01*
X6365000Y-6285000D02*
X6335000Y-6315000D01*
X6510000Y-60000D02*
X6540000Y-90000D01*
X6540000Y-60000D02*
X6510000Y-90000D01*
X6510000Y-1660000D02*
X6540000Y-1690000D01*
X6540000Y-1660000D02*
X6510000Y-1690000D01*
X6510000Y-3260000D02*
X6540000Y-3290000D01*
X6540000Y-3260000D02*
X6510000Y-3290000D01*
X6510000Y-4860000D02*
X6540000Y-4890000D01*
X6540000Y-4860000D02*
X6510000Y-4890000D01*
X6535000Y-1510000D02*
X6565000Y-1540000D01*
X6565000Y-1510000D02*
X6535000Y-1540000D01*
X6535000Y-3110000D02*
X6565000Y-3140000D01*
X6565000Y-3110000D02*
X6535000Y-3140000D01*
X6535000Y-4710000D02*
X6565000Y-4740000D01*
X6565000Y-4710000D02*
X6535000Y-4740000D01*
X6535000Y-6310000D02*
X6565000Y-6340000D01*
X6565000Y-6310000D02*
X6535000Y-6340000D01*
X6561430Y-85715D02*
X6591430Y-115715D01*
X6591430Y-85715D02*
X6561430Y-115715D01*
X6561430Y-1685715D02*
X6591430Y-1715715D01*
X6591430Y-1685715D02*
X6561430Y-1715715D01*
X6561430Y-3285715D02*
X6591430Y-3315715D01*
X6591430Y-3285715D02*
X6561430Y-3315715D01*
X6561430Y-4885715D02*
X6591430Y-4915715D01*
X6591430Y-4885715D02*
X6561430Y-4915715D01*
X6575659Y-1469341D02*
X6605659Y-1499341D01*
X6605659Y-1469341D02*
X6575659Y-1499341D01*
X6575659Y-3069341D02*
X6605659Y-3099341D01*
X6605659Y-3069341D02*
X6575659Y-3099341D01*
X6575659Y-4669341D02*
X6605659Y-4699341D01*
X6605659Y-4669341D02*
X6575659Y-4699341D01*
X6575659Y-6269341D02*
X6605659Y-6299341D01*
X6605659Y-6269341D02*
X6575659Y-6299341D01*
X6585000Y-1135000D02*
X6615000Y-1165000D01*
X6615000Y-1135000D02*
X6585000Y-1165000D01*
X6585000Y-2735000D02*
X6615000Y-2765000D01*
X6615000Y-2735000D02*
X6585000Y-2765000D01*
X6585000Y-4335000D02*
X6615000Y-4365000D01*
X6615000Y-4335000D02*
X6585000Y-4365000D01*
X6585000Y-5935000D02*
X6615000Y-5965000D01*
X6615000Y-5935000D02*
X6585000Y-5965000D01*
X6612860Y-111430D02*
X6642860Y-141430D01*
X6642860Y-111430D02*
X6612860Y-141430D01*
X6612860Y-1711430D02*
X6642860Y-1741430D01*
X6642860Y-1711430D02*
X6612860Y-1741430D01*
X6612860Y-3311430D02*
X6642860Y-3341430D01*
X6642860Y-3311430D02*
X6612860Y-3341430D01*
X6612860Y-4911430D02*
X6642860Y-4941430D01*
X6642860Y-4911430D02*
X6612860Y-4941430D01*
X6627977Y-1493197D02*
X6657977Y-1523197D01*
X6657977Y-1493197D02*
X6627977Y-1523197D01*
X6627977Y-3093197D02*
X6657977Y-3123197D01*
X6657977Y-3093197D02*
X6627977Y-3123197D01*
X6627977Y-4693197D02*
X6657977Y-4723197D01*
X6657977Y-4693197D02*
X6627977Y-4723197D01*
X6627977Y-6293197D02*
X6657977Y-6323197D01*
X6657977Y-6293197D02*
X6627977Y-6323197D01*
X6636710Y-163751D02*
X6666710Y-193750D01*
X6666710Y-163751D02*
X6636710Y-193750D01*
X6636710Y-1763750D02*
X6666710Y-1793750D01*
X6666710Y-1763750D02*
X6636710Y-1793750D01*
X6636710Y-3363750D02*
X6666710Y-3393750D01*
X6666710Y-3363750D02*
X6636710Y-3393750D01*
X6636710Y-4963751D02*
X6666710Y-4993751D01*
X6666710Y-4963751D02*
X6636710Y-4993751D01*
X6660000Y-1235000D02*
X6690000Y-1265000D01*
X6690000Y-1235000D02*
X6660000Y-1265000D01*
X6660000Y-2835000D02*
X6690000Y-2865000D01*
X6690000Y-2835000D02*
X6660000Y-2865000D01*
X6660000Y-4435000D02*
X6690000Y-4465000D01*
X6690000Y-4435000D02*
X6660000Y-4465000D01*
X6660000Y-6035000D02*
X6690000Y-6065000D01*
X6690000Y-6035000D02*
X6660000Y-6065000D01*
X6679187Y-202506D02*
X6709187Y-232506D01*
X6709187Y-202506D02*
X6679187Y-232506D01*
X6679187Y-1802506D02*
X6709187Y-1832506D01*
X6709187Y-1802506D02*
X6679187Y-1832506D01*
X6679187Y-3402506D02*
X6709187Y-3432506D01*
X6709187Y-3402506D02*
X6679187Y-3432506D01*
X6679187Y-5002506D02*
X6709187Y-5032506D01*
X6709187Y-5002506D02*
X6679187Y-5032506D01*
X6685000Y-1335000D02*
X6715000Y-1365000D01*
X6715000Y-1335000D02*
X6685000Y-1365000D01*
X6685000Y-1485000D02*
X6715000Y-1515000D01*
X6715000Y-1485000D02*
X6685000Y-1515000D01*
X6685000Y-2935000D02*
X6715000Y-2965000D01*
X6715000Y-2935000D02*
X6685000Y-2965000D01*
X6685000Y-3085000D02*
X6715000Y-3115000D01*
X6715000Y-3085000D02*
X6685000Y-3115000D01*
X6685000Y-4535000D02*
X6715000Y-4565000D01*
X6715000Y-4535000D02*
X6685000Y-4565000D01*
X6685000Y-4685000D02*
X6715000Y-4715000D01*
X6715000Y-4685000D02*
X6685000Y-4715000D01*
X6685000Y-6135000D02*
X6715000Y-6165000D01*
X6715000Y-6135000D02*
X6685000Y-6165000D01*
X6685000Y-6285000D02*
X6715000Y-6315000D01*
X6715000Y-6285000D02*
X6685000Y-6315000D01*
X6710715Y-1433570D02*
X6740715Y-1463570D01*
X6740715Y-1433570D02*
X6710715Y-1463570D01*
X6710715Y-3033570D02*
X6740715Y-3063570D01*
X6740715Y-3033570D02*
X6710715Y-3063570D01*
X6710715Y-4633570D02*
X6740715Y-4663570D01*
X6740715Y-4633570D02*
X6710715Y-4663570D01*
X6710715Y-6233570D02*
X6740715Y-6263570D01*
X6740715Y-6233570D02*
X6710715Y-6263570D01*
X6734982Y-273595D02*
X6764982Y-303595D01*
X6764982Y-273595D02*
X6734982Y-303595D01*
X6734982Y-1873595D02*
X6764982Y-1903595D01*
X6764982Y-1873595D02*
X6734982Y-1903595D01*
X6734982Y-3473595D02*
X6764982Y-3503595D01*
X6764982Y-3473595D02*
X6734982Y-3503595D01*
X6734982Y-5073595D02*
X6764982Y-5103595D01*
X6764982Y-5073595D02*
X6734982Y-5103595D01*
X6735000Y-85000D02*
X6765000Y-115000D01*
X6765000Y-85000D02*
X6735000Y-115000D01*
X6735000Y-1685000D02*
X6765000Y-1715000D01*
X6765000Y-1685000D02*
X6735000Y-1715000D01*
X6735000Y-3285000D02*
X6765000Y-3315000D01*
X6765000Y-3285000D02*
X6735000Y-3315000D01*
X6735000Y-4885000D02*
X6765000Y-4915000D01*
X6765000Y-4885000D02*
X6735000Y-4915000D01*
X6735058Y-216095D02*
X6765058Y-246095D01*
X6765058Y-216095D02*
X6735058Y-246095D01*
X6735058Y-1816095D02*
X6765058Y-1846095D01*
X6765058Y-1816095D02*
X6735058Y-1846095D01*
X6735058Y-3416095D02*
X6765058Y-3446095D01*
X6765058Y-3416095D02*
X6735058Y-3446095D01*
X6735058Y-5016095D02*
X6765058Y-5046095D01*
X6765058Y-5016095D02*
X6735058Y-5046095D01*
X6736430Y-1360715D02*
X6766430Y-1390715D01*
X6766430Y-1360715D02*
X6736430Y-1390715D01*
X6736430Y-2960715D02*
X6766430Y-2990715D01*
X6766430Y-2960715D02*
X6736430Y-2990715D01*
X6736430Y-4560715D02*
X6766430Y-4590715D01*
X6766430Y-4560715D02*
X6736430Y-4590715D01*
X6736430Y-6160715D02*
X6766430Y-6190715D01*
X6766430Y-6160715D02*
X6736430Y-6190715D01*
X6760000Y-360000D02*
X6790000Y-390000D01*
X6790000Y-360000D02*
X6760000Y-390000D01*
X6760000Y-1960000D02*
X6790000Y-1990000D01*
X6790000Y-1960000D02*
X6760000Y-1990000D01*
X6760000Y-3560000D02*
X6790000Y-3590000D01*
X6790000Y-3560000D02*
X6760000Y-3590000D01*
X6760000Y-5160000D02*
X6790000Y-5190000D01*
X6790000Y-5160000D02*
X6760000Y-5190000D01*
X6810000Y-1025659D02*
X6840000Y-1055659D01*
X6840000Y-1025659D02*
X6810000Y-1055659D01*
X6810000Y-2625659D02*
X6840000Y-2655659D01*
X6840000Y-2625659D02*
X6810000Y-2655659D01*
X6810000Y-4225659D02*
X6840000Y-4255659D01*
X6840000Y-4225659D02*
X6810000Y-4255659D01*
X6810000Y-5825659D02*
X6840000Y-5855659D01*
X6840000Y-5825659D02*
X6810000Y-5855659D01*
X6835000Y-835000D02*
X6865000Y-865000D01*
X6865000Y-835000D02*
X6835000Y-865000D01*
X6835000Y-2435000D02*
X6865000Y-2465000D01*
X6865000Y-2435000D02*
X6835000Y-2465000D01*
X6835000Y-4035000D02*
X6865000Y-4065000D01*
X6865000Y-4035000D02*
X6835000Y-4065000D01*
X6835000Y-5635000D02*
X6865000Y-5665000D01*
X6865000Y-5635000D02*
X6835000Y-5665000D01*
X6860000Y-460000D02*
X6890000Y-490000D01*
X6890000Y-460000D02*
X6860000Y-490000D01*
X6860000Y-610000D02*
X6890000Y-640000D01*
X6890000Y-610000D02*
X6860000Y-640000D01*
X6860000Y-1485000D02*
X6890000Y-1515000D01*
X6890000Y-1485000D02*
X6860000Y-1515000D01*
X6860000Y-2060000D02*
X6890000Y-2090000D01*
X6890000Y-2060000D02*
X6860000Y-2090000D01*
X6860000Y-2210000D02*
X6890000Y-2240000D01*
X6890000Y-2210000D02*
X6860000Y-2240000D01*
X6860000Y-3085000D02*
X6890000Y-3115000D01*
X6890000Y-3085000D02*
X6860000Y-3115000D01*
X6860000Y-3660000D02*
X6890000Y-3690000D01*
X6890000Y-3660000D02*
X6860000Y-3690000D01*
X6860000Y-3810000D02*
X6890000Y-3840000D01*
X6890000Y-3810000D02*
X6860000Y-3840000D01*
X6860000Y-4685000D02*
X6890000Y-4715000D01*
X6890000Y-4685000D02*
X6860000Y-4715000D01*
X6860000Y-5260000D02*
X6890000Y-5290000D01*
X6890000Y-5260000D02*
X6860000Y-5290000D01*
X6860000Y-5410000D02*
X6890000Y-5440000D01*
X6890000Y-5410000D02*
X6860000Y-5440000D01*
X6860000Y-6285000D02*
X6890000Y-6315000D01*
X6890000Y-6285000D02*
X6860000Y-6315000D01*
X6882609Y-1030586D02*
X6912609Y-1060586D01*
X6912609Y-1030586D02*
X6882609Y-1060586D01*
X6882609Y-2630586D02*
X6912609Y-2660586D01*
X6912609Y-2630586D02*
X6882609Y-2660586D01*
X6882609Y-4230586D02*
X6912609Y-4260586D01*
X6912609Y-4230586D02*
X6882609Y-4260586D01*
X6882609Y-5830586D02*
X6912609Y-5860586D01*
X6912609Y-5830586D02*
X6882609Y-5860586D01*
X6885000Y-960000D02*
X6915000Y-990000D01*
X6915000Y-960000D02*
X6885000Y-990000D01*
X6885000Y-2560000D02*
X6915000Y-2590000D01*
X6915000Y-2560000D02*
X6885000Y-2590000D01*
X6885000Y-4160000D02*
X6915000Y-4190000D01*
X6915000Y-4160000D02*
X6885000Y-4190000D01*
X6885000Y-5760000D02*
X6915000Y-5790000D01*
X6915000Y-5760000D02*
X6885000Y-5790000D01*
X6910000Y-60000D02*
X6940000Y-90000D01*
X6940000Y-60000D02*
X6910000Y-90000D01*
X6910000Y-685000D02*
X6940000Y-715000D01*
X6940000Y-685000D02*
X6910000Y-715000D01*
X6910000Y-742500D02*
X6940000Y-772500D01*
X6940000Y-742500D02*
X6910000Y-772500D01*
X6910000Y-810000D02*
X6940000Y-840000D01*
X6940000Y-810000D02*
X6910000Y-840000D01*
X6910000Y-1081143D02*
X6940000Y-1111143D01*
X6940000Y-1081143D02*
X6910000Y-1111143D01*
X6910000Y-1660000D02*
X6940000Y-1690000D01*
X6940000Y-1660000D02*
X6910000Y-1690000D01*
X6910000Y-2285000D02*
X6940000Y-2315000D01*
X6940000Y-2285000D02*
X6910000Y-2315000D01*
X6910000Y-2342500D02*
X6940000Y-2372500D01*
X6940000Y-2342500D02*
X6910000Y-2372500D01*
X6910000Y-2410000D02*
X6940000Y-2440000D01*
X6940000Y-2410000D02*
X6910000Y-2440000D01*
X6910000Y-2681143D02*
X6940000Y-2711143D01*
X6940000Y-2681143D02*
X6910000Y-2711143D01*
X6910000Y-3260000D02*
X6940000Y-3290000D01*
X6940000Y-3260000D02*
X6910000Y-3290000D01*
X6910000Y-3885000D02*
X6940000Y-3915000D01*
X6940000Y-3885000D02*
X6910000Y-3915000D01*
X6910000Y-3942500D02*
X6940000Y-3972500D01*
X6940000Y-3942500D02*
X6910000Y-3972500D01*
X6910000Y-4010000D02*
X6940000Y-4040000D01*
X6940000Y-4010000D02*
X6910000Y-4040000D01*
X6910000Y-4281143D02*
X6940000Y-4311143D01*
X6940000Y-4281143D02*
X6910000Y-4311143D01*
X6910000Y-4860000D02*
X6940000Y-4890000D01*
X6940000Y-4860000D02*
X6910000Y-4890000D01*
X6910000Y-5485000D02*
X6940000Y-5515000D01*
X6940000Y-5485000D02*
X6910000Y-5515000D01*
X6910000Y-5542500D02*
X6940000Y-5572500D01*
X6940000Y-5542500D02*
X6910000Y-5572500D01*
X6910000Y-5610000D02*
X6940000Y-5640000D01*
X6940000Y-5610000D02*
X6910000Y-5640000D01*
X6910000Y-5881143D02*
X6940000Y-5911143D01*
X6940000Y-5881143D02*
X6910000Y-5911143D01*
X6910715Y-908570D02*
X6940715Y-938570D01*
X6940715Y-908570D02*
X6910715Y-938570D01*
X6910715Y-2508570D02*
X6940715Y-2538570D01*
X6940715Y-2508570D02*
X6910715Y-2538570D01*
X6910715Y-4108570D02*
X6940715Y-4138570D01*
X6940715Y-4108570D02*
X6910715Y-4138570D01*
X6910715Y-5708570D02*
X6940715Y-5738570D01*
X6940715Y-5708570D02*
X6910715Y-5738570D01*
X6917500Y-535000D02*
X6947500Y-565000D01*
X6947500Y-535000D02*
X6917500Y-565000D01*
X6917500Y-610000D02*
X6947500Y-640000D01*
X6947500Y-610000D02*
X6917500Y-640000D01*
X6917500Y-2135000D02*
X6947500Y-2165000D01*
X6947500Y-2135000D02*
X6917500Y-2165000D01*
X6917500Y-2210000D02*
X6947500Y-2240000D01*
X6947500Y-2210000D02*
X6917500Y-2240000D01*
X6917500Y-3735000D02*
X6947500Y-3765000D01*
X6947500Y-3735000D02*
X6917500Y-3765000D01*
X6917500Y-3810000D02*
X6947500Y-3840000D01*
X6947500Y-3810000D02*
X6917500Y-3840000D01*
X6917500Y-5335000D02*
X6947500Y-5365000D01*
X6947500Y-5335000D02*
X6917500Y-5365000D01*
X6917500Y-5410000D02*
X6947500Y-5440000D01*
X6947500Y-5410000D02*
X6917500Y-5440000D01*
X465000Y-495000D02*
G75*
G02*
X435000Y-495000I-15000J0D01*
G01*
X435000Y-495000D02*
G75*
G02*
X465000Y-495000I15000J0D01*
G01*
X465000Y-805000D02*
G75*
G02*
X435000Y-805000I-15000J0D01*
G01*
X435000Y-805000D02*
G75*
G02*
X465000Y-805000I15000J0D01*
G01*
X465000Y-1115000D02*
G75*
G02*
X435000Y-1115000I-15000J0D01*
G01*
X435000Y-1115000D02*
G75*
G02*
X465000Y-1115000I15000J0D01*
G01*
X465000Y-2095000D02*
G75*
G02*
X435000Y-2095000I-15000J0D01*
G01*
X435000Y-2095000D02*
G75*
G02*
X465000Y-2095000I15000J0D01*
G01*
X465000Y-2405000D02*
G75*
G02*
X435000Y-2405000I-15000J0D01*
G01*
X435000Y-2405000D02*
G75*
G02*
X465000Y-2405000I15000J0D01*
G01*
X465000Y-2715000D02*
G75*
G02*
X435000Y-2715000I-15000J0D01*
G01*
X435000Y-2715000D02*
G75*
G02*
X465000Y-2715000I15000J0D01*
G01*
X465000Y-3695000D02*
G75*
G02*
X435000Y-3695000I-15000J0D01*
G01*
X435000Y-3695000D02*
G75*
G02*
X465000Y-3695000I15000J0D01*
G01*
X465000Y-4005000D02*
G75*
G02*
X435000Y-4005000I-15000J0D01*
G01*
X435000Y-4005000D02*
G75*
G02*
X465000Y-4005000I15000J0D01*
G01*
X465000Y-4315000D02*
G75*
G02*
X435000Y-4315000I-15000J0D01*
G01*
X435000Y-4315000D02*
G75*
G02*
X465000Y-4315000I15000J0D01*
G01*
X465000Y-5295000D02*
G75*
G02*
X435000Y-5295000I-15000J0D01*
G01*
X435000Y-5295000D02*
G75*
G02*
X465000Y-5295000I15000J0D01*
G01*
X465000Y-5605000D02*
G75*
G02*
X435000Y-5605000I-15000J0D01*
G01*
X435000Y-5605000D02*
G75*
G02*
X465000Y-5605000I15000J0D01*
G01*
X465000Y-5915000D02*
G75*
G02*
X435000Y-5915000I-15000J0D01*
G01*
X435000Y-5915000D02*
G75*
G02*
X465000Y-5915000I15000J0D01*
G01*
X965000Y-495000D02*
G75*
G02*
X935000Y-495000I-15000J0D01*
G01*
X935000Y-495000D02*
G75*
G02*
X965000Y-495000I15000J0D01*
G01*
X965000Y-805000D02*
G75*
G02*
X935000Y-805000I-15000J0D01*
G01*
X935000Y-805000D02*
G75*
G02*
X965000Y-805000I15000J0D01*
G01*
X965000Y-1115000D02*
G75*
G02*
X935000Y-1115000I-15000J0D01*
G01*
X935000Y-1115000D02*
G75*
G02*
X965000Y-1115000I15000J0D01*
G01*
X965000Y-2095000D02*
G75*
G02*
X935000Y-2095000I-15000J0D01*
G01*
X935000Y-2095000D02*
G75*
G02*
X965000Y-2095000I15000J0D01*
G01*
X965000Y-2405000D02*
G75*
G02*
X935000Y-2405000I-15000J0D01*
G01*
X935000Y-2405000D02*
G75*
G02*
X965000Y-2405000I15000J0D01*
G01*
X965000Y-2715000D02*
G75*
G02*
X935000Y-2715000I-15000J0D01*
G01*
X935000Y-2715000D02*
G75*
G02*
X965000Y-2715000I15000J0D01*
G01*
X965000Y-3695000D02*
G75*
G02*
X935000Y-3695000I-15000J0D01*
G01*
X935000Y-3695000D02*
G75*
G02*
X965000Y-3695000I15000J0D01*
G01*
X965000Y-4005000D02*
G75*
G02*
X935000Y-4005000I-15000J0D01*
G01*
X935000Y-4005000D02*
G75*
G02*
X965000Y-4005000I15000J0D01*
G01*
X965000Y-4315000D02*
G75*
G02*
X935000Y-4315000I-15000J0D01*
G01*
X935000Y-4315000D02*
G75*
G02*
X965000Y-4315000I15000J0D01*
G01*
X965000Y-5295000D02*
G75*
G02*
X935000Y-5295000I-15000J0D01*
G01*
X935000Y-5295000D02*
G75*
G02*
X965000Y-5295000I15000J0D01*
G01*
X965000Y-5605000D02*
G75*
G02*
X935000Y-5605000I-15000J0D01*
G01*
X935000Y-5605000D02*
G75*
G02*
X965000Y-5605000I15000J0D01*
G01*
X965000Y-5915000D02*
G75*
G02*
X935000Y-5915000I-15000J0D01*
G01*
X935000Y-5915000D02*
G75*
G02*
X965000Y-5915000I15000J0D01*
G01*
X1865000Y-495000D02*
G75*
G02*
X1835000Y-495000I-15000J0D01*
G01*
X1835000Y-495000D02*
G75*
G02*
X1865000Y-495000I15000J0D01*
G01*
X1865000Y-805000D02*
G75*
G02*
X1835000Y-805000I-15000J0D01*
G01*
X1835000Y-805000D02*
G75*
G02*
X1865000Y-805000I15000J0D01*
G01*
X1865000Y-1115000D02*
G75*
G02*
X1835000Y-1115000I-15000J0D01*
G01*
X1835000Y-1115000D02*
G75*
G02*
X1865000Y-1115000I15000J0D01*
G01*
X1865000Y-2095000D02*
G75*
G02*
X1835000Y-2095000I-15000J0D01*
G01*
X1835000Y-2095000D02*
G75*
G02*
X1865000Y-2095000I15000J0D01*
G01*
X1865000Y-2405000D02*
G75*
G02*
X1835000Y-2405000I-15000J0D01*
G01*
X1835000Y-2405000D02*
G75*
G02*
X1865000Y-2405000I15000J0D01*
G01*
X1865000Y-2715000D02*
G75*
G02*
X1835000Y-2715000I-15000J0D01*
G01*
X1835000Y-2715000D02*
G75*
G02*
X1865000Y-2715000I15000J0D01*
G01*
X1865000Y-3695000D02*
G75*
G02*
X1835000Y-3695000I-15000J0D01*
G01*
X1835000Y-3695000D02*
G75*
G02*
X1865000Y-3695000I15000J0D01*
G01*
X1865000Y-4005000D02*
G75*
G02*
X1835000Y-4005000I-15000J0D01*
G01*
X1835000Y-4005000D02*
G75*
G02*
X1865000Y-4005000I15000J0D01*
G01*
X1865000Y-4315000D02*
G75*
G02*
X1835000Y-4315000I-15000J0D01*
G01*
X1835000Y-4315000D02*
G75*
G02*
X1865000Y-4315000I15000J0D01*
G01*
X1865000Y-5295000D02*
G75*
G02*
X1835000Y-5295000I-15000J0D01*
G01*
X1835000Y-5295000D02*
G75*
G02*
X1865000Y-5295000I15000J0D01*
G01*
X1865000Y-5605000D02*
G75*
G02*
X1835000Y-5605000I-15000J0D01*
G01*
X1835000Y-5605000D02*
G75*
G02*
X1865000Y-5605000I15000J0D01*
G01*
X1865000Y-5915000D02*
G75*
G02*
X1835000Y-5915000I-15000J0D01*
G01*
X1835000Y-5915000D02*
G75*
G02*
X1865000Y-5915000I15000J0D01*
G01*
X2365000Y-495000D02*
G75*
G02*
X2335000Y-495000I-15000J0D01*
G01*
X2335000Y-495000D02*
G75*
G02*
X2365000Y-495000I15000J0D01*
G01*
X2365000Y-805000D02*
G75*
G02*
X2335000Y-805000I-15000J0D01*
G01*
X2335000Y-805000D02*
G75*
G02*
X2365000Y-805000I15000J0D01*
G01*
X2365000Y-1115000D02*
G75*
G02*
X2335000Y-1115000I-15000J0D01*
G01*
X2335000Y-1115000D02*
G75*
G02*
X2365000Y-1115000I15000J0D01*
G01*
X2365000Y-2095000D02*
G75*
G02*
X2335000Y-2095000I-15000J0D01*
G01*
X2335000Y-2095000D02*
G75*
G02*
X2365000Y-2095000I15000J0D01*
G01*
X2365000Y-2405000D02*
G75*
G02*
X2335000Y-2405000I-15000J0D01*
G01*
X2335000Y-2405000D02*
G75*
G02*
X2365000Y-2405000I15000J0D01*
G01*
X2365000Y-2715000D02*
G75*
G02*
X2335000Y-2715000I-15000J0D01*
G01*
X2335000Y-2715000D02*
G75*
G02*
X2365000Y-2715000I15000J0D01*
G01*
X2365000Y-3695000D02*
G75*
G02*
X2335000Y-3695000I-15000J0D01*
G01*
X2335000Y-3695000D02*
G75*
G02*
X2365000Y-3695000I15000J0D01*
G01*
X2365000Y-4005000D02*
G75*
G02*
X2335000Y-4005000I-15000J0D01*
G01*
X2335000Y-4005000D02*
G75*
G02*
X2365000Y-4005000I15000J0D01*
G01*
X2365000Y-4315000D02*
G75*
G02*
X2335000Y-4315000I-15000J0D01*
G01*
X2335000Y-4315000D02*
G75*
G02*
X2365000Y-4315000I15000J0D01*
G01*
X2365000Y-5295000D02*
G75*
G02*
X2335000Y-5295000I-15000J0D01*
G01*
X2335000Y-5295000D02*
G75*
G02*
X2365000Y-5295000I15000J0D01*
G01*
X2365000Y-5605000D02*
G75*
G02*
X2335000Y-5605000I-15000J0D01*
G01*
X2335000Y-5605000D02*
G75*
G02*
X2365000Y-5605000I15000J0D01*
G01*
X2365000Y-5915000D02*
G75*
G02*
X2335000Y-5915000I-15000J0D01*
G01*
X2335000Y-5915000D02*
G75*
G02*
X2365000Y-5915000I15000J0D01*
G01*
X3265000Y-495000D02*
G75*
G02*
X3235000Y-495000I-15000J0D01*
G01*
X3235000Y-495000D02*
G75*
G02*
X3265000Y-495000I15000J0D01*
G01*
X3265000Y-805000D02*
G75*
G02*
X3235000Y-805000I-15000J0D01*
G01*
X3235000Y-805000D02*
G75*
G02*
X3265000Y-805000I15000J0D01*
G01*
X3265000Y-1115000D02*
G75*
G02*
X3235000Y-1115000I-15000J0D01*
G01*
X3235000Y-1115000D02*
G75*
G02*
X3265000Y-1115000I15000J0D01*
G01*
X3265000Y-2095000D02*
G75*
G02*
X3235000Y-2095000I-15000J0D01*
G01*
X3235000Y-2095000D02*
G75*
G02*
X3265000Y-2095000I15000J0D01*
G01*
X3265000Y-2405000D02*
G75*
G02*
X3235000Y-2405000I-15000J0D01*
G01*
X3235000Y-2405000D02*
G75*
G02*
X3265000Y-2405000I15000J0D01*
G01*
X3265000Y-2715000D02*
G75*
G02*
X3235000Y-2715000I-15000J0D01*
G01*
X3235000Y-2715000D02*
G75*
G02*
X3265000Y-2715000I15000J0D01*
G01*
X3265000Y-3695000D02*
G75*
G02*
X3235000Y-3695000I-15000J0D01*
G01*
X3235000Y-3695000D02*
G75*
G02*
X3265000Y-3695000I15000J0D01*
G01*
X3265000Y-4005000D02*
G75*
G02*
X3235000Y-4005000I-15000J0D01*
G01*
X3235000Y-4005000D02*
G75*
G02*
X3265000Y-4005000I15000J0D01*
G01*
X3265000Y-4315000D02*
G75*
G02*
X3235000Y-4315000I-15000J0D01*
G01*
X3235000Y-4315000D02*
G75*
G02*
X3265000Y-4315000I15000J0D01*
G01*
X3265000Y-5295000D02*
G75*
G02*
X3235000Y-5295000I-15000J0D01*
G01*
X3235000Y-5295000D02*
G75*
G02*
X3265000Y-5295000I15000J0D01*
G01*
X3265000Y-5605000D02*
G75*
G02*
X3235000Y-5605000I-15000J0D01*
G01*
X3235000Y-5605000D02*
G75*
G02*
X3265000Y-5605000I15000J0D01*
G01*
X3265000Y-5915000D02*
G75*
G02*
X3235000Y-5915000I-15000J0D01*
G01*
X3235000Y-5915000D02*
G75*
G02*
X3265000Y-5915000I15000J0D01*
G01*
X3765000Y-495000D02*
G75*
G02*
X3735000Y-495000I-15000J0D01*
G01*
X3735000Y-495000D02*
G75*
G02*
X3765000Y-495000I15000J0D01*
G01*
X3765000Y-805000D02*
G75*
G02*
X3735000Y-805000I-15000J0D01*
G01*
X3735000Y-805000D02*
G75*
G02*
X3765000Y-805000I15000J0D01*
G01*
X3765000Y-1115000D02*
G75*
G02*
X3735000Y-1115000I-15000J0D01*
G01*
X3735000Y-1115000D02*
G75*
G02*
X3765000Y-1115000I15000J0D01*
G01*
X3765000Y-2095000D02*
G75*
G02*
X3735000Y-2095000I-15000J0D01*
G01*
X3735000Y-2095000D02*
G75*
G02*
X3765000Y-2095000I15000J0D01*
G01*
X3765000Y-2405000D02*
G75*
G02*
X3735000Y-2405000I-15000J0D01*
G01*
X3735000Y-2405000D02*
G75*
G02*
X3765000Y-2405000I15000J0D01*
G01*
X3765000Y-2715000D02*
G75*
G02*
X3735000Y-2715000I-15000J0D01*
G01*
X3735000Y-2715000D02*
G75*
G02*
X3765000Y-2715000I15000J0D01*
G01*
X3765000Y-3695000D02*
G75*
G02*
X3735000Y-3695000I-15000J0D01*
G01*
X3735000Y-3695000D02*
G75*
G02*
X3765000Y-3695000I15000J0D01*
G01*
X3765000Y-4005000D02*
G75*
G02*
X3735000Y-4005000I-15000J0D01*
G01*
X3735000Y-4005000D02*
G75*
G02*
X3765000Y-4005000I15000J0D01*
G01*
X3765000Y-4315000D02*
G75*
G02*
X3735000Y-4315000I-15000J0D01*
G01*
X3735000Y-4315000D02*
G75*
G02*
X3765000Y-4315000I15000J0D01*
G01*
X3765000Y-5295000D02*
G75*
G02*
X3735000Y-5295000I-15000J0D01*
G01*
X3735000Y-5295000D02*
G75*
G02*
X3765000Y-5295000I15000J0D01*
G01*
X3765000Y-5605000D02*
G75*
G02*
X3735000Y-5605000I-15000J0D01*
G01*
X3735000Y-5605000D02*
G75*
G02*
X3765000Y-5605000I15000J0D01*
G01*
X3765000Y-5915000D02*
G75*
G02*
X3735000Y-5915000I-15000J0D01*
G01*
X3735000Y-5915000D02*
G75*
G02*
X3765000Y-5915000I15000J0D01*
G01*
X4665000Y-495000D02*
G75*
G02*
X4635000Y-495000I-15000J0D01*
G01*
X4635000Y-495000D02*
G75*
G02*
X4665000Y-495000I15000J0D01*
G01*
X4665000Y-805000D02*
G75*
G02*
X4635000Y-805000I-15000J0D01*
G01*
X4635000Y-805000D02*
G75*
G02*
X4665000Y-805000I15000J0D01*
G01*
X4665000Y-1115000D02*
G75*
G02*
X4635000Y-1115000I-15000J0D01*
G01*
X4635000Y-1115000D02*
G75*
G02*
X4665000Y-1115000I15000J0D01*
G01*
X4665000Y-2095000D02*
G75*
G02*
X4635000Y-2095000I-15000J0D01*
G01*
X4635000Y-2095000D02*
G75*
G02*
X4665000Y-2095000I15000J0D01*
G01*
X4665000Y-2405000D02*
G75*
G02*
X4635000Y-2405000I-15000J0D01*
G01*
X4635000Y-2405000D02*
G75*
G02*
X4665000Y-2405000I15000J0D01*
G01*
X4665000Y-2715000D02*
G75*
G02*
X4635000Y-2715000I-15000J0D01*
G01*
X4635000Y-2715000D02*
G75*
G02*
X4665000Y-2715000I15000J0D01*
G01*
X4665000Y-3695000D02*
G75*
G02*
X4635000Y-3695000I-15000J0D01*
G01*
X4635000Y-3695000D02*
G75*
G02*
X4665000Y-3695000I15000J0D01*
G01*
X4665000Y-4005000D02*
G75*
G02*
X4635000Y-4005000I-15000J0D01*
G01*
X4635000Y-4005000D02*
G75*
G02*
X4665000Y-4005000I15000J0D01*
G01*
X4665000Y-4315000D02*
G75*
G02*
X4635000Y-4315000I-15000J0D01*
G01*
X4635000Y-4315000D02*
G75*
G02*
X4665000Y-4315000I15000J0D01*
G01*
X4665000Y-5295000D02*
G75*
G02*
X4635000Y-5295000I-15000J0D01*
G01*
X4635000Y-5295000D02*
G75*
G02*
X4665000Y-5295000I15000J0D01*
G01*
X4665000Y-5605000D02*
G75*
G02*
X4635000Y-5605000I-15000J0D01*
G01*
X4635000Y-5605000D02*
G75*
G02*
X4665000Y-5605000I15000J0D01*
G01*
X4665000Y-5915000D02*
G75*
G02*
X4635000Y-5915000I-15000J0D01*
G01*
X4635000Y-5915000D02*
G75*
G02*
X4665000Y-5915000I15000J0D01*
G01*
X5165000Y-495000D02*
G75*
G02*
X5135000Y-495000I-15000J0D01*
G01*
X5135000Y-495000D02*
G75*
G02*
X5165000Y-495000I15000J0D01*
G01*
X5165000Y-805000D02*
G75*
G02*
X5135000Y-805000I-15000J0D01*
G01*
X5135000Y-805000D02*
G75*
G02*
X5165000Y-805000I15000J0D01*
G01*
X5165000Y-1115000D02*
G75*
G02*
X5135000Y-1115000I-15000J0D01*
G01*
X5135000Y-1115000D02*
G75*
G02*
X5165000Y-1115000I15000J0D01*
G01*
X5165000Y-2095000D02*
G75*
G02*
X5135000Y-2095000I-15000J0D01*
G01*
X5135000Y-2095000D02*
G75*
G02*
X5165000Y-2095000I15000J0D01*
G01*
X5165000Y-2405000D02*
G75*
G02*
X5135000Y-2405000I-15000J0D01*
G01*
X5135000Y-2405000D02*
G75*
G02*
X5165000Y-2405000I15000J0D01*
G01*
X5165000Y-2715000D02*
G75*
G02*
X5135000Y-2715000I-15000J0D01*
G01*
X5135000Y-2715000D02*
G75*
G02*
X5165000Y-2715000I15000J0D01*
G01*
X5165000Y-3695000D02*
G75*
G02*
X5135000Y-3695000I-15000J0D01*
G01*
X5135000Y-3695000D02*
G75*
G02*
X5165000Y-3695000I15000J0D01*
G01*
X5165000Y-4005000D02*
G75*
G02*
X5135000Y-4005000I-15000J0D01*
G01*
X5135000Y-4005000D02*
G75*
G02*
X5165000Y-4005000I15000J0D01*
G01*
X5165000Y-4315000D02*
G75*
G02*
X5135000Y-4315000I-15000J0D01*
G01*
X5135000Y-4315000D02*
G75*
G02*
X5165000Y-4315000I15000J0D01*
G01*
X5165000Y-5295000D02*
G75*
G02*
X5135000Y-5295000I-15000J0D01*
G01*
X5135000Y-5295000D02*
G75*
G02*
X5165000Y-5295000I15000J0D01*
G01*
X5165000Y-5605000D02*
G75*
G02*
X5135000Y-5605000I-15000J0D01*
G01*
X5135000Y-5605000D02*
G75*
G02*
X5165000Y-5605000I15000J0D01*
G01*
X5165000Y-5915000D02*
G75*
G02*
X5135000Y-5915000I-15000J0D01*
G01*
X5135000Y-5915000D02*
G75*
G02*
X5165000Y-5915000I15000J0D01*
G01*
X6065000Y-495000D02*
G75*
G02*
X6035000Y-495000I-15000J0D01*
G01*
X6035000Y-495000D02*
G75*
G02*
X6065000Y-495000I15000J0D01*
G01*
X6065000Y-805000D02*
G75*
G02*
X6035000Y-805000I-15000J0D01*
G01*
X6035000Y-805000D02*
G75*
G02*
X6065000Y-805000I15000J0D01*
G01*
X6065000Y-1115000D02*
G75*
G02*
X6035000Y-1115000I-15000J0D01*
G01*
X6035000Y-1115000D02*
G75*
G02*
X6065000Y-1115000I15000J0D01*
G01*
X6065000Y-2095000D02*
G75*
G02*
X6035000Y-2095000I-15000J0D01*
G01*
X6035000Y-2095000D02*
G75*
G02*
X6065000Y-2095000I15000J0D01*
G01*
X6065000Y-2405000D02*
G75*
G02*
X6035000Y-2405000I-15000J0D01*
G01*
X6035000Y-2405000D02*
G75*
G02*
X6065000Y-2405000I15000J0D01*
G01*
X6065000Y-2715000D02*
G75*
G02*
X6035000Y-2715000I-15000J0D01*
G01*
X6035000Y-2715000D02*
G75*
G02*
X6065000Y-2715000I15000J0D01*
G01*
X6065000Y-3695000D02*
G75*
G02*
X6035000Y-3695000I-15000J0D01*
G01*
X6035000Y-3695000D02*
G75*
G02*
X6065000Y-3695000I15000J0D01*
G01*
X6065000Y-4005000D02*
G75*
G02*
X6035000Y-4005000I-15000J0D01*
G01*
X6035000Y-4005000D02*
G75*
G02*
X6065000Y-4005000I15000J0D01*
G01*
X6065000Y-4315000D02*
G75*
G02*
X6035000Y-4315000I-15000J0D01*
G01*
X6035000Y-4315000D02*
G75*
G02*
X6065000Y-4315000I15000J0D01*
G01*
X6065000Y-5295000D02*
G75*
G02*
X6035000Y-5295000I-15000J0D01*
G01*
X6035000Y-5295000D02*
G75*
G02*
X6065000Y-5295000I15000J0D01*
G01*
X6065000Y-5605000D02*
G75*
G02*
X6035000Y-5605000I-15000J0D01*
G01*
X6035000Y-5605000D02*
G75*
G02*
X6065000Y-5605000I15000J0D01*
G01*
X6065000Y-5915000D02*
G75*
G02*
X6035000Y-5915000I-15000J0D01*
G01*
X6035000Y-5915000D02*
G75*
G02*
X6065000Y-5915000I15000J0D01*
G01*
X6565000Y-495000D02*
G75*
G02*
X6535000Y-495000I-15000J0D01*
G01*
X6535000Y-495000D02*
G75*
G02*
X6565000Y-495000I15000J0D01*
G01*
X6565000Y-805000D02*
G75*
G02*
X6535000Y-805000I-15000J0D01*
G01*
X6535000Y-805000D02*
G75*
G02*
X6565000Y-805000I15000J0D01*
G01*
X6565000Y-1115000D02*
G75*
G02*
X6535000Y-1115000I-15000J0D01*
G01*
X6535000Y-1115000D02*
G75*
G02*
X6565000Y-1115000I15000J0D01*
G01*
X6565000Y-2095000D02*
G75*
G02*
X6535000Y-2095000I-15000J0D01*
G01*
X6535000Y-2095000D02*
G75*
G02*
X6565000Y-2095000I15000J0D01*
G01*
X6565000Y-2405000D02*
G75*
G02*
X6535000Y-2405000I-15000J0D01*
G01*
X6535000Y-2405000D02*
G75*
G02*
X6565000Y-2405000I15000J0D01*
G01*
X6565000Y-2715000D02*
G75*
G02*
X6535000Y-2715000I-15000J0D01*
G01*
X6535000Y-2715000D02*
G75*
G02*
X6565000Y-2715000I15000J0D01*
G01*
X6565000Y-3695000D02*
G75*
G02*
X6535000Y-3695000I-15000J0D01*
G01*
X6535000Y-3695000D02*
G75*
G02*
X6565000Y-3695000I15000J0D01*
G01*
X6565000Y-4005000D02*
G75*
G02*
X6535000Y-4005000I-15000J0D01*
G01*
X6535000Y-4005000D02*
G75*
G02*
X6565000Y-4005000I15000J0D01*
G01*
X6565000Y-4315000D02*
G75*
G02*
X6535000Y-4315000I-15000J0D01*
G01*
X6535000Y-4315000D02*
G75*
G02*
X6565000Y-4315000I15000J0D01*
G01*
X6565000Y-5295000D02*
G75*
G02*
X6535000Y-5295000I-15000J0D01*
G01*
X6535000Y-5295000D02*
G75*
G02*
X6565000Y-5295000I15000J0D01*
G01*
X6565000Y-5605000D02*
G75*
G02*
X6535000Y-5605000I-15000J0D01*
G01*
X6535000Y-5605000D02*
G75*
G02*
X6565000Y-5605000I15000J0D01*
G01*
X6565000Y-5915000D02*
G75*
G02*
X6535000Y-5915000I-15000J0D01*
G01*
X6535000Y-5915000D02*
G75*
G02*
X6565000Y-5915000I15000J0D01*
G01*
D11*
X-91723Y-7413984D02*
X-91723Y-7213984D01*
X-91723Y-7213984D02*
X-44104Y-7213984D01*
X-44104Y-7213984D02*
X-15533Y-7223508D01*
X-15533Y-7223508D02*
X3515Y-7242555D01*
X3515Y-7242555D02*
X13039Y-7261603D01*
X13039Y-7261603D02*
X22562Y-7299698D01*
X22562Y-7299698D02*
X22562Y-7328269D01*
X22562Y-7328269D02*
X13039Y-7366365D01*
X13039Y-7366365D02*
X3515Y-7385412D01*
X3515Y-7385412D02*
X-15533Y-7404460D01*
X-15533Y-7404460D02*
X-44104Y-7413984D01*
X-44104Y-7413984D02*
X-91723Y-7413984D01*
X108277Y-7413984D02*
X108277Y-7280650D01*
X108277Y-7318746D02*
X117801Y-7299698D01*
X117801Y-7299698D02*
X127324Y-7290174D01*
X127324Y-7290174D02*
X146372Y-7280650D01*
X146372Y-7280650D02*
X165420Y-7280650D01*
X232086Y-7413984D02*
X232086Y-7280650D01*
X232086Y-7213984D02*
X222562Y-7223508D01*
X222562Y-7223508D02*
X232086Y-7233031D01*
X232086Y-7233031D02*
X241610Y-7223508D01*
X241610Y-7223508D02*
X232086Y-7213984D01*
X232086Y-7213984D02*
X232086Y-7233031D01*
X355896Y-7413984D02*
X336848Y-7404460D01*
X336848Y-7404460D02*
X327324Y-7385412D01*
X327324Y-7385412D02*
X327324Y-7213984D01*
X460658Y-7413984D02*
X441610Y-7404460D01*
X441610Y-7404460D02*
X432086Y-7385412D01*
X432086Y-7385412D02*
X432086Y-7213984D01*
X689229Y-7413984D02*
X689229Y-7213984D01*
X689229Y-7213984D02*
X755896Y-7356841D01*
X755896Y-7356841D02*
X822562Y-7213984D01*
X822562Y-7213984D02*
X822562Y-7413984D01*
X1003515Y-7413984D02*
X1003515Y-7309222D01*
X1003515Y-7309222D02*
X993991Y-7290174D01*
X993991Y-7290174D02*
X974943Y-7280650D01*
X974943Y-7280650D02*
X936848Y-7280650D01*
X936848Y-7280650D02*
X917801Y-7290174D01*
X1003515Y-7404460D02*
X984467Y-7413984D01*
X984467Y-7413984D02*
X936848Y-7413984D01*
X936848Y-7413984D02*
X917801Y-7404460D01*
X917801Y-7404460D02*
X908277Y-7385412D01*
X908277Y-7385412D02*
X908277Y-7366365D01*
X908277Y-7366365D02*
X917801Y-7347317D01*
X917801Y-7347317D02*
X936848Y-7337793D01*
X936848Y-7337793D02*
X984467Y-7337793D01*
X984467Y-7337793D02*
X1003515Y-7328269D01*
X1098753Y-7280650D02*
X1098753Y-7480650D01*
X1098753Y-7290174D02*
X1117801Y-7280650D01*
X1117801Y-7280650D02*
X1155896Y-7280650D01*
X1155896Y-7280650D02*
X1174944Y-7290174D01*
X1174944Y-7290174D02*
X1184467Y-7299698D01*
X1184467Y-7299698D02*
X1193991Y-7318746D01*
X1193991Y-7318746D02*
X1193991Y-7375888D01*
X1193991Y-7375888D02*
X1184467Y-7394936D01*
X1184467Y-7394936D02*
X1174944Y-7404460D01*
X1174944Y-7404460D02*
X1155896Y-7413984D01*
X1155896Y-7413984D02*
X1117801Y-7413984D01*
X1117801Y-7413984D02*
X1098753Y-7404460D01*
X1279705Y-7394936D02*
X1289229Y-7404460D01*
X1289229Y-7404460D02*
X1279705Y-7413984D01*
X1279705Y-7413984D02*
X1270182Y-7404460D01*
X1270182Y-7404460D02*
X1279705Y-7394936D01*
X1279705Y-7394936D02*
X1279705Y-7413984D01*
X1279705Y-7290174D02*
X1289229Y-7299698D01*
X1289229Y-7299698D02*
X1279705Y-7309222D01*
X1279705Y-7309222D02*
X1270182Y-7299698D01*
X1270182Y-7299698D02*
X1279705Y-7290174D01*
X1279705Y-7290174D02*
X1279705Y-7309222D01*
D12*
X-382500Y-7727500D02*
X-352500Y-7757500D01*
X-352500Y-7727500D02*
X-382500Y-7757500D01*
D11*
X-53628Y-7633984D02*
X-34580Y-7633984D01*
X-34580Y-7633984D02*
X-15533Y-7643508D01*
X-15533Y-7643508D02*
X-6009Y-7653031D01*
X-6009Y-7653031D02*
X3515Y-7672079D01*
X3515Y-7672079D02*
X13039Y-7710174D01*
X13039Y-7710174D02*
X13039Y-7757793D01*
X13039Y-7757793D02*
X3515Y-7795888D01*
X3515Y-7795888D02*
X-6009Y-7814936D01*
X-6009Y-7814936D02*
X-15533Y-7824460D01*
X-15533Y-7824460D02*
X-34580Y-7833984D01*
X-34580Y-7833984D02*
X-53628Y-7833984D01*
X-53628Y-7833984D02*
X-72676Y-7824460D01*
X-72676Y-7824460D02*
X-82199Y-7814936D01*
X-82199Y-7814936D02*
X-91723Y-7795888D01*
X-91723Y-7795888D02*
X-101247Y-7757793D01*
X-101247Y-7757793D02*
X-101247Y-7710174D01*
X-101247Y-7710174D02*
X-91723Y-7672079D01*
X-91723Y-7672079D02*
X-82199Y-7653031D01*
X-82199Y-7653031D02*
X-72676Y-7643508D01*
X-72676Y-7643508D02*
X-53628Y-7633984D01*
X98753Y-7814936D02*
X108277Y-7824460D01*
X108277Y-7824460D02*
X98753Y-7833984D01*
X98753Y-7833984D02*
X89229Y-7824460D01*
X89229Y-7824460D02*
X98753Y-7814936D01*
X98753Y-7814936D02*
X98753Y-7833984D01*
X174943Y-7633984D02*
X298753Y-7633984D01*
X298753Y-7633984D02*
X232086Y-7710174D01*
X232086Y-7710174D02*
X260658Y-7710174D01*
X260658Y-7710174D02*
X279705Y-7719698D01*
X279705Y-7719698D02*
X289229Y-7729222D01*
X289229Y-7729222D02*
X298753Y-7748269D01*
X298753Y-7748269D02*
X298753Y-7795888D01*
X298753Y-7795888D02*
X289229Y-7814936D01*
X289229Y-7814936D02*
X279705Y-7824460D01*
X279705Y-7824460D02*
X260658Y-7833984D01*
X260658Y-7833984D02*
X203515Y-7833984D01*
X203515Y-7833984D02*
X184467Y-7824460D01*
X184467Y-7824460D02*
X174943Y-7814936D01*
X422562Y-7633984D02*
X441610Y-7633984D01*
X441610Y-7633984D02*
X460658Y-7643508D01*
X460658Y-7643508D02*
X470182Y-7653031D01*
X470182Y-7653031D02*
X479705Y-7672079D01*
X479705Y-7672079D02*
X489229Y-7710174D01*
X489229Y-7710174D02*
X489229Y-7757793D01*
X489229Y-7757793D02*
X479705Y-7795888D01*
X479705Y-7795888D02*
X470182Y-7814936D01*
X470182Y-7814936D02*
X460658Y-7824460D01*
X460658Y-7824460D02*
X441610Y-7833984D01*
X441610Y-7833984D02*
X422562Y-7833984D01*
X422562Y-7833984D02*
X403515Y-7824460D01*
X403515Y-7824460D02*
X393991Y-7814936D01*
X393991Y-7814936D02*
X384467Y-7795888D01*
X384467Y-7795888D02*
X374943Y-7757793D01*
X374943Y-7757793D02*
X374943Y-7710174D01*
X374943Y-7710174D02*
X384467Y-7672079D01*
X384467Y-7672079D02*
X393991Y-7653031D01*
X393991Y-7653031D02*
X403515Y-7643508D01*
X403515Y-7643508D02*
X422562Y-7633984D01*
X613039Y-7633984D02*
X632086Y-7633984D01*
X632086Y-7633984D02*
X651134Y-7643508D01*
X651134Y-7643508D02*
X660658Y-7653031D01*
X660658Y-7653031D02*
X670182Y-7672079D01*
X670182Y-7672079D02*
X679705Y-7710174D01*
X679705Y-7710174D02*
X679705Y-7757793D01*
X679705Y-7757793D02*
X670182Y-7795888D01*
X670182Y-7795888D02*
X660658Y-7814936D01*
X660658Y-7814936D02*
X651134Y-7824460D01*
X651134Y-7824460D02*
X632086Y-7833984D01*
X632086Y-7833984D02*
X613039Y-7833984D01*
X613039Y-7833984D02*
X593991Y-7824460D01*
X593991Y-7824460D02*
X584467Y-7814936D01*
X584467Y-7814936D02*
X574944Y-7795888D01*
X574944Y-7795888D02*
X565420Y-7757793D01*
X565420Y-7757793D02*
X565420Y-7710174D01*
X565420Y-7710174D02*
X574944Y-7672079D01*
X574944Y-7672079D02*
X584467Y-7653031D01*
X584467Y-7653031D02*
X593991Y-7643508D01*
X593991Y-7643508D02*
X613039Y-7633984D01*
X765420Y-7833984D02*
X765420Y-7700650D01*
X765420Y-7719698D02*
X774943Y-7710174D01*
X774943Y-7710174D02*
X793991Y-7700650D01*
X793991Y-7700650D02*
X822563Y-7700650D01*
X822563Y-7700650D02*
X841610Y-7710174D01*
X841610Y-7710174D02*
X851134Y-7729222D01*
X851134Y-7729222D02*
X851134Y-7833984D01*
X851134Y-7729222D02*
X860658Y-7710174D01*
X860658Y-7710174D02*
X879705Y-7700650D01*
X879705Y-7700650D02*
X908277Y-7700650D01*
X908277Y-7700650D02*
X927324Y-7710174D01*
X927324Y-7710174D02*
X936848Y-7729222D01*
X936848Y-7729222D02*
X936848Y-7833984D01*
X1032086Y-7833984D02*
X1032086Y-7700650D01*
X1032086Y-7719698D02*
X1041610Y-7710174D01*
X1041610Y-7710174D02*
X1060658Y-7700650D01*
X1060658Y-7700650D02*
X1089229Y-7700650D01*
X1089229Y-7700650D02*
X1108277Y-7710174D01*
X1108277Y-7710174D02*
X1117801Y-7729222D01*
X1117801Y-7729222D02*
X1117801Y-7833984D01*
X1117801Y-7729222D02*
X1127325Y-7710174D01*
X1127325Y-7710174D02*
X1146372Y-7700650D01*
X1146372Y-7700650D02*
X1174944Y-7700650D01*
X1174944Y-7700650D02*
X1193991Y-7710174D01*
X1193991Y-7710174D02*
X1203515Y-7729222D01*
X1203515Y-7729222D02*
X1203515Y-7833984D01*
X1593991Y-7624460D02*
X1422563Y-7881603D01*
X1851134Y-7633984D02*
X1870182Y-7633984D01*
X1870182Y-7633984D02*
X1889229Y-7643508D01*
X1889229Y-7643508D02*
X1898753Y-7653031D01*
X1898753Y-7653031D02*
X1908277Y-7672079D01*
X1908277Y-7672079D02*
X1917801Y-7710174D01*
X1917801Y-7710174D02*
X1917801Y-7757793D01*
X1917801Y-7757793D02*
X1908277Y-7795888D01*
X1908277Y-7795888D02*
X1898753Y-7814936D01*
X1898753Y-7814936D02*
X1889229Y-7824460D01*
X1889229Y-7824460D02*
X1870182Y-7833984D01*
X1870182Y-7833984D02*
X1851134Y-7833984D01*
X1851134Y-7833984D02*
X1832086Y-7824460D01*
X1832086Y-7824460D02*
X1822563Y-7814936D01*
X1822563Y-7814936D02*
X1813039Y-7795888D01*
X1813039Y-7795888D02*
X1803515Y-7757793D01*
X1803515Y-7757793D02*
X1803515Y-7710174D01*
X1803515Y-7710174D02*
X1813039Y-7672079D01*
X1813039Y-7672079D02*
X1822563Y-7653031D01*
X1822563Y-7653031D02*
X1832086Y-7643508D01*
X1832086Y-7643508D02*
X1851134Y-7633984D01*
X2003515Y-7814936D02*
X2013039Y-7824460D01*
X2013039Y-7824460D02*
X2003515Y-7833984D01*
X2003515Y-7833984D02*
X1993991Y-7824460D01*
X1993991Y-7824460D02*
X2003515Y-7814936D01*
X2003515Y-7814936D02*
X2003515Y-7833984D01*
X2136848Y-7633984D02*
X2155896Y-7633984D01*
X2155896Y-7633984D02*
X2174944Y-7643508D01*
X2174944Y-7643508D02*
X2184468Y-7653031D01*
X2184468Y-7653031D02*
X2193991Y-7672079D01*
X2193991Y-7672079D02*
X2203515Y-7710174D01*
X2203515Y-7710174D02*
X2203515Y-7757793D01*
X2203515Y-7757793D02*
X2193991Y-7795888D01*
X2193991Y-7795888D02*
X2184468Y-7814936D01*
X2184468Y-7814936D02*
X2174944Y-7824460D01*
X2174944Y-7824460D02*
X2155896Y-7833984D01*
X2155896Y-7833984D02*
X2136848Y-7833984D01*
X2136848Y-7833984D02*
X2117801Y-7824460D01*
X2117801Y-7824460D02*
X2108277Y-7814936D01*
X2108277Y-7814936D02*
X2098753Y-7795888D01*
X2098753Y-7795888D02*
X2089229Y-7757793D01*
X2089229Y-7757793D02*
X2089229Y-7710174D01*
X2089229Y-7710174D02*
X2098753Y-7672079D01*
X2098753Y-7672079D02*
X2108277Y-7653031D01*
X2108277Y-7653031D02*
X2117801Y-7643508D01*
X2117801Y-7643508D02*
X2136848Y-7633984D01*
X2393991Y-7833984D02*
X2279706Y-7833984D01*
X2336848Y-7833984D02*
X2336848Y-7633984D01*
X2336848Y-7633984D02*
X2317801Y-7662555D01*
X2317801Y-7662555D02*
X2298753Y-7681603D01*
X2298753Y-7681603D02*
X2279706Y-7691127D01*
X2584468Y-7833984D02*
X2470182Y-7833984D01*
X2527325Y-7833984D02*
X2527325Y-7633984D01*
X2527325Y-7633984D02*
X2508277Y-7662555D01*
X2508277Y-7662555D02*
X2489229Y-7681603D01*
X2489229Y-7681603D02*
X2470182Y-7691127D01*
X2698753Y-7719698D02*
X2679706Y-7710174D01*
X2679706Y-7710174D02*
X2670182Y-7700650D01*
X2670182Y-7700650D02*
X2660658Y-7681603D01*
X2660658Y-7681603D02*
X2660658Y-7672079D01*
X2660658Y-7672079D02*
X2670182Y-7653031D01*
X2670182Y-7653031D02*
X2679706Y-7643508D01*
X2679706Y-7643508D02*
X2698753Y-7633984D01*
X2698753Y-7633984D02*
X2736849Y-7633984D01*
X2736849Y-7633984D02*
X2755896Y-7643508D01*
X2755896Y-7643508D02*
X2765420Y-7653031D01*
X2765420Y-7653031D02*
X2774944Y-7672079D01*
X2774944Y-7672079D02*
X2774944Y-7681603D01*
X2774944Y-7681603D02*
X2765420Y-7700650D01*
X2765420Y-7700650D02*
X2755896Y-7710174D01*
X2755896Y-7710174D02*
X2736849Y-7719698D01*
X2736849Y-7719698D02*
X2698753Y-7719698D01*
X2698753Y-7719698D02*
X2679706Y-7729222D01*
X2679706Y-7729222D02*
X2670182Y-7738746D01*
X2670182Y-7738746D02*
X2660658Y-7757793D01*
X2660658Y-7757793D02*
X2660658Y-7795888D01*
X2660658Y-7795888D02*
X2670182Y-7814936D01*
X2670182Y-7814936D02*
X2679706Y-7824460D01*
X2679706Y-7824460D02*
X2698753Y-7833984D01*
X2698753Y-7833984D02*
X2736849Y-7833984D01*
X2736849Y-7833984D02*
X2755896Y-7824460D01*
X2755896Y-7824460D02*
X2765420Y-7814936D01*
X2765420Y-7814936D02*
X2774944Y-7795888D01*
X2774944Y-7795888D02*
X2774944Y-7757793D01*
X2774944Y-7757793D02*
X2765420Y-7738746D01*
X2765420Y-7738746D02*
X2755896Y-7729222D01*
X2755896Y-7729222D02*
X2736849Y-7719698D01*
X2851134Y-7633984D02*
X2851134Y-7672079D01*
X2927325Y-7633984D02*
X2927325Y-7672079D01*
X3222563Y-7910174D02*
X3213039Y-7900650D01*
X3213039Y-7900650D02*
X3193991Y-7872079D01*
X3193991Y-7872079D02*
X3184468Y-7853031D01*
X3184468Y-7853031D02*
X3174944Y-7824460D01*
X3174944Y-7824460D02*
X3165420Y-7776841D01*
X3165420Y-7776841D02*
X3165420Y-7738746D01*
X3165420Y-7738746D02*
X3174944Y-7691127D01*
X3174944Y-7691127D02*
X3184468Y-7662555D01*
X3184468Y-7662555D02*
X3193991Y-7643508D01*
X3193991Y-7643508D02*
X3213039Y-7614936D01*
X3213039Y-7614936D02*
X3222563Y-7605412D01*
X3403515Y-7833984D02*
X3289229Y-7833984D01*
X3346372Y-7833984D02*
X3346372Y-7633984D01*
X3346372Y-7633984D02*
X3327325Y-7662555D01*
X3327325Y-7662555D02*
X3308277Y-7681603D01*
X3308277Y-7681603D02*
X3289229Y-7691127D01*
X3574944Y-7700650D02*
X3574944Y-7833984D01*
X3527325Y-7624460D02*
X3479706Y-7767317D01*
X3479706Y-7767317D02*
X3603515Y-7767317D01*
X3765420Y-7633984D02*
X3727325Y-7633984D01*
X3727325Y-7633984D02*
X3708277Y-7643508D01*
X3708277Y-7643508D02*
X3698753Y-7653031D01*
X3698753Y-7653031D02*
X3679706Y-7681603D01*
X3679706Y-7681603D02*
X3670182Y-7719698D01*
X3670182Y-7719698D02*
X3670182Y-7795888D01*
X3670182Y-7795888D02*
X3679706Y-7814936D01*
X3679706Y-7814936D02*
X3689229Y-7824460D01*
X3689229Y-7824460D02*
X3708277Y-7833984D01*
X3708277Y-7833984D02*
X3746372Y-7833984D01*
X3746372Y-7833984D02*
X3765420Y-7824460D01*
X3765420Y-7824460D02*
X3774944Y-7814936D01*
X3774944Y-7814936D02*
X3784468Y-7795888D01*
X3784468Y-7795888D02*
X3784468Y-7748269D01*
X3784468Y-7748269D02*
X3774944Y-7729222D01*
X3774944Y-7729222D02*
X3765420Y-7719698D01*
X3765420Y-7719698D02*
X3746372Y-7710174D01*
X3746372Y-7710174D02*
X3708277Y-7710174D01*
X3708277Y-7710174D02*
X3689229Y-7719698D01*
X3689229Y-7719698D02*
X3679706Y-7729222D01*
X3679706Y-7729222D02*
X3670182Y-7748269D01*
X3908277Y-7633984D02*
X3927325Y-7633984D01*
X3927325Y-7633984D02*
X3946372Y-7643508D01*
X3946372Y-7643508D02*
X3955896Y-7653031D01*
X3955896Y-7653031D02*
X3965420Y-7672079D01*
X3965420Y-7672079D02*
X3974944Y-7710174D01*
X3974944Y-7710174D02*
X3974944Y-7757793D01*
X3974944Y-7757793D02*
X3965420Y-7795888D01*
X3965420Y-7795888D02*
X3955896Y-7814936D01*
X3955896Y-7814936D02*
X3946372Y-7824460D01*
X3946372Y-7824460D02*
X3927325Y-7833984D01*
X3927325Y-7833984D02*
X3908277Y-7833984D01*
X3908277Y-7833984D02*
X3889229Y-7824460D01*
X3889229Y-7824460D02*
X3879706Y-7814936D01*
X3879706Y-7814936D02*
X3870182Y-7795888D01*
X3870182Y-7795888D02*
X3860658Y-7757793D01*
X3860658Y-7757793D02*
X3860658Y-7710174D01*
X3860658Y-7710174D02*
X3870182Y-7672079D01*
X3870182Y-7672079D02*
X3879706Y-7653031D01*
X3879706Y-7653031D02*
X3889229Y-7643508D01*
X3889229Y-7643508D02*
X3908277Y-7633984D01*
X4213039Y-7833984D02*
X4213039Y-7633984D01*
X4298753Y-7833984D02*
X4298753Y-7729222D01*
X4298753Y-7729222D02*
X4289230Y-7710174D01*
X4289230Y-7710174D02*
X4270182Y-7700650D01*
X4270182Y-7700650D02*
X4241611Y-7700650D01*
X4241611Y-7700650D02*
X4222563Y-7710174D01*
X4222563Y-7710174D02*
X4213039Y-7719698D01*
X4422563Y-7833984D02*
X4403515Y-7824460D01*
X4403515Y-7824460D02*
X4393992Y-7814936D01*
X4393992Y-7814936D02*
X4384468Y-7795888D01*
X4384468Y-7795888D02*
X4384468Y-7738746D01*
X4384468Y-7738746D02*
X4393992Y-7719698D01*
X4393992Y-7719698D02*
X4403515Y-7710174D01*
X4403515Y-7710174D02*
X4422563Y-7700650D01*
X4422563Y-7700650D02*
X4451134Y-7700650D01*
X4451134Y-7700650D02*
X4470182Y-7710174D01*
X4470182Y-7710174D02*
X4479706Y-7719698D01*
X4479706Y-7719698D02*
X4489230Y-7738746D01*
X4489230Y-7738746D02*
X4489230Y-7795888D01*
X4489230Y-7795888D02*
X4479706Y-7814936D01*
X4479706Y-7814936D02*
X4470182Y-7824460D01*
X4470182Y-7824460D02*
X4451134Y-7833984D01*
X4451134Y-7833984D02*
X4422563Y-7833984D01*
X4603515Y-7833984D02*
X4584468Y-7824460D01*
X4584468Y-7824460D02*
X4574944Y-7805412D01*
X4574944Y-7805412D02*
X4574944Y-7633984D01*
X4755896Y-7824460D02*
X4736849Y-7833984D01*
X4736849Y-7833984D02*
X4698753Y-7833984D01*
X4698753Y-7833984D02*
X4679706Y-7824460D01*
X4679706Y-7824460D02*
X4670182Y-7805412D01*
X4670182Y-7805412D02*
X4670182Y-7729222D01*
X4670182Y-7729222D02*
X4679706Y-7710174D01*
X4679706Y-7710174D02*
X4698753Y-7700650D01*
X4698753Y-7700650D02*
X4736849Y-7700650D01*
X4736849Y-7700650D02*
X4755896Y-7710174D01*
X4755896Y-7710174D02*
X4765420Y-7729222D01*
X4765420Y-7729222D02*
X4765420Y-7748269D01*
X4765420Y-7748269D02*
X4670182Y-7767317D01*
X4841611Y-7824460D02*
X4860658Y-7833984D01*
X4860658Y-7833984D02*
X4898753Y-7833984D01*
X4898753Y-7833984D02*
X4917801Y-7824460D01*
X4917801Y-7824460D02*
X4927325Y-7805412D01*
X4927325Y-7805412D02*
X4927325Y-7795888D01*
X4927325Y-7795888D02*
X4917801Y-7776841D01*
X4917801Y-7776841D02*
X4898753Y-7767317D01*
X4898753Y-7767317D02*
X4870182Y-7767317D01*
X4870182Y-7767317D02*
X4851134Y-7757793D01*
X4851134Y-7757793D02*
X4841611Y-7738746D01*
X4841611Y-7738746D02*
X4841611Y-7729222D01*
X4841611Y-7729222D02*
X4851134Y-7710174D01*
X4851134Y-7710174D02*
X4870182Y-7700650D01*
X4870182Y-7700650D02*
X4898753Y-7700650D01*
X4898753Y-7700650D02*
X4917801Y-7710174D01*
X4993992Y-7910174D02*
X5003515Y-7900650D01*
X5003515Y-7900650D02*
X5022563Y-7872079D01*
X5022563Y-7872079D02*
X5032087Y-7853031D01*
X5032087Y-7853031D02*
X5041611Y-7824460D01*
X5041611Y-7824460D02*
X5051134Y-7776841D01*
X5051134Y-7776841D02*
X5051134Y-7738746D01*
X5051134Y-7738746D02*
X5041611Y-7691127D01*
X5041611Y-7691127D02*
X5032087Y-7662555D01*
X5032087Y-7662555D02*
X5022563Y-7643508D01*
X5022563Y-7643508D02*
X5003515Y-7614936D01*
X5003515Y-7614936D02*
X4993992Y-7605412D01*
D12*
X-352500Y-8006500D02*
G75*
G02*
X-382500Y-8006500I-15000J0D01*
G01*
X-382500Y-8006500D02*
G75*
G02*
X-352500Y-8006500I15000J0D01*
G01*
D11*
X-53628Y-7897984D02*
X-34580Y-7897984D01*
X-34580Y-7897984D02*
X-15533Y-7907508D01*
X-15533Y-7907508D02*
X-6009Y-7917031D01*
X-6009Y-7917031D02*
X3515Y-7936079D01*
X3515Y-7936079D02*
X13039Y-7974174D01*
X13039Y-7974174D02*
X13039Y-8021793D01*
X13039Y-8021793D02*
X3515Y-8059888D01*
X3515Y-8059888D02*
X-6009Y-8078936D01*
X-6009Y-8078936D02*
X-15533Y-8088460D01*
X-15533Y-8088460D02*
X-34580Y-8097984D01*
X-34580Y-8097984D02*
X-53628Y-8097984D01*
X-53628Y-8097984D02*
X-72676Y-8088460D01*
X-72676Y-8088460D02*
X-82199Y-8078936D01*
X-82199Y-8078936D02*
X-91723Y-8059888D01*
X-91723Y-8059888D02*
X-101247Y-8021793D01*
X-101247Y-8021793D02*
X-101247Y-7974174D01*
X-101247Y-7974174D02*
X-91723Y-7936079D01*
X-91723Y-7936079D02*
X-82199Y-7917031D01*
X-82199Y-7917031D02*
X-72676Y-7907508D01*
X-72676Y-7907508D02*
X-53628Y-7897984D01*
X98753Y-8078936D02*
X108277Y-8088460D01*
X108277Y-8088460D02*
X98753Y-8097984D01*
X98753Y-8097984D02*
X89229Y-8088460D01*
X89229Y-8088460D02*
X98753Y-8078936D01*
X98753Y-8078936D02*
X98753Y-8097984D01*
X174943Y-7897984D02*
X298753Y-7897984D01*
X298753Y-7897984D02*
X232086Y-7974174D01*
X232086Y-7974174D02*
X260658Y-7974174D01*
X260658Y-7974174D02*
X279705Y-7983698D01*
X279705Y-7983698D02*
X289229Y-7993222D01*
X289229Y-7993222D02*
X298753Y-8012269D01*
X298753Y-8012269D02*
X298753Y-8059888D01*
X298753Y-8059888D02*
X289229Y-8078936D01*
X289229Y-8078936D02*
X279705Y-8088460D01*
X279705Y-8088460D02*
X260658Y-8097984D01*
X260658Y-8097984D02*
X203515Y-8097984D01*
X203515Y-8097984D02*
X184467Y-8088460D01*
X184467Y-8088460D02*
X174943Y-8078936D01*
X422562Y-7897984D02*
X441610Y-7897984D01*
X441610Y-7897984D02*
X460658Y-7907508D01*
X460658Y-7907508D02*
X470182Y-7917031D01*
X470182Y-7917031D02*
X479705Y-7936079D01*
X479705Y-7936079D02*
X489229Y-7974174D01*
X489229Y-7974174D02*
X489229Y-8021793D01*
X489229Y-8021793D02*
X479705Y-8059888D01*
X479705Y-8059888D02*
X470182Y-8078936D01*
X470182Y-8078936D02*
X460658Y-8088460D01*
X460658Y-8088460D02*
X441610Y-8097984D01*
X441610Y-8097984D02*
X422562Y-8097984D01*
X422562Y-8097984D02*
X403515Y-8088460D01*
X403515Y-8088460D02*
X393991Y-8078936D01*
X393991Y-8078936D02*
X384467Y-8059888D01*
X384467Y-8059888D02*
X374943Y-8021793D01*
X374943Y-8021793D02*
X374943Y-7974174D01*
X374943Y-7974174D02*
X384467Y-7936079D01*
X384467Y-7936079D02*
X393991Y-7917031D01*
X393991Y-7917031D02*
X403515Y-7907508D01*
X403515Y-7907508D02*
X422562Y-7897984D01*
X613039Y-7897984D02*
X632086Y-7897984D01*
X632086Y-7897984D02*
X651134Y-7907508D01*
X651134Y-7907508D02*
X660658Y-7917031D01*
X660658Y-7917031D02*
X670182Y-7936079D01*
X670182Y-7936079D02*
X679705Y-7974174D01*
X679705Y-7974174D02*
X679705Y-8021793D01*
X679705Y-8021793D02*
X670182Y-8059888D01*
X670182Y-8059888D02*
X660658Y-8078936D01*
X660658Y-8078936D02*
X651134Y-8088460D01*
X651134Y-8088460D02*
X632086Y-8097984D01*
X632086Y-8097984D02*
X613039Y-8097984D01*
X613039Y-8097984D02*
X593991Y-8088460D01*
X593991Y-8088460D02*
X584467Y-8078936D01*
X584467Y-8078936D02*
X574944Y-8059888D01*
X574944Y-8059888D02*
X565420Y-8021793D01*
X565420Y-8021793D02*
X565420Y-7974174D01*
X565420Y-7974174D02*
X574944Y-7936079D01*
X574944Y-7936079D02*
X584467Y-7917031D01*
X584467Y-7917031D02*
X593991Y-7907508D01*
X593991Y-7907508D02*
X613039Y-7897984D01*
X765420Y-8097984D02*
X765420Y-7964650D01*
X765420Y-7983698D02*
X774943Y-7974174D01*
X774943Y-7974174D02*
X793991Y-7964650D01*
X793991Y-7964650D02*
X822563Y-7964650D01*
X822563Y-7964650D02*
X841610Y-7974174D01*
X841610Y-7974174D02*
X851134Y-7993222D01*
X851134Y-7993222D02*
X851134Y-8097984D01*
X851134Y-7993222D02*
X860658Y-7974174D01*
X860658Y-7974174D02*
X879705Y-7964650D01*
X879705Y-7964650D02*
X908277Y-7964650D01*
X908277Y-7964650D02*
X927324Y-7974174D01*
X927324Y-7974174D02*
X936848Y-7993222D01*
X936848Y-7993222D02*
X936848Y-8097984D01*
X1032086Y-8097984D02*
X1032086Y-7964650D01*
X1032086Y-7983698D02*
X1041610Y-7974174D01*
X1041610Y-7974174D02*
X1060658Y-7964650D01*
X1060658Y-7964650D02*
X1089229Y-7964650D01*
X1089229Y-7964650D02*
X1108277Y-7974174D01*
X1108277Y-7974174D02*
X1117801Y-7993222D01*
X1117801Y-7993222D02*
X1117801Y-8097984D01*
X1117801Y-7993222D02*
X1127325Y-7974174D01*
X1127325Y-7974174D02*
X1146372Y-7964650D01*
X1146372Y-7964650D02*
X1174944Y-7964650D01*
X1174944Y-7964650D02*
X1193991Y-7974174D01*
X1193991Y-7974174D02*
X1203515Y-7993222D01*
X1203515Y-7993222D02*
X1203515Y-8097984D01*
X1593991Y-7888460D02*
X1422563Y-8145603D01*
X1851134Y-7897984D02*
X1870182Y-7897984D01*
X1870182Y-7897984D02*
X1889229Y-7907508D01*
X1889229Y-7907508D02*
X1898753Y-7917031D01*
X1898753Y-7917031D02*
X1908277Y-7936079D01*
X1908277Y-7936079D02*
X1917801Y-7974174D01*
X1917801Y-7974174D02*
X1917801Y-8021793D01*
X1917801Y-8021793D02*
X1908277Y-8059888D01*
X1908277Y-8059888D02*
X1898753Y-8078936D01*
X1898753Y-8078936D02*
X1889229Y-8088460D01*
X1889229Y-8088460D02*
X1870182Y-8097984D01*
X1870182Y-8097984D02*
X1851134Y-8097984D01*
X1851134Y-8097984D02*
X1832086Y-8088460D01*
X1832086Y-8088460D02*
X1822563Y-8078936D01*
X1822563Y-8078936D02*
X1813039Y-8059888D01*
X1813039Y-8059888D02*
X1803515Y-8021793D01*
X1803515Y-8021793D02*
X1803515Y-7974174D01*
X1803515Y-7974174D02*
X1813039Y-7936079D01*
X1813039Y-7936079D02*
X1822563Y-7917031D01*
X1822563Y-7917031D02*
X1832086Y-7907508D01*
X1832086Y-7907508D02*
X1851134Y-7897984D01*
X2003515Y-8078936D02*
X2013039Y-8088460D01*
X2013039Y-8088460D02*
X2003515Y-8097984D01*
X2003515Y-8097984D02*
X1993991Y-8088460D01*
X1993991Y-8088460D02*
X2003515Y-8078936D01*
X2003515Y-8078936D02*
X2003515Y-8097984D01*
X2136848Y-7897984D02*
X2155896Y-7897984D01*
X2155896Y-7897984D02*
X2174944Y-7907508D01*
X2174944Y-7907508D02*
X2184468Y-7917031D01*
X2184468Y-7917031D02*
X2193991Y-7936079D01*
X2193991Y-7936079D02*
X2203515Y-7974174D01*
X2203515Y-7974174D02*
X2203515Y-8021793D01*
X2203515Y-8021793D02*
X2193991Y-8059888D01*
X2193991Y-8059888D02*
X2184468Y-8078936D01*
X2184468Y-8078936D02*
X2174944Y-8088460D01*
X2174944Y-8088460D02*
X2155896Y-8097984D01*
X2155896Y-8097984D02*
X2136848Y-8097984D01*
X2136848Y-8097984D02*
X2117801Y-8088460D01*
X2117801Y-8088460D02*
X2108277Y-8078936D01*
X2108277Y-8078936D02*
X2098753Y-8059888D01*
X2098753Y-8059888D02*
X2089229Y-8021793D01*
X2089229Y-8021793D02*
X2089229Y-7974174D01*
X2089229Y-7974174D02*
X2098753Y-7936079D01*
X2098753Y-7936079D02*
X2108277Y-7917031D01*
X2108277Y-7917031D02*
X2117801Y-7907508D01*
X2117801Y-7907508D02*
X2136848Y-7897984D01*
X2393991Y-8097984D02*
X2279706Y-8097984D01*
X2336848Y-8097984D02*
X2336848Y-7897984D01*
X2336848Y-7897984D02*
X2317801Y-7926555D01*
X2317801Y-7926555D02*
X2298753Y-7945603D01*
X2298753Y-7945603D02*
X2279706Y-7955127D01*
X2584468Y-8097984D02*
X2470182Y-8097984D01*
X2527325Y-8097984D02*
X2527325Y-7897984D01*
X2527325Y-7897984D02*
X2508277Y-7926555D01*
X2508277Y-7926555D02*
X2489229Y-7945603D01*
X2489229Y-7945603D02*
X2470182Y-7955127D01*
X2698753Y-7983698D02*
X2679706Y-7974174D01*
X2679706Y-7974174D02*
X2670182Y-7964650D01*
X2670182Y-7964650D02*
X2660658Y-7945603D01*
X2660658Y-7945603D02*
X2660658Y-7936079D01*
X2660658Y-7936079D02*
X2670182Y-7917031D01*
X2670182Y-7917031D02*
X2679706Y-7907508D01*
X2679706Y-7907508D02*
X2698753Y-7897984D01*
X2698753Y-7897984D02*
X2736849Y-7897984D01*
X2736849Y-7897984D02*
X2755896Y-7907508D01*
X2755896Y-7907508D02*
X2765420Y-7917031D01*
X2765420Y-7917031D02*
X2774944Y-7936079D01*
X2774944Y-7936079D02*
X2774944Y-7945603D01*
X2774944Y-7945603D02*
X2765420Y-7964650D01*
X2765420Y-7964650D02*
X2755896Y-7974174D01*
X2755896Y-7974174D02*
X2736849Y-7983698D01*
X2736849Y-7983698D02*
X2698753Y-7983698D01*
X2698753Y-7983698D02*
X2679706Y-7993222D01*
X2679706Y-7993222D02*
X2670182Y-8002746D01*
X2670182Y-8002746D02*
X2660658Y-8021793D01*
X2660658Y-8021793D02*
X2660658Y-8059888D01*
X2660658Y-8059888D02*
X2670182Y-8078936D01*
X2670182Y-8078936D02*
X2679706Y-8088460D01*
X2679706Y-8088460D02*
X2698753Y-8097984D01*
X2698753Y-8097984D02*
X2736849Y-8097984D01*
X2736849Y-8097984D02*
X2755896Y-8088460D01*
X2755896Y-8088460D02*
X2765420Y-8078936D01*
X2765420Y-8078936D02*
X2774944Y-8059888D01*
X2774944Y-8059888D02*
X2774944Y-8021793D01*
X2774944Y-8021793D02*
X2765420Y-8002746D01*
X2765420Y-8002746D02*
X2755896Y-7993222D01*
X2755896Y-7993222D02*
X2736849Y-7983698D01*
X2851134Y-7897984D02*
X2851134Y-7936079D01*
X2927325Y-7897984D02*
X2927325Y-7936079D01*
X3222563Y-8174174D02*
X3213039Y-8164650D01*
X3213039Y-8164650D02*
X3193991Y-8136079D01*
X3193991Y-8136079D02*
X3184468Y-8117031D01*
X3184468Y-8117031D02*
X3174944Y-8088460D01*
X3174944Y-8088460D02*
X3165420Y-8040841D01*
X3165420Y-8040841D02*
X3165420Y-8002746D01*
X3165420Y-8002746D02*
X3174944Y-7955127D01*
X3174944Y-7955127D02*
X3184468Y-7926555D01*
X3184468Y-7926555D02*
X3193991Y-7907508D01*
X3193991Y-7907508D02*
X3213039Y-7878936D01*
X3213039Y-7878936D02*
X3222563Y-7869412D01*
X3403515Y-8097984D02*
X3289229Y-8097984D01*
X3346372Y-8097984D02*
X3346372Y-7897984D01*
X3346372Y-7897984D02*
X3327325Y-7926555D01*
X3327325Y-7926555D02*
X3308277Y-7945603D01*
X3308277Y-7945603D02*
X3289229Y-7955127D01*
X3479706Y-7917031D02*
X3489229Y-7907508D01*
X3489229Y-7907508D02*
X3508277Y-7897984D01*
X3508277Y-7897984D02*
X3555896Y-7897984D01*
X3555896Y-7897984D02*
X3574944Y-7907508D01*
X3574944Y-7907508D02*
X3584468Y-7917031D01*
X3584468Y-7917031D02*
X3593991Y-7936079D01*
X3593991Y-7936079D02*
X3593991Y-7955127D01*
X3593991Y-7955127D02*
X3584468Y-7983698D01*
X3584468Y-7983698D02*
X3470182Y-8097984D01*
X3470182Y-8097984D02*
X3593991Y-8097984D01*
X3717801Y-7897984D02*
X3736849Y-7897984D01*
X3736849Y-7897984D02*
X3755896Y-7907508D01*
X3755896Y-7907508D02*
X3765420Y-7917031D01*
X3765420Y-7917031D02*
X3774944Y-7936079D01*
X3774944Y-7936079D02*
X3784468Y-7974174D01*
X3784468Y-7974174D02*
X3784468Y-8021793D01*
X3784468Y-8021793D02*
X3774944Y-8059888D01*
X3774944Y-8059888D02*
X3765420Y-8078936D01*
X3765420Y-8078936D02*
X3755896Y-8088460D01*
X3755896Y-8088460D02*
X3736849Y-8097984D01*
X3736849Y-8097984D02*
X3717801Y-8097984D01*
X3717801Y-8097984D02*
X3698753Y-8088460D01*
X3698753Y-8088460D02*
X3689229Y-8078936D01*
X3689229Y-8078936D02*
X3679706Y-8059888D01*
X3679706Y-8059888D02*
X3670182Y-8021793D01*
X3670182Y-8021793D02*
X3670182Y-7974174D01*
X3670182Y-7974174D02*
X3679706Y-7936079D01*
X3679706Y-7936079D02*
X3689229Y-7917031D01*
X3689229Y-7917031D02*
X3698753Y-7907508D01*
X3698753Y-7907508D02*
X3717801Y-7897984D01*
X4022563Y-8097984D02*
X4022563Y-7897984D01*
X4108277Y-8097984D02*
X4108277Y-7993222D01*
X4108277Y-7993222D02*
X4098753Y-7974174D01*
X4098753Y-7974174D02*
X4079706Y-7964650D01*
X4079706Y-7964650D02*
X4051134Y-7964650D01*
X4051134Y-7964650D02*
X4032087Y-7974174D01*
X4032087Y-7974174D02*
X4022563Y-7983698D01*
X4232087Y-8097984D02*
X4213039Y-8088460D01*
X4213039Y-8088460D02*
X4203515Y-8078936D01*
X4203515Y-8078936D02*
X4193991Y-8059888D01*
X4193991Y-8059888D02*
X4193991Y-8002746D01*
X4193991Y-8002746D02*
X4203515Y-7983698D01*
X4203515Y-7983698D02*
X4213039Y-7974174D01*
X4213039Y-7974174D02*
X4232087Y-7964650D01*
X4232087Y-7964650D02*
X4260658Y-7964650D01*
X4260658Y-7964650D02*
X4279706Y-7974174D01*
X4279706Y-7974174D02*
X4289230Y-7983698D01*
X4289230Y-7983698D02*
X4298753Y-8002746D01*
X4298753Y-8002746D02*
X4298753Y-8059888D01*
X4298753Y-8059888D02*
X4289230Y-8078936D01*
X4289230Y-8078936D02*
X4279706Y-8088460D01*
X4279706Y-8088460D02*
X4260658Y-8097984D01*
X4260658Y-8097984D02*
X4232087Y-8097984D01*
X4413039Y-8097984D02*
X4393992Y-8088460D01*
X4393992Y-8088460D02*
X4384468Y-8069412D01*
X4384468Y-8069412D02*
X4384468Y-7897984D01*
X4565420Y-8088460D02*
X4546373Y-8097984D01*
X4546373Y-8097984D02*
X4508277Y-8097984D01*
X4508277Y-8097984D02*
X4489230Y-8088460D01*
X4489230Y-8088460D02*
X4479706Y-8069412D01*
X4479706Y-8069412D02*
X4479706Y-7993222D01*
X4479706Y-7993222D02*
X4489230Y-7974174D01*
X4489230Y-7974174D02*
X4508277Y-7964650D01*
X4508277Y-7964650D02*
X4546373Y-7964650D01*
X4546373Y-7964650D02*
X4565420Y-7974174D01*
X4565420Y-7974174D02*
X4574944Y-7993222D01*
X4574944Y-7993222D02*
X4574944Y-8012269D01*
X4574944Y-8012269D02*
X4479706Y-8031317D01*
X4651134Y-8088460D02*
X4670182Y-8097984D01*
X4670182Y-8097984D02*
X4708277Y-8097984D01*
X4708277Y-8097984D02*
X4727325Y-8088460D01*
X4727325Y-8088460D02*
X4736849Y-8069412D01*
X4736849Y-8069412D02*
X4736849Y-8059888D01*
X4736849Y-8059888D02*
X4727325Y-8040841D01*
X4727325Y-8040841D02*
X4708277Y-8031317D01*
X4708277Y-8031317D02*
X4679706Y-8031317D01*
X4679706Y-8031317D02*
X4660658Y-8021793D01*
X4660658Y-8021793D02*
X4651134Y-8002746D01*
X4651134Y-8002746D02*
X4651134Y-7993222D01*
X4651134Y-7993222D02*
X4660658Y-7974174D01*
X4660658Y-7974174D02*
X4679706Y-7964650D01*
X4679706Y-7964650D02*
X4708277Y-7964650D01*
X4708277Y-7964650D02*
X4727325Y-7974174D01*
X4803515Y-8174174D02*
X4813039Y-8164650D01*
X4813039Y-8164650D02*
X4832087Y-8136079D01*
X4832087Y-8136079D02*
X4841611Y-8117031D01*
X4841611Y-8117031D02*
X4851134Y-8088460D01*
X4851134Y-8088460D02*
X4860658Y-8040841D01*
X4860658Y-8040841D02*
X4860658Y-8002746D01*
X4860658Y-8002746D02*
X4851134Y-7955127D01*
X4851134Y-7955127D02*
X4841611Y-7926555D01*
X4841611Y-7926555D02*
X4832087Y-7907508D01*
X4832087Y-7907508D02*
X4813039Y-7878936D01*
X4813039Y-7878936D02*
X4803515Y-7869412D01*
M02*
