G04 #@! TF.GenerationSoftware,KiCad,Pcbnew,10.0.0*
G04 #@! TF.CreationDate,2026-04-19T17:34:53+08:00*
G04 #@! TF.ProjectId,panel-74pad-70pin-mezzanine,70616e65-6c2d-4373-9470-61642d373070,rev?*
G04 #@! TF.SameCoordinates,Original*
G04 #@! TF.FileFunction,Legend,Top*
G04 #@! TF.FilePolarity,Positive*
%FSLAX46Y46*%
G04 Gerber Fmt 4.6, Leading zero omitted, Abs format (unit mm)*
G04 Created by KiCad (PCBNEW 10.0.0) date 2026-04-19 17:34:53*
%MOMM*%
%LPD*%
G01*
G04 APERTURE LIST*
G04 Aperture macros list*
%AMRoundRect*
0 Rectangle with rounded corners*
0 $1 Rounding radius*
0 $2 $3 $4 $5 $6 $7 $8 $9 X,Y pos of 4 corners*
0 Add a 4 corners polygon primitive as box body*
4,1,4,$2,$3,$4,$5,$6,$7,$8,$9,$2,$3,0*
0 Add four circle primitives for the rounded corners*
1,1,$1+$1,$2,$3*
1,1,$1+$1,$4,$5*
1,1,$1+$1,$6,$7*
1,1,$1+$1,$8,$9*
0 Add four rect primitives between the rounded corners*
20,1,$1+$1,$2,$3,$4,$5,0*
20,1,$1+$1,$4,$5,$6,$7,0*
20,1,$1+$1,$6,$7,$8,$9,0*
20,1,$1+$1,$8,$9,$2,$3,0*%
G04 Aperture macros list end*
%ADD10C,0.400000*%
%ADD11C,0.100000*%
%ADD12C,0.200000*%
%ADD13RoundRect,0.040000X1.960000X2.560000X-1.960000X2.560000X-1.960000X-2.560000X1.960000X-2.560000X0*%
%ADD14C,0.500000*%
G04 APERTURE END LIST*
D10*
X7739347Y2541039D02*
X8929823Y2541039D01*
X7501252Y1826753D02*
X8334585Y4326753D01*
X8334585Y4326753D02*
X9167918Y1826753D01*
X9882204Y1945800D02*
X10239347Y1826753D01*
X10239347Y1826753D02*
X10834585Y1826753D01*
X10834585Y1826753D02*
X11072680Y1945800D01*
X11072680Y1945800D02*
X11191728Y2064848D01*
X11191728Y2064848D02*
X11310775Y2302943D01*
X11310775Y2302943D02*
X11310775Y2541039D01*
X11310775Y2541039D02*
X11191728Y2779134D01*
X11191728Y2779134D02*
X11072680Y2898181D01*
X11072680Y2898181D02*
X10834585Y3017229D01*
X10834585Y3017229D02*
X10358394Y3136277D01*
X10358394Y3136277D02*
X10120299Y3255324D01*
X10120299Y3255324D02*
X10001252Y3374372D01*
X10001252Y3374372D02*
X9882204Y3612467D01*
X9882204Y3612467D02*
X9882204Y3850562D01*
X9882204Y3850562D02*
X10001252Y4088658D01*
X10001252Y4088658D02*
X10120299Y4207705D01*
X10120299Y4207705D02*
X10358394Y4326753D01*
X10358394Y4326753D02*
X10953633Y4326753D01*
X10953633Y4326753D02*
X11310775Y4207705D01*
X12858394Y4326753D02*
X13096489Y4326753D01*
X13096489Y4326753D02*
X13334585Y4207705D01*
X13334585Y4207705D02*
X13453632Y4088658D01*
X13453632Y4088658D02*
X13572680Y3850562D01*
X13572680Y3850562D02*
X13691727Y3374372D01*
X13691727Y3374372D02*
X13691727Y2779134D01*
X13691727Y2779134D02*
X13572680Y2302943D01*
X13572680Y2302943D02*
X13453632Y2064848D01*
X13453632Y2064848D02*
X13334585Y1945800D01*
X13334585Y1945800D02*
X13096489Y1826753D01*
X13096489Y1826753D02*
X12858394Y1826753D01*
X12858394Y1826753D02*
X12620299Y1945800D01*
X12620299Y1945800D02*
X12501251Y2064848D01*
X12501251Y2064848D02*
X12382204Y2302943D01*
X12382204Y2302943D02*
X12263156Y2779134D01*
X12263156Y2779134D02*
X12263156Y3374372D01*
X12263156Y3374372D02*
X12382204Y3850562D01*
X12382204Y3850562D02*
X12501251Y4088658D01*
X12501251Y4088658D02*
X12620299Y4207705D01*
X12620299Y4207705D02*
X12858394Y4326753D01*
X14525060Y4326753D02*
X16072679Y4326753D01*
X16072679Y4326753D02*
X15239346Y3374372D01*
X15239346Y3374372D02*
X15596489Y3374372D01*
X15596489Y3374372D02*
X15834584Y3255324D01*
X15834584Y3255324D02*
X15953632Y3136277D01*
X15953632Y3136277D02*
X16072679Y2898181D01*
X16072679Y2898181D02*
X16072679Y2302943D01*
X16072679Y2302943D02*
X15953632Y2064848D01*
X15953632Y2064848D02*
X15834584Y1945800D01*
X15834584Y1945800D02*
X15596489Y1826753D01*
X15596489Y1826753D02*
X14882203Y1826753D01*
X14882203Y1826753D02*
X14644108Y1945800D01*
X14644108Y1945800D02*
X14525060Y2064848D01*
D11*
X42208646Y3794248D02*
X42446741Y3127581D01*
X42446741Y3127581D02*
X42684836Y3794248D01*
X43446741Y3175200D02*
X43351503Y3127581D01*
X43351503Y3127581D02*
X43161027Y3127581D01*
X43161027Y3127581D02*
X43065789Y3175200D01*
X43065789Y3175200D02*
X43018170Y3270439D01*
X43018170Y3270439D02*
X43018170Y3651391D01*
X43018170Y3651391D02*
X43065789Y3746629D01*
X43065789Y3746629D02*
X43161027Y3794248D01*
X43161027Y3794248D02*
X43351503Y3794248D01*
X43351503Y3794248D02*
X43446741Y3746629D01*
X43446741Y3746629D02*
X43494360Y3651391D01*
X43494360Y3651391D02*
X43494360Y3556153D01*
X43494360Y3556153D02*
X43018170Y3460915D01*
X43922932Y3127581D02*
X43922932Y3794248D01*
X43922932Y3603772D02*
X43970551Y3699010D01*
X43970551Y3699010D02*
X44018170Y3746629D01*
X44018170Y3746629D02*
X44113408Y3794248D01*
X44113408Y3794248D02*
X44208646Y3794248D01*
X44494361Y3175200D02*
X44589599Y3127581D01*
X44589599Y3127581D02*
X44780075Y3127581D01*
X44780075Y3127581D02*
X44875313Y3175200D01*
X44875313Y3175200D02*
X44922932Y3270439D01*
X44922932Y3270439D02*
X44922932Y3318058D01*
X44922932Y3318058D02*
X44875313Y3413296D01*
X44875313Y3413296D02*
X44780075Y3460915D01*
X44780075Y3460915D02*
X44637218Y3460915D01*
X44637218Y3460915D02*
X44541980Y3508534D01*
X44541980Y3508534D02*
X44494361Y3603772D01*
X44494361Y3603772D02*
X44494361Y3651391D01*
X44494361Y3651391D02*
X44541980Y3746629D01*
X44541980Y3746629D02*
X44637218Y3794248D01*
X44637218Y3794248D02*
X44780075Y3794248D01*
X44780075Y3794248D02*
X44875313Y3746629D01*
X45351504Y3127581D02*
X45351504Y3794248D01*
X45351504Y4127581D02*
X45303885Y4079962D01*
X45303885Y4079962D02*
X45351504Y4032343D01*
X45351504Y4032343D02*
X45399123Y4079962D01*
X45399123Y4079962D02*
X45351504Y4127581D01*
X45351504Y4127581D02*
X45351504Y4032343D01*
X45970551Y3127581D02*
X45875313Y3175200D01*
X45875313Y3175200D02*
X45827694Y3222820D01*
X45827694Y3222820D02*
X45780075Y3318058D01*
X45780075Y3318058D02*
X45780075Y3603772D01*
X45780075Y3603772D02*
X45827694Y3699010D01*
X45827694Y3699010D02*
X45875313Y3746629D01*
X45875313Y3746629D02*
X45970551Y3794248D01*
X45970551Y3794248D02*
X46113408Y3794248D01*
X46113408Y3794248D02*
X46208646Y3746629D01*
X46208646Y3746629D02*
X46256265Y3699010D01*
X46256265Y3699010D02*
X46303884Y3603772D01*
X46303884Y3603772D02*
X46303884Y3318058D01*
X46303884Y3318058D02*
X46256265Y3222820D01*
X46256265Y3222820D02*
X46208646Y3175200D01*
X46208646Y3175200D02*
X46113408Y3127581D01*
X46113408Y3127581D02*
X45970551Y3127581D01*
X46732456Y3794248D02*
X46732456Y3127581D01*
X46732456Y3699010D02*
X46780075Y3746629D01*
X46780075Y3746629D02*
X46875313Y3794248D01*
X46875313Y3794248D02*
X47018170Y3794248D01*
X47018170Y3794248D02*
X47113408Y3746629D01*
X47113408Y3746629D02*
X47161027Y3651391D01*
X47161027Y3651391D02*
X47161027Y3127581D01*
X47637218Y3222820D02*
X47684837Y3175200D01*
X47684837Y3175200D02*
X47637218Y3127581D01*
X47637218Y3127581D02*
X47589599Y3175200D01*
X47589599Y3175200D02*
X47637218Y3222820D01*
X47637218Y3222820D02*
X47637218Y3127581D01*
X47637218Y3746629D02*
X47684837Y3699010D01*
X47684837Y3699010D02*
X47637218Y3651391D01*
X47637218Y3651391D02*
X47589599Y3699010D01*
X47589599Y3699010D02*
X47637218Y3746629D01*
X47637218Y3746629D02*
X47637218Y3651391D01*
X48732456Y4127581D02*
X49303884Y4127581D01*
X49018170Y3127581D02*
X49018170Y4127581D01*
X49637218Y3127581D02*
X49637218Y4127581D01*
X50065789Y3127581D02*
X50065789Y3651391D01*
X50065789Y3651391D02*
X50018170Y3746629D01*
X50018170Y3746629D02*
X49922932Y3794248D01*
X49922932Y3794248D02*
X49780075Y3794248D01*
X49780075Y3794248D02*
X49684837Y3746629D01*
X49684837Y3746629D02*
X49637218Y3699010D01*
X50684837Y3127581D02*
X50589599Y3175200D01*
X50589599Y3175200D02*
X50541980Y3222820D01*
X50541980Y3222820D02*
X50494361Y3318058D01*
X50494361Y3318058D02*
X50494361Y3603772D01*
X50494361Y3603772D02*
X50541980Y3699010D01*
X50541980Y3699010D02*
X50589599Y3746629D01*
X50589599Y3746629D02*
X50684837Y3794248D01*
X50684837Y3794248D02*
X50827694Y3794248D01*
X50827694Y3794248D02*
X50922932Y3746629D01*
X50922932Y3746629D02*
X50970551Y3699010D01*
X50970551Y3699010D02*
X51018170Y3603772D01*
X51018170Y3603772D02*
X51018170Y3318058D01*
X51018170Y3318058D02*
X50970551Y3222820D01*
X50970551Y3222820D02*
X50922932Y3175200D01*
X50922932Y3175200D02*
X50827694Y3127581D01*
X50827694Y3127581D02*
X50684837Y3127581D01*
X51589599Y3127581D02*
X51494361Y3175200D01*
X51494361Y3175200D02*
X51446742Y3270439D01*
X51446742Y3270439D02*
X51446742Y4127581D01*
X51970552Y3127581D02*
X51970552Y3794248D01*
X51970552Y4127581D02*
X51922933Y4079962D01*
X51922933Y4079962D02*
X51970552Y4032343D01*
X51970552Y4032343D02*
X52018171Y4079962D01*
X52018171Y4079962D02*
X51970552Y4127581D01*
X51970552Y4127581D02*
X51970552Y4032343D01*
X52446742Y3794248D02*
X52446742Y3127581D01*
X52446742Y3699010D02*
X52494361Y3746629D01*
X52494361Y3746629D02*
X52589599Y3794248D01*
X52589599Y3794248D02*
X52732456Y3794248D01*
X52732456Y3794248D02*
X52827694Y3746629D01*
X52827694Y3746629D02*
X52875313Y3651391D01*
X52875313Y3651391D02*
X52875313Y3127581D01*
X24218646Y5044136D02*
X24409122Y4377469D01*
X24409122Y4377469D02*
X24599598Y4853660D01*
X24599598Y4853660D02*
X24790074Y4377469D01*
X24790074Y4377469D02*
X24980550Y5044136D01*
X25790074Y4377469D02*
X25790074Y4901279D01*
X25790074Y4901279D02*
X25742455Y4996517D01*
X25742455Y4996517D02*
X25647217Y5044136D01*
X25647217Y5044136D02*
X25456741Y5044136D01*
X25456741Y5044136D02*
X25361503Y4996517D01*
X25790074Y4425088D02*
X25694836Y4377469D01*
X25694836Y4377469D02*
X25456741Y4377469D01*
X25456741Y4377469D02*
X25361503Y4425088D01*
X25361503Y4425088D02*
X25313884Y4520327D01*
X25313884Y4520327D02*
X25313884Y4615565D01*
X25313884Y4615565D02*
X25361503Y4710803D01*
X25361503Y4710803D02*
X25456741Y4758422D01*
X25456741Y4758422D02*
X25694836Y4758422D01*
X25694836Y4758422D02*
X25790074Y4806041D01*
X26123408Y5044136D02*
X26504360Y5044136D01*
X26266265Y4377469D02*
X26266265Y5234612D01*
X26266265Y5234612D02*
X26313884Y5329850D01*
X26313884Y5329850D02*
X26409122Y5377469D01*
X26409122Y5377469D02*
X26504360Y5377469D01*
X27218646Y4425088D02*
X27123408Y4377469D01*
X27123408Y4377469D02*
X26932932Y4377469D01*
X26932932Y4377469D02*
X26837694Y4425088D01*
X26837694Y4425088D02*
X26790075Y4520327D01*
X26790075Y4520327D02*
X26790075Y4901279D01*
X26790075Y4901279D02*
X26837694Y4996517D01*
X26837694Y4996517D02*
X26932932Y5044136D01*
X26932932Y5044136D02*
X27123408Y5044136D01*
X27123408Y5044136D02*
X27218646Y4996517D01*
X27218646Y4996517D02*
X27266265Y4901279D01*
X27266265Y4901279D02*
X27266265Y4806041D01*
X27266265Y4806041D02*
X26790075Y4710803D01*
X27694837Y4377469D02*
X27694837Y5044136D01*
X27694837Y4853660D02*
X27742456Y4948898D01*
X27742456Y4948898D02*
X27790075Y4996517D01*
X27790075Y4996517D02*
X27885313Y5044136D01*
X27885313Y5044136D02*
X27980551Y5044136D01*
X28313885Y4472708D02*
X28361504Y4425088D01*
X28361504Y4425088D02*
X28313885Y4377469D01*
X28313885Y4377469D02*
X28266266Y4425088D01*
X28266266Y4425088D02*
X28313885Y4472708D01*
X28313885Y4472708D02*
X28313885Y4377469D01*
X28742456Y4425088D02*
X28837694Y4377469D01*
X28837694Y4377469D02*
X29028170Y4377469D01*
X29028170Y4377469D02*
X29123408Y4425088D01*
X29123408Y4425088D02*
X29171027Y4520327D01*
X29171027Y4520327D02*
X29171027Y4567946D01*
X29171027Y4567946D02*
X29123408Y4663184D01*
X29123408Y4663184D02*
X29028170Y4710803D01*
X29028170Y4710803D02*
X28885313Y4710803D01*
X28885313Y4710803D02*
X28790075Y4758422D01*
X28790075Y4758422D02*
X28742456Y4853660D01*
X28742456Y4853660D02*
X28742456Y4901279D01*
X28742456Y4901279D02*
X28790075Y4996517D01*
X28790075Y4996517D02*
X28885313Y5044136D01*
X28885313Y5044136D02*
X29028170Y5044136D01*
X29028170Y5044136D02*
X29123408Y4996517D01*
X29599599Y5044136D02*
X29599599Y4044136D01*
X29599599Y4996517D02*
X29694837Y5044136D01*
X29694837Y5044136D02*
X29885313Y5044136D01*
X29885313Y5044136D02*
X29980551Y4996517D01*
X29980551Y4996517D02*
X30028170Y4948898D01*
X30028170Y4948898D02*
X30075789Y4853660D01*
X30075789Y4853660D02*
X30075789Y4567946D01*
X30075789Y4567946D02*
X30028170Y4472708D01*
X30028170Y4472708D02*
X29980551Y4425088D01*
X29980551Y4425088D02*
X29885313Y4377469D01*
X29885313Y4377469D02*
X29694837Y4377469D01*
X29694837Y4377469D02*
X29599599Y4425088D01*
X30932932Y4377469D02*
X30932932Y4901279D01*
X30932932Y4901279D02*
X30885313Y4996517D01*
X30885313Y4996517D02*
X30790075Y5044136D01*
X30790075Y5044136D02*
X30599599Y5044136D01*
X30599599Y5044136D02*
X30504361Y4996517D01*
X30932932Y4425088D02*
X30837694Y4377469D01*
X30837694Y4377469D02*
X30599599Y4377469D01*
X30599599Y4377469D02*
X30504361Y4425088D01*
X30504361Y4425088D02*
X30456742Y4520327D01*
X30456742Y4520327D02*
X30456742Y4615565D01*
X30456742Y4615565D02*
X30504361Y4710803D01*
X30504361Y4710803D02*
X30599599Y4758422D01*
X30599599Y4758422D02*
X30837694Y4758422D01*
X30837694Y4758422D02*
X30932932Y4806041D01*
X31837694Y4425088D02*
X31742456Y4377469D01*
X31742456Y4377469D02*
X31551980Y4377469D01*
X31551980Y4377469D02*
X31456742Y4425088D01*
X31456742Y4425088D02*
X31409123Y4472708D01*
X31409123Y4472708D02*
X31361504Y4567946D01*
X31361504Y4567946D02*
X31361504Y4853660D01*
X31361504Y4853660D02*
X31409123Y4948898D01*
X31409123Y4948898D02*
X31456742Y4996517D01*
X31456742Y4996517D02*
X31551980Y5044136D01*
X31551980Y5044136D02*
X31742456Y5044136D01*
X31742456Y5044136D02*
X31837694Y4996517D01*
X32647218Y4425088D02*
X32551980Y4377469D01*
X32551980Y4377469D02*
X32361504Y4377469D01*
X32361504Y4377469D02*
X32266266Y4425088D01*
X32266266Y4425088D02*
X32218647Y4520327D01*
X32218647Y4520327D02*
X32218647Y4901279D01*
X32218647Y4901279D02*
X32266266Y4996517D01*
X32266266Y4996517D02*
X32361504Y5044136D01*
X32361504Y5044136D02*
X32551980Y5044136D01*
X32551980Y5044136D02*
X32647218Y4996517D01*
X32647218Y4996517D02*
X32694837Y4901279D01*
X32694837Y4901279D02*
X32694837Y4806041D01*
X32694837Y4806041D02*
X32218647Y4710803D01*
X34456742Y4472708D02*
X34409123Y4425088D01*
X34409123Y4425088D02*
X34266266Y4377469D01*
X34266266Y4377469D02*
X34171028Y4377469D01*
X34171028Y4377469D02*
X34028171Y4425088D01*
X34028171Y4425088D02*
X33932933Y4520327D01*
X33932933Y4520327D02*
X33885314Y4615565D01*
X33885314Y4615565D02*
X33837695Y4806041D01*
X33837695Y4806041D02*
X33837695Y4948898D01*
X33837695Y4948898D02*
X33885314Y5139374D01*
X33885314Y5139374D02*
X33932933Y5234612D01*
X33932933Y5234612D02*
X34028171Y5329850D01*
X34028171Y5329850D02*
X34171028Y5377469D01*
X34171028Y5377469D02*
X34266266Y5377469D01*
X34266266Y5377469D02*
X34409123Y5329850D01*
X34409123Y5329850D02*
X34456742Y5282231D01*
X35075790Y5377469D02*
X35266266Y5377469D01*
X35266266Y5377469D02*
X35361504Y5329850D01*
X35361504Y5329850D02*
X35456742Y5234612D01*
X35456742Y5234612D02*
X35504361Y5044136D01*
X35504361Y5044136D02*
X35504361Y4710803D01*
X35504361Y4710803D02*
X35456742Y4520327D01*
X35456742Y4520327D02*
X35361504Y4425088D01*
X35361504Y4425088D02*
X35266266Y4377469D01*
X35266266Y4377469D02*
X35075790Y4377469D01*
X35075790Y4377469D02*
X34980552Y4425088D01*
X34980552Y4425088D02*
X34885314Y4520327D01*
X34885314Y4520327D02*
X34837695Y4710803D01*
X34837695Y4710803D02*
X34837695Y5044136D01*
X34837695Y5044136D02*
X34885314Y5234612D01*
X34885314Y5234612D02*
X34980552Y5329850D01*
X34980552Y5329850D02*
X35075790Y5377469D01*
X36266266Y4901279D02*
X36409123Y4853660D01*
X36409123Y4853660D02*
X36456742Y4806041D01*
X36456742Y4806041D02*
X36504361Y4710803D01*
X36504361Y4710803D02*
X36504361Y4567946D01*
X36504361Y4567946D02*
X36456742Y4472708D01*
X36456742Y4472708D02*
X36409123Y4425088D01*
X36409123Y4425088D02*
X36313885Y4377469D01*
X36313885Y4377469D02*
X35932933Y4377469D01*
X35932933Y4377469D02*
X35932933Y5377469D01*
X35932933Y5377469D02*
X36266266Y5377469D01*
X36266266Y5377469D02*
X36361504Y5329850D01*
X36361504Y5329850D02*
X36409123Y5282231D01*
X36409123Y5282231D02*
X36456742Y5186993D01*
X36456742Y5186993D02*
X36456742Y5091755D01*
X36456742Y5091755D02*
X36409123Y4996517D01*
X36409123Y4996517D02*
X36361504Y4948898D01*
X36361504Y4948898D02*
X36266266Y4901279D01*
X36266266Y4901279D02*
X35932933Y4901279D01*
X24885312Y2767525D02*
X24551979Y3243716D01*
X24313884Y2767525D02*
X24313884Y3767525D01*
X24313884Y3767525D02*
X24694836Y3767525D01*
X24694836Y3767525D02*
X24790074Y3719906D01*
X24790074Y3719906D02*
X24837693Y3672287D01*
X24837693Y3672287D02*
X24885312Y3577049D01*
X24885312Y3577049D02*
X24885312Y3434192D01*
X24885312Y3434192D02*
X24837693Y3338954D01*
X24837693Y3338954D02*
X24790074Y3291335D01*
X24790074Y3291335D02*
X24694836Y3243716D01*
X24694836Y3243716D02*
X24313884Y3243716D01*
X25742455Y3434192D02*
X25742455Y2767525D01*
X25313884Y3434192D02*
X25313884Y2910383D01*
X25313884Y2910383D02*
X25361503Y2815144D01*
X25361503Y2815144D02*
X25456741Y2767525D01*
X25456741Y2767525D02*
X25599598Y2767525D01*
X25599598Y2767525D02*
X25694836Y2815144D01*
X25694836Y2815144D02*
X25742455Y2862764D01*
X26218646Y3434192D02*
X26218646Y2767525D01*
X26218646Y3338954D02*
X26266265Y3386573D01*
X26266265Y3386573D02*
X26361503Y3434192D01*
X26361503Y3434192D02*
X26504360Y3434192D01*
X26504360Y3434192D02*
X26599598Y3386573D01*
X26599598Y3386573D02*
X26647217Y3291335D01*
X26647217Y3291335D02*
X26647217Y2767525D01*
X28409122Y2767525D02*
X27837694Y2767525D01*
X28123408Y2767525D02*
X28123408Y3767525D01*
X28123408Y3767525D02*
X28028170Y3624668D01*
X28028170Y3624668D02*
X27932932Y3529430D01*
X27932932Y3529430D02*
X27837694Y3481811D01*
X24837693Y2109962D02*
X24742455Y2157581D01*
X24742455Y2157581D02*
X24599598Y2157581D01*
X24599598Y2157581D02*
X24456741Y2109962D01*
X24456741Y2109962D02*
X24361503Y2014724D01*
X24361503Y2014724D02*
X24313884Y1919486D01*
X24313884Y1919486D02*
X24266265Y1729010D01*
X24266265Y1729010D02*
X24266265Y1586153D01*
X24266265Y1586153D02*
X24313884Y1395677D01*
X24313884Y1395677D02*
X24361503Y1300439D01*
X24361503Y1300439D02*
X24456741Y1205200D01*
X24456741Y1205200D02*
X24599598Y1157581D01*
X24599598Y1157581D02*
X24694836Y1157581D01*
X24694836Y1157581D02*
X24837693Y1205200D01*
X24837693Y1205200D02*
X24885312Y1252820D01*
X24885312Y1252820D02*
X24885312Y1586153D01*
X24885312Y1586153D02*
X24694836Y1586153D01*
X25647217Y1681391D02*
X25313884Y1681391D01*
X25313884Y1157581D02*
X25313884Y2157581D01*
X25313884Y2157581D02*
X25790074Y2157581D01*
X26694836Y1157581D02*
X26123408Y1157581D01*
X26409122Y1157581D02*
X26409122Y2157581D01*
X26409122Y2157581D02*
X26313884Y2014724D01*
X26313884Y2014724D02*
X26218646Y1919486D01*
X26218646Y1919486D02*
X26123408Y1871867D01*
X27266265Y1729010D02*
X27171027Y1776629D01*
X27171027Y1776629D02*
X27123408Y1824248D01*
X27123408Y1824248D02*
X27075789Y1919486D01*
X27075789Y1919486D02*
X27075789Y1967105D01*
X27075789Y1967105D02*
X27123408Y2062343D01*
X27123408Y2062343D02*
X27171027Y2109962D01*
X27171027Y2109962D02*
X27266265Y2157581D01*
X27266265Y2157581D02*
X27456741Y2157581D01*
X27456741Y2157581D02*
X27551979Y2109962D01*
X27551979Y2109962D02*
X27599598Y2062343D01*
X27599598Y2062343D02*
X27647217Y1967105D01*
X27647217Y1967105D02*
X27647217Y1919486D01*
X27647217Y1919486D02*
X27599598Y1824248D01*
X27599598Y1824248D02*
X27551979Y1776629D01*
X27551979Y1776629D02*
X27456741Y1729010D01*
X27456741Y1729010D02*
X27266265Y1729010D01*
X27266265Y1729010D02*
X27171027Y1681391D01*
X27171027Y1681391D02*
X27123408Y1633772D01*
X27123408Y1633772D02*
X27075789Y1538534D01*
X27075789Y1538534D02*
X27075789Y1348058D01*
X27075789Y1348058D02*
X27123408Y1252820D01*
X27123408Y1252820D02*
X27171027Y1205200D01*
X27171027Y1205200D02*
X27266265Y1157581D01*
X27266265Y1157581D02*
X27456741Y1157581D01*
X27456741Y1157581D02*
X27551979Y1205200D01*
X27551979Y1205200D02*
X27599598Y1252820D01*
X27599598Y1252820D02*
X27647217Y1348058D01*
X27647217Y1348058D02*
X27647217Y1538534D01*
X27647217Y1538534D02*
X27599598Y1633772D01*
X27599598Y1633772D02*
X27551979Y1681391D01*
X27551979Y1681391D02*
X27456741Y1729010D01*
X28266265Y2157581D02*
X28361503Y2157581D01*
X28361503Y2157581D02*
X28456741Y2109962D01*
X28456741Y2109962D02*
X28504360Y2062343D01*
X28504360Y2062343D02*
X28551979Y1967105D01*
X28551979Y1967105D02*
X28599598Y1776629D01*
X28599598Y1776629D02*
X28599598Y1538534D01*
X28599598Y1538534D02*
X28551979Y1348058D01*
X28551979Y1348058D02*
X28504360Y1252820D01*
X28504360Y1252820D02*
X28456741Y1205200D01*
X28456741Y1205200D02*
X28361503Y1157581D01*
X28361503Y1157581D02*
X28266265Y1157581D01*
X28266265Y1157581D02*
X28171027Y1205200D01*
X28171027Y1205200D02*
X28123408Y1252820D01*
X28123408Y1252820D02*
X28075789Y1348058D01*
X28075789Y1348058D02*
X28028170Y1538534D01*
X28028170Y1538534D02*
X28028170Y1776629D01*
X28028170Y1776629D02*
X28075789Y1967105D01*
X28075789Y1967105D02*
X28123408Y2062343D01*
X28123408Y2062343D02*
X28171027Y2109962D01*
X28171027Y2109962D02*
X28266265Y2157581D01*
X29028170Y1157581D02*
X29028170Y2157581D01*
X29028170Y2157581D02*
X29361503Y1443296D01*
X29361503Y1443296D02*
X29694836Y2157581D01*
X29694836Y2157581D02*
X29694836Y1157581D01*
X30742455Y1252820D02*
X30694836Y1205200D01*
X30694836Y1205200D02*
X30551979Y1157581D01*
X30551979Y1157581D02*
X30456741Y1157581D01*
X30456741Y1157581D02*
X30313884Y1205200D01*
X30313884Y1205200D02*
X30218646Y1300439D01*
X30218646Y1300439D02*
X30171027Y1395677D01*
X30171027Y1395677D02*
X30123408Y1586153D01*
X30123408Y1586153D02*
X30123408Y1729010D01*
X30123408Y1729010D02*
X30171027Y1919486D01*
X30171027Y1919486D02*
X30218646Y2014724D01*
X30218646Y2014724D02*
X30313884Y2109962D01*
X30313884Y2109962D02*
X30456741Y2157581D01*
X30456741Y2157581D02*
X30551979Y2157581D01*
X30551979Y2157581D02*
X30694836Y2109962D01*
X30694836Y2109962D02*
X30742455Y2062343D01*
X31171027Y2157581D02*
X31171027Y1348058D01*
X31171027Y1348058D02*
X31218646Y1252820D01*
X31218646Y1252820D02*
X31266265Y1205200D01*
X31266265Y1205200D02*
X31361503Y1157581D01*
X31361503Y1157581D02*
X31551979Y1157581D01*
X31551979Y1157581D02*
X31647217Y1205200D01*
X31647217Y1205200D02*
X31694836Y1252820D01*
X31694836Y1252820D02*
X31742455Y1348058D01*
X31742455Y1348058D02*
X31742455Y2157581D01*
D12*
X-1261103Y3395807D02*
X-1261103Y4645807D01*
X-1261103Y4645807D02*
X-784913Y4645807D01*
X-784913Y4645807D02*
X-665865Y4586283D01*
X-665865Y4586283D02*
X-606342Y4526759D01*
X-606342Y4526759D02*
X-546818Y4407711D01*
X-546818Y4407711D02*
X-546818Y4229140D01*
X-546818Y4229140D02*
X-606342Y4110092D01*
X-606342Y4110092D02*
X-665865Y4050569D01*
X-665865Y4050569D02*
X-784913Y3991045D01*
X-784913Y3991045D02*
X-1261103Y3991045D01*
X-11103Y3395807D02*
X-11103Y4229140D01*
X-11103Y3991045D02*
X48420Y4110092D01*
X48420Y4110092D02*
X107944Y4169616D01*
X107944Y4169616D02*
X226992Y4229140D01*
X226992Y4229140D02*
X346039Y4229140D01*
X941278Y3395807D02*
X822230Y3455330D01*
X822230Y3455330D02*
X762707Y3514854D01*
X762707Y3514854D02*
X703183Y3633902D01*
X703183Y3633902D02*
X703183Y3991045D01*
X703183Y3991045D02*
X762707Y4110092D01*
X762707Y4110092D02*
X822230Y4169616D01*
X822230Y4169616D02*
X941278Y4229140D01*
X941278Y4229140D02*
X1119849Y4229140D01*
X1119849Y4229140D02*
X1238897Y4169616D01*
X1238897Y4169616D02*
X1298421Y4110092D01*
X1298421Y4110092D02*
X1357945Y3991045D01*
X1357945Y3991045D02*
X1357945Y3633902D01*
X1357945Y3633902D02*
X1298421Y3514854D01*
X1298421Y3514854D02*
X1238897Y3455330D01*
X1238897Y3455330D02*
X1119849Y3395807D01*
X1119849Y3395807D02*
X941278Y3395807D01*
X1893659Y4229140D02*
X1893659Y3157711D01*
X1893659Y3157711D02*
X1834135Y3038664D01*
X1834135Y3038664D02*
X1715087Y2979140D01*
X1715087Y2979140D02*
X1655563Y2979140D01*
X1893659Y4645807D02*
X1834135Y4586283D01*
X1834135Y4586283D02*
X1893659Y4526759D01*
X1893659Y4526759D02*
X1953182Y4586283D01*
X1953182Y4586283D02*
X1893659Y4645807D01*
X1893659Y4645807D02*
X1893659Y4526759D01*
X2965087Y3455330D02*
X2846039Y3395807D01*
X2846039Y3395807D02*
X2607944Y3395807D01*
X2607944Y3395807D02*
X2488897Y3455330D01*
X2488897Y3455330D02*
X2429373Y3574378D01*
X2429373Y3574378D02*
X2429373Y4050569D01*
X2429373Y4050569D02*
X2488897Y4169616D01*
X2488897Y4169616D02*
X2607944Y4229140D01*
X2607944Y4229140D02*
X2846039Y4229140D01*
X2846039Y4229140D02*
X2965087Y4169616D01*
X2965087Y4169616D02*
X3024611Y4050569D01*
X3024611Y4050569D02*
X3024611Y3931521D01*
X3024611Y3931521D02*
X2429373Y3812473D01*
X4096040Y3455330D02*
X3976992Y3395807D01*
X3976992Y3395807D02*
X3738897Y3395807D01*
X3738897Y3395807D02*
X3619849Y3455330D01*
X3619849Y3455330D02*
X3560326Y3514854D01*
X3560326Y3514854D02*
X3500802Y3633902D01*
X3500802Y3633902D02*
X3500802Y3991045D01*
X3500802Y3991045D02*
X3560326Y4110092D01*
X3560326Y4110092D02*
X3619849Y4169616D01*
X3619849Y4169616D02*
X3738897Y4229140D01*
X3738897Y4229140D02*
X3976992Y4229140D01*
X3976992Y4229140D02*
X4096040Y4169616D01*
X4453183Y4229140D02*
X4929374Y4229140D01*
X4631755Y4645807D02*
X4631755Y3574378D01*
X4631755Y3574378D02*
X4691278Y3455330D01*
X4691278Y3455330D02*
X4810326Y3395807D01*
X4810326Y3395807D02*
X4929374Y3395807D01*
X1476993Y1502424D02*
X1417469Y1442900D01*
X1417469Y1442900D02*
X1238898Y1383377D01*
X1238898Y1383377D02*
X1119850Y1383377D01*
X1119850Y1383377D02*
X941279Y1442900D01*
X941279Y1442900D02*
X822231Y1561948D01*
X822231Y1561948D02*
X762708Y1680996D01*
X762708Y1680996D02*
X703184Y1919091D01*
X703184Y1919091D02*
X703184Y2097662D01*
X703184Y2097662D02*
X762708Y2335758D01*
X762708Y2335758D02*
X822231Y2454805D01*
X822231Y2454805D02*
X941279Y2573853D01*
X941279Y2573853D02*
X1119850Y2633377D01*
X1119850Y2633377D02*
X1238898Y2633377D01*
X1238898Y2633377D02*
X1417469Y2573853D01*
X1417469Y2573853D02*
X1476993Y2514329D01*
X2191279Y1383377D02*
X2072231Y1442900D01*
X2072231Y1442900D02*
X2012708Y1502424D01*
X2012708Y1502424D02*
X1953184Y1621472D01*
X1953184Y1621472D02*
X1953184Y1978615D01*
X1953184Y1978615D02*
X2012708Y2097662D01*
X2012708Y2097662D02*
X2072231Y2157186D01*
X2072231Y2157186D02*
X2191279Y2216710D01*
X2191279Y2216710D02*
X2369850Y2216710D01*
X2369850Y2216710D02*
X2488898Y2157186D01*
X2488898Y2157186D02*
X2548422Y2097662D01*
X2548422Y2097662D02*
X2607946Y1978615D01*
X2607946Y1978615D02*
X2607946Y1621472D01*
X2607946Y1621472D02*
X2548422Y1502424D01*
X2548422Y1502424D02*
X2488898Y1442900D01*
X2488898Y1442900D02*
X2369850Y1383377D01*
X2369850Y1383377D02*
X2191279Y1383377D01*
X3679374Y1383377D02*
X3679374Y2633377D01*
X3679374Y1442900D02*
X3560326Y1383377D01*
X3560326Y1383377D02*
X3322231Y1383377D01*
X3322231Y1383377D02*
X3203183Y1442900D01*
X3203183Y1442900D02*
X3143660Y1502424D01*
X3143660Y1502424D02*
X3084136Y1621472D01*
X3084136Y1621472D02*
X3084136Y1978615D01*
X3084136Y1978615D02*
X3143660Y2097662D01*
X3143660Y2097662D02*
X3203183Y2157186D01*
X3203183Y2157186D02*
X3322231Y2216710D01*
X3322231Y2216710D02*
X3560326Y2216710D01*
X3560326Y2216710D02*
X3679374Y2157186D01*
X4750802Y1442900D02*
X4631754Y1383377D01*
X4631754Y1383377D02*
X4393659Y1383377D01*
X4393659Y1383377D02*
X4274612Y1442900D01*
X4274612Y1442900D02*
X4215088Y1561948D01*
X4215088Y1561948D02*
X4215088Y2038139D01*
X4215088Y2038139D02*
X4274612Y2157186D01*
X4274612Y2157186D02*
X4393659Y2216710D01*
X4393659Y2216710D02*
X4631754Y2216710D01*
X4631754Y2216710D02*
X4750802Y2157186D01*
X4750802Y2157186D02*
X4810326Y2038139D01*
X4810326Y2038139D02*
X4810326Y1919091D01*
X4810326Y1919091D02*
X4215088Y1800043D01*
D11*
X24718646Y-65455864D02*
X24909122Y-66122531D01*
X24909122Y-66122531D02*
X25099598Y-65646340D01*
X25099598Y-65646340D02*
X25290074Y-66122531D01*
X25290074Y-66122531D02*
X25480550Y-65455864D01*
X26290074Y-66122531D02*
X26290074Y-65598721D01*
X26290074Y-65598721D02*
X26242455Y-65503483D01*
X26242455Y-65503483D02*
X26147217Y-65455864D01*
X26147217Y-65455864D02*
X25956741Y-65455864D01*
X25956741Y-65455864D02*
X25861503Y-65503483D01*
X26290074Y-66074912D02*
X26194836Y-66122531D01*
X26194836Y-66122531D02*
X25956741Y-66122531D01*
X25956741Y-66122531D02*
X25861503Y-66074912D01*
X25861503Y-66074912D02*
X25813884Y-65979673D01*
X25813884Y-65979673D02*
X25813884Y-65884435D01*
X25813884Y-65884435D02*
X25861503Y-65789197D01*
X25861503Y-65789197D02*
X25956741Y-65741578D01*
X25956741Y-65741578D02*
X26194836Y-65741578D01*
X26194836Y-65741578D02*
X26290074Y-65693959D01*
X26623408Y-65455864D02*
X27004360Y-65455864D01*
X26766265Y-66122531D02*
X26766265Y-65265388D01*
X26766265Y-65265388D02*
X26813884Y-65170150D01*
X26813884Y-65170150D02*
X26909122Y-65122531D01*
X26909122Y-65122531D02*
X27004360Y-65122531D01*
X27718646Y-66074912D02*
X27623408Y-66122531D01*
X27623408Y-66122531D02*
X27432932Y-66122531D01*
X27432932Y-66122531D02*
X27337694Y-66074912D01*
X27337694Y-66074912D02*
X27290075Y-65979673D01*
X27290075Y-65979673D02*
X27290075Y-65598721D01*
X27290075Y-65598721D02*
X27337694Y-65503483D01*
X27337694Y-65503483D02*
X27432932Y-65455864D01*
X27432932Y-65455864D02*
X27623408Y-65455864D01*
X27623408Y-65455864D02*
X27718646Y-65503483D01*
X27718646Y-65503483D02*
X27766265Y-65598721D01*
X27766265Y-65598721D02*
X27766265Y-65693959D01*
X27766265Y-65693959D02*
X27290075Y-65789197D01*
X28194837Y-66122531D02*
X28194837Y-65455864D01*
X28194837Y-65646340D02*
X28242456Y-65551102D01*
X28242456Y-65551102D02*
X28290075Y-65503483D01*
X28290075Y-65503483D02*
X28385313Y-65455864D01*
X28385313Y-65455864D02*
X28480551Y-65455864D01*
X28813885Y-66027292D02*
X28861504Y-66074912D01*
X28861504Y-66074912D02*
X28813885Y-66122531D01*
X28813885Y-66122531D02*
X28766266Y-66074912D01*
X28766266Y-66074912D02*
X28813885Y-66027292D01*
X28813885Y-66027292D02*
X28813885Y-66122531D01*
X29242456Y-66074912D02*
X29337694Y-66122531D01*
X29337694Y-66122531D02*
X29528170Y-66122531D01*
X29528170Y-66122531D02*
X29623408Y-66074912D01*
X29623408Y-66074912D02*
X29671027Y-65979673D01*
X29671027Y-65979673D02*
X29671027Y-65932054D01*
X29671027Y-65932054D02*
X29623408Y-65836816D01*
X29623408Y-65836816D02*
X29528170Y-65789197D01*
X29528170Y-65789197D02*
X29385313Y-65789197D01*
X29385313Y-65789197D02*
X29290075Y-65741578D01*
X29290075Y-65741578D02*
X29242456Y-65646340D01*
X29242456Y-65646340D02*
X29242456Y-65598721D01*
X29242456Y-65598721D02*
X29290075Y-65503483D01*
X29290075Y-65503483D02*
X29385313Y-65455864D01*
X29385313Y-65455864D02*
X29528170Y-65455864D01*
X29528170Y-65455864D02*
X29623408Y-65503483D01*
X30099599Y-65455864D02*
X30099599Y-66455864D01*
X30099599Y-65503483D02*
X30194837Y-65455864D01*
X30194837Y-65455864D02*
X30385313Y-65455864D01*
X30385313Y-65455864D02*
X30480551Y-65503483D01*
X30480551Y-65503483D02*
X30528170Y-65551102D01*
X30528170Y-65551102D02*
X30575789Y-65646340D01*
X30575789Y-65646340D02*
X30575789Y-65932054D01*
X30575789Y-65932054D02*
X30528170Y-66027292D01*
X30528170Y-66027292D02*
X30480551Y-66074912D01*
X30480551Y-66074912D02*
X30385313Y-66122531D01*
X30385313Y-66122531D02*
X30194837Y-66122531D01*
X30194837Y-66122531D02*
X30099599Y-66074912D01*
X31432932Y-66122531D02*
X31432932Y-65598721D01*
X31432932Y-65598721D02*
X31385313Y-65503483D01*
X31385313Y-65503483D02*
X31290075Y-65455864D01*
X31290075Y-65455864D02*
X31099599Y-65455864D01*
X31099599Y-65455864D02*
X31004361Y-65503483D01*
X31432932Y-66074912D02*
X31337694Y-66122531D01*
X31337694Y-66122531D02*
X31099599Y-66122531D01*
X31099599Y-66122531D02*
X31004361Y-66074912D01*
X31004361Y-66074912D02*
X30956742Y-65979673D01*
X30956742Y-65979673D02*
X30956742Y-65884435D01*
X30956742Y-65884435D02*
X31004361Y-65789197D01*
X31004361Y-65789197D02*
X31099599Y-65741578D01*
X31099599Y-65741578D02*
X31337694Y-65741578D01*
X31337694Y-65741578D02*
X31432932Y-65693959D01*
X32337694Y-66074912D02*
X32242456Y-66122531D01*
X32242456Y-66122531D02*
X32051980Y-66122531D01*
X32051980Y-66122531D02*
X31956742Y-66074912D01*
X31956742Y-66074912D02*
X31909123Y-66027292D01*
X31909123Y-66027292D02*
X31861504Y-65932054D01*
X31861504Y-65932054D02*
X31861504Y-65646340D01*
X31861504Y-65646340D02*
X31909123Y-65551102D01*
X31909123Y-65551102D02*
X31956742Y-65503483D01*
X31956742Y-65503483D02*
X32051980Y-65455864D01*
X32051980Y-65455864D02*
X32242456Y-65455864D01*
X32242456Y-65455864D02*
X32337694Y-65503483D01*
X33147218Y-66074912D02*
X33051980Y-66122531D01*
X33051980Y-66122531D02*
X32861504Y-66122531D01*
X32861504Y-66122531D02*
X32766266Y-66074912D01*
X32766266Y-66074912D02*
X32718647Y-65979673D01*
X32718647Y-65979673D02*
X32718647Y-65598721D01*
X32718647Y-65598721D02*
X32766266Y-65503483D01*
X32766266Y-65503483D02*
X32861504Y-65455864D01*
X32861504Y-65455864D02*
X33051980Y-65455864D01*
X33051980Y-65455864D02*
X33147218Y-65503483D01*
X33147218Y-65503483D02*
X33194837Y-65598721D01*
X33194837Y-65598721D02*
X33194837Y-65693959D01*
X33194837Y-65693959D02*
X32718647Y-65789197D01*
X34956742Y-66027292D02*
X34909123Y-66074912D01*
X34909123Y-66074912D02*
X34766266Y-66122531D01*
X34766266Y-66122531D02*
X34671028Y-66122531D01*
X34671028Y-66122531D02*
X34528171Y-66074912D01*
X34528171Y-66074912D02*
X34432933Y-65979673D01*
X34432933Y-65979673D02*
X34385314Y-65884435D01*
X34385314Y-65884435D02*
X34337695Y-65693959D01*
X34337695Y-65693959D02*
X34337695Y-65551102D01*
X34337695Y-65551102D02*
X34385314Y-65360626D01*
X34385314Y-65360626D02*
X34432933Y-65265388D01*
X34432933Y-65265388D02*
X34528171Y-65170150D01*
X34528171Y-65170150D02*
X34671028Y-65122531D01*
X34671028Y-65122531D02*
X34766266Y-65122531D01*
X34766266Y-65122531D02*
X34909123Y-65170150D01*
X34909123Y-65170150D02*
X34956742Y-65217769D01*
X35575790Y-65122531D02*
X35766266Y-65122531D01*
X35766266Y-65122531D02*
X35861504Y-65170150D01*
X35861504Y-65170150D02*
X35956742Y-65265388D01*
X35956742Y-65265388D02*
X36004361Y-65455864D01*
X36004361Y-65455864D02*
X36004361Y-65789197D01*
X36004361Y-65789197D02*
X35956742Y-65979673D01*
X35956742Y-65979673D02*
X35861504Y-66074912D01*
X35861504Y-66074912D02*
X35766266Y-66122531D01*
X35766266Y-66122531D02*
X35575790Y-66122531D01*
X35575790Y-66122531D02*
X35480552Y-66074912D01*
X35480552Y-66074912D02*
X35385314Y-65979673D01*
X35385314Y-65979673D02*
X35337695Y-65789197D01*
X35337695Y-65789197D02*
X35337695Y-65455864D01*
X35337695Y-65455864D02*
X35385314Y-65265388D01*
X35385314Y-65265388D02*
X35480552Y-65170150D01*
X35480552Y-65170150D02*
X35575790Y-65122531D01*
X36766266Y-65598721D02*
X36909123Y-65646340D01*
X36909123Y-65646340D02*
X36956742Y-65693959D01*
X36956742Y-65693959D02*
X37004361Y-65789197D01*
X37004361Y-65789197D02*
X37004361Y-65932054D01*
X37004361Y-65932054D02*
X36956742Y-66027292D01*
X36956742Y-66027292D02*
X36909123Y-66074912D01*
X36909123Y-66074912D02*
X36813885Y-66122531D01*
X36813885Y-66122531D02*
X36432933Y-66122531D01*
X36432933Y-66122531D02*
X36432933Y-65122531D01*
X36432933Y-65122531D02*
X36766266Y-65122531D01*
X36766266Y-65122531D02*
X36861504Y-65170150D01*
X36861504Y-65170150D02*
X36909123Y-65217769D01*
X36909123Y-65217769D02*
X36956742Y-65313007D01*
X36956742Y-65313007D02*
X36956742Y-65408245D01*
X36956742Y-65408245D02*
X36909123Y-65503483D01*
X36909123Y-65503483D02*
X36861504Y-65551102D01*
X36861504Y-65551102D02*
X36766266Y-65598721D01*
X36766266Y-65598721D02*
X36432933Y-65598721D01*
X25385312Y-67732475D02*
X25051979Y-67256284D01*
X24813884Y-67732475D02*
X24813884Y-66732475D01*
X24813884Y-66732475D02*
X25194836Y-66732475D01*
X25194836Y-66732475D02*
X25290074Y-66780094D01*
X25290074Y-66780094D02*
X25337693Y-66827713D01*
X25337693Y-66827713D02*
X25385312Y-66922951D01*
X25385312Y-66922951D02*
X25385312Y-67065808D01*
X25385312Y-67065808D02*
X25337693Y-67161046D01*
X25337693Y-67161046D02*
X25290074Y-67208665D01*
X25290074Y-67208665D02*
X25194836Y-67256284D01*
X25194836Y-67256284D02*
X24813884Y-67256284D01*
X26242455Y-67065808D02*
X26242455Y-67732475D01*
X25813884Y-67065808D02*
X25813884Y-67589617D01*
X25813884Y-67589617D02*
X25861503Y-67684856D01*
X25861503Y-67684856D02*
X25956741Y-67732475D01*
X25956741Y-67732475D02*
X26099598Y-67732475D01*
X26099598Y-67732475D02*
X26194836Y-67684856D01*
X26194836Y-67684856D02*
X26242455Y-67637236D01*
X26718646Y-67065808D02*
X26718646Y-67732475D01*
X26718646Y-67161046D02*
X26766265Y-67113427D01*
X26766265Y-67113427D02*
X26861503Y-67065808D01*
X26861503Y-67065808D02*
X27004360Y-67065808D01*
X27004360Y-67065808D02*
X27099598Y-67113427D01*
X27099598Y-67113427D02*
X27147217Y-67208665D01*
X27147217Y-67208665D02*
X27147217Y-67732475D01*
X28909122Y-67732475D02*
X28337694Y-67732475D01*
X28623408Y-67732475D02*
X28623408Y-66732475D01*
X28623408Y-66732475D02*
X28528170Y-66875332D01*
X28528170Y-66875332D02*
X28432932Y-66970570D01*
X28432932Y-66970570D02*
X28337694Y-67018189D01*
X25337693Y-68390038D02*
X25242455Y-68342419D01*
X25242455Y-68342419D02*
X25099598Y-68342419D01*
X25099598Y-68342419D02*
X24956741Y-68390038D01*
X24956741Y-68390038D02*
X24861503Y-68485276D01*
X24861503Y-68485276D02*
X24813884Y-68580514D01*
X24813884Y-68580514D02*
X24766265Y-68770990D01*
X24766265Y-68770990D02*
X24766265Y-68913847D01*
X24766265Y-68913847D02*
X24813884Y-69104323D01*
X24813884Y-69104323D02*
X24861503Y-69199561D01*
X24861503Y-69199561D02*
X24956741Y-69294800D01*
X24956741Y-69294800D02*
X25099598Y-69342419D01*
X25099598Y-69342419D02*
X25194836Y-69342419D01*
X25194836Y-69342419D02*
X25337693Y-69294800D01*
X25337693Y-69294800D02*
X25385312Y-69247180D01*
X25385312Y-69247180D02*
X25385312Y-68913847D01*
X25385312Y-68913847D02*
X25194836Y-68913847D01*
X26147217Y-68818609D02*
X25813884Y-68818609D01*
X25813884Y-69342419D02*
X25813884Y-68342419D01*
X25813884Y-68342419D02*
X26290074Y-68342419D01*
X27194836Y-69342419D02*
X26623408Y-69342419D01*
X26909122Y-69342419D02*
X26909122Y-68342419D01*
X26909122Y-68342419D02*
X26813884Y-68485276D01*
X26813884Y-68485276D02*
X26718646Y-68580514D01*
X26718646Y-68580514D02*
X26623408Y-68628133D01*
X27766265Y-68770990D02*
X27671027Y-68723371D01*
X27671027Y-68723371D02*
X27623408Y-68675752D01*
X27623408Y-68675752D02*
X27575789Y-68580514D01*
X27575789Y-68580514D02*
X27575789Y-68532895D01*
X27575789Y-68532895D02*
X27623408Y-68437657D01*
X27623408Y-68437657D02*
X27671027Y-68390038D01*
X27671027Y-68390038D02*
X27766265Y-68342419D01*
X27766265Y-68342419D02*
X27956741Y-68342419D01*
X27956741Y-68342419D02*
X28051979Y-68390038D01*
X28051979Y-68390038D02*
X28099598Y-68437657D01*
X28099598Y-68437657D02*
X28147217Y-68532895D01*
X28147217Y-68532895D02*
X28147217Y-68580514D01*
X28147217Y-68580514D02*
X28099598Y-68675752D01*
X28099598Y-68675752D02*
X28051979Y-68723371D01*
X28051979Y-68723371D02*
X27956741Y-68770990D01*
X27956741Y-68770990D02*
X27766265Y-68770990D01*
X27766265Y-68770990D02*
X27671027Y-68818609D01*
X27671027Y-68818609D02*
X27623408Y-68866228D01*
X27623408Y-68866228D02*
X27575789Y-68961466D01*
X27575789Y-68961466D02*
X27575789Y-69151942D01*
X27575789Y-69151942D02*
X27623408Y-69247180D01*
X27623408Y-69247180D02*
X27671027Y-69294800D01*
X27671027Y-69294800D02*
X27766265Y-69342419D01*
X27766265Y-69342419D02*
X27956741Y-69342419D01*
X27956741Y-69342419D02*
X28051979Y-69294800D01*
X28051979Y-69294800D02*
X28099598Y-69247180D01*
X28099598Y-69247180D02*
X28147217Y-69151942D01*
X28147217Y-69151942D02*
X28147217Y-68961466D01*
X28147217Y-68961466D02*
X28099598Y-68866228D01*
X28099598Y-68866228D02*
X28051979Y-68818609D01*
X28051979Y-68818609D02*
X27956741Y-68770990D01*
X28766265Y-68342419D02*
X28861503Y-68342419D01*
X28861503Y-68342419D02*
X28956741Y-68390038D01*
X28956741Y-68390038D02*
X29004360Y-68437657D01*
X29004360Y-68437657D02*
X29051979Y-68532895D01*
X29051979Y-68532895D02*
X29099598Y-68723371D01*
X29099598Y-68723371D02*
X29099598Y-68961466D01*
X29099598Y-68961466D02*
X29051979Y-69151942D01*
X29051979Y-69151942D02*
X29004360Y-69247180D01*
X29004360Y-69247180D02*
X28956741Y-69294800D01*
X28956741Y-69294800D02*
X28861503Y-69342419D01*
X28861503Y-69342419D02*
X28766265Y-69342419D01*
X28766265Y-69342419D02*
X28671027Y-69294800D01*
X28671027Y-69294800D02*
X28623408Y-69247180D01*
X28623408Y-69247180D02*
X28575789Y-69151942D01*
X28575789Y-69151942D02*
X28528170Y-68961466D01*
X28528170Y-68961466D02*
X28528170Y-68723371D01*
X28528170Y-68723371D02*
X28575789Y-68532895D01*
X28575789Y-68532895D02*
X28623408Y-68437657D01*
X28623408Y-68437657D02*
X28671027Y-68390038D01*
X28671027Y-68390038D02*
X28766265Y-68342419D01*
X29528170Y-69342419D02*
X29528170Y-68342419D01*
X29528170Y-68342419D02*
X29861503Y-69056704D01*
X29861503Y-69056704D02*
X30194836Y-68342419D01*
X30194836Y-68342419D02*
X30194836Y-69342419D01*
X31242455Y-69247180D02*
X31194836Y-69294800D01*
X31194836Y-69294800D02*
X31051979Y-69342419D01*
X31051979Y-69342419D02*
X30956741Y-69342419D01*
X30956741Y-69342419D02*
X30813884Y-69294800D01*
X30813884Y-69294800D02*
X30718646Y-69199561D01*
X30718646Y-69199561D02*
X30671027Y-69104323D01*
X30671027Y-69104323D02*
X30623408Y-68913847D01*
X30623408Y-68913847D02*
X30623408Y-68770990D01*
X30623408Y-68770990D02*
X30671027Y-68580514D01*
X30671027Y-68580514D02*
X30718646Y-68485276D01*
X30718646Y-68485276D02*
X30813884Y-68390038D01*
X30813884Y-68390038D02*
X30956741Y-68342419D01*
X30956741Y-68342419D02*
X31051979Y-68342419D01*
X31051979Y-68342419D02*
X31194836Y-68390038D01*
X31194836Y-68390038D02*
X31242455Y-68437657D01*
X31671027Y-68342419D02*
X31671027Y-69151942D01*
X31671027Y-69151942D02*
X31718646Y-69247180D01*
X31718646Y-69247180D02*
X31766265Y-69294800D01*
X31766265Y-69294800D02*
X31861503Y-69342419D01*
X31861503Y-69342419D02*
X32051979Y-69342419D01*
X32051979Y-69342419D02*
X32147217Y-69294800D01*
X32147217Y-69294800D02*
X32194836Y-69247180D01*
X32194836Y-69247180D02*
X32242455Y-69151942D01*
X32242455Y-69151942D02*
X32242455Y-68342419D01*
D10*
X8239347Y-67958961D02*
X9429823Y-67958961D01*
X8001252Y-68673247D02*
X8834585Y-66173247D01*
X8834585Y-66173247D02*
X9667918Y-68673247D01*
X10382204Y-68554200D02*
X10739347Y-68673247D01*
X10739347Y-68673247D02*
X11334585Y-68673247D01*
X11334585Y-68673247D02*
X11572680Y-68554200D01*
X11572680Y-68554200D02*
X11691728Y-68435152D01*
X11691728Y-68435152D02*
X11810775Y-68197057D01*
X11810775Y-68197057D02*
X11810775Y-67958961D01*
X11810775Y-67958961D02*
X11691728Y-67720866D01*
X11691728Y-67720866D02*
X11572680Y-67601819D01*
X11572680Y-67601819D02*
X11334585Y-67482771D01*
X11334585Y-67482771D02*
X10858394Y-67363723D01*
X10858394Y-67363723D02*
X10620299Y-67244676D01*
X10620299Y-67244676D02*
X10501252Y-67125628D01*
X10501252Y-67125628D02*
X10382204Y-66887533D01*
X10382204Y-66887533D02*
X10382204Y-66649438D01*
X10382204Y-66649438D02*
X10501252Y-66411342D01*
X10501252Y-66411342D02*
X10620299Y-66292295D01*
X10620299Y-66292295D02*
X10858394Y-66173247D01*
X10858394Y-66173247D02*
X11453633Y-66173247D01*
X11453633Y-66173247D02*
X11810775Y-66292295D01*
X13358394Y-66173247D02*
X13596489Y-66173247D01*
X13596489Y-66173247D02*
X13834585Y-66292295D01*
X13834585Y-66292295D02*
X13953632Y-66411342D01*
X13953632Y-66411342D02*
X14072680Y-66649438D01*
X14072680Y-66649438D02*
X14191727Y-67125628D01*
X14191727Y-67125628D02*
X14191727Y-67720866D01*
X14191727Y-67720866D02*
X14072680Y-68197057D01*
X14072680Y-68197057D02*
X13953632Y-68435152D01*
X13953632Y-68435152D02*
X13834585Y-68554200D01*
X13834585Y-68554200D02*
X13596489Y-68673247D01*
X13596489Y-68673247D02*
X13358394Y-68673247D01*
X13358394Y-68673247D02*
X13120299Y-68554200D01*
X13120299Y-68554200D02*
X13001251Y-68435152D01*
X13001251Y-68435152D02*
X12882204Y-68197057D01*
X12882204Y-68197057D02*
X12763156Y-67720866D01*
X12763156Y-67720866D02*
X12763156Y-67125628D01*
X12763156Y-67125628D02*
X12882204Y-66649438D01*
X12882204Y-66649438D02*
X13001251Y-66411342D01*
X13001251Y-66411342D02*
X13120299Y-66292295D01*
X13120299Y-66292295D02*
X13358394Y-66173247D01*
X15025060Y-66173247D02*
X16572679Y-66173247D01*
X16572679Y-66173247D02*
X15739346Y-67125628D01*
X15739346Y-67125628D02*
X16096489Y-67125628D01*
X16096489Y-67125628D02*
X16334584Y-67244676D01*
X16334584Y-67244676D02*
X16453632Y-67363723D01*
X16453632Y-67363723D02*
X16572679Y-67601819D01*
X16572679Y-67601819D02*
X16572679Y-68197057D01*
X16572679Y-68197057D02*
X16453632Y-68435152D01*
X16453632Y-68435152D02*
X16334584Y-68554200D01*
X16334584Y-68554200D02*
X16096489Y-68673247D01*
X16096489Y-68673247D02*
X15382203Y-68673247D01*
X15382203Y-68673247D02*
X15144108Y-68554200D01*
X15144108Y-68554200D02*
X15025060Y-68435152D01*
D12*
X-761103Y-67104193D02*
X-761103Y-65854193D01*
X-761103Y-65854193D02*
X-284913Y-65854193D01*
X-284913Y-65854193D02*
X-165865Y-65913717D01*
X-165865Y-65913717D02*
X-106342Y-65973241D01*
X-106342Y-65973241D02*
X-46818Y-66092289D01*
X-46818Y-66092289D02*
X-46818Y-66270860D01*
X-46818Y-66270860D02*
X-106342Y-66389908D01*
X-106342Y-66389908D02*
X-165865Y-66449431D01*
X-165865Y-66449431D02*
X-284913Y-66508955D01*
X-284913Y-66508955D02*
X-761103Y-66508955D01*
X488897Y-67104193D02*
X488897Y-66270860D01*
X488897Y-66508955D02*
X548420Y-66389908D01*
X548420Y-66389908D02*
X607944Y-66330384D01*
X607944Y-66330384D02*
X726992Y-66270860D01*
X726992Y-66270860D02*
X846039Y-66270860D01*
X1441278Y-67104193D02*
X1322230Y-67044670D01*
X1322230Y-67044670D02*
X1262707Y-66985146D01*
X1262707Y-66985146D02*
X1203183Y-66866098D01*
X1203183Y-66866098D02*
X1203183Y-66508955D01*
X1203183Y-66508955D02*
X1262707Y-66389908D01*
X1262707Y-66389908D02*
X1322230Y-66330384D01*
X1322230Y-66330384D02*
X1441278Y-66270860D01*
X1441278Y-66270860D02*
X1619849Y-66270860D01*
X1619849Y-66270860D02*
X1738897Y-66330384D01*
X1738897Y-66330384D02*
X1798421Y-66389908D01*
X1798421Y-66389908D02*
X1857945Y-66508955D01*
X1857945Y-66508955D02*
X1857945Y-66866098D01*
X1857945Y-66866098D02*
X1798421Y-66985146D01*
X1798421Y-66985146D02*
X1738897Y-67044670D01*
X1738897Y-67044670D02*
X1619849Y-67104193D01*
X1619849Y-67104193D02*
X1441278Y-67104193D01*
X2393659Y-66270860D02*
X2393659Y-67342289D01*
X2393659Y-67342289D02*
X2334135Y-67461336D01*
X2334135Y-67461336D02*
X2215087Y-67520860D01*
X2215087Y-67520860D02*
X2155563Y-67520860D01*
X2393659Y-65854193D02*
X2334135Y-65913717D01*
X2334135Y-65913717D02*
X2393659Y-65973241D01*
X2393659Y-65973241D02*
X2453182Y-65913717D01*
X2453182Y-65913717D02*
X2393659Y-65854193D01*
X2393659Y-65854193D02*
X2393659Y-65973241D01*
X3465087Y-67044670D02*
X3346039Y-67104193D01*
X3346039Y-67104193D02*
X3107944Y-67104193D01*
X3107944Y-67104193D02*
X2988897Y-67044670D01*
X2988897Y-67044670D02*
X2929373Y-66925622D01*
X2929373Y-66925622D02*
X2929373Y-66449431D01*
X2929373Y-66449431D02*
X2988897Y-66330384D01*
X2988897Y-66330384D02*
X3107944Y-66270860D01*
X3107944Y-66270860D02*
X3346039Y-66270860D01*
X3346039Y-66270860D02*
X3465087Y-66330384D01*
X3465087Y-66330384D02*
X3524611Y-66449431D01*
X3524611Y-66449431D02*
X3524611Y-66568479D01*
X3524611Y-66568479D02*
X2929373Y-66687527D01*
X4596040Y-67044670D02*
X4476992Y-67104193D01*
X4476992Y-67104193D02*
X4238897Y-67104193D01*
X4238897Y-67104193D02*
X4119849Y-67044670D01*
X4119849Y-67044670D02*
X4060326Y-66985146D01*
X4060326Y-66985146D02*
X4000802Y-66866098D01*
X4000802Y-66866098D02*
X4000802Y-66508955D01*
X4000802Y-66508955D02*
X4060326Y-66389908D01*
X4060326Y-66389908D02*
X4119849Y-66330384D01*
X4119849Y-66330384D02*
X4238897Y-66270860D01*
X4238897Y-66270860D02*
X4476992Y-66270860D01*
X4476992Y-66270860D02*
X4596040Y-66330384D01*
X4953183Y-66270860D02*
X5429374Y-66270860D01*
X5131755Y-65854193D02*
X5131755Y-66925622D01*
X5131755Y-66925622D02*
X5191278Y-67044670D01*
X5191278Y-67044670D02*
X5310326Y-67104193D01*
X5310326Y-67104193D02*
X5429374Y-67104193D01*
X1976993Y-68997576D02*
X1917469Y-69057100D01*
X1917469Y-69057100D02*
X1738898Y-69116623D01*
X1738898Y-69116623D02*
X1619850Y-69116623D01*
X1619850Y-69116623D02*
X1441279Y-69057100D01*
X1441279Y-69057100D02*
X1322231Y-68938052D01*
X1322231Y-68938052D02*
X1262708Y-68819004D01*
X1262708Y-68819004D02*
X1203184Y-68580909D01*
X1203184Y-68580909D02*
X1203184Y-68402338D01*
X1203184Y-68402338D02*
X1262708Y-68164242D01*
X1262708Y-68164242D02*
X1322231Y-68045195D01*
X1322231Y-68045195D02*
X1441279Y-67926147D01*
X1441279Y-67926147D02*
X1619850Y-67866623D01*
X1619850Y-67866623D02*
X1738898Y-67866623D01*
X1738898Y-67866623D02*
X1917469Y-67926147D01*
X1917469Y-67926147D02*
X1976993Y-67985671D01*
X2691279Y-69116623D02*
X2572231Y-69057100D01*
X2572231Y-69057100D02*
X2512708Y-68997576D01*
X2512708Y-68997576D02*
X2453184Y-68878528D01*
X2453184Y-68878528D02*
X2453184Y-68521385D01*
X2453184Y-68521385D02*
X2512708Y-68402338D01*
X2512708Y-68402338D02*
X2572231Y-68342814D01*
X2572231Y-68342814D02*
X2691279Y-68283290D01*
X2691279Y-68283290D02*
X2869850Y-68283290D01*
X2869850Y-68283290D02*
X2988898Y-68342814D01*
X2988898Y-68342814D02*
X3048422Y-68402338D01*
X3048422Y-68402338D02*
X3107946Y-68521385D01*
X3107946Y-68521385D02*
X3107946Y-68878528D01*
X3107946Y-68878528D02*
X3048422Y-68997576D01*
X3048422Y-68997576D02*
X2988898Y-69057100D01*
X2988898Y-69057100D02*
X2869850Y-69116623D01*
X2869850Y-69116623D02*
X2691279Y-69116623D01*
X4179374Y-69116623D02*
X4179374Y-67866623D01*
X4179374Y-69057100D02*
X4060326Y-69116623D01*
X4060326Y-69116623D02*
X3822231Y-69116623D01*
X3822231Y-69116623D02*
X3703183Y-69057100D01*
X3703183Y-69057100D02*
X3643660Y-68997576D01*
X3643660Y-68997576D02*
X3584136Y-68878528D01*
X3584136Y-68878528D02*
X3584136Y-68521385D01*
X3584136Y-68521385D02*
X3643660Y-68402338D01*
X3643660Y-68402338D02*
X3703183Y-68342814D01*
X3703183Y-68342814D02*
X3822231Y-68283290D01*
X3822231Y-68283290D02*
X4060326Y-68283290D01*
X4060326Y-68283290D02*
X4179374Y-68342814D01*
X5250802Y-69057100D02*
X5131754Y-69116623D01*
X5131754Y-69116623D02*
X4893659Y-69116623D01*
X4893659Y-69116623D02*
X4774612Y-69057100D01*
X4774612Y-69057100D02*
X4715088Y-68938052D01*
X4715088Y-68938052D02*
X4715088Y-68461861D01*
X4715088Y-68461861D02*
X4774612Y-68342814D01*
X4774612Y-68342814D02*
X4893659Y-68283290D01*
X4893659Y-68283290D02*
X5131754Y-68283290D01*
X5131754Y-68283290D02*
X5250802Y-68342814D01*
X5250802Y-68342814D02*
X5310326Y-68461861D01*
X5310326Y-68461861D02*
X5310326Y-68580909D01*
X5310326Y-68580909D02*
X4715088Y-68699957D01*
D11*
X42708646Y-66705752D02*
X42946741Y-67372419D01*
X42946741Y-67372419D02*
X43184836Y-66705752D01*
X43946741Y-67324800D02*
X43851503Y-67372419D01*
X43851503Y-67372419D02*
X43661027Y-67372419D01*
X43661027Y-67372419D02*
X43565789Y-67324800D01*
X43565789Y-67324800D02*
X43518170Y-67229561D01*
X43518170Y-67229561D02*
X43518170Y-66848609D01*
X43518170Y-66848609D02*
X43565789Y-66753371D01*
X43565789Y-66753371D02*
X43661027Y-66705752D01*
X43661027Y-66705752D02*
X43851503Y-66705752D01*
X43851503Y-66705752D02*
X43946741Y-66753371D01*
X43946741Y-66753371D02*
X43994360Y-66848609D01*
X43994360Y-66848609D02*
X43994360Y-66943847D01*
X43994360Y-66943847D02*
X43518170Y-67039085D01*
X44422932Y-67372419D02*
X44422932Y-66705752D01*
X44422932Y-66896228D02*
X44470551Y-66800990D01*
X44470551Y-66800990D02*
X44518170Y-66753371D01*
X44518170Y-66753371D02*
X44613408Y-66705752D01*
X44613408Y-66705752D02*
X44708646Y-66705752D01*
X44994361Y-67324800D02*
X45089599Y-67372419D01*
X45089599Y-67372419D02*
X45280075Y-67372419D01*
X45280075Y-67372419D02*
X45375313Y-67324800D01*
X45375313Y-67324800D02*
X45422932Y-67229561D01*
X45422932Y-67229561D02*
X45422932Y-67181942D01*
X45422932Y-67181942D02*
X45375313Y-67086704D01*
X45375313Y-67086704D02*
X45280075Y-67039085D01*
X45280075Y-67039085D02*
X45137218Y-67039085D01*
X45137218Y-67039085D02*
X45041980Y-66991466D01*
X45041980Y-66991466D02*
X44994361Y-66896228D01*
X44994361Y-66896228D02*
X44994361Y-66848609D01*
X44994361Y-66848609D02*
X45041980Y-66753371D01*
X45041980Y-66753371D02*
X45137218Y-66705752D01*
X45137218Y-66705752D02*
X45280075Y-66705752D01*
X45280075Y-66705752D02*
X45375313Y-66753371D01*
X45851504Y-67372419D02*
X45851504Y-66705752D01*
X45851504Y-66372419D02*
X45803885Y-66420038D01*
X45803885Y-66420038D02*
X45851504Y-66467657D01*
X45851504Y-66467657D02*
X45899123Y-66420038D01*
X45899123Y-66420038D02*
X45851504Y-66372419D01*
X45851504Y-66372419D02*
X45851504Y-66467657D01*
X46470551Y-67372419D02*
X46375313Y-67324800D01*
X46375313Y-67324800D02*
X46327694Y-67277180D01*
X46327694Y-67277180D02*
X46280075Y-67181942D01*
X46280075Y-67181942D02*
X46280075Y-66896228D01*
X46280075Y-66896228D02*
X46327694Y-66800990D01*
X46327694Y-66800990D02*
X46375313Y-66753371D01*
X46375313Y-66753371D02*
X46470551Y-66705752D01*
X46470551Y-66705752D02*
X46613408Y-66705752D01*
X46613408Y-66705752D02*
X46708646Y-66753371D01*
X46708646Y-66753371D02*
X46756265Y-66800990D01*
X46756265Y-66800990D02*
X46803884Y-66896228D01*
X46803884Y-66896228D02*
X46803884Y-67181942D01*
X46803884Y-67181942D02*
X46756265Y-67277180D01*
X46756265Y-67277180D02*
X46708646Y-67324800D01*
X46708646Y-67324800D02*
X46613408Y-67372419D01*
X46613408Y-67372419D02*
X46470551Y-67372419D01*
X47232456Y-66705752D02*
X47232456Y-67372419D01*
X47232456Y-66800990D02*
X47280075Y-66753371D01*
X47280075Y-66753371D02*
X47375313Y-66705752D01*
X47375313Y-66705752D02*
X47518170Y-66705752D01*
X47518170Y-66705752D02*
X47613408Y-66753371D01*
X47613408Y-66753371D02*
X47661027Y-66848609D01*
X47661027Y-66848609D02*
X47661027Y-67372419D01*
X48137218Y-67277180D02*
X48184837Y-67324800D01*
X48184837Y-67324800D02*
X48137218Y-67372419D01*
X48137218Y-67372419D02*
X48089599Y-67324800D01*
X48089599Y-67324800D02*
X48137218Y-67277180D01*
X48137218Y-67277180D02*
X48137218Y-67372419D01*
X48137218Y-66753371D02*
X48184837Y-66800990D01*
X48184837Y-66800990D02*
X48137218Y-66848609D01*
X48137218Y-66848609D02*
X48089599Y-66800990D01*
X48089599Y-66800990D02*
X48137218Y-66753371D01*
X48137218Y-66753371D02*
X48137218Y-66848609D01*
X49232456Y-66372419D02*
X49803884Y-66372419D01*
X49518170Y-67372419D02*
X49518170Y-66372419D01*
X50137218Y-67372419D02*
X50137218Y-66372419D01*
X50565789Y-67372419D02*
X50565789Y-66848609D01*
X50565789Y-66848609D02*
X50518170Y-66753371D01*
X50518170Y-66753371D02*
X50422932Y-66705752D01*
X50422932Y-66705752D02*
X50280075Y-66705752D01*
X50280075Y-66705752D02*
X50184837Y-66753371D01*
X50184837Y-66753371D02*
X50137218Y-66800990D01*
X51184837Y-67372419D02*
X51089599Y-67324800D01*
X51089599Y-67324800D02*
X51041980Y-67277180D01*
X51041980Y-67277180D02*
X50994361Y-67181942D01*
X50994361Y-67181942D02*
X50994361Y-66896228D01*
X50994361Y-66896228D02*
X51041980Y-66800990D01*
X51041980Y-66800990D02*
X51089599Y-66753371D01*
X51089599Y-66753371D02*
X51184837Y-66705752D01*
X51184837Y-66705752D02*
X51327694Y-66705752D01*
X51327694Y-66705752D02*
X51422932Y-66753371D01*
X51422932Y-66753371D02*
X51470551Y-66800990D01*
X51470551Y-66800990D02*
X51518170Y-66896228D01*
X51518170Y-66896228D02*
X51518170Y-67181942D01*
X51518170Y-67181942D02*
X51470551Y-67277180D01*
X51470551Y-67277180D02*
X51422932Y-67324800D01*
X51422932Y-67324800D02*
X51327694Y-67372419D01*
X51327694Y-67372419D02*
X51184837Y-67372419D01*
X52089599Y-67372419D02*
X51994361Y-67324800D01*
X51994361Y-67324800D02*
X51946742Y-67229561D01*
X51946742Y-67229561D02*
X51946742Y-66372419D01*
X52470552Y-67372419D02*
X52470552Y-66705752D01*
X52470552Y-66372419D02*
X52422933Y-66420038D01*
X52422933Y-66420038D02*
X52470552Y-66467657D01*
X52470552Y-66467657D02*
X52518171Y-66420038D01*
X52518171Y-66420038D02*
X52470552Y-66372419D01*
X52470552Y-66372419D02*
X52470552Y-66467657D01*
X52946742Y-66705752D02*
X52946742Y-67372419D01*
X52946742Y-66800990D02*
X52994361Y-66753371D01*
X52994361Y-66753371D02*
X53089599Y-66705752D01*
X53089599Y-66705752D02*
X53232456Y-66705752D01*
X53232456Y-66705752D02*
X53327694Y-66753371D01*
X53327694Y-66753371D02*
X53375313Y-66848609D01*
X53375313Y-66848609D02*
X53375313Y-67372419D01*
X20238095Y-1507419D02*
X20238095Y-2316942D01*
X20238095Y-2316942D02*
X20285714Y-2412180D01*
X20285714Y-2412180D02*
X20333333Y-2459800D01*
X20333333Y-2459800D02*
X20428571Y-2507419D01*
X20428571Y-2507419D02*
X20619047Y-2507419D01*
X20619047Y-2507419D02*
X20714285Y-2459800D01*
X20714285Y-2459800D02*
X20761904Y-2412180D01*
X20761904Y-2412180D02*
X20809523Y-2316942D01*
X20809523Y-2316942D02*
X20809523Y-1507419D01*
X21238095Y-1602657D02*
X21285714Y-1555038D01*
X21285714Y-1555038D02*
X21380952Y-1507419D01*
X21380952Y-1507419D02*
X21619047Y-1507419D01*
X21619047Y-1507419D02*
X21714285Y-1555038D01*
X21714285Y-1555038D02*
X21761904Y-1602657D01*
X21761904Y-1602657D02*
X21809523Y-1697895D01*
X21809523Y-1697895D02*
X21809523Y-1793133D01*
X21809523Y-1793133D02*
X21761904Y-1935990D01*
X21761904Y-1935990D02*
X21190476Y-2507419D01*
X21190476Y-2507419D02*
X21809523Y-2507419D01*
X61761905Y-17507419D02*
X61761905Y-18316942D01*
X61761905Y-18316942D02*
X61809524Y-18412180D01*
X61809524Y-18412180D02*
X61857143Y-18459800D01*
X61857143Y-18459800D02*
X61952381Y-18507419D01*
X61952381Y-18507419D02*
X62142857Y-18507419D01*
X62142857Y-18507419D02*
X62238095Y-18459800D01*
X62238095Y-18459800D02*
X62285714Y-18412180D01*
X62285714Y-18412180D02*
X62333333Y-18316942D01*
X62333333Y-18316942D02*
X62333333Y-17507419D01*
X63333333Y-18507419D02*
X62761905Y-18507419D01*
X63047619Y-18507419D02*
X63047619Y-17507419D01*
X63047619Y-17507419D02*
X62952381Y-17650276D01*
X62952381Y-17650276D02*
X62857143Y-17745514D01*
X62857143Y-17745514D02*
X62761905Y-17793133D01*
X63952381Y-17507419D02*
X64047619Y-17507419D01*
X64047619Y-17507419D02*
X64142857Y-17555038D01*
X64142857Y-17555038D02*
X64190476Y-17602657D01*
X64190476Y-17602657D02*
X64238095Y-17697895D01*
X64238095Y-17697895D02*
X64285714Y-17888371D01*
X64285714Y-17888371D02*
X64285714Y-18126466D01*
X64285714Y-18126466D02*
X64238095Y-18316942D01*
X64238095Y-18316942D02*
X64190476Y-18412180D01*
X64190476Y-18412180D02*
X64142857Y-18459800D01*
X64142857Y-18459800D02*
X64047619Y-18507419D01*
X64047619Y-18507419D02*
X63952381Y-18507419D01*
X63952381Y-18507419D02*
X63857143Y-18459800D01*
X63857143Y-18459800D02*
X63809524Y-18412180D01*
X63809524Y-18412180D02*
X63761905Y-18316942D01*
X63761905Y-18316942D02*
X63714286Y-18126466D01*
X63714286Y-18126466D02*
X63714286Y-17888371D01*
X63714286Y-17888371D02*
X63761905Y-17697895D01*
X63761905Y-17697895D02*
X63809524Y-17602657D01*
X63809524Y-17602657D02*
X63857143Y-17555038D01*
X63857143Y-17555038D02*
X63952381Y-17507419D01*
X34238095Y-1507419D02*
X34238095Y-2316942D01*
X34238095Y-2316942D02*
X34285714Y-2412180D01*
X34285714Y-2412180D02*
X34333333Y-2459800D01*
X34333333Y-2459800D02*
X34428571Y-2507419D01*
X34428571Y-2507419D02*
X34619047Y-2507419D01*
X34619047Y-2507419D02*
X34714285Y-2459800D01*
X34714285Y-2459800D02*
X34761904Y-2412180D01*
X34761904Y-2412180D02*
X34809523Y-2316942D01*
X34809523Y-2316942D02*
X34809523Y-1507419D01*
X35190476Y-1507419D02*
X35809523Y-1507419D01*
X35809523Y-1507419D02*
X35476190Y-1888371D01*
X35476190Y-1888371D02*
X35619047Y-1888371D01*
X35619047Y-1888371D02*
X35714285Y-1935990D01*
X35714285Y-1935990D02*
X35761904Y-1983609D01*
X35761904Y-1983609D02*
X35809523Y-2078847D01*
X35809523Y-2078847D02*
X35809523Y-2316942D01*
X35809523Y-2316942D02*
X35761904Y-2412180D01*
X35761904Y-2412180D02*
X35714285Y-2459800D01*
X35714285Y-2459800D02*
X35619047Y-2507419D01*
X35619047Y-2507419D02*
X35333333Y-2507419D01*
X35333333Y-2507419D02*
X35238095Y-2459800D01*
X35238095Y-2459800D02*
X35190476Y-2412180D01*
X5761905Y-33507419D02*
X5761905Y-34316942D01*
X5761905Y-34316942D02*
X5809524Y-34412180D01*
X5809524Y-34412180D02*
X5857143Y-34459800D01*
X5857143Y-34459800D02*
X5952381Y-34507419D01*
X5952381Y-34507419D02*
X6142857Y-34507419D01*
X6142857Y-34507419D02*
X6238095Y-34459800D01*
X6238095Y-34459800D02*
X6285714Y-34412180D01*
X6285714Y-34412180D02*
X6333333Y-34316942D01*
X6333333Y-34316942D02*
X6333333Y-33507419D01*
X7333333Y-34507419D02*
X6761905Y-34507419D01*
X7047619Y-34507419D02*
X7047619Y-33507419D01*
X7047619Y-33507419D02*
X6952381Y-33650276D01*
X6952381Y-33650276D02*
X6857143Y-33745514D01*
X6857143Y-33745514D02*
X6761905Y-33793133D01*
X8285714Y-34507419D02*
X7714286Y-34507419D01*
X8000000Y-34507419D02*
X8000000Y-33507419D01*
X8000000Y-33507419D02*
X7904762Y-33650276D01*
X7904762Y-33650276D02*
X7809524Y-33745514D01*
X7809524Y-33745514D02*
X7714286Y-33793133D01*
X20238095Y-17507419D02*
X20238095Y-18316942D01*
X20238095Y-18316942D02*
X20285714Y-18412180D01*
X20285714Y-18412180D02*
X20333333Y-18459800D01*
X20333333Y-18459800D02*
X20428571Y-18507419D01*
X20428571Y-18507419D02*
X20619047Y-18507419D01*
X20619047Y-18507419D02*
X20714285Y-18459800D01*
X20714285Y-18459800D02*
X20761904Y-18412180D01*
X20761904Y-18412180D02*
X20809523Y-18316942D01*
X20809523Y-18316942D02*
X20809523Y-17507419D01*
X21190476Y-17507419D02*
X21857142Y-17507419D01*
X21857142Y-17507419D02*
X21428571Y-18507419D01*
X61761905Y-33507419D02*
X61761905Y-34316942D01*
X61761905Y-34316942D02*
X61809524Y-34412180D01*
X61809524Y-34412180D02*
X61857143Y-34459800D01*
X61857143Y-34459800D02*
X61952381Y-34507419D01*
X61952381Y-34507419D02*
X62142857Y-34507419D01*
X62142857Y-34507419D02*
X62238095Y-34459800D01*
X62238095Y-34459800D02*
X62285714Y-34412180D01*
X62285714Y-34412180D02*
X62333333Y-34316942D01*
X62333333Y-34316942D02*
X62333333Y-33507419D01*
X63333333Y-34507419D02*
X62761905Y-34507419D01*
X63047619Y-34507419D02*
X63047619Y-33507419D01*
X63047619Y-33507419D02*
X62952381Y-33650276D01*
X62952381Y-33650276D02*
X62857143Y-33745514D01*
X62857143Y-33745514D02*
X62761905Y-33793133D01*
X64238095Y-33507419D02*
X63761905Y-33507419D01*
X63761905Y-33507419D02*
X63714286Y-33983609D01*
X63714286Y-33983609D02*
X63761905Y-33935990D01*
X63761905Y-33935990D02*
X63857143Y-33888371D01*
X63857143Y-33888371D02*
X64095238Y-33888371D01*
X64095238Y-33888371D02*
X64190476Y-33935990D01*
X64190476Y-33935990D02*
X64238095Y-33983609D01*
X64238095Y-33983609D02*
X64285714Y-34078847D01*
X64285714Y-34078847D02*
X64285714Y-34316942D01*
X64285714Y-34316942D02*
X64238095Y-34412180D01*
X64238095Y-34412180D02*
X64190476Y-34459800D01*
X64190476Y-34459800D02*
X64095238Y-34507419D01*
X64095238Y-34507419D02*
X63857143Y-34507419D01*
X63857143Y-34507419D02*
X63761905Y-34459800D01*
X63761905Y-34459800D02*
X63714286Y-34412180D01*
X48238095Y-17507419D02*
X48238095Y-18316942D01*
X48238095Y-18316942D02*
X48285714Y-18412180D01*
X48285714Y-18412180D02*
X48333333Y-18459800D01*
X48333333Y-18459800D02*
X48428571Y-18507419D01*
X48428571Y-18507419D02*
X48619047Y-18507419D01*
X48619047Y-18507419D02*
X48714285Y-18459800D01*
X48714285Y-18459800D02*
X48761904Y-18412180D01*
X48761904Y-18412180D02*
X48809523Y-18316942D01*
X48809523Y-18316942D02*
X48809523Y-17507419D01*
X49333333Y-18507419D02*
X49523809Y-18507419D01*
X49523809Y-18507419D02*
X49619047Y-18459800D01*
X49619047Y-18459800D02*
X49666666Y-18412180D01*
X49666666Y-18412180D02*
X49761904Y-18269323D01*
X49761904Y-18269323D02*
X49809523Y-18078847D01*
X49809523Y-18078847D02*
X49809523Y-17697895D01*
X49809523Y-17697895D02*
X49761904Y-17602657D01*
X49761904Y-17602657D02*
X49714285Y-17555038D01*
X49714285Y-17555038D02*
X49619047Y-17507419D01*
X49619047Y-17507419D02*
X49428571Y-17507419D01*
X49428571Y-17507419D02*
X49333333Y-17555038D01*
X49333333Y-17555038D02*
X49285714Y-17602657D01*
X49285714Y-17602657D02*
X49238095Y-17697895D01*
X49238095Y-17697895D02*
X49238095Y-17935990D01*
X49238095Y-17935990D02*
X49285714Y-18031228D01*
X49285714Y-18031228D02*
X49333333Y-18078847D01*
X49333333Y-18078847D02*
X49428571Y-18126466D01*
X49428571Y-18126466D02*
X49619047Y-18126466D01*
X49619047Y-18126466D02*
X49714285Y-18078847D01*
X49714285Y-18078847D02*
X49761904Y-18031228D01*
X49761904Y-18031228D02*
X49809523Y-17935990D01*
X19761905Y-49507419D02*
X19761905Y-50316942D01*
X19761905Y-50316942D02*
X19809524Y-50412180D01*
X19809524Y-50412180D02*
X19857143Y-50459800D01*
X19857143Y-50459800D02*
X19952381Y-50507419D01*
X19952381Y-50507419D02*
X20142857Y-50507419D01*
X20142857Y-50507419D02*
X20238095Y-50459800D01*
X20238095Y-50459800D02*
X20285714Y-50412180D01*
X20285714Y-50412180D02*
X20333333Y-50316942D01*
X20333333Y-50316942D02*
X20333333Y-49507419D01*
X21333333Y-50507419D02*
X20761905Y-50507419D01*
X21047619Y-50507419D02*
X21047619Y-49507419D01*
X21047619Y-49507419D02*
X20952381Y-49650276D01*
X20952381Y-49650276D02*
X20857143Y-49745514D01*
X20857143Y-49745514D02*
X20761905Y-49793133D01*
X21666667Y-49507419D02*
X22333333Y-49507419D01*
X22333333Y-49507419D02*
X21904762Y-50507419D01*
X6238095Y-1507419D02*
X6238095Y-2316942D01*
X6238095Y-2316942D02*
X6285714Y-2412180D01*
X6285714Y-2412180D02*
X6333333Y-2459800D01*
X6333333Y-2459800D02*
X6428571Y-2507419D01*
X6428571Y-2507419D02*
X6619047Y-2507419D01*
X6619047Y-2507419D02*
X6714285Y-2459800D01*
X6714285Y-2459800D02*
X6761904Y-2412180D01*
X6761904Y-2412180D02*
X6809523Y-2316942D01*
X6809523Y-2316942D02*
X6809523Y-1507419D01*
X7809523Y-2507419D02*
X7238095Y-2507419D01*
X7523809Y-2507419D02*
X7523809Y-1507419D01*
X7523809Y-1507419D02*
X7428571Y-1650276D01*
X7428571Y-1650276D02*
X7333333Y-1745514D01*
X7333333Y-1745514D02*
X7238095Y-1793133D01*
X47761905Y-49507419D02*
X47761905Y-50316942D01*
X47761905Y-50316942D02*
X47809524Y-50412180D01*
X47809524Y-50412180D02*
X47857143Y-50459800D01*
X47857143Y-50459800D02*
X47952381Y-50507419D01*
X47952381Y-50507419D02*
X48142857Y-50507419D01*
X48142857Y-50507419D02*
X48238095Y-50459800D01*
X48238095Y-50459800D02*
X48285714Y-50412180D01*
X48285714Y-50412180D02*
X48333333Y-50316942D01*
X48333333Y-50316942D02*
X48333333Y-49507419D01*
X49333333Y-50507419D02*
X48761905Y-50507419D01*
X49047619Y-50507419D02*
X49047619Y-49507419D01*
X49047619Y-49507419D02*
X48952381Y-49650276D01*
X48952381Y-49650276D02*
X48857143Y-49745514D01*
X48857143Y-49745514D02*
X48761905Y-49793133D01*
X49809524Y-50507419D02*
X50000000Y-50507419D01*
X50000000Y-50507419D02*
X50095238Y-50459800D01*
X50095238Y-50459800D02*
X50142857Y-50412180D01*
X50142857Y-50412180D02*
X50238095Y-50269323D01*
X50238095Y-50269323D02*
X50285714Y-50078847D01*
X50285714Y-50078847D02*
X50285714Y-49697895D01*
X50285714Y-49697895D02*
X50238095Y-49602657D01*
X50238095Y-49602657D02*
X50190476Y-49555038D01*
X50190476Y-49555038D02*
X50095238Y-49507419D01*
X50095238Y-49507419D02*
X49904762Y-49507419D01*
X49904762Y-49507419D02*
X49809524Y-49555038D01*
X49809524Y-49555038D02*
X49761905Y-49602657D01*
X49761905Y-49602657D02*
X49714286Y-49697895D01*
X49714286Y-49697895D02*
X49714286Y-49935990D01*
X49714286Y-49935990D02*
X49761905Y-50031228D01*
X49761905Y-50031228D02*
X49809524Y-50078847D01*
X49809524Y-50078847D02*
X49904762Y-50126466D01*
X49904762Y-50126466D02*
X50095238Y-50126466D01*
X50095238Y-50126466D02*
X50190476Y-50078847D01*
X50190476Y-50078847D02*
X50238095Y-50031228D01*
X50238095Y-50031228D02*
X50285714Y-49935990D01*
X33761905Y-49507419D02*
X33761905Y-50316942D01*
X33761905Y-50316942D02*
X33809524Y-50412180D01*
X33809524Y-50412180D02*
X33857143Y-50459800D01*
X33857143Y-50459800D02*
X33952381Y-50507419D01*
X33952381Y-50507419D02*
X34142857Y-50507419D01*
X34142857Y-50507419D02*
X34238095Y-50459800D01*
X34238095Y-50459800D02*
X34285714Y-50412180D01*
X34285714Y-50412180D02*
X34333333Y-50316942D01*
X34333333Y-50316942D02*
X34333333Y-49507419D01*
X35333333Y-50507419D02*
X34761905Y-50507419D01*
X35047619Y-50507419D02*
X35047619Y-49507419D01*
X35047619Y-49507419D02*
X34952381Y-49650276D01*
X34952381Y-49650276D02*
X34857143Y-49745514D01*
X34857143Y-49745514D02*
X34761905Y-49793133D01*
X35904762Y-49935990D02*
X35809524Y-49888371D01*
X35809524Y-49888371D02*
X35761905Y-49840752D01*
X35761905Y-49840752D02*
X35714286Y-49745514D01*
X35714286Y-49745514D02*
X35714286Y-49697895D01*
X35714286Y-49697895D02*
X35761905Y-49602657D01*
X35761905Y-49602657D02*
X35809524Y-49555038D01*
X35809524Y-49555038D02*
X35904762Y-49507419D01*
X35904762Y-49507419D02*
X36095238Y-49507419D01*
X36095238Y-49507419D02*
X36190476Y-49555038D01*
X36190476Y-49555038D02*
X36238095Y-49602657D01*
X36238095Y-49602657D02*
X36285714Y-49697895D01*
X36285714Y-49697895D02*
X36285714Y-49745514D01*
X36285714Y-49745514D02*
X36238095Y-49840752D01*
X36238095Y-49840752D02*
X36190476Y-49888371D01*
X36190476Y-49888371D02*
X36095238Y-49935990D01*
X36095238Y-49935990D02*
X35904762Y-49935990D01*
X35904762Y-49935990D02*
X35809524Y-49983609D01*
X35809524Y-49983609D02*
X35761905Y-50031228D01*
X35761905Y-50031228D02*
X35714286Y-50126466D01*
X35714286Y-50126466D02*
X35714286Y-50316942D01*
X35714286Y-50316942D02*
X35761905Y-50412180D01*
X35761905Y-50412180D02*
X35809524Y-50459800D01*
X35809524Y-50459800D02*
X35904762Y-50507419D01*
X35904762Y-50507419D02*
X36095238Y-50507419D01*
X36095238Y-50507419D02*
X36190476Y-50459800D01*
X36190476Y-50459800D02*
X36238095Y-50412180D01*
X36238095Y-50412180D02*
X36285714Y-50316942D01*
X36285714Y-50316942D02*
X36285714Y-50126466D01*
X36285714Y-50126466D02*
X36238095Y-50031228D01*
X36238095Y-50031228D02*
X36190476Y-49983609D01*
X36190476Y-49983609D02*
X36095238Y-49935990D01*
X5761905Y-49507419D02*
X5761905Y-50316942D01*
X5761905Y-50316942D02*
X5809524Y-50412180D01*
X5809524Y-50412180D02*
X5857143Y-50459800D01*
X5857143Y-50459800D02*
X5952381Y-50507419D01*
X5952381Y-50507419D02*
X6142857Y-50507419D01*
X6142857Y-50507419D02*
X6238095Y-50459800D01*
X6238095Y-50459800D02*
X6285714Y-50412180D01*
X6285714Y-50412180D02*
X6333333Y-50316942D01*
X6333333Y-50316942D02*
X6333333Y-49507419D01*
X7333333Y-50507419D02*
X6761905Y-50507419D01*
X7047619Y-50507419D02*
X7047619Y-49507419D01*
X7047619Y-49507419D02*
X6952381Y-49650276D01*
X6952381Y-49650276D02*
X6857143Y-49745514D01*
X6857143Y-49745514D02*
X6761905Y-49793133D01*
X8190476Y-49507419D02*
X8000000Y-49507419D01*
X8000000Y-49507419D02*
X7904762Y-49555038D01*
X7904762Y-49555038D02*
X7857143Y-49602657D01*
X7857143Y-49602657D02*
X7761905Y-49745514D01*
X7761905Y-49745514D02*
X7714286Y-49935990D01*
X7714286Y-49935990D02*
X7714286Y-50316942D01*
X7714286Y-50316942D02*
X7761905Y-50412180D01*
X7761905Y-50412180D02*
X7809524Y-50459800D01*
X7809524Y-50459800D02*
X7904762Y-50507419D01*
X7904762Y-50507419D02*
X8095238Y-50507419D01*
X8095238Y-50507419D02*
X8190476Y-50459800D01*
X8190476Y-50459800D02*
X8238095Y-50412180D01*
X8238095Y-50412180D02*
X8285714Y-50316942D01*
X8285714Y-50316942D02*
X8285714Y-50078847D01*
X8285714Y-50078847D02*
X8238095Y-49983609D01*
X8238095Y-49983609D02*
X8190476Y-49935990D01*
X8190476Y-49935990D02*
X8095238Y-49888371D01*
X8095238Y-49888371D02*
X7904762Y-49888371D01*
X7904762Y-49888371D02*
X7809524Y-49935990D01*
X7809524Y-49935990D02*
X7761905Y-49983609D01*
X7761905Y-49983609D02*
X7714286Y-50078847D01*
X6238095Y-17507419D02*
X6238095Y-18316942D01*
X6238095Y-18316942D02*
X6285714Y-18412180D01*
X6285714Y-18412180D02*
X6333333Y-18459800D01*
X6333333Y-18459800D02*
X6428571Y-18507419D01*
X6428571Y-18507419D02*
X6619047Y-18507419D01*
X6619047Y-18507419D02*
X6714285Y-18459800D01*
X6714285Y-18459800D02*
X6761904Y-18412180D01*
X6761904Y-18412180D02*
X6809523Y-18316942D01*
X6809523Y-18316942D02*
X6809523Y-17507419D01*
X7714285Y-17507419D02*
X7523809Y-17507419D01*
X7523809Y-17507419D02*
X7428571Y-17555038D01*
X7428571Y-17555038D02*
X7380952Y-17602657D01*
X7380952Y-17602657D02*
X7285714Y-17745514D01*
X7285714Y-17745514D02*
X7238095Y-17935990D01*
X7238095Y-17935990D02*
X7238095Y-18316942D01*
X7238095Y-18316942D02*
X7285714Y-18412180D01*
X7285714Y-18412180D02*
X7333333Y-18459800D01*
X7333333Y-18459800D02*
X7428571Y-18507419D01*
X7428571Y-18507419D02*
X7619047Y-18507419D01*
X7619047Y-18507419D02*
X7714285Y-18459800D01*
X7714285Y-18459800D02*
X7761904Y-18412180D01*
X7761904Y-18412180D02*
X7809523Y-18316942D01*
X7809523Y-18316942D02*
X7809523Y-18078847D01*
X7809523Y-18078847D02*
X7761904Y-17983609D01*
X7761904Y-17983609D02*
X7714285Y-17935990D01*
X7714285Y-17935990D02*
X7619047Y-17888371D01*
X7619047Y-17888371D02*
X7428571Y-17888371D01*
X7428571Y-17888371D02*
X7333333Y-17935990D01*
X7333333Y-17935990D02*
X7285714Y-17983609D01*
X7285714Y-17983609D02*
X7238095Y-18078847D01*
X61761905Y-49507419D02*
X61761905Y-50316942D01*
X61761905Y-50316942D02*
X61809524Y-50412180D01*
X61809524Y-50412180D02*
X61857143Y-50459800D01*
X61857143Y-50459800D02*
X61952381Y-50507419D01*
X61952381Y-50507419D02*
X62142857Y-50507419D01*
X62142857Y-50507419D02*
X62238095Y-50459800D01*
X62238095Y-50459800D02*
X62285714Y-50412180D01*
X62285714Y-50412180D02*
X62333333Y-50316942D01*
X62333333Y-50316942D02*
X62333333Y-49507419D01*
X62761905Y-49602657D02*
X62809524Y-49555038D01*
X62809524Y-49555038D02*
X62904762Y-49507419D01*
X62904762Y-49507419D02*
X63142857Y-49507419D01*
X63142857Y-49507419D02*
X63238095Y-49555038D01*
X63238095Y-49555038D02*
X63285714Y-49602657D01*
X63285714Y-49602657D02*
X63333333Y-49697895D01*
X63333333Y-49697895D02*
X63333333Y-49793133D01*
X63333333Y-49793133D02*
X63285714Y-49935990D01*
X63285714Y-49935990D02*
X62714286Y-50507419D01*
X62714286Y-50507419D02*
X63333333Y-50507419D01*
X63952381Y-49507419D02*
X64047619Y-49507419D01*
X64047619Y-49507419D02*
X64142857Y-49555038D01*
X64142857Y-49555038D02*
X64190476Y-49602657D01*
X64190476Y-49602657D02*
X64238095Y-49697895D01*
X64238095Y-49697895D02*
X64285714Y-49888371D01*
X64285714Y-49888371D02*
X64285714Y-50126466D01*
X64285714Y-50126466D02*
X64238095Y-50316942D01*
X64238095Y-50316942D02*
X64190476Y-50412180D01*
X64190476Y-50412180D02*
X64142857Y-50459800D01*
X64142857Y-50459800D02*
X64047619Y-50507419D01*
X64047619Y-50507419D02*
X63952381Y-50507419D01*
X63952381Y-50507419D02*
X63857143Y-50459800D01*
X63857143Y-50459800D02*
X63809524Y-50412180D01*
X63809524Y-50412180D02*
X63761905Y-50316942D01*
X63761905Y-50316942D02*
X63714286Y-50126466D01*
X63714286Y-50126466D02*
X63714286Y-49888371D01*
X63714286Y-49888371D02*
X63761905Y-49697895D01*
X63761905Y-49697895D02*
X63809524Y-49602657D01*
X63809524Y-49602657D02*
X63857143Y-49555038D01*
X63857143Y-49555038D02*
X63952381Y-49507419D01*
X48238095Y-1507419D02*
X48238095Y-2316942D01*
X48238095Y-2316942D02*
X48285714Y-2412180D01*
X48285714Y-2412180D02*
X48333333Y-2459800D01*
X48333333Y-2459800D02*
X48428571Y-2507419D01*
X48428571Y-2507419D02*
X48619047Y-2507419D01*
X48619047Y-2507419D02*
X48714285Y-2459800D01*
X48714285Y-2459800D02*
X48761904Y-2412180D01*
X48761904Y-2412180D02*
X48809523Y-2316942D01*
X48809523Y-2316942D02*
X48809523Y-1507419D01*
X49714285Y-1840752D02*
X49714285Y-2507419D01*
X49476190Y-1459800D02*
X49238095Y-2174085D01*
X49238095Y-2174085D02*
X49857142Y-2174085D01*
X62238095Y-1507419D02*
X62238095Y-2316942D01*
X62238095Y-2316942D02*
X62285714Y-2412180D01*
X62285714Y-2412180D02*
X62333333Y-2459800D01*
X62333333Y-2459800D02*
X62428571Y-2507419D01*
X62428571Y-2507419D02*
X62619047Y-2507419D01*
X62619047Y-2507419D02*
X62714285Y-2459800D01*
X62714285Y-2459800D02*
X62761904Y-2412180D01*
X62761904Y-2412180D02*
X62809523Y-2316942D01*
X62809523Y-2316942D02*
X62809523Y-1507419D01*
X63761904Y-1507419D02*
X63285714Y-1507419D01*
X63285714Y-1507419D02*
X63238095Y-1983609D01*
X63238095Y-1983609D02*
X63285714Y-1935990D01*
X63285714Y-1935990D02*
X63380952Y-1888371D01*
X63380952Y-1888371D02*
X63619047Y-1888371D01*
X63619047Y-1888371D02*
X63714285Y-1935990D01*
X63714285Y-1935990D02*
X63761904Y-1983609D01*
X63761904Y-1983609D02*
X63809523Y-2078847D01*
X63809523Y-2078847D02*
X63809523Y-2316942D01*
X63809523Y-2316942D02*
X63761904Y-2412180D01*
X63761904Y-2412180D02*
X63714285Y-2459800D01*
X63714285Y-2459800D02*
X63619047Y-2507419D01*
X63619047Y-2507419D02*
X63380952Y-2507419D01*
X63380952Y-2507419D02*
X63285714Y-2459800D01*
X63285714Y-2459800D02*
X63238095Y-2412180D01*
X19761905Y-33507419D02*
X19761905Y-34316942D01*
X19761905Y-34316942D02*
X19809524Y-34412180D01*
X19809524Y-34412180D02*
X19857143Y-34459800D01*
X19857143Y-34459800D02*
X19952381Y-34507419D01*
X19952381Y-34507419D02*
X20142857Y-34507419D01*
X20142857Y-34507419D02*
X20238095Y-34459800D01*
X20238095Y-34459800D02*
X20285714Y-34412180D01*
X20285714Y-34412180D02*
X20333333Y-34316942D01*
X20333333Y-34316942D02*
X20333333Y-33507419D01*
X21333333Y-34507419D02*
X20761905Y-34507419D01*
X21047619Y-34507419D02*
X21047619Y-33507419D01*
X21047619Y-33507419D02*
X20952381Y-33650276D01*
X20952381Y-33650276D02*
X20857143Y-33745514D01*
X20857143Y-33745514D02*
X20761905Y-33793133D01*
X21714286Y-33602657D02*
X21761905Y-33555038D01*
X21761905Y-33555038D02*
X21857143Y-33507419D01*
X21857143Y-33507419D02*
X22095238Y-33507419D01*
X22095238Y-33507419D02*
X22190476Y-33555038D01*
X22190476Y-33555038D02*
X22238095Y-33602657D01*
X22238095Y-33602657D02*
X22285714Y-33697895D01*
X22285714Y-33697895D02*
X22285714Y-33793133D01*
X22285714Y-33793133D02*
X22238095Y-33935990D01*
X22238095Y-33935990D02*
X21666667Y-34507419D01*
X21666667Y-34507419D02*
X22285714Y-34507419D01*
X47761905Y-33507419D02*
X47761905Y-34316942D01*
X47761905Y-34316942D02*
X47809524Y-34412180D01*
X47809524Y-34412180D02*
X47857143Y-34459800D01*
X47857143Y-34459800D02*
X47952381Y-34507419D01*
X47952381Y-34507419D02*
X48142857Y-34507419D01*
X48142857Y-34507419D02*
X48238095Y-34459800D01*
X48238095Y-34459800D02*
X48285714Y-34412180D01*
X48285714Y-34412180D02*
X48333333Y-34316942D01*
X48333333Y-34316942D02*
X48333333Y-33507419D01*
X49333333Y-34507419D02*
X48761905Y-34507419D01*
X49047619Y-34507419D02*
X49047619Y-33507419D01*
X49047619Y-33507419D02*
X48952381Y-33650276D01*
X48952381Y-33650276D02*
X48857143Y-33745514D01*
X48857143Y-33745514D02*
X48761905Y-33793133D01*
X50190476Y-33840752D02*
X50190476Y-34507419D01*
X49952381Y-33459800D02*
X49714286Y-34174085D01*
X49714286Y-34174085D02*
X50333333Y-34174085D01*
X34238095Y-17507419D02*
X34238095Y-18316942D01*
X34238095Y-18316942D02*
X34285714Y-18412180D01*
X34285714Y-18412180D02*
X34333333Y-18459800D01*
X34333333Y-18459800D02*
X34428571Y-18507419D01*
X34428571Y-18507419D02*
X34619047Y-18507419D01*
X34619047Y-18507419D02*
X34714285Y-18459800D01*
X34714285Y-18459800D02*
X34761904Y-18412180D01*
X34761904Y-18412180D02*
X34809523Y-18316942D01*
X34809523Y-18316942D02*
X34809523Y-17507419D01*
X35428571Y-17935990D02*
X35333333Y-17888371D01*
X35333333Y-17888371D02*
X35285714Y-17840752D01*
X35285714Y-17840752D02*
X35238095Y-17745514D01*
X35238095Y-17745514D02*
X35238095Y-17697895D01*
X35238095Y-17697895D02*
X35285714Y-17602657D01*
X35285714Y-17602657D02*
X35333333Y-17555038D01*
X35333333Y-17555038D02*
X35428571Y-17507419D01*
X35428571Y-17507419D02*
X35619047Y-17507419D01*
X35619047Y-17507419D02*
X35714285Y-17555038D01*
X35714285Y-17555038D02*
X35761904Y-17602657D01*
X35761904Y-17602657D02*
X35809523Y-17697895D01*
X35809523Y-17697895D02*
X35809523Y-17745514D01*
X35809523Y-17745514D02*
X35761904Y-17840752D01*
X35761904Y-17840752D02*
X35714285Y-17888371D01*
X35714285Y-17888371D02*
X35619047Y-17935990D01*
X35619047Y-17935990D02*
X35428571Y-17935990D01*
X35428571Y-17935990D02*
X35333333Y-17983609D01*
X35333333Y-17983609D02*
X35285714Y-18031228D01*
X35285714Y-18031228D02*
X35238095Y-18126466D01*
X35238095Y-18126466D02*
X35238095Y-18316942D01*
X35238095Y-18316942D02*
X35285714Y-18412180D01*
X35285714Y-18412180D02*
X35333333Y-18459800D01*
X35333333Y-18459800D02*
X35428571Y-18507419D01*
X35428571Y-18507419D02*
X35619047Y-18507419D01*
X35619047Y-18507419D02*
X35714285Y-18459800D01*
X35714285Y-18459800D02*
X35761904Y-18412180D01*
X35761904Y-18412180D02*
X35809523Y-18316942D01*
X35809523Y-18316942D02*
X35809523Y-18126466D01*
X35809523Y-18126466D02*
X35761904Y-18031228D01*
X35761904Y-18031228D02*
X35714285Y-17983609D01*
X35714285Y-17983609D02*
X35619047Y-17935990D01*
X33761905Y-33507419D02*
X33761905Y-34316942D01*
X33761905Y-34316942D02*
X33809524Y-34412180D01*
X33809524Y-34412180D02*
X33857143Y-34459800D01*
X33857143Y-34459800D02*
X33952381Y-34507419D01*
X33952381Y-34507419D02*
X34142857Y-34507419D01*
X34142857Y-34507419D02*
X34238095Y-34459800D01*
X34238095Y-34459800D02*
X34285714Y-34412180D01*
X34285714Y-34412180D02*
X34333333Y-34316942D01*
X34333333Y-34316942D02*
X34333333Y-33507419D01*
X35333333Y-34507419D02*
X34761905Y-34507419D01*
X35047619Y-34507419D02*
X35047619Y-33507419D01*
X35047619Y-33507419D02*
X34952381Y-33650276D01*
X34952381Y-33650276D02*
X34857143Y-33745514D01*
X34857143Y-33745514D02*
X34761905Y-33793133D01*
X35666667Y-33507419D02*
X36285714Y-33507419D01*
X36285714Y-33507419D02*
X35952381Y-33888371D01*
X35952381Y-33888371D02*
X36095238Y-33888371D01*
X36095238Y-33888371D02*
X36190476Y-33935990D01*
X36190476Y-33935990D02*
X36238095Y-33983609D01*
X36238095Y-33983609D02*
X36285714Y-34078847D01*
X36285714Y-34078847D02*
X36285714Y-34316942D01*
X36285714Y-34316942D02*
X36238095Y-34412180D01*
X36238095Y-34412180D02*
X36190476Y-34459800D01*
X36190476Y-34459800D02*
X36095238Y-34507419D01*
X36095238Y-34507419D02*
X35809524Y-34507419D01*
X35809524Y-34507419D02*
X35714286Y-34459800D01*
X35714286Y-34459800D02*
X35666667Y-34412180D01*
G04 #@! TO.C,U2*
D10*
X25450000Y-3400000D02*
G75*
G02*
X25050000Y-3400000I-200000J0D01*
G01*
X25050000Y-3400000D02*
G75*
G02*
X25450000Y-3400000I200000J0D01*
G01*
G04 #@! TO.C,U10*
X67450000Y-19400000D02*
G75*
G02*
X67050000Y-19400000I-200000J0D01*
G01*
X67050000Y-19400000D02*
G75*
G02*
X67450000Y-19400000I200000J0D01*
G01*
G04 #@! TO.C,U3*
X39450000Y-3400000D02*
G75*
G02*
X39050000Y-3400000I-200000J0D01*
G01*
X39050000Y-3400000D02*
G75*
G02*
X39450000Y-3400000I200000J0D01*
G01*
G04 #@! TO.C,U11*
X11450000Y-35400000D02*
G75*
G02*
X11050000Y-35400000I-200000J0D01*
G01*
X11050000Y-35400000D02*
G75*
G02*
X11450000Y-35400000I200000J0D01*
G01*
G04 #@! TO.C,U7*
X25450000Y-19400000D02*
G75*
G02*
X25050000Y-19400000I-200000J0D01*
G01*
X25050000Y-19400000D02*
G75*
G02*
X25450000Y-19400000I200000J0D01*
G01*
G04 #@! TO.C,U15*
X67450000Y-35400000D02*
G75*
G02*
X67050000Y-35400000I-200000J0D01*
G01*
X67050000Y-35400000D02*
G75*
G02*
X67450000Y-35400000I200000J0D01*
G01*
G04 #@! TO.C,U9*
X53450000Y-19400000D02*
G75*
G02*
X53050000Y-19400000I-200000J0D01*
G01*
X53050000Y-19400000D02*
G75*
G02*
X53450000Y-19400000I200000J0D01*
G01*
G04 #@! TO.C,U17*
X25450000Y-51400000D02*
G75*
G02*
X25050000Y-51400000I-200000J0D01*
G01*
X25050000Y-51400000D02*
G75*
G02*
X25450000Y-51400000I200000J0D01*
G01*
G04 #@! TO.C,U1*
X11450000Y-3400000D02*
G75*
G02*
X11050000Y-3400000I-200000J0D01*
G01*
X11050000Y-3400000D02*
G75*
G02*
X11450000Y-3400000I200000J0D01*
G01*
G04 #@! TO.C,U19*
X53450000Y-51400000D02*
G75*
G02*
X53050000Y-51400000I-200000J0D01*
G01*
X53050000Y-51400000D02*
G75*
G02*
X53450000Y-51400000I200000J0D01*
G01*
G04 #@! TO.C,U18*
X39450000Y-51400000D02*
G75*
G02*
X39050000Y-51400000I-200000J0D01*
G01*
X39050000Y-51400000D02*
G75*
G02*
X39450000Y-51400000I200000J0D01*
G01*
G04 #@! TO.C,U16*
X11450000Y-51400000D02*
G75*
G02*
X11050000Y-51400000I-200000J0D01*
G01*
X11050000Y-51400000D02*
G75*
G02*
X11450000Y-51400000I200000J0D01*
G01*
G04 #@! TO.C,U6*
X11450000Y-19400000D02*
G75*
G02*
X11050000Y-19400000I-200000J0D01*
G01*
X11050000Y-19400000D02*
G75*
G02*
X11450000Y-19400000I200000J0D01*
G01*
G04 #@! TO.C,U20*
X67450000Y-51400000D02*
G75*
G02*
X67050000Y-51400000I-200000J0D01*
G01*
X67050000Y-51400000D02*
G75*
G02*
X67450000Y-51400000I200000J0D01*
G01*
G04 #@! TO.C,U4*
X53450000Y-3400000D02*
G75*
G02*
X53050000Y-3400000I-200000J0D01*
G01*
X53050000Y-3400000D02*
G75*
G02*
X53450000Y-3400000I200000J0D01*
G01*
G04 #@! TO.C,U5*
X67450000Y-3400000D02*
G75*
G02*
X67050000Y-3400000I-200000J0D01*
G01*
X67050000Y-3400000D02*
G75*
G02*
X67450000Y-3400000I200000J0D01*
G01*
G04 #@! TO.C,U12*
X25450000Y-35400000D02*
G75*
G02*
X25050000Y-35400000I-200000J0D01*
G01*
X25050000Y-35400000D02*
G75*
G02*
X25450000Y-35400000I200000J0D01*
G01*
G04 #@! TO.C,U14*
X53450000Y-35400000D02*
G75*
G02*
X53050000Y-35400000I-200000J0D01*
G01*
X53050000Y-35400000D02*
G75*
G02*
X53450000Y-35400000I200000J0D01*
G01*
G04 #@! TO.C,U8*
X39450000Y-19400000D02*
G75*
G02*
X39050000Y-19400000I-200000J0D01*
G01*
X39050000Y-19400000D02*
G75*
G02*
X39450000Y-19400000I200000J0D01*
G01*
G04 #@! TO.C,U13*
X39450000Y-35400000D02*
G75*
G02*
X39050000Y-35400000I-200000J0D01*
G01*
X39050000Y-35400000D02*
G75*
G02*
X39450000Y-35400000I200000J0D01*
G01*
G04 #@! TD*
%LPC*%
G04 #@! TO.C,U2*
D11*
X16300000Y-2920000D02*
X25700000Y-2920000D01*
X25700000Y-13150000D01*
X16300000Y-13150000D01*
X16300000Y-2920000D01*
G36*
X16300000Y-2920000D02*
G01*
X25700000Y-2920000D01*
X25700000Y-13150000D01*
X16300000Y-13150000D01*
X16300000Y-2920000D01*
G37*
G04 #@! TO.C,U10*
X58300000Y-18920000D02*
X67700000Y-18920000D01*
X67700000Y-29150000D01*
X58300000Y-29150000D01*
X58300000Y-18920000D01*
G36*
X58300000Y-18920000D02*
G01*
X67700000Y-18920000D01*
X67700000Y-29150000D01*
X58300000Y-29150000D01*
X58300000Y-18920000D01*
G37*
G04 #@! TO.C,U3*
X30300000Y-2920000D02*
X39700000Y-2920000D01*
X39700000Y-13150000D01*
X30300000Y-13150000D01*
X30300000Y-2920000D01*
G36*
X30300000Y-2920000D02*
G01*
X39700000Y-2920000D01*
X39700000Y-13150000D01*
X30300000Y-13150000D01*
X30300000Y-2920000D01*
G37*
G04 #@! TO.C,U11*
X2300000Y-34920000D02*
X11700000Y-34920000D01*
X11700000Y-45150000D01*
X2300000Y-45150000D01*
X2300000Y-34920000D01*
G36*
X2300000Y-34920000D02*
G01*
X11700000Y-34920000D01*
X11700000Y-45150000D01*
X2300000Y-45150000D01*
X2300000Y-34920000D01*
G37*
G04 #@! TO.C,U7*
X16300000Y-18920000D02*
X25700000Y-18920000D01*
X25700000Y-29150000D01*
X16300000Y-29150000D01*
X16300000Y-18920000D01*
G36*
X16300000Y-18920000D02*
G01*
X25700000Y-18920000D01*
X25700000Y-29150000D01*
X16300000Y-29150000D01*
X16300000Y-18920000D01*
G37*
G04 #@! TO.C,U15*
X58300000Y-34920000D02*
X67700000Y-34920000D01*
X67700000Y-45150000D01*
X58300000Y-45150000D01*
X58300000Y-34920000D01*
G36*
X58300000Y-34920000D02*
G01*
X67700000Y-34920000D01*
X67700000Y-45150000D01*
X58300000Y-45150000D01*
X58300000Y-34920000D01*
G37*
G04 #@! TO.C,U9*
X44300000Y-18920000D02*
X53700000Y-18920000D01*
X53700000Y-29150000D01*
X44300000Y-29150000D01*
X44300000Y-18920000D01*
G36*
X44300000Y-18920000D02*
G01*
X53700000Y-18920000D01*
X53700000Y-29150000D01*
X44300000Y-29150000D01*
X44300000Y-18920000D01*
G37*
G04 #@! TO.C,U17*
X16300000Y-50920000D02*
X25700000Y-50920000D01*
X25700000Y-61150000D01*
X16300000Y-61150000D01*
X16300000Y-50920000D01*
G36*
X16300000Y-50920000D02*
G01*
X25700000Y-50920000D01*
X25700000Y-61150000D01*
X16300000Y-61150000D01*
X16300000Y-50920000D01*
G37*
G04 #@! TO.C,U1*
X2300000Y-2920000D02*
X11700000Y-2920000D01*
X11700000Y-13150000D01*
X2300000Y-13150000D01*
X2300000Y-2920000D01*
G36*
X2300000Y-2920000D02*
G01*
X11700000Y-2920000D01*
X11700000Y-13150000D01*
X2300000Y-13150000D01*
X2300000Y-2920000D01*
G37*
G04 #@! TO.C,U19*
X44300000Y-50920000D02*
X53700000Y-50920000D01*
X53700000Y-61150000D01*
X44300000Y-61150000D01*
X44300000Y-50920000D01*
G36*
X44300000Y-50920000D02*
G01*
X53700000Y-50920000D01*
X53700000Y-61150000D01*
X44300000Y-61150000D01*
X44300000Y-50920000D01*
G37*
G04 #@! TO.C,U18*
X30300000Y-50920000D02*
X39700000Y-50920000D01*
X39700000Y-61150000D01*
X30300000Y-61150000D01*
X30300000Y-50920000D01*
G36*
X30300000Y-50920000D02*
G01*
X39700000Y-50920000D01*
X39700000Y-61150000D01*
X30300000Y-61150000D01*
X30300000Y-50920000D01*
G37*
G04 #@! TO.C,U16*
X2300000Y-50920000D02*
X11700000Y-50920000D01*
X11700000Y-61150000D01*
X2300000Y-61150000D01*
X2300000Y-50920000D01*
G36*
X2300000Y-50920000D02*
G01*
X11700000Y-50920000D01*
X11700000Y-61150000D01*
X2300000Y-61150000D01*
X2300000Y-50920000D01*
G37*
G04 #@! TO.C,U6*
X2300000Y-18920000D02*
X11700000Y-18920000D01*
X11700000Y-29150000D01*
X2300000Y-29150000D01*
X2300000Y-18920000D01*
G36*
X2300000Y-18920000D02*
G01*
X11700000Y-18920000D01*
X11700000Y-29150000D01*
X2300000Y-29150000D01*
X2300000Y-18920000D01*
G37*
G04 #@! TO.C,U20*
X58300000Y-50920000D02*
X67700000Y-50920000D01*
X67700000Y-61150000D01*
X58300000Y-61150000D01*
X58300000Y-50920000D01*
G36*
X58300000Y-50920000D02*
G01*
X67700000Y-50920000D01*
X67700000Y-61150000D01*
X58300000Y-61150000D01*
X58300000Y-50920000D01*
G37*
G04 #@! TO.C,U4*
X44300000Y-2920000D02*
X53700000Y-2920000D01*
X53700000Y-13150000D01*
X44300000Y-13150000D01*
X44300000Y-2920000D01*
G36*
X44300000Y-2920000D02*
G01*
X53700000Y-2920000D01*
X53700000Y-13150000D01*
X44300000Y-13150000D01*
X44300000Y-2920000D01*
G37*
G04 #@! TO.C,U5*
X58300000Y-2920000D02*
X67700000Y-2920000D01*
X67700000Y-13150000D01*
X58300000Y-13150000D01*
X58300000Y-2920000D01*
G36*
X58300000Y-2920000D02*
G01*
X67700000Y-2920000D01*
X67700000Y-13150000D01*
X58300000Y-13150000D01*
X58300000Y-2920000D01*
G37*
G04 #@! TO.C,U12*
X16300000Y-34920000D02*
X25700000Y-34920000D01*
X25700000Y-45150000D01*
X16300000Y-45150000D01*
X16300000Y-34920000D01*
G36*
X16300000Y-34920000D02*
G01*
X25700000Y-34920000D01*
X25700000Y-45150000D01*
X16300000Y-45150000D01*
X16300000Y-34920000D01*
G37*
G04 #@! TO.C,U14*
X44300000Y-34920000D02*
X53700000Y-34920000D01*
X53700000Y-45150000D01*
X44300000Y-45150000D01*
X44300000Y-34920000D01*
G36*
X44300000Y-34920000D02*
G01*
X53700000Y-34920000D01*
X53700000Y-45150000D01*
X44300000Y-45150000D01*
X44300000Y-34920000D01*
G37*
G04 #@! TO.C,U8*
X30300000Y-18920000D02*
X39700000Y-18920000D01*
X39700000Y-29150000D01*
X30300000Y-29150000D01*
X30300000Y-18920000D01*
G36*
X30300000Y-18920000D02*
G01*
X39700000Y-18920000D01*
X39700000Y-29150000D01*
X30300000Y-29150000D01*
X30300000Y-18920000D01*
G37*
G04 #@! TO.C,U13*
X30300000Y-34920000D02*
X39700000Y-34920000D01*
X39700000Y-45150000D01*
X30300000Y-45150000D01*
X30300000Y-34920000D01*
G36*
X30300000Y-34920000D02*
G01*
X39700000Y-34920000D01*
X39700000Y-45150000D01*
X30300000Y-45150000D01*
X30300000Y-34920000D01*
G37*
G04 #@! TD*
D13*
G04 #@! TO.C,U2*
X21000000Y-8050000D03*
D14*
X23500000Y-11150000D03*
X23500000Y-8050000D03*
X23500000Y-4950000D03*
X18500000Y-4950000D03*
X18500000Y-8050000D03*
X18500000Y-11150000D03*
G04 #@! TD*
D13*
G04 #@! TO.C,U10*
X63000000Y-24050000D03*
D14*
X65500000Y-27150000D03*
X65500000Y-24050000D03*
X65500000Y-20950000D03*
X60500000Y-20950000D03*
X60500000Y-24050000D03*
X60500000Y-27150000D03*
G04 #@! TD*
D13*
G04 #@! TO.C,U3*
X35000000Y-8050000D03*
D14*
X37500000Y-11150000D03*
X37500000Y-8050000D03*
X37500000Y-4950000D03*
X32500000Y-4950000D03*
X32500000Y-8050000D03*
X32500000Y-11150000D03*
G04 #@! TD*
D13*
G04 #@! TO.C,U11*
X7000000Y-40050000D03*
D14*
X9500000Y-43150000D03*
X9500000Y-40050000D03*
X9500000Y-36950000D03*
X4500000Y-36950000D03*
X4500000Y-40050000D03*
X4500000Y-43150000D03*
G04 #@! TD*
D13*
G04 #@! TO.C,U7*
X21000000Y-24050000D03*
D14*
X23500000Y-27150000D03*
X23500000Y-24050000D03*
X23500000Y-20950000D03*
X18500000Y-20950000D03*
X18500000Y-24050000D03*
X18500000Y-27150000D03*
G04 #@! TD*
D13*
G04 #@! TO.C,U15*
X63000000Y-40050000D03*
D14*
X65500000Y-43150000D03*
X65500000Y-40050000D03*
X65500000Y-36950000D03*
X60500000Y-36950000D03*
X60500000Y-40050000D03*
X60500000Y-43150000D03*
G04 #@! TD*
D13*
G04 #@! TO.C,U9*
X49000000Y-24050000D03*
D14*
X51500000Y-27150000D03*
X51500000Y-24050000D03*
X51500000Y-20950000D03*
X46500000Y-20950000D03*
X46500000Y-24050000D03*
X46500000Y-27150000D03*
G04 #@! TD*
D13*
G04 #@! TO.C,U17*
X21000000Y-56050000D03*
D14*
X23500000Y-59150000D03*
X23500000Y-56050000D03*
X23500000Y-52950000D03*
X18500000Y-52950000D03*
X18500000Y-56050000D03*
X18500000Y-59150000D03*
G04 #@! TD*
D13*
G04 #@! TO.C,U1*
X7000000Y-8050000D03*
D14*
X9500000Y-11150000D03*
X9500000Y-8050000D03*
X9500000Y-4950000D03*
X4500000Y-4950000D03*
X4500000Y-8050000D03*
X4500000Y-11150000D03*
G04 #@! TD*
D13*
G04 #@! TO.C,U19*
X49000000Y-56050000D03*
D14*
X51500000Y-59150000D03*
X51500000Y-56050000D03*
X51500000Y-52950000D03*
X46500000Y-52950000D03*
X46500000Y-56050000D03*
X46500000Y-59150000D03*
G04 #@! TD*
D13*
G04 #@! TO.C,U18*
X35000000Y-56050000D03*
D14*
X37500000Y-59150000D03*
X37500000Y-56050000D03*
X37500000Y-52950000D03*
X32500000Y-52950000D03*
X32500000Y-56050000D03*
X32500000Y-59150000D03*
G04 #@! TD*
D13*
G04 #@! TO.C,U16*
X7000000Y-56050000D03*
D14*
X9500000Y-59150000D03*
X9500000Y-56050000D03*
X9500000Y-52950000D03*
X4500000Y-52950000D03*
X4500000Y-56050000D03*
X4500000Y-59150000D03*
G04 #@! TD*
D13*
G04 #@! TO.C,U6*
X7000000Y-24050000D03*
D14*
X9500000Y-27150000D03*
X9500000Y-24050000D03*
X9500000Y-20950000D03*
X4500000Y-20950000D03*
X4500000Y-24050000D03*
X4500000Y-27150000D03*
G04 #@! TD*
D13*
G04 #@! TO.C,U20*
X63000000Y-56050000D03*
D14*
X65500000Y-59150000D03*
X65500000Y-56050000D03*
X65500000Y-52950000D03*
X60500000Y-52950000D03*
X60500000Y-56050000D03*
X60500000Y-59150000D03*
G04 #@! TD*
D13*
G04 #@! TO.C,U4*
X49000000Y-8050000D03*
D14*
X51500000Y-11150000D03*
X51500000Y-8050000D03*
X51500000Y-4950000D03*
X46500000Y-4950000D03*
X46500000Y-8050000D03*
X46500000Y-11150000D03*
G04 #@! TD*
D13*
G04 #@! TO.C,U5*
X63000000Y-8050000D03*
D14*
X65500000Y-11150000D03*
X65500000Y-8050000D03*
X65500000Y-4950000D03*
X60500000Y-4950000D03*
X60500000Y-8050000D03*
X60500000Y-11150000D03*
G04 #@! TD*
D13*
G04 #@! TO.C,U12*
X21000000Y-40050000D03*
D14*
X23500000Y-43150000D03*
X23500000Y-40050000D03*
X23500000Y-36950000D03*
X18500000Y-36950000D03*
X18500000Y-40050000D03*
X18500000Y-43150000D03*
G04 #@! TD*
D13*
G04 #@! TO.C,U14*
X49000000Y-40050000D03*
D14*
X51500000Y-43150000D03*
X51500000Y-40050000D03*
X51500000Y-36950000D03*
X46500000Y-36950000D03*
X46500000Y-40050000D03*
X46500000Y-43150000D03*
G04 #@! TD*
D13*
G04 #@! TO.C,U8*
X35000000Y-24050000D03*
D14*
X37500000Y-27150000D03*
X37500000Y-24050000D03*
X37500000Y-20950000D03*
X32500000Y-20950000D03*
X32500000Y-24050000D03*
X32500000Y-27150000D03*
G04 #@! TD*
D13*
G04 #@! TO.C,U13*
X35000000Y-40050000D03*
D14*
X37500000Y-43150000D03*
X37500000Y-40050000D03*
X37500000Y-36950000D03*
X32500000Y-36950000D03*
X32500000Y-40050000D03*
X32500000Y-43150000D03*
G04 #@! TD*
%LPD*%
M02*
